<?xml version="1.0" encoding="utf-8"?>
<!-- Generator: Adobe Illustrator 16.0.0, SVG Export Plug-In . SVG Version: 6.00 Build 0)  -->
<!DOCTYPE svg PUBLIC "-//W3C//DTD SVG 1.1//EN" "http://www.w3.org/Graphics/SVG/1.1/DTD/svg11.dtd">
<svg version="1.1" id="Layer_1" xmlns="http://www.w3.org/2000/svg" xmlns:xlink="http://www.w3.org/1999/xlink" x="0px" y="0px"
	 width="545.5px" height="440.278px" viewBox="0 0 545.5 440.278" enable-background="new 0 0 545.5 440.278" xml:space="preserve">
<path fill="none" stroke="#E04A45" stroke-width="2" stroke-miterlimit="10" d="M200.736,109.45
	c19.329-126.877,358.646-161.82,340.487,42.36c-6.901,77.535-116.454,104.496-194.999,97.412
	c-4.257,5.406-9.455,10.898-12.303,14.291c-9.826,11.697-19.382,23.725-27.771,36.166c-4.422-19.066,0.64-37.891,4.558-56.609
	C263.378,229.931,188.902,187.161,200.736,109.45z"/>
<path fill="none" stroke="#E04A45" stroke-miterlimit="10" d="M255.607,137.633C241.44,44.602-7.366,18.981,5.954,168.687
	c5.051,56.855,85.387,76.627,142.978,71.43c3.117,3.969,6.929,7.99,9.023,10.477c7.204,8.578,14.21,17.395,20.359,26.523
	c3.23-13.984-0.47-27.781-3.342-41.512C209.674,225.978,264.282,194.617,255.607,137.633z"/>
<path fill="none" stroke="#E04A45" stroke-width="4" stroke-miterlimit="10" d="M101.604,239.257
	c19.635-128.937,364.469-164.446,346.008,43.041c-7,78.799-118.343,106.201-198.161,98.998c-4.319,5.502-9.602,11.074-12.506,14.52
	c-9.983,11.889-19.693,24.109-28.216,36.76c-4.478-19.381,0.65-38.502,4.631-57.531C165.267,361.701,89.582,318.234,101.604,239.257
	z"/>
</svg>
