<?xml version="1.0" encoding="utf-8"?>
<!-- Generator: Adobe Illustrator 15.0.0, SVG Export Plug-In . SVG Version: 6.00 Build 0)  -->
<!DOCTYPE svg PUBLIC "-//W3C//DTD SVG 1.1//EN" "http://www.w3.org/Graphics/SVG/1.1/DTD/svg11.dtd">
<svg version="1.1" id="Layer_1" xmlns="http://www.w3.org/2000/svg" xmlns:xlink="http://www.w3.org/1999/xlink" x="0px" y="0px"
	 width="25.001px" height="28px" viewBox="0 0 25.001 28" enable-background="new 0 0 25.001 28" xml:space="preserve">
<path fill="#FFFFFF" d="M22.985,2.998h-0.981V2.006C22.003,0.898,21.104,0,19.996,0c-1.104,0-2.004,0.898-2.004,2.006v0.992H7.012
	V2.006C7.012,0.898,6.112,0,5.007,0C3.9,0,3.003,0.898,3.003,2.006v0.992H1.994C0.897,3.006,0,3.905,0,5.006v4.496v5.989v6v6
	C0,27.771,0.229,28,0.507,28h6.002h6.001h5.988h5.998c0.278,0,0.506-0.229,0.506-0.509v-6v-6V9.502V5.006
	C25.001,3.905,24.107,3.006,22.985,2.998 M12.002,14.983H7.016v-4.975h4.986V14.983z M17.992,14.983h-4.976v-4.975h4.976V14.983z
	 M23.988,14.983h-4.982v-4.975h4.982V14.983z M6.001,14.983H1.015v-4.975h4.986V14.983z M1.015,15.998h4.986v4.985H1.015V15.998z
	 M7.017,15.998h4.986v4.985H7.017V15.998z M13.015,15.998h4.976v4.985h-4.976V15.998z M19.005,15.998h4.982v4.985h-4.982V15.998z
	 M19.005,2.006c0-0.547,0.444-0.991,0.99-0.991c0.547,0,0.989,0.444,0.989,0.991v1.499v1.501c0,0.547-0.442,0.991-0.989,0.991
	c-0.546,0-0.99-0.444-0.99-0.991V3.505V2.006z M4.016,2.006c0-0.547,0.442-0.991,0.991-0.991c0.547,0,0.989,0.444,0.989,0.991v1.499
	v1.501c0,0.547-0.442,0.991-0.989,0.991c-0.549,0-0.991-0.444-0.991-0.991V3.505V2.006z M1.015,5.006
	c0-0.544,0.443-0.989,1.004-0.994h0.984v0.994c0,1.105,0.897,2.005,2.004,2.005c1.105,0,2.005-0.899,2.005-2.005V4.012h10.98v0.994
	c0,1.105,0.899,2.005,2.004,2.005c1.108,0,2.008-0.899,2.008-2.005V4.012h0.998c0.545,0.005,0.986,0.45,0.986,0.994v3.989h-5.41
	h-0.08h-0.076H12.59h-0.08h-0.077H6.509H1.015V5.006z M1.015,21.999h4.986v4.984H1.015V21.999z M7.017,21.999h4.986v4.984H7.017
	V21.999z M13.015,21.999h4.976v4.984h-4.976V21.999z M23.988,26.983h-4.982v-4.984h4.982V26.983z"/>
</svg>
