<?xml version="1.0" encoding="utf-8"?>
<!-- Generator: Adobe Illustrator 16.0.0, SVG Export Plug-In . SVG Version: 6.00 Build 0)  -->
<!DOCTYPE svg PUBLIC "-//W3C//DTD SVG 1.1//EN" "http://www.w3.org/Graphics/SVG/1.1/DTD/svg11.dtd">
<svg version="1.1" id="Layer_1" xmlns="http://www.w3.org/2000/svg" xmlns:xlink="http://www.w3.org/1999/xlink" x="0px" y="0px"
	 width="353.667px" height="252px" viewBox="0 0 353.667 252" enable-background="new 0 0 353.667 252" xml:space="preserve">
<g>
	<path fill="none" stroke="#E04A45" stroke-miterlimit="10" d="M351.858,79.481c-3.779-2.895-6.414-6.891-10.051-9.668
		c-4.416-3.369-8.982-5.371-13.418-9.248c-6.348-5.518-12.348-12.338-18.996-16.963c-7.748-5.387-14.639-12.816-21.959-19.949
		c-6.441-6.254-14.168-9.314-20.018-16.15c-5.77-6.744-4.928,0.596-3.803,8.094c4.688,30.973,7.324,62.186,12.893,92.967
		c10.393-5.359,21.393-8.324,32.158-12.598c3.553-1.416,7.016-3.104,10.627-4.258c4.742-1.516,9.088-4.357,13.941-5.582
		c4.227-1.053,8.254-2.787,12.41-4.086c2.143-0.664,3.863-2.371,5.92-2.904"/>
	<path fill="none" stroke="#E04A45" stroke-miterlimit="10" d="M21.839,80.38c-0.648,3.467-2.406,6.545-3.025,9.877
		c-0.75,4.045-0.545,7.732-1.621,11.961c-1.521,6.039-4.023,12.285-4.854,18.229c-0.967,6.92-3.572,13.961-5.836,21.184
		c-1.979,6.35-1.414,12.48-3.975,18.631c-2.525,6.07,2.043,3.059,6.621-0.193c18.898-13.461,38.641-25.646,57.119-39.625
		c-7.02-5.074-12.658-11.352-19.086-17.035c-2.123-1.875-4.396-3.598-6.367-5.598c-2.59-2.627-5.92-4.547-8.354-7.346
		c-2.109-2.439-4.604-4.521-6.852-6.834c-1.156-1.193-2.859-1.758-3.9-2.939"/>
	<path fill="#E04A45" d="M84.538,184.177c9.326-1.605,19.957-0.527,28.932-2.084c10.893-1.887,19.08-5.471,31.049-6.85
		c17.045-1.969,36.484-2.045,51.957-5.396c18.016-3.898,39.537-4.445,60.793-5.871c18.676-1.26,31.844-7.715,51.189-7.588
		c19.102,0.123,3.104-6.969-13.471-13.85c-68.508-28.447-135.689-59.766-204.561-86.871c1.99,19.23-1.539,36.566-2.121,55.07
		c-0.191,6.109,0.275,12.4-0.514,18.295c-1.037,7.734,1.061,16.443-0.684,23.988c-1.512,6.566-1.465,13.658-2.443,20.379
		c-0.492,3.48,1.543,7.572,0.848,10.795"/>
	<path fill="none" stroke="#E04A45" stroke-miterlimit="10" d="M273.106,221.771c-3.51-1.363-5.91-3.521-9.291-4.832
		c-4.102-1.594-8.371-2.344-12.49-4.236c-5.871-2.701-11.4-6.219-17.586-8.342c-7.207-2.479-13.566-6.281-20.334-9.85
		c-5.953-3.143-13.193-4.207-18.57-7.752c-5.314-3.502-4.684,0.867-3.773,5.301c3.75,18.316,5.561,36.986,10.152,55.096
		c9.947-4.322,20.412-7.248,30.693-10.951c3.385-1.221,6.697-2.602,10.141-3.67c4.518-1.406,8.691-3.578,13.309-4.818
		c4.012-1.072,7.867-2.543,11.822-3.752c2.039-0.623,3.705-1.836,5.658-2.373"/>
	<path fill="none" stroke="#E04A45" stroke-miterlimit="10" d="M212.655,62.509c-1.855-0.721-3.125-1.861-4.912-2.555
		c-2.168-0.842-4.424-1.238-6.604-2.238c-3.104-1.428-6.025-3.287-9.297-4.41c-3.809-1.311-7.172-3.32-10.75-5.207
		c-3.146-1.66-6.973-2.225-9.816-4.1c-2.811-1.85-2.477,0.459-1.994,2.805c1.982,9.684,2.939,19.553,5.365,29.125
		c5.26-2.283,10.793-3.832,16.229-5.789c1.789-0.645,3.539-1.375,5.361-1.939c2.387-0.744,4.594-1.893,7.035-2.547
		c2.119-0.568,4.158-1.344,6.25-1.984c1.078-0.33,1.959-0.971,2.99-1.254"/>
	<path fill="none" stroke="#E04A45" stroke-miterlimit="10" d="M260.333,84.927c-0.191-1.227,0.031-2.287-0.152-3.469
		c-0.227-1.436-0.719-2.771-0.859-4.264c-0.201-2.133-0.105-4.312-0.521-6.426c-0.486-2.467-0.449-4.932-0.545-7.469
		c-0.086-2.232-0.986-4.455-0.855-6.598c0.123-2.115-1.033-1.16-2.166-0.113c-4.67,4.322-9.764,8.166-14.232,12.682
		c2.908,2.025,5.498,4.439,8.285,6.668c0.916,0.732,1.867,1.416,2.754,2.189c1.156,1.02,2.482,1.801,3.611,2.879
		c0.982,0.934,2.045,1.754,3.059,2.648c0.52,0.463,1.148,0.715,1.631,1.162"/>
	<path fill="none" stroke="#E04A45" stroke-miterlimit="10" d="M297.755,211.315c-0.658,1.055-1.521,1.709-2.158,2.723
		c-0.77,1.23-1.27,2.564-2.143,3.783c-1.246,1.742-2.744,3.328-3.814,5.197c-1.25,2.182-2.895,4.02-4.482,5.998
		c-1.396,1.744-2.174,4.014-3.676,5.547c-1.48,1.518,0.02,1.553,1.561,1.504c6.361-0.207,12.727,0.229,19.064-0.258
		c-0.873-3.434-1.248-6.955-1.895-10.465c-0.211-1.154-0.48-2.293-0.645-3.457c-0.207-1.529-0.697-2.988-0.844-4.543
		c-0.129-1.35-0.395-2.666-0.574-4.004c-0.09-0.689-0.4-1.291-0.471-1.947"/>
	<path fill="none" stroke="#E04A45" stroke-miterlimit="10" d="M204.472,228.862c-1.186-1.734-1.613-3.512-2.752-5.182
		c-1.389-2.023-3.111-3.699-4.408-5.877c-1.855-3.104-3.295-6.496-5.465-9.418c-2.533-3.408-4.268-7.195-6.256-10.994
		c-1.756-3.342-4.74-6.078-6.1-9.441c-1.348-3.314-2.418-1.016-3.385,1.402c-3.979,9.984-8.957,19.545-12.49,29.682
		c5.906,0.973,11.609,2.773,17.48,4.145c1.928,0.453,3.873,0.805,5.787,1.342c2.508,0.713,5.096,0.939,7.602,1.764
		c2.176,0.713,4.393,1.191,6.588,1.818c1.129,0.328,2.268,0.256,3.33,0.588"/>
</g>
</svg>
