<?xml version="1.0" encoding="utf-8"?>
<!-- Generator: Adobe Illustrator 16.0.0, SVG Export Plug-In . SVG Version: 6.00 Build 0)  -->
<!DOCTYPE svg PUBLIC "-//W3C//DTD SVG 1.1//EN" "http://www.w3.org/Graphics/SVG/1.1/DTD/svg11.dtd">
<svg version="1.1" id="Layer_1" xmlns="http://www.w3.org/2000/svg" xmlns:xlink="http://www.w3.org/1999/xlink" x="0px" y="0px"
	 width="280.75px" height="255.5px" viewBox="0 0 280.75 255.5" enable-background="new 0 0 280.75 255.5" xml:space="preserve">
<g>
	<path fill="#E04A45" d="M258.183,56.039c-9.205,2.193-17.254,1.156-26.115,3.271c-10.756,2.564-20.658,7.109-31.879,9.082
		c-16,2.795-32.457,3.416-48.279,7.855c-18.445,5.168-37.023,6.387-56.117,8.668C78.995,86.919,62.507,95.058,46.323,95.4
		c-15.994,0.35-8.447,8.484-0.234,16.354c33.908,32.524,64.311,68.545,99.666,99.44c14.402-23.141,31.863-44.137,47.836-66.477
		c5.26-7.355,10.137-14.94,15.734-22.071c7.332-9.355,12.861-19.809,20.637-28.963c6.768-7.949,12.643-16.496,19.096-24.641
		c3.326-4.205,5.039-9.094,8.312-12.99"/>
	<path fill="none" stroke="#E54A25" stroke-miterlimit="10" d="M5.728,144.846c1.779,1.506,2.973,3.525,4.684,4.971
		c2.08,1.756,4.266,2.846,6.342,4.85c2.973,2.852,5.744,6.334,8.885,8.758c3.66,2.822,6.854,6.623,10.264,10.289
		c3,3.215,6.707,4.898,9.402,8.385c2.66,3.439,2.426-0.172,2.057-3.869c-1.545-15.266-2.082-30.6-4.064-45.795
		c-5.215,2.371-10.668,3.557-16.039,5.389c-1.771,0.605-3.506,1.35-5.301,1.826c-2.357,0.627-4.551,1.912-6.957,2.395
		c-2.092,0.414-4.104,1.164-6.17,1.699c-1.064,0.273-1.947,1.066-2.965,1.279"/>
	<path fill="none" stroke="#E54A25" stroke-miterlimit="10" d="M227.265,149.482c-1.785,4.236-5.008,8.307-6.721,12.389
		c-2.078,4.951-2.754,9.242-5.322,14.5c-3.656,7.494-8.713,15.471-11.391,22.682c-3.119,8.395-8.529,17.348-13.508,26.422
		c-4.373,7.973-5.178,15.053-10.293,22.939c-5.051,7.785,2.039,3.094,9.193-1.891c29.576-20.596,59.98-39.898,89.102-60.994
		c-8.393-4.219-14.564-10.201-21.986-15.283c-2.451-1.678-5.148-3.133-7.355-4.998c-2.895-2.449-7.008-3.871-9.641-6.559
		c-2.291-2.338-5.205-4.174-7.701-6.334c-1.295-1.113-3.504-1.352-4.639-2.479"/>
	<path fill="none" stroke="#E54A25" stroke-miterlimit="10" d="M244.011,109.984c0.846,1.002,1.225,2.078,2.037,3.043
		c0.99,1.166,2.166,2.098,3.109,3.365c1.348,1.811,2.457,3.824,3.99,5.5c1.789,1.955,3.105,4.195,4.582,6.428
		c1.301,1.961,3.328,3.471,4.385,5.473c1.047,1.971,1.564,0.477,2.01-1.084c1.836-6.452,4.32-12.702,5.869-19.219
		c-3.727-0.229-7.381-0.982-11.113-1.461c-1.225-0.16-2.455-0.256-3.678-0.467c-1.6-0.283-3.221-0.26-4.828-0.611
		c-1.396-0.305-2.803-0.461-4.205-0.711c-0.721-0.133-1.426-0.014-2.105-0.154"/>
	<path fill="none" stroke="#E54A25" stroke-miterlimit="10" d="M2.425,2.947C5.062,6.07,6.247,9.429,8.78,12.435
		c3.088,3.645,6.758,6.549,9.701,10.504c4.205,5.646,7.666,11.93,12.445,17.156c5.58,6.1,9.688,13.09,14.291,20.049
		c4.059,6.123,10.381,10.83,13.68,17.072c3.268,6.15,4.883,1.492,6.275-3.383c5.727-20.123,13.471-39.619,18.305-59.945
		c-11.629-0.715-23.025-3.07-34.668-4.564c-3.82-0.496-7.658-0.793-11.469-1.451C32.345,6.988,27.288,7.06,22.272,5.964
		C17.919,5.011,13.53,4.525,9.157,3.75c-2.25-0.414-4.443-0.047-6.566-0.482"/>
	<path fill="none" stroke="#E54A25" stroke-miterlimit="10" d="M101.749,48.451c0.529,0.625,0.768,1.299,1.275,1.902
		c0.619,0.729,1.354,1.311,1.943,2.104c0.844,1.133,1.537,2.393,2.494,3.439c1.119,1.223,1.943,2.625,2.865,4.02
		c0.814,1.227,2.082,2.172,2.742,3.422c0.656,1.232,0.979,0.299,1.258-0.678c1.148-4.033,2.701-7.941,3.67-12.016
		c-2.332-0.145-4.617-0.615-6.949-0.916c-0.766-0.1-1.535-0.158-2.299-0.291c-1.002-0.176-2.016-0.162-3.02-0.383
		c-0.873-0.189-1.754-0.287-2.629-0.443c-0.453-0.082-0.893-0.01-1.318-0.096"/>
</g>
</svg>
