<?xml version="1.0" encoding="utf-8"?>
<!-- Generator: Adobe Illustrator 16.0.0, SVG Export Plug-In . SVG Version: 6.00 Build 0)  -->
<!DOCTYPE svg PUBLIC "-//W3C//DTD SVG 1.1//EN" "http://www.w3.org/Graphics/SVG/1.1/DTD/svg11.dtd">
<svg version="1.1" id="Layer_1" xmlns="http://www.w3.org/2000/svg" xmlns:xlink="http://www.w3.org/1999/xlink" x="0px" y="0px"
	 width="38.667px" height="38.667px" viewBox="0 0 38.667 38.667" enable-background="new 0 0 38.667 38.667" xml:space="preserve">
<g>
	<defs>
		<rect id="SVGID_40_" x="-809.001" y="-3849.641" width="1380.138" height="4002.641"/>
	</defs>
	<clipPath id="SVGID_2_">
		<use xlink:href="#SVGID_40_"  overflow="visible"/>
	</clipPath>
</g>
<g>
	<defs>
		<rect id="SVGID_49_" x="-809.001" y="-3849.641" width="1380.138" height="4002.641"/>
	</defs>
	<clipPath id="SVGID_4_">
		<use xlink:href="#SVGID_49_"  overflow="visible"/>
	</clipPath>
	<g opacity="0.75" clip-path="url(#SVGID_4_)">
		<g>
			<defs>
				<rect id="SVGID_51_" x="-1037.899" y="-2927.72" width="1947.198" height="3018.198"/>
			</defs>
			<clipPath id="SVGID_6_">
				<use xlink:href="#SVGID_51_"  overflow="visible"/>
			</clipPath>
			<g opacity="0.35" clip-path="url(#SVGID_6_)">
				<g>
					<defs>
						<rect id="SVGID_55_" x="-1037.899" y="-829.717" width="1785.198" height="920.195"/>
					</defs>
					<clipPath id="SVGID_7_">
						<use xlink:href="#SVGID_55_"  overflow="visible"/>
					</clipPath>
				</g>
			</g>
		</g>
	</g>
</g>
<g>
	<defs>
		<rect id="SVGID_59_" x="-809.001" y="-3849.641" width="1380.138" height="4002.641"/>
	</defs>
	<clipPath id="SVGID_8_">
		<use xlink:href="#SVGID_59_"  overflow="visible"/>
	</clipPath>
</g>
<g>
	<defs>
		<rect id="SVGID_61_" x="-809.001" y="-3849.641" width="1380.138" height="4002.641"/>
	</defs>
	<clipPath id="SVGID_9_">
		<use xlink:href="#SVGID_61_"  overflow="visible"/>
	</clipPath>
</g>
<g>
	<defs>
		<rect id="SVGID_63_" x="-809.001" y="-3849.641" width="1380.138" height="4002.641"/>
	</defs>
	<clipPath id="SVGID_11_">
		<use xlink:href="#SVGID_63_"  overflow="visible"/>
	</clipPath>
</g>
<g>
	<defs>
		<rect id="SVGID_69_" x="-809.001" y="-3849.641" width="1380.138" height="4002.641"/>
	</defs>
	<clipPath id="SVGID_13_">
		<use xlink:href="#SVGID_69_"  overflow="visible"/>
	</clipPath>
</g>
<g>
	<defs>
		<rect id="SVGID_73_" x="-809.001" y="-3849.641" width="1380.138" height="4002.641"/>
	</defs>
	<clipPath id="SVGID_15_">
		<use xlink:href="#SVGID_73_"  overflow="visible"/>
	</clipPath>
</g>
<g>
	<defs>
		<rect id="SVGID_75_" x="-809.001" y="-3849.641" width="1380.138" height="4002.641"/>
	</defs>
	<clipPath id="SVGID_17_">
		<use xlink:href="#SVGID_75_"  overflow="visible"/>
	</clipPath>
</g>
<g>
	<defs>
		<rect id="SVGID_81_" x="-809.001" y="-3849.641" width="1380.138" height="4002.641"/>
	</defs>
	<clipPath id="SVGID_19_">
		<use xlink:href="#SVGID_81_"  overflow="visible"/>
	</clipPath>
</g>
<g>
	<defs>
		<rect id="SVGID_85_" x="-809.001" y="-3849.641" width="1380.138" height="4002.641"/>
	</defs>
	<clipPath id="SVGID_21_">
		<use xlink:href="#SVGID_85_"  overflow="visible"/>
	</clipPath>
</g>
<g>
	<defs>
		<rect id="SVGID_87_" x="-809.001" y="-3849.641" width="1380.138" height="4002.641"/>
	</defs>
	<clipPath id="SVGID_23_">
		<use xlink:href="#SVGID_87_"  overflow="visible"/>
	</clipPath>
</g>
<g>
	<defs>
		<rect id="SVGID_89_" x="-809.001" y="-3849.641" width="1380.138" height="4002.641"/>
	</defs>
	<clipPath id="SVGID_25_">
		<use xlink:href="#SVGID_89_"  overflow="visible"/>
	</clipPath>
</g>
<g>
	<defs>
		<rect id="SVGID_91_" x="-809.001" y="-3849.641" width="1380.138" height="4002.641"/>
	</defs>
	<clipPath id="SVGID_27_">
		<use xlink:href="#SVGID_91_"  overflow="visible"/>
	</clipPath>
</g>
<g>
	<defs>
		<rect id="SVGID_93_" x="-809.001" y="-3849.641" width="1380.138" height="4002.641"/>
	</defs>
	<clipPath id="SVGID_29_">
		<use xlink:href="#SVGID_93_"  overflow="visible"/>
	</clipPath>
</g>
<g>
	<defs>
		<rect id="SVGID_97_" x="-809.001" y="-3849.641" width="1380.138" height="4002.641"/>
	</defs>
	<clipPath id="SVGID_31_">
		<use xlink:href="#SVGID_97_"  overflow="visible"/>
	</clipPath>
</g>
<g>
	<defs>
		<rect id="SVGID_101_" x="-809.001" y="-3849.641" width="1380.138" height="4002.641"/>
	</defs>
	<clipPath id="SVGID_33_">
		<use xlink:href="#SVGID_101_"  overflow="visible"/>
	</clipPath>
</g>
<g>
	<defs>
		<rect id="SVGID_105_" x="-809.001" y="-3849.641" width="1380.138" height="4002.641"/>
	</defs>
	<clipPath id="SVGID_35_">
		<use xlink:href="#SVGID_105_"  overflow="visible"/>
	</clipPath>
</g>
<g>
	<defs>
		<rect id="SVGID_111_" x="-809.001" y="-3849.641" width="1380.138" height="4002.641"/>
	</defs>
	<clipPath id="SVGID_37_">
		<use xlink:href="#SVGID_111_"  overflow="visible"/>
	</clipPath>
</g>
<g>
	<defs>
		<rect id="SVGID_115_" x="-809.001" y="-3849.641" width="1380.138" height="4002.641"/>
	</defs>
	<clipPath id="SVGID_39_">
		<use xlink:href="#SVGID_115_"  overflow="visible"/>
	</clipPath>
</g>
<g>
	<defs>
		<rect id="SVGID_117_" x="-809.001" y="-3849.641" width="1380.138" height="4002.641"/>
	</defs>
	<clipPath id="SVGID_41_">
		<use xlink:href="#SVGID_117_"  overflow="visible"/>
	</clipPath>
</g>
<g>
	<defs>
		<rect id="SVGID_119_" x="-809.001" y="-3849.641" width="1380.138" height="4002.641"/>
	</defs>
	<clipPath id="SVGID_43_">
		<use xlink:href="#SVGID_119_"  overflow="visible"/>
	</clipPath>
</g>
<g>
	<defs>
		<rect id="SVGID_121_" x="-809.001" y="-3849.641" width="1380.138" height="4002.641"/>
	</defs>
	<clipPath id="SVGID_45_">
		<use xlink:href="#SVGID_121_"  overflow="visible"/>
	</clipPath>
</g>
<g>
	<defs>
		<rect id="SVGID_123_" x="-809.001" y="-3849.641" width="1380.138" height="4002.641"/>
	</defs>
	<clipPath id="SVGID_46_">
		<use xlink:href="#SVGID_123_"  overflow="visible"/>
	</clipPath>
	<path clip-path="url(#SVGID_46_)" fill="#F2F2F2" d="M36.712,7.88c0-3.064-2.767-5.833-5.833-5.833H7.545
		c-3.067,0-5.833,2.769-5.833,5.833v23.333c0,3.065,2.766,5.834,5.833,5.834h11.667V23.825h-4.278v-5.833h4.278v-2.273
		c0-3.92,2.942-7.45,6.562-7.45h4.715v5.834h-4.715c-0.516,0-1.118,0.627-1.118,1.565v2.324h5.833v5.833h-5.833v13.222h6.224
		c3.066,0,5.833-2.769,5.833-5.834V7.88z"/>
</g>
<g>
	<defs>
		<rect id="SVGID_125_" x="-809.001" y="-3849.641" width="1380.138" height="4002.641"/>
	</defs>
	<clipPath id="SVGID_47_">
		<use xlink:href="#SVGID_125_"  overflow="visible"/>
	</clipPath>
</g>
<rect x="-809.001" y="-3849.64" fill="none" width="1380.14" height="4002.64"/>
</svg>
