<?xml version="1.0" encoding="utf-8"?>
<!-- Generator: Adobe Illustrator 16.0.0, SVG Export Plug-In . SVG Version: 6.00 Build 0)  -->
<!DOCTYPE svg PUBLIC "-//W3C//DTD SVG 1.1//EN" "http://www.w3.org/Graphics/SVG/1.1/DTD/svg11.dtd">
<svg version="1.1" id="Layer_1" xmlns="http://www.w3.org/2000/svg" xmlns:xlink="http://www.w3.org/1999/xlink" x="0px" y="0px"
	 width="174px" height="158.416px" viewBox="0 0 174 158.416" enable-background="new 0 0 174 158.416" xml:space="preserve">
<path fill="none" stroke="#FFFFFF" stroke-width="2" stroke-linecap="round" stroke-linejoin="round" stroke-miterlimit="10" d="
	M2.041,16.903c6.358,2.992,13.459,3.291,19.582,6.187c7.432,3.515,13.119,8.492,21.254,11.61
	c11.573,4.441,24.664,7.183,35.252,12.896c12.324,6.647,26.846,10.18,41.229,14.611c12.638,3.904,21.832,12.648,34.849,15.154
	c12.854,2.471,2.448,7.917-8.363,13.062c-44.672,21.27-88.305,45.807-133.285,65.581c0.359-20.423-2.902-39.56-4.232-59.556
	c-0.449-6.6-0.451-13.303-1.281-19.758C5.947,68.229,6.92,59.138,5.358,50.782c-1.354-7.276-1.681-14.897-2.685-22.264
	c-0.504-3.816,0.656-7.941,0.021-11.5"/>
<path fill="none" stroke="#FFFFFF" stroke-width="2" stroke-linecap="round" stroke-linejoin="round" stroke-miterlimit="10" d="
	M10.908,1.832c6.481,2.942,13.739,3.164,19.973,6.017c7.568,3.454,13.357,8.38,21.644,11.42c11.795,4.347,25.152,6.963,35.938,12.59
	c12.551,6.541,27.363,9.944,42.027,14.245c12.896,3.789,22.229,12.469,35.514,14.848c13.115,2.354,2.447,7.926-8.629,13.186
	c-45.768,21.772-90.498,46.808-136.576,67.087c0.488-20.484-2.717-39.646-3.965-59.678c-0.405-6.617-0.373-13.347-1.176-19.805
	c-1.065-8.48-0.027-17.604-1.562-25.969c-1.337-7.28-1.63-14.923-2.604-22.302c-0.504-3.814,0.709-7.97,0.086-11.532"/>
</svg>
