<?xml version="1.0" encoding="utf-8"?>
<!-- Generator: Adobe Illustrator 16.0.0, SVG Export Plug-In . SVG Version: 6.00 Build 0)  -->
<!DOCTYPE svg PUBLIC "-//W3C//DTD SVG 1.1//EN" "http://www.w3.org/Graphics/SVG/1.1/DTD/svg11.dtd">
<svg version="1.1" id="Layer_1" xmlns="http://www.w3.org/2000/svg" xmlns:xlink="http://www.w3.org/1999/xlink" x="0px" y="0px"
	 width="179.526px" height="106px" viewBox="0 0 179.526 106" enable-background="new 0 0 179.526 106" xml:space="preserve">
<g>
	<defs>
		<rect id="SVGID_131_" x="307.72" y="1809.333" width="1380.139" height="1958"/>
	</defs>
	<clipPath id="SVGID_2_">
		<use xlink:href="#SVGID_131_"  overflow="visible"/>
	</clipPath>
	<g clip-path="url(#SVGID_2_)">
		<defs>
			<rect id="SVGID_133_" x="307.72" y="-67.308" width="1380.139" height="4002.641"/>
		</defs>
		<clipPath id="SVGID_4_">
			<use xlink:href="#SVGID_133_"  overflow="visible"/>
		</clipPath>
	</g>
</g>
<g>
	<path fill="none" stroke="#FFFFFF" stroke-width="2" stroke-miterlimit="10" d="M65.912,38.737
		c6.32-41.484,117.266-52.91,111.328,13.85c-2.256,25.352-38.076,34.166-63.758,31.85c-1.393,1.768-3.092,3.564-4.023,4.674
		c-3.213,3.824-6.336,7.756-9.08,11.824c-1.445-6.234,0.211-12.389,1.49-18.51C86.393,78.13,62.043,64.146,65.912,38.737z"/>
	<path fill="none" stroke="#FFFFFF" stroke-width="2" stroke-miterlimit="10" d="M83.854,47.95
		C79.221,17.532-2.129,9.155,2.225,58.104c1.652,18.59,27.92,25.055,46.75,23.355c1.02,1.299,2.266,2.613,2.949,3.426
		c2.357,2.805,4.646,5.688,6.658,8.672c1.055-4.572-0.154-9.084-1.094-13.572C68.834,76.837,86.689,66.583,83.854,47.95z"/>
	<path fill="none" stroke="#FFFFFF" stroke-width="2" stroke-miterlimit="10" d="M34.205,61.12l0.139,1.16l0.119,0.539
		c0.311,0.623,0.746,0.902,1.301,0.836l0.475-0.057l0.055-0.064l-0.148-1.227c-0.027-0.236-0.068-0.398-0.119-0.48
		c-0.275-0.623-0.699-0.9-1.27-0.832l-0.504,0.061L34.205,61.12z M30.242,49.241l0.049,0.396l0.113,0.516
		c0.283,0.584,0.688,0.844,1.211,0.781l1.828-0.217l0.857-0.037c0.914,0.166,1.43,0.752,1.551,1.764l0.047,0.398l0.029,0.678
		c-0.152,0.986-0.678,1.533-1.582,1.643c-0.559,0.252-0.803,0.672-0.732,1.264l0.287,2.41l0.105,0.418
		c0.33,0.682,0.805,0.986,1.426,0.912l0.369-0.045l0.045-0.064l-0.373-3.115c0.445-0.141,0.881-0.41,1.309-0.803
		c0.748-0.883,1.062-1.83,0.941-2.834l-0.174-1.465c-0.035-0.307-0.141-0.686-0.309-1.143c-0.744-1.479-1.887-2.127-3.426-1.941
		l-3.525,0.42L30.242,49.241z"/>
	<path fill="none" stroke="#FFFFFF" stroke-width="2" stroke-miterlimit="10" d="M44.129,59.935l0.141,1.16l0.117,0.541
		c0.312,0.623,0.748,0.902,1.303,0.836l0.473-0.057l0.057-0.066l-0.148-1.227c-0.027-0.236-0.068-0.396-0.119-0.48
		c-0.275-0.623-0.699-0.898-1.27-0.832l-0.506,0.061L44.129,59.935z M40.168,48.056l0.049,0.398l0.113,0.514
		c0.283,0.584,0.686,0.844,1.211,0.781l1.828-0.217l0.857-0.035c0.914,0.164,1.43,0.752,1.551,1.764l0.047,0.398l0.027,0.676
		c-0.15,0.988-0.676,1.535-1.58,1.643c-0.561,0.252-0.803,0.674-0.732,1.266l0.287,2.41l0.105,0.416
		c0.328,0.682,0.805,0.986,1.426,0.912l0.369-0.043l0.045-0.064l-0.373-3.115c0.445-0.141,0.881-0.412,1.309-0.803
		c0.748-0.885,1.062-1.83,0.941-2.836l-0.174-1.465c-0.037-0.305-0.141-0.684-0.309-1.143c-0.744-1.477-1.887-2.127-3.426-1.941
		l-3.525,0.42L40.168,48.056z"/>
	<path fill="none" stroke="#FFFFFF" stroke-width="2" stroke-miterlimit="10" d="M54.055,58.749l0.141,1.16l0.117,0.541
		c0.312,0.623,0.748,0.902,1.303,0.836l0.473-0.057l0.057-0.066l-0.148-1.225c-0.027-0.238-0.068-0.398-0.119-0.48
		c-0.275-0.625-0.699-0.9-1.27-0.832l-0.506,0.061L54.055,58.749z M50.094,46.872l0.049,0.396l0.113,0.516
		c0.281,0.584,0.686,0.844,1.211,0.781l1.828-0.219l0.857-0.035c0.914,0.166,1.43,0.752,1.551,1.764l0.047,0.398l0.027,0.676
		c-0.15,0.988-0.678,1.535-1.58,1.643c-0.561,0.252-0.803,0.674-0.734,1.266l0.289,2.41l0.105,0.416
		c0.328,0.682,0.805,0.986,1.426,0.912l0.367-0.043l0.047-0.064l-0.373-3.115c0.445-0.141,0.879-0.41,1.309-0.803
		c0.748-0.883,1.062-1.83,0.941-2.834L57.4,49.47c-0.037-0.305-0.141-0.684-0.309-1.141c-0.744-1.479-1.887-2.127-3.428-1.943
		l-3.523,0.422L50.094,46.872z"/>
	<path fill="none" stroke="#FFFFFF" stroke-width="2" stroke-miterlimit="10" d="M116.822,53.333l0.186,1.576l0.158,0.699
		c0.389,0.902,1.008,1.305,1.859,1.203l0.57-0.068l0.074-0.088l-0.227-1.912l-0.15-0.531c-0.396-0.795-1.043-1.139-1.943-1.033
		l-0.467,0.057L116.822,53.333z M114.854,36.851l1.502,12.582l0.109,0.568c0.4,0.994,1.021,1.439,1.867,1.338l0.611-0.072l0.072-0.1
		l-1.523-12.771c-0.285-1.26-0.912-1.83-1.879-1.715l-0.697,0.084L114.854,36.851z"/>
	<path fill="none" stroke="#FFFFFF" stroke-width="2" stroke-miterlimit="10" d="M123.525,52.532l0.188,1.576l0.158,0.699
		c0.387,0.904,1.006,1.305,1.859,1.203l0.568-0.066l0.074-0.09l-0.229-1.91l-0.146-0.531c-0.396-0.797-1.045-1.141-1.945-1.035
		l-0.467,0.057L123.525,52.532z M121.557,36.05l1.502,12.582l0.109,0.568c0.402,0.994,1.021,1.439,1.867,1.34l0.611-0.074
		l0.072-0.098l-1.523-12.773c-0.285-1.258-0.91-1.83-1.879-1.715l-0.697,0.084L121.557,36.05z"/>
	<path fill="none" stroke="#FFFFFF" stroke-width="2" stroke-miterlimit="10" d="M130.23,51.733l0.186,1.574l0.158,0.699
		c0.389,0.904,1.008,1.307,1.859,1.203l0.57-0.066l0.074-0.09l-0.227-1.91l-0.15-0.531c-0.396-0.797-1.043-1.141-1.943-1.033
		l-0.467,0.055L130.23,51.733z M128.262,35.251l1.502,12.582l0.109,0.568c0.4,0.994,1.021,1.438,1.867,1.338l0.611-0.074
		l0.072-0.098L130.9,36.794c-0.285-1.258-0.91-1.83-1.879-1.713l-0.697,0.082L128.262,35.251z"/>
</g>
</svg>
