<?xml version="1.0" encoding="utf-8"?>
<!-- Generator: Adobe Illustrator 16.0.0, SVG Export Plug-In . SVG Version: 6.00 Build 0)  -->
<!DOCTYPE svg PUBLIC "-//W3C//DTD SVG 1.1//EN" "http://www.w3.org/Graphics/SVG/1.1/DTD/svg11.dtd">
<svg version="1.1" id="Layer_1" xmlns="http://www.w3.org/2000/svg" xmlns:xlink="http://www.w3.org/1999/xlink" x="0px" y="0px"
	 width="1136.325px" height="892px" viewBox="0 0 1136.325 892" enable-background="new 0 0 1136.325 892" xml:space="preserve">
<g>
	<path fill="#DF4944" d="M719.102,358.513c-12.319,2.934-23.09,1.547-34.949,4.378c-14.395,3.431-27.646,9.514-42.66,12.152
		c-21.413,3.741-43.438,4.571-64.611,10.513c-24.684,6.917-49.545,8.546-75.097,11.602c-22.477,2.682-44.544,13.57-66.201,14.03
		c-21.404,0.467-11.305,11.354-0.313,21.884c45.378,43.525,86.064,91.731,133.376,133.074
		c19.273-30.966,42.642-59.064,64.017-88.962c7.039-9.843,13.565-19.992,21.055-29.534c9.814-12.521,17.213-26.51,27.619-38.762
		c9.057-10.637,16.918-22.075,25.554-32.974c4.451-5.626,6.744-12.17,11.124-17.386"/>
	<path fill="none" stroke="#DF4944" stroke-miterlimit="10" d="M719.102,358.513c-12.319,2.934-23.09,1.547-34.949,4.378
		c-14.395,3.431-27.646,9.514-42.66,12.152c-21.413,3.741-43.438,4.571-64.611,10.513c-24.684,6.917-49.545,8.546-75.097,11.602
		c-22.477,2.682-44.544,13.57-66.201,14.03c-21.404,0.467-11.305,11.354-0.313,21.884c45.378,43.525,86.064,91.731,133.376,133.074
		c19.273-30.966,42.642-59.064,64.017-88.962c7.039-9.843,13.565-19.992,21.055-29.534c9.814-12.521,17.213-26.51,27.619-38.762
		c9.057-10.637,16.918-22.075,25.554-32.974c4.451-5.626,6.744-12.17,11.124-17.386"/>
	<path fill="none" stroke="#FFFFFF" stroke-width="2" stroke-miterlimit="10" d="M512.119,249.751
		c-3.87,2.498-5.829,7.066-7.742,10.919c-3.199,6.432-5.727,12.918-8.441,19.639c-8.108,20.065-5.048,42.343-2.378,63.422
		c1.392,10.994,4.108,21.889,6.594,32.778c1.043,4.56,1.145,8.918,2.172,13.42c1.278,5.59,4.505,9.145,7.422,13.864
		c5.258,8.501,9.049,17.889,14.002,26.48c2.114,3.663,3.688,8.05,6.414,11.288c2.624,3.127,7.5,5.876,10.726,8.167
		c6.696,4.763,9.658,8.781,17.292,12.522c6.865,3.362,19.009,1.343,24.333-3.581c2.37-2.192,9.435-10.916,11.658-13.614
		c4.292-5.2,7.128-14.265,9.314-20.605c1.325-3.843,2.504-7.369,3.171-11.354c0.573-3.425,0.975-7.425,1.761-10.806
		c1.983-8.537-1.738-17.035-1.418-25.524c0.642-17.028-5.284-34.039-7.508-50.868c-1.13-8.563-2.304-17.452-6.065-25.235
		c-3.637-7.531-9.21-13.637-12.854-20.968c-7.128-14.322-23.11-27.928-37.466-34.191c-5.684-2.479-11.128-4.138-17.048-3.68
		C522.557,242.095,515.399,247.633,512.119,249.751z"/>
	<path fill="none" stroke="#FFFFFF" stroke-width="2" stroke-miterlimit="10" d="M502.277,449.854
		c15.95-0.346,29.806-10.767,42.558-19.402c6.872-4.649,12.493-8.916,18.261-14.694c4.962-4.971,10.945-7.757,16.71-11.376
		c6.344-3.982,10.42-10.149,13.74-16.646c4.457-8.717,9.904-17.105,14.152-25.945c8.252-17.162,15.542-34.798,19.449-53.718
		c3.468-16.787,3.162-32.178-8.144-45.341c-5.681-6.618-14.342-9.236-23.714-7.034c-6.863,1.613-13.234,1.659-21.602,3.878
		c-8.269,2.189-15.787,9.564-23.162,13.661c-7.745,4.307-15.09,11.925-22.523,16.388c-8.875,5.329-12.98,12.685-18.168,21.559
		c-5.973,10.222-14.762,18.436-20.055,28.73c-9.425,18.331-20.989,35.856-19.464,57.579c0.41,5.899,1.235,9.372,0.926,15.315
		c-0.253,4.859-0.16,12.723,2.676,17.757C478.175,438.123,492.856,450.058,502.277,449.854z"/>
	<path fill="none" stroke="#FFFFFF" stroke-width="2" stroke-miterlimit="10" d="M451.212,305.778
		c-0.97,4.504,0.873,9.119,2.245,13.195c2.285,6.807,5.086,13.184,7.917,19.854c8.457,19.921,26.372,33.509,43.166,46.53
		c8.757,6.79,18.38,12.571,27.84,18.514c3.959,2.487,7.116,5.494,11.026,7.951c4.856,3.049,9.652,3.285,15.053,4.557
		c9.73,2.294,19.047,6.251,28.624,8.822c4.085,1.099,8.301,3.087,12.52,3.451c4.063,0.352,9.453-1.15,13.357-1.812
		c8.104-1.367,13.038-0.616,21.083-3.37c7.229-2.476,14.39-12.494,14.671-19.737c0.125-3.23-1.046-14.393-1.382-17.874
		c-0.642-6.712-5.043-15.126-7.981-21.156c-1.782-3.657-3.441-6.981-5.788-10.271c-2.018-2.824-4.558-5.94-6.396-8.887
		c-4.632-7.436-13.273-10.815-19.05-17.044c-11.589-12.493-27.809-20.334-41.277-30.662c-6.858-5.255-13.97-10.708-22.134-13.556
		c-7.899-2.752-16.156-3.132-23.919-5.732c-15.163-5.087-36.085-3.409-50.666,2.312c-5.774,2.265-10.797,4.944-14.657,9.451
		C453.174,292.982,452.036,301.958,451.212,305.778z"/>
	<path fill="none" stroke="#FFFFFF" stroke-width="2" stroke-miterlimit="10" d="M451.13,399.859
		c12.703,9.649,30.029,10.109,45.391,11.279c8.272,0.633,15.329,0.789,23.438-0.148c6.976-0.803,13.396,0.734,20.159,1.484
		c7.446,0.828,14.471-1.467,21.112-4.486c8.912-4.053,18.395-7.235,27.22-11.515c17.135-8.311,33.814-17.58,48.641-29.963
		c13.153-10.991,22.49-23.232,21.825-40.569c-0.332-8.717-5.482-16.154-14.197-20.259c-6.373-3.005-11.39-6.934-19.324-10.4
		c-7.835-3.427-18.308-2.329-26.629-3.71c-8.743-1.443-19.236-0.046-27.831-1.175c-10.264-1.346-18.055,1.856-27.637,5.581
		c-11.035,4.289-23.024,5.255-33.573,10.021c-18.782,8.493-38.738,15.024-51.057,32.978c-3.346,4.879-4.859,8.114-8.798,12.574
		c-3.218,3.645-8.043,9.858-8.951,15.565C439.551,375.683,443.625,394.161,451.13,399.859z"/>
	<path fill="none" stroke="#FFFFFF" stroke-width="2" stroke-miterlimit="10" d="M550.269,332.73
		c-18.581,6.263-19.248,22.056-9.288,34.313c12.467,15.349,40.583-1.058,28.49-25.968C565.354,332.59,556.26,330.713,550.269,332.73
		z"/>
	<path fill="none" stroke="#FFFFFF" stroke-width="2" stroke-miterlimit="10" d="M559.213,248.505
		c-5.214,1.755-5.404,6.188-2.606,9.633c3.5,4.306,11.393-0.301,7.995-7.295C563.449,248.464,560.896,247.938,559.213,248.505z"/>
	<path fill="none" stroke="#FFFFFF" stroke-width="2" stroke-miterlimit="10" d="M450.368,307.411
		c-5.214,1.757-5.404,6.19-2.606,9.633c3.5,4.306,11.39-0.301,7.995-7.291C454.601,307.371,452.051,306.845,450.368,307.411z"/>
	<path fill="none" stroke="#FFFFFF" stroke-width="2" stroke-miterlimit="10" d="M470.05,382.454
		c-5.214,1.759-5.404,6.19-2.606,9.631c3.499,4.311,11.39-0.297,7.995-7.287C474.283,382.416,471.733,381.89,470.05,382.454z"/>
	<path fill="none" stroke="#FFFFFF" stroke-width="2" stroke-miterlimit="10" d="M595.482,376.296
		c-5.214,1.756-5.404,6.19-2.606,9.628c3.5,4.311,11.392-0.296,7.995-7.287C599.715,376.253,597.165,375.729,595.482,376.296z"/>
	<path fill="none" stroke="#FFFFFF" stroke-width="2" stroke-miterlimit="10" d="M552.193,451.848
		c-5.217,1.759-5.403,6.189-2.608,9.632c3.502,4.309,11.392-0.297,7.998-7.291C556.427,451.811,553.873,451.283,552.193,451.848z"/>
	<path fill="none" stroke="#FFFFFF" stroke-width="2" stroke-miterlimit="10" d="M646.982,302.162
		c-5.218,1.759-5.404,6.19-2.608,9.632c3.499,4.307,11.393-0.298,7.997-7.291C651.214,302.121,648.662,301.595,646.982,302.162z"/>
	<path fill="none" stroke="#FFFFFF" stroke-width="2" stroke-miterlimit="10" d="M630.648,345.961
		c-5.218,1.755-5.404,6.189-2.609,9.631c3.503,4.308,11.394-0.299,7.998-7.29C634.88,345.92,632.328,345.393,630.648,345.961z"/>
	<text transform="matrix(1 0 0 1 323.1772 75.7388)" fill="#FFFFFF" font-family="'Roboto-Regular'" font-size="20">ampla, que visibiliza espaços de </text>
	<text transform="matrix(1 0 0 1 294.0171 98.7388)" fill="#FFFFFF" font-family="'Roboto-Regular'" font-size="20">interesse público e forma um mapa </text>
	<text transform="matrix(1 0 0 1 346.5171 121.7388)" fill="#FFFFFF" font-family="'Roboto-Regular'" font-size="20">de quantas pessoas um filme </text>
	<text transform="matrix(1 0 0 1 349.7173 144.7388)" fill="#FFFFFF" font-family="'Roboto-Regular'" font-size="20">e uma causa podem atingir :-)</text>
	<path fill="#DF4944" d="M238.518,735.951c8.768-3.561,19.384-4.777,27.818-8.215c10.239-4.172,17.472-9.422,28.869-13.324
		c16.231-5.564,35.204-9.793,49.605-16.373c16.765-7.656,37.673-12.789,58.134-18.723c17.976-5.221,29.461-14.339,48.387-18.35
		c18.686-3.959,1.544-7.47-16.119-10.65c-73.003-13.155-145.325-29.398-218.396-41.164c6.054,18.36,6.309,36.051,9.693,54.252
		c1.118,6.01,2.918,12.055,3.407,17.982c0.64,7.777,4.549,15.838,4.457,23.58c-0.074,6.738,1.486,13.654,1.967,20.43
		c0.262,3.506,3.125,7.068,3.133,10.363"/>
	<path fill="#DF4944" d="M1024.044,332.045c-2.988-6.28-4.337-14.019-7.221-20.06c-3.5-7.334-7.662-12.417-11.015-20.612
		c-4.778-11.672-8.694-25.41-14.14-35.696c-6.336-11.975-10.998-27.097-16.229-41.856c-4.601-12.967-11.784-21.003-15.539-34.719
		c-3.705-13.542-5.547-0.812-7.125,12.284c-6.522,54.132-15.342,107.897-20.844,162.02c13.214-5.23,26.183-6.176,39.394-9.438
		c4.362-1.078,8.721-2.658,13.049-3.271c5.68-0.803,11.427-4.016,17.113-4.279c4.945-0.236,9.954-1.677,14.905-2.319
		c2.562-0.345,5.053-2.597,7.471-2.744"/>
	<path fill="none" stroke="#FFFFFF" stroke-width="2" stroke-miterlimit="10" d="M233.688,624.716
		c-2.955-9.141-1.91-25.684,5.398-32.877c4.897-4.826,13.696-8.904,20.649-6.691c7.006,2.229,11.371,11.336,13.51,17.877
		c3.709,11.355-1.487,20.709-9.077,29.061c-2.544,2.799-5.48,5.199-7.708,8.312c-1.317,1.842-4.745,5.977-5.549,7.945
		C250.385,647.812,236.205,632.513,233.688,624.716z"/>
	<path fill="none" stroke="#FFFFFF" stroke-width="2" stroke-miterlimit="10" d="M244.231,603.44
		c-1.332,6.816,3.947,9.404,9.389,9.43c15.709,0.068,7.832-15.402,1.369-16.283C248.896,595.759,245.221,598.37,244.231,603.44z"/>
	<path fill="none" stroke="#FFFFFF" stroke-width="2" stroke-miterlimit="10" d="M317.548,570.054
		c-2.119-6.553-1.371-18.414,3.869-23.57c3.509-3.459,9.82-6.385,14.804-4.799c5.022,1.598,8.153,8.129,9.686,12.818
		c2.658,8.141-1.066,14.846-6.508,20.836c-1.824,2.006-3.928,3.727-5.525,5.957c-0.946,1.322-3.403,4.287-3.979,5.699
		C329.518,586.612,319.351,575.646,317.548,570.054z"/>
	<path fill="none" stroke="#FFFFFF" stroke-width="2" stroke-miterlimit="10" d="M325.106,554.802
		c-0.953,4.887,2.83,6.742,6.733,6.758c11.261,0.051,5.613-11.039,0.978-11.672C328.448,549.292,325.815,551.167,325.106,554.802z"
		/>
	<path fill="none" stroke="#FFFFFF" stroke-width="2" stroke-miterlimit="10" d="M379.85,624.974
		c-2.338-7.242-1.512-20.346,4.279-26.045c3.879-3.822,10.848-7.053,16.356-5.301c5.551,1.766,9.006,8.979,10.701,14.16
		c2.939,8.996-1.176,16.406-7.189,23.023c-2.016,2.215-4.34,4.119-6.106,6.586c-1.045,1.457-3.758,4.732-4.394,6.293
		C393.078,643.269,381.846,631.151,379.85,624.974z"/>
	<path fill="none" stroke="#FFFFFF" stroke-width="2" stroke-miterlimit="10" d="M388.204,608.12
		c-1.055,5.4,3.127,7.449,7.439,7.467c12.444,0.055,6.204-12.197,1.083-12.896C391.896,602.032,388.989,604.103,388.204,608.12z"/>
	<path fill="none" stroke="#FFFFFF" stroke-width="2" stroke-miterlimit="10" d="M235.054,657.534
		c4.494,2.049,9.316,5.767,14.129,6.861c7.641,1.735,15.346-6.775,20.685-11.465c6.993-6.143,13.11-8.127,18.407-15.703
		c6.043-8.641,15.66-9.834,23.138-17.182c7.174-7.043,14.83-22.709,26.691-15.414c10.862,6.68,18.307,19.889,28.072,28.18
		c12.395,10.525,14.137,16.777,24.584,29.037"/>
	<path fill="none" stroke="#FFFFFF" stroke-width="2" stroke-miterlimit="10" d="M244.04,663.543
		c-0.918,4.715,2.73,6.506,6.498,6.521c10.869,0.049,5.42-10.654,0.945-11.266C247.268,658.226,244.727,660.032,244.04,663.543z"/>
	<path fill="none" stroke="#FFFFFF" stroke-width="2" stroke-miterlimit="10" d="M325.485,601.101
		c-1.297,4.051,1.729,6.002,5.039,6.402c9.551,1.162,5.863-8.811,1.99-9.807C328.868,596.759,326.448,598.085,325.485,601.101z"/>
	<path fill="none" stroke="#FFFFFF" stroke-width="2" stroke-miterlimit="10" d="M389.372,660.56
		c-0.611,3.132,1.811,4.32,4.313,4.33c7.216,0.033,3.597-7.074,0.626-7.479C391.514,657.03,389.825,658.231,389.372,660.56z"/>
	<text transform="matrix(1 0 0 1 870.7612 735.9517)" fill="#FFFFFF" font-family="'Roboto-Regular'" font-size="20">EXIBIÇÕES seguidas de </text>
	<text transform="matrix(1 0 0 1 870.7612 758.9517)" fill="#FFFFFF" font-family="'Roboto-Regular'" font-size="20">ATIVIDADES ajudam a </text>
	<text transform="matrix(1 0 0 1 870.7612 781.9517)" fill="#FFFFFF" font-family="'Roboto-Regular'" font-size="20">formar público e promover </text>
	<text transform="matrix(1 0 0 1 870.7612 804.9512)" fill="#FFFFFF" font-family="'Roboto-Regular'" font-size="20">diálogos sobre temas </text>
	<text transform="matrix(1 0 0 1 870.7612 827.9512)" fill="#FFFFFF" font-family="'Roboto-Regular'" font-size="20">sociais relevantes!</text>
	<path fill="none" stroke="#FFFCFF" stroke-width="3" stroke-linecap="round" stroke-miterlimit="10" d="M588.557,209.224
		c0.5-1.5,1.452-2.573,1.917-4c1.045-3.21,3-5.75,4.5-7.75s2.583-3.75,4.083-5.25c1.5-2,3.5-4,5.5-5.5c4.5-3,8-6.5,12.5-10
		c2-2,4-4,6-5.5c3-2.5,6-4.5,9-6c6-4,13-6.5,19.5-9c6-2.5,12.5-5,19-7.5c4.5-1.5,9-3,13.5-5l12-4.5c7-2.5,13.5-4.5,20.5-5.5
		c11.5-1.5,23.5-2,35.5-2.5c10-1,20-2,30.5-2c16,0,32.5,2,48.5,3c5,0.5,10.5,1,16,1c3,0,7-0.5,10,0c8,1.5,15.5,5,22.5,7.5
		c5.5,2,11.5,3.5,17.5,5.5c5,1.5,8,5.5,12.5,8.5c2,1.5,4,2.5,5.5,4c1.5,1,2.5,2,3.5,3"/>
	<path fill="none" stroke="#FFFCFF" stroke-width="3" stroke-linecap="round" stroke-miterlimit="10" d="M587.057,209.224
		c-1.875-3.75-1.223-7-1.5-9.667c-0.371-3.57-0.167-6.333-1.5-9.665"/>
	<path fill="none" stroke="#FFFCFF" stroke-width="3" stroke-linecap="round" stroke-miterlimit="10" d="M587.391,209.558
		c3.545-0.333,8.886-1.356,11-2.167c2.16-0.829,3.666-2.166,5-2.833c2-1.333,4-0.667,6-2"/>
	<path fill="#DF4944" d="M154.757,109.745c-2.318,9.664-7.716,18.077-9.935,27.371c-2.689,11.28-2.643,21.691-6.282,33.442
		c-5.153,16.787-13.092,34.017-16.281,50.625c-3.719,19.348-12.062,38.793-19.474,58.807c-6.48,17.593-5.775,34.933-13.866,51.887
		c-7.985,16.723,5.312,8.902,18.669,0.4c55.14-35.181,112.481-66.655,166.506-103.359c-19.033-15.294-34.007-33.776-51.285-50.703
		c-5.711-5.58-11.863-10.762-17.124-16.674c-6.913-7.769-16.018-13.652-22.466-21.882c-5.589-7.175-12.31-13.39-18.309-20.223
		c-3.083-3.527-7.798-5.364-10.559-8.837"/>
	<path fill="#DF4944" d="M1002.989,420.706c-1.27,5.351-4.245,10.014-5.459,15.157c-1.473,6.245-1.434,12.005-3.431,18.513
		c-2.827,9.294-7.196,18.837-8.938,28.03c-2.032,10.71-6.619,21.48-10.694,32.563c-3.56,9.742-3.146,19.335-7.599,28.726
		c-4.395,9.265,2.95,4.918,10.33,0.197c30.458-19.541,90.24-33.271,120.081-53.652c-10.552-8.435-44.367-24.126-53.951-33.468
		c-3.167-3.079-6.577-5.937-9.497-9.201c-3.836-4.288-8.88-7.53-12.459-12.075c-3.104-3.962-9.426-5.67-12.754-9.441
		c-1.71-1.947-4.323-2.957-5.854-4.874"/>
	<path fill="none" stroke="#FFFFFF" stroke-width="2" stroke-linecap="round" stroke-linejoin="round" d="M107.43,203.519
		c0.061,0.158,0.126,0.312,0.193,0.462"/>
	
		<path fill="none" stroke="#FFFFFF" stroke-width="2" stroke-linecap="round" stroke-linejoin="round" stroke-dasharray="0.997,0.997" d="
		M108.073,204.871c0.645,1.162,1.406,2.182,1.898,3.454c0.811,2.105,1.148,4.271,2.131,6.399c1.406,3.026,3.28,5.909,4.35,9.076
		c1.253,3.69,3.269,6.994,5.149,10.502c1.649,3.081,2.105,6.746,3.996,9.555c1.868,2.767-0.587,2.33-3.078,1.742
		c-9.951-2.336-20.13-3.77-29.968-6.425"/>
	<path fill="none" stroke="#FFFFFF" stroke-width="2" stroke-linecap="round" stroke-linejoin="round" d="M92.07,239.044
		c-0.16-0.044-0.32-0.089-0.48-0.133c0.08-0.147,0.159-0.294,0.237-0.442"/>
	
		<path fill="none" stroke="#FFFFFF" stroke-width="2" stroke-linecap="round" stroke-linejoin="round" stroke-dasharray="1.019,1.019" d="
		M92.299,237.563c2.286-4.475,4.019-9.163,6.116-13.76c0.754-1.666,1.605-3.293,2.285-4.986c0.881-2.233,2.203-4.268,2.999-6.554
		c0.686-1.988,1.598-3.876,2.367-5.834c0.265-0.677,0.678-1.261,1.025-1.865"/>
	<path fill="none" stroke="#FFFFFF" stroke-width="2" stroke-linecap="round" stroke-linejoin="round" d="M107.328,204.119
		c0.073-0.15,0.139-0.303,0.195-0.46"/>
	<path fill="none" stroke="#FFFFFF" stroke-width="2" stroke-linecap="round" stroke-linejoin="round" d="M120.43,198.946
		c0.061,0.158,0.126,0.312,0.193,0.462"/>
	
		<path fill="none" stroke="#FFFFFF" stroke-width="2" stroke-linecap="round" stroke-linejoin="round" stroke-dasharray="0.997,0.997" d="
		M121.074,200.298c0.645,1.162,1.405,2.183,1.896,3.453c0.812,2.108,1.151,4.273,2.136,6.398c1.404,3.03,3.278,5.91,4.346,9.077
		c1.258,3.693,3.271,6.996,5.149,10.503c1.65,3.083,2.106,6.748,3.995,9.555c1.869,2.769-0.587,2.329-3.074,1.742
		c-9.954-2.336-20.131-3.768-29.969-6.426"/>
	<path fill="none" stroke="#FFFFFF" stroke-width="2" stroke-linecap="round" stroke-linejoin="round" d="M105.072,234.469
		c-0.16-0.044-0.32-0.088-0.48-0.133c0.08-0.146,0.159-0.294,0.237-0.44"/>
	
		<path fill="none" stroke="#FFFFFF" stroke-width="2" stroke-linecap="round" stroke-linejoin="round" stroke-dasharray="1.019,1.019" d="
		M105.3,232.989c2.285-4.473,4.021-9.161,6.114-13.76c0.757-1.664,1.605-3.29,2.286-4.988c0.884-2.228,2.204-4.264,2.999-6.552
		c0.688-1.982,1.598-3.877,2.369-5.832c0.263-0.677,0.675-1.262,1.023-1.865"/>
	<path fill="none" stroke="#FFFFFF" stroke-width="2" stroke-linecap="round" stroke-linejoin="round" d="M120.33,199.546
		c0.073-0.149,0.14-0.303,0.196-0.459"/>
	<path fill="none" stroke="#FFFFFF" stroke-width="2" stroke-linecap="round" stroke-linejoin="round" d="M201.904,174.894
		c-0.157-0.064-0.312-0.125-0.467-0.179"/>
	
		<path fill="none" stroke="#FFFFFF" stroke-width="2" stroke-linecap="round" stroke-linejoin="round" stroke-dasharray="0.996,0.996" d="
		M200.482,174.431c-0.932-0.24-1.848-0.401-2.769-0.784c-1.677-0.701-3.139-1.671-4.92-2.295c-2.538-0.887-5.236-1.456-7.678-2.586
		c-2.851-1.312-5.875-2.032-8.948-2.932c-2.698-0.79-5.111-2.491-7.775-3.015c-2.627-0.515-1.071-1.527,0.59-2.479
		c6.562-3.765,12.717-8.111,19.398-11.672"/>
	<path fill="none" stroke="#FFFFFF" stroke-width="2" stroke-linecap="round" stroke-linejoin="round" d="M188.821,148.435
		c0.148-0.077,0.296-0.154,0.445-0.231c0.059,0.155,0.119,0.309,0.18,0.463"/>
	
		<path fill="none" stroke="#FFFFFF" stroke-width="2" stroke-linecap="round" stroke-linejoin="round" stroke-dasharray="0.982,0.982" d="
		M189.814,149.571c1.43,3.41,3.237,6.67,4.811,10.059c0.592,1.26,1.108,2.548,1.754,3.788c0.86,1.623,1.37,3.365,2.306,4.974
		c0.817,1.396,1.456,2.854,2.211,4.276c0.224,0.419,0.35,0.855,0.491,1.282"/>
	<path fill="none" stroke="#FFFFFF" stroke-width="2" stroke-linecap="round" stroke-linejoin="round" d="M201.556,174.417
		c0.062,0.154,0.133,0.306,0.216,0.451"/>
	<path fill="none" stroke="#FFFFFF" stroke-width="2" stroke-linecap="round" stroke-linejoin="round" d="M197.76,183.891
		c-0.157-0.065-0.312-0.124-0.468-0.178"/>
	
		<path fill="none" stroke="#FFFFFF" stroke-width="2" stroke-linecap="round" stroke-linejoin="round" stroke-dasharray="0.996,0.996" d="
		M196.337,183.429c-0.932-0.239-1.847-0.401-2.768-0.785c-1.679-0.701-3.141-1.671-4.921-2.294
		c-2.538-0.887-5.235-1.456-7.678-2.585c-2.853-1.312-5.876-2.035-8.945-2.933c-2.7-0.792-5.115-2.493-7.775-3.016
		c-2.628-0.515-1.074-1.527,0.586-2.478c6.564-3.767,12.717-8.112,19.399-11.673"/>
	<path fill="none" stroke="#FFFFFF" stroke-width="2" stroke-linecap="round" stroke-linejoin="round" d="M184.676,157.434
		c0.148-0.078,0.296-0.155,0.445-0.232c0.059,0.154,0.119,0.31,0.18,0.464"/>
	
		<path fill="none" stroke="#FFFFFF" stroke-width="2" stroke-linecap="round" stroke-linejoin="round" stroke-dasharray="0.982,0.982" d="
		M185.672,158.573c1.429,3.407,3.235,6.668,4.812,10.053c0.588,1.261,1.104,2.549,1.753,3.79c0.856,1.621,1.366,3.364,2.303,4.973
		c0.815,1.396,1.458,2.855,2.212,4.278c0.225,0.418,0.352,0.856,0.493,1.284"/>
	<path fill="none" stroke="#FFFFFF" stroke-width="2" stroke-linecap="round" stroke-linejoin="round" d="M197.411,183.414
		c0.062,0.154,0.132,0.306,0.215,0.451"/>
	<path fill="none" stroke="#FFFFFF" stroke-width="2" stroke-linecap="round" stroke-linejoin="round" d="M251.435,219.102
		c-0.051,0.161-0.097,0.321-0.14,0.48"/>
	
		<path fill="none" stroke="#FFFFFF" stroke-width="2" stroke-linecap="round" stroke-linejoin="round" stroke-dasharray="0.998,0.998" d="
		M251.07,220.555c-0.373,1.915-0.366,3.73-0.964,5.638c-0.915,2.888-2.392,5.494-3.135,8.531c-1.052,4.324-1.466,8.834-3.001,13.066
		c-1.782,4.938-2.402,10.009-3.344,15.204c-0.832,4.561-3.461,8.889-3.795,13.33c-0.325,4.377-2.628,2.111-4.844-0.343
		c-8.924-9.869-18.88-18.906-27.386-29.062"/>
	<path fill="none" stroke="#FFFFFF" stroke-width="2" stroke-linecap="round" stroke-linejoin="round" d="M204.283,246.538
		c-0.106-0.128-0.212-0.255-0.317-0.383c0.151-0.072,0.301-0.146,0.451-0.219"/>
	
		<path fill="none" stroke="#FFFFFF" stroke-width="2" stroke-linecap="round" stroke-linejoin="round" stroke-dasharray="1.01,1.01" d="
		M205.325,245.487c6.526-3.271,12.58-7.244,18.972-10.832c2.245-1.269,4.56-2.423,6.75-3.775c2.865-1.791,6.04-3.048,8.86-4.962
		c2.444-1.666,5.049-3.062,7.558-4.636c0.989-0.624,2.086-0.974,3.084-1.466"/>
	<path fill="none" stroke="#FFFFFF" stroke-width="2" stroke-linecap="round" stroke-linejoin="round" d="M250.991,219.583
		c0.145-0.081,0.287-0.169,0.426-0.262"/>
	<path fill="none" stroke="#FFFFFF" stroke-width="2" stroke-linecap="round" stroke-linejoin="round" d="M269.513,223.585
		c-0.051,0.161-0.097,0.321-0.14,0.48"/>
	
		<path fill="none" stroke="#FFFFFF" stroke-width="2" stroke-linecap="round" stroke-linejoin="round" stroke-dasharray="0.998,0.998" d="
		M269.149,225.038c-0.372,1.916-0.366,3.729-0.965,5.635c-0.912,2.892-2.391,5.5-3.13,8.533c-1.055,4.328-1.466,8.834-3.004,13.064
		c-1.781,4.943-2.403,10.013-3.346,15.205c-0.832,4.562-3.462,8.892-3.794,13.328c-0.326,4.381-2.631,2.115-4.841-0.338
		c-8.928-9.872-18.883-18.906-27.385-29.063"/>
	<path fill="none" stroke="#FFFFFF" stroke-width="2" stroke-linecap="round" stroke-linejoin="round" d="M222.366,251.021
		c-0.106-0.127-0.212-0.255-0.317-0.383c0.15-0.073,0.301-0.146,0.451-0.219"/>
	
		<path fill="none" stroke="#FFFFFF" stroke-width="2" stroke-linecap="round" stroke-linejoin="round" stroke-dasharray="1.01,1.01" d="
		M223.407,249.971c6.521-3.268,12.579-7.244,18.97-10.837c2.245-1.263,4.557-2.418,6.749-3.772c2.863-1.785,6.041-3.045,8.858-4.959
		c2.444-1.663,5.051-3.064,7.562-4.636c0.985-0.624,2.082-0.974,3.081-1.465"/>
	<path fill="none" stroke="#FFFFFF" stroke-width="2" stroke-linecap="round" stroke-linejoin="round" d="M269.072,224.068
		c0.145-0.082,0.288-0.168,0.426-0.261"/>
	<path fill="none" stroke="#FFFFFF" stroke-width="2" stroke-linecap="round" stroke-linejoin="round" d="M269.344,174.514
		c-0.167,0.03-0.33,0.065-0.49,0.104"/>
	
		<path fill="none" stroke="#FFFFFF" stroke-width="2" stroke-linecap="round" stroke-linejoin="round" stroke-dasharray="1.013,1.013" d="
		M267.881,174.899c-0.906,0.301-1.75,0.654-2.737,0.833c-1.807,0.323-3.607,0.314-5.451,0.756c-2.625,0.632-5.183,1.607-7.883,1.99
		c-3.147,0.451-6.066,1.479-9.135,2.387c-2.696,0.796-5.73,0.695-8.232,1.69c-2.465,0.984-1.829-0.673-1.067-2.337
		c2.99-6.562,5.293-13.378,8.505-19.837"/>
	<path fill="none" stroke="#FFFFFF" stroke-width="2" stroke-linecap="round" stroke-linejoin="round" d="M242.108,159.929
		c0.075-0.149,0.151-0.298,0.227-0.447c0.139,0.091,0.279,0.182,0.418,0.271"/>
	
		<path fill="none" stroke="#FFFFFF" stroke-width="2" stroke-linecap="round" stroke-linejoin="round" stroke-dasharray="1.029,1.029" d="
		M243.626,160.297c3.304,2.022,6.821,3.719,10.23,5.646c1.271,0.713,2.5,1.487,3.802,2.154c1.717,0.866,3.222,2.015,4.993,2.828
		c1.539,0.704,2.974,1.551,4.479,2.31c0.452,0.226,0.834,0.521,1.223,0.798"/>
	<path fill="none" stroke="#FFFFFF" stroke-width="2" stroke-linecap="round" stroke-linejoin="round" d="M268.782,174.322
		c0.141,0.088,0.286,0.169,0.439,0.24"/>
	<path fill="none" stroke="#FFFFFF" stroke-width="2" stroke-linecap="round" stroke-linejoin="round" d="M271.589,184.068
		c-0.167,0.03-0.33,0.065-0.49,0.104"/>
	
		<path fill="none" stroke="#FFFFFF" stroke-width="2" stroke-linecap="round" stroke-linejoin="round" stroke-dasharray="1.013,1.013" d="
		M270.126,184.456c-0.906,0.3-1.75,0.654-2.737,0.832c-1.809,0.325-3.608,0.314-5.449,0.758c-2.627,0.63-5.185,1.606-7.884,1.99
		c-3.15,0.454-6.068,1.478-9.135,2.383c-2.699,0.797-5.731,0.698-8.231,1.692c-2.467,0.984-1.831-0.673-1.07-2.336
		c2.991-6.563,5.293-13.378,8.505-19.836"/>
	<path fill="none" stroke="#FFFFFF" stroke-width="2" stroke-linecap="round" stroke-linejoin="round" d="M244.353,169.485
		c0.076-0.148,0.151-0.298,0.228-0.446c0.139,0.091,0.278,0.18,0.417,0.27"/>
	
		<path fill="none" stroke="#FFFFFF" stroke-width="2" stroke-linecap="round" stroke-linejoin="round" stroke-dasharray="1.029,1.029" d="
		M245.871,169.854c3.303,2.021,6.822,3.719,10.232,5.645c1.269,0.715,2.497,1.489,3.802,2.155c1.712,0.866,3.219,2.018,4.99,2.829
		c1.537,0.704,2.975,1.551,4.481,2.31c0.451,0.225,0.833,0.52,1.221,0.797"/>
	<path fill="none" stroke="#FFFFFF" stroke-width="2" stroke-linecap="round" stroke-linejoin="round" d="M271.026,183.878
		c0.141,0.089,0.286,0.17,0.438,0.241"/>
	<path fill="none" stroke="#FFFFFF" stroke-width="2" stroke-linecap="round" stroke-linejoin="round" d="M171.537,221.508
		c0.171-0.005,0.337-0.019,0.499-0.035"/>
	
		<path fill="none" stroke="#FFFFFF" stroke-width="2" stroke-linecap="round" stroke-linejoin="round" stroke-dasharray="1.003,1.003" d="
		M173.029,221.311c0.506-0.097,1.005-0.195,1.551-0.214c1.285-0.038,2.525,0.153,3.849,0.039c1.886-0.167,3.769-0.577,5.676-0.563
		c2.226,0.011,4.361-0.398,6.588-0.71c1.955-0.272,4.035,0.107,5.879-0.322c1.818-0.424,1.18,0.654,0.456,1.722
		c-2.797,4.14-5.166,8.515-8.079,12.571"/>
	<path fill="none" stroke="#FFFFFF" stroke-width="2" stroke-linecap="round" stroke-linejoin="round" d="M188.655,234.239
		c-0.099,0.136-0.198,0.271-0.298,0.404c-0.123-0.111-0.246-0.222-0.371-0.331"/>
	
		<path fill="none" stroke="#FFFFFF" stroke-width="2" stroke-linecap="round" stroke-linejoin="round" stroke-dasharray="0.966,0.966" d="
		M187.251,233.685c-1.949-1.625-4.053-3.085-6.063-4.677c-0.791-0.623-1.544-1.284-2.361-1.877c-1.082-0.772-1.981-1.72-3.105-2.463
		c-0.978-0.644-1.865-1.376-2.812-2.051c-0.202-0.145-0.377-0.311-0.545-0.477"/>
	<path fill="none" stroke="#FFFFFF" stroke-width="2" stroke-linecap="round" stroke-linejoin="round" d="M172.017,221.8
		c-0.122-0.112-0.249-0.22-0.389-0.313"/>
	<path fill="none" stroke="#FFFFFF" stroke-width="2" stroke-linecap="round" stroke-linejoin="round" d="M171.136,214.687
		c0.171-0.005,0.337-0.018,0.499-0.035"/>
	
		<path fill="none" stroke="#FFFFFF" stroke-width="2" stroke-linecap="round" stroke-linejoin="round" stroke-dasharray="1.003,1.003" d="
		M172.628,214.489c0.506-0.096,1.005-0.194,1.551-0.211c1.285-0.039,2.526,0.152,3.849,0.035c1.889-0.165,3.768-0.575,5.677-0.562
		c2.226,0.01,4.362-0.396,6.586-0.707c1.956-0.273,4.036,0.106,5.88-0.324c1.819-0.425,1.181,0.654,0.457,1.722
		c-2.798,4.14-5.165,8.515-8.079,12.572"/>
	<path fill="none" stroke="#FFFFFF" stroke-width="2" stroke-linecap="round" stroke-linejoin="round" d="M188.255,227.419
		c-0.099,0.136-0.198,0.27-0.298,0.404c-0.123-0.11-0.247-0.221-0.372-0.331"/>
	
		<path fill="none" stroke="#FFFFFF" stroke-width="2" stroke-linecap="round" stroke-linejoin="round" stroke-dasharray="0.966,0.966" d="
		M186.851,226.864c-1.949-1.625-4.053-3.086-6.065-4.677c-0.788-0.625-1.541-1.283-2.363-1.876
		c-1.076-0.773-1.978-1.722-3.102-2.464c-0.974-0.642-1.865-1.375-2.812-2.053c-0.202-0.145-0.376-0.309-0.545-0.475"/>
	<path fill="none" stroke="#FFFFFF" stroke-width="2" stroke-linecap="round" stroke-linejoin="round" d="M171.617,214.979
		c-0.122-0.112-0.249-0.221-0.388-0.314"/>
	<path fill="none" stroke="#FFFFFF" stroke-width="2" stroke-linecap="round" stroke-linejoin="round" d="M130.926,267.913
		c0.142,0.1,0.285,0.183,0.429,0.258"/>
	
		<path fill="none" stroke="#FFFFFF" stroke-width="2" stroke-linecap="round" stroke-linejoin="round" stroke-dasharray="0.997,0.997" d="
		M132.251,268.61c0.116,0.063,0.23,0.132,0.342,0.21c0.646,0.45,1.172,0.994,1.871,1.421c0.995,0.606,2.094,1.09,3.023,1.79
		c1.087,0.814,2.308,1.392,3.531,2.052c1.075,0.577,1.933,1.522,3.02,1.982c1.073,0.454,0.3,0.751-0.511,1.01
		c-3.028,0.976-5.955,2.204-8.996,3.124"/>
	<path fill="none" stroke="#FFFFFF" stroke-width="2" stroke-linecap="round" stroke-linejoin="round" d="M134.051,280.341
		c-0.16,0.047-0.321,0.093-0.482,0.138c-0.021-0.165-0.045-0.329-0.07-0.494"/>
	
		<path fill="none" stroke="#FFFFFF" stroke-width="2" stroke-linecap="round" stroke-linejoin="round" stroke-dasharray="1.074,1.074" d="
		M133.31,278.932c-0.255-1.275-0.589-2.54-0.85-3.828c-0.123-0.592-0.21-1.191-0.357-1.779c-0.201-0.772-0.239-1.565-0.473-2.337
		c-0.204-0.666-0.325-1.345-0.501-2.018"/>
	<path fill="none" stroke="#FFFFFF" stroke-width="2" stroke-linecap="round" stroke-linejoin="round" d="M131.055,268.431
		c-0.013-0.168-0.027-0.333-0.075-0.493"/>
	<path fill="none" stroke="#FFFFFF" stroke-width="2" stroke-linecap="round" stroke-linejoin="round" d="M133.638,264.424
		c0.142,0.098,0.286,0.181,0.429,0.257"/>
	
		<path fill="none" stroke="#FFFFFF" stroke-width="2" stroke-linecap="round" stroke-linejoin="round" stroke-dasharray="0.997,0.997" d="
		M134.962,265.122c0.116,0.062,0.23,0.131,0.343,0.21c0.647,0.45,1.174,0.996,1.872,1.419c0.996,0.606,2.093,1.09,3.022,1.791
		c1.087,0.815,2.307,1.393,3.53,2.051c1.076,0.578,1.934,1.523,3.021,1.983c1.072,0.455,0.301,0.75-0.51,1.01
		c-3.029,0.976-5.954,2.204-8.995,3.124"/>
	<path fill="none" stroke="#FFFFFF" stroke-width="2" stroke-linecap="round" stroke-linejoin="round" d="M136.765,276.852
		c-0.16,0.047-0.321,0.093-0.482,0.138c-0.021-0.165-0.045-0.33-0.071-0.493"/>
	
		<path fill="none" stroke="#FFFFFF" stroke-width="2" stroke-linecap="round" stroke-linejoin="round" stroke-dasharray="1.074,1.074" d="
		M136.023,275.442c-0.256-1.275-0.591-2.542-0.853-3.827c-0.12-0.594-0.209-1.19-0.357-1.78c-0.198-0.771-0.236-1.564-0.469-2.336
		c-0.205-0.667-0.328-1.347-0.501-2.02"/>
	<path fill="none" stroke="#FFFFFF" stroke-width="2" stroke-linecap="round" stroke-linejoin="round" d="M133.768,264.941
		c-0.013-0.168-0.027-0.334-0.074-0.494"/>
	<path fill="none" stroke="#FFFFFF" stroke-width="2" stroke-linecap="round" stroke-linejoin="round" d="M122.922,156.336
		c-0.17,0.048-0.32,0.114-0.466,0.181"/>
	
		<path fill="none" stroke="#FFFFFF" stroke-width="2" stroke-linecap="round" stroke-linejoin="round" stroke-dasharray="0.999,0.999" d="
		M121.514,156.834c-0.329,0.067-0.661,0.12-0.993,0.233c-0.65,0.223-1.275,0.529-1.951,0.691c-0.789,0.189-1.503,0.52-2.259,0.821
		c-0.664,0.268-1.439,0.312-2.046,0.627c-0.601,0.308-0.486-0.13-0.338-0.57c0.501-1.506,0.866-3.045,1.368-4.545"/>
	<path fill="none" stroke="#FFFFFF" stroke-width="2" stroke-linecap="round" stroke-linejoin="round" d="M115.459,153.618
		c0.056-0.157,0.114-0.313,0.175-0.469c0.147,0.076,0.295,0.15,0.445,0.223"/>
	
		<path fill="none" stroke="#FFFFFF" stroke-width="2" stroke-linecap="round" stroke-linejoin="round" stroke-dasharray="0.991,0.991" d="
		M116.979,153.775c0.585,0.25,1.18,0.485,1.765,0.746c0.344,0.15,0.677,0.319,1.027,0.459c0.46,0.179,0.875,0.436,1.348,0.601
		c0.296,0.104,0.582,0.228,0.869,0.347"/>
	<path fill="none" stroke="#FFFFFF" stroke-width="2" stroke-linecap="round" stroke-linejoin="round" d="M122.451,156.121
		c0.15,0.078,0.285,0.176,0.44,0.23"/>
	<path fill="none" stroke="#FFFFFF" stroke-width="2" stroke-linecap="round" stroke-linejoin="round" d="M123.757,158.714
		c-0.17,0.049-0.32,0.114-0.466,0.182"/>
	
		<path fill="none" stroke="#FFFFFF" stroke-width="2" stroke-linecap="round" stroke-linejoin="round" stroke-dasharray="0.999,0.999" d="
		M122.349,159.212c-0.33,0.068-0.662,0.12-0.992,0.233c-0.652,0.224-1.275,0.531-1.951,0.692c-0.789,0.189-1.504,0.519-2.259,0.822
		c-0.664,0.267-1.439,0.312-2.048,0.625c-0.6,0.309-0.484-0.128-0.336-0.569c0.501-1.505,0.866-3.045,1.368-4.546"/>
	<path fill="none" stroke="#FFFFFF" stroke-width="2" stroke-linecap="round" stroke-linejoin="round" d="M116.294,155.996
		c0.056-0.156,0.114-0.312,0.174-0.469c0.147,0.077,0.296,0.151,0.446,0.223"/>
	
		<path fill="none" stroke="#FFFFFF" stroke-width="2" stroke-linecap="round" stroke-linejoin="round" stroke-dasharray="0.991,0.991" d="
		M117.814,156.154c0.586,0.25,1.18,0.485,1.766,0.745c0.341,0.152,0.675,0.319,1.026,0.458c0.459,0.18,0.874,0.438,1.348,0.603
		c0.296,0.104,0.581,0.227,0.869,0.346"/>
	<path fill="none" stroke="#FFFFFF" stroke-width="2" stroke-linecap="round" stroke-linejoin="round" d="M123.287,158.5
		c0.149,0.078,0.283,0.175,0.44,0.229"/>
	<text transform="matrix(1 0 0 1 50.6763 426.937)" fill="#FFFFFF" font-family="'Roboto-Regular'" font-size="20">A rede de EMBAIXADORES</text>
	<text transform="matrix(1 0 0 1 50.6763 449.937)" fill="#FFFFFF" font-family="'Roboto-Regular'" font-size="20"> amplia a distribuição de filmes</text>
	<text transform="matrix(1 0 0 1 50.6763 472.937)" fill="#FFFFFF" font-family="'Roboto-Regular'" font-size="20"> e contribui para democratizar</text>
	<text transform="matrix(1 0 0 1 50.6763 495.937)" fill="#FFFFFF" font-family="'Roboto-Regular'" font-size="20"> o acesso à cultura!</text>
	<path fill="none" stroke="#F2F2F2" stroke-width="2" stroke-miterlimit="10" d="M870.761,271.932
		c10.926,21.053,21.001-5.564,34.924-4.885c9.194,0.449,10.976,8.543,20.765,4.546c6.541-2.672,11.058-9.8,18.429-9.506"/>
	<path fill="none" stroke="#F2F2F2" stroke-width="2" stroke-miterlimit="10" d="M965.139,212.166
		c-1.18,2.089-9.684,17.773-12.387,24.475c0.356,3.207,1.057,6.374,1.239,9.625c2.709-1.396,5.357-3.576,7.849-5.306
		c1.447-2.322,7.979-18.177,11.304-23.89c3.453-5.933,6.541-12.263,10.072-18.22c2.479-4.181,4.522-9.474,7.191-13.562
		c-1.413-1.111-3.108-2.056-4.505-2.676c-1.712-0.76-3.302-1.282-4.872-1.66c-1.958,3.358-5.62,9.961-7.141,13.668
		C971.157,201.281,968.65,205.959,965.139,212.166z"/>
	<path fill="none" stroke="#F2F2F2" stroke-width="2" stroke-miterlimit="10" d="M952.752,236.641
		c2.704-6.701,11.207-22.386,12.388-24.474c3.509-6.209,6.017-10.887,8.751-17.545c1.521-3.708,5.181-10.311,7.14-13.67
		c-3.179-0.768-6.266-0.899-10.044-0.899c0,0-4.295,8.643-5.154,10.226c-4.855,8.938-8.759,17.766-12.666,27.066
		c-1.568,3.738-3.407,7.325-4.643,11.14c-0.836,2.58-3.359,9.178-3.359,9.178c-0.344,0.937-0.519,2.022-0.614,3.17
		c1.147-0.51,2.288-1.134,3.084-1.568C949.05,238.488,951.19,236.764,952.752,236.641z"/>
	<path fill="none" stroke="#F2F2F2" stroke-width="2" stroke-miterlimit="10" d="M992.245,187.069
		c-0.486-0.625-1.129-1.223-1.837-1.779c-2.669,4.088-4.713,9.38-7.191,13.56c-3.532,5.957-6.619,12.287-10.073,18.22
		c-3.323,5.714-9.855,21.567-11.303,23.892c1.035,1.558,1.5,3.627,1.716,5.475c0.152,1.313,0.017,2.8,0.073,4.216
		c-0.057-1.416,0.079-2.902-0.073-4.216c-0.216-1.848-0.681-3.917-1.716-5.475c-2.492,1.728-5.14,3.91-7.849,5.304
		c-0.183-3.251-0.882-6.418-1.239-9.624c-1.562,0.122-3.701,1.849-5.118,2.622c-0.795,0.436-1.936,1.06-3.084,1.569
		c-0.239,2.858,0.082,6.132-0.056,8.648c-0.036,0.649-0.218,2.174-0.361,3.95c1.878-0.573,4.158-0.526,5.508,0.236
		c1.487,0.837,2.375,2.891,2.612,4.895c1.558-0.755,3.116-1.523,4.552-2.498c3.026-2.05,8.463-6.825,8.463-6.825
		c0.788-1.23,4.677-7.072,5.562-9.039c2.151-4.763,11.888-21.761,14.624-26.452c2.59-4.443,5.434-8.452,7.386-13.239
		c0.909-2.23,3.88-6.797,3.88-6.797C995.973,191.77,993.513,188.701,992.245,187.069z"/>
	<path fill="#F2F2F2" d="M945.17,255.077c0.263-0.12,0.511-0.274,0.771-0.4c-0.684-0.686-1.367-1.369-2.052-2.053
		c-0.561,0.857-1.119,1.652-1.371,2.658c-0.313,1.255,1.048,2.388,2.203,1.694c1.011-0.606,1.717-1.594,2.76-2.123
		c1.734-0.879,0.214-3.422-1.514-2.59c-0.785,0.377-1.303,0.868-1.815,1.562c-0.519,0.7-0.559,1.658-1.132,2.326
		c-1.255,1.459,0.682,3.441,2.12,2.122c0.915-0.838,1.498-2.692,2.645-3.172l-1.459-2.507c-0.615,0.779-1.357,1.469-1.918,2.288
		c-0.646,0.942-0.858,1.948-1.309,2.978c-0.754,1.727,1.63,3.245,2.592,1.515c0.93-1.678,2.025-3.384,3.711-4.38
		c-0.685-0.686-1.368-1.369-2.053-2.054c-0.827,1.1-1.904,1.982-2.699,3.109c-0.358,0.506-0.779,1.08-0.94,1.69
		c-0.249,0.942-0.076,1.864-0.279,2.8c-0.369,1.707,1.77,2.547,2.742,1.155c1.462-2.09,2.251-4.665,4.317-6.274
		c-0.785-0.606-1.571-1.212-2.356-1.818c-1.486,2.703-3.065,5.327-4.253,8.181c-0.662,1.592,1.936,2.614,2.742,1.155
		c1.26-2.279,2.24-5.093,4.503-6.585l-2.053-2.052c-1.105,1.803-1.864,3.825-3.212,5.473c0.786,0.606,1.571,1.212,2.356,1.819
		c0.956-1.583,2.154-3.091,3.702-4.126c-0.684-0.686-1.368-1.369-2.052-2.053c-0.646,1.147-1.275,2.366-2.243,3.278
		c-1.42,1.336,0.68,3.39,2.121,2.121c0.86-0.758,1.546-1.723,2.49-2.383c-0.733-0.564-1.469-1.129-2.202-1.693
		c-0.072,0.409-0.229,0.781-0.473,1.116c-0.853,1.464,1.165,3.063,2.355,1.817c0.309-0.323,0.633-0.622,0.959-0.928
		c1.415-1.324-0.71-3.442-2.121-2.122c-0.326,0.306-0.65,0.605-0.96,0.93c0.786,0.604,1.571,1.211,2.355,1.817
		c0.347-0.595,0.608-1.168,0.775-1.833c0.3-1.19-1.069-2.483-2.203-1.694c-1.175,0.817-2.031,1.913-3.098,2.852l2.121,2.121
		c1.152-1.086,1.942-2.518,2.712-3.886c0.704-1.251-0.755-2.919-2.052-2.052c-1.984,1.327-3.55,3.168-4.778,5.202
		c-0.864,1.431,1.261,3.156,2.356,1.816c1.526-1.869,2.428-4.038,3.68-6.08c0.768-1.253-0.783-2.888-2.053-2.052
		c-2.791,1.84-4.02,4.841-5.578,7.662c0.914,0.384,1.826,0.77,2.74,1.155c1.084-2.604,2.596-4.999,3.95-7.464
		c0.876-1.592-1.066-2.821-2.354-1.817c-2.283,1.779-3.176,4.579-4.787,6.882c0.914,0.385,1.828,0.77,2.742,1.156
		c0.308-1.423,0.027-2.654,1.001-3.87c0.833-1.042,1.81-1.943,2.616-3.013c0.939-1.25-0.842-2.771-2.054-2.053
		c-2.128,1.261-3.606,3.329-4.788,5.457c0.863,0.505,1.728,1.01,2.592,1.515c0.363-0.837,0.579-1.744,1.011-2.546
		c0.422-0.781,1.195-1.419,1.745-2.112c0.798-1.011,0.103-3.161-1.459-2.507c-2.019,0.843-2.468,2.566-3.968,3.941
		c0.706,0.708,1.413,1.415,2.12,2.122c0.897-1.044,1.082-2.813,2.341-3.42c-0.505-0.863-1.01-1.727-1.514-2.59
		c-1.076,0.544-1.745,1.514-2.76,2.123l2.204,1.694c0.185-0.74,0.658-1.316,1.069-1.943c0.886-1.356-0.797-2.66-2.054-2.052
		c-0.261,0.126-0.509,0.28-0.771,0.4C941.901,253.294,943.425,255.88,945.17,255.077"/>
	<path fill="none" stroke="#FFFFFF" stroke-width="2" stroke-miterlimit="10" d="M993.917,419.528
		c6.32-41.484,117.266-52.91,111.328,13.85c-2.256,25.352-38.076,34.166-63.758,31.85c-1.393,1.768-3.092,3.564-4.023,4.674
		c-3.213,3.824-6.336,7.756-9.08,11.824c-1.445-6.234,0.211-12.389,1.49-18.509C1014.397,458.921,990.047,444.937,993.917,419.528z"
		/>
	<path fill="none" stroke="#FFFFFF" stroke-width="2" stroke-miterlimit="10" d="M1011.858,428.741
		c-4.633-30.418-85.982-38.795-81.629,10.154c1.652,18.59,27.92,25.055,46.75,23.355c1.02,1.299,2.266,2.613,2.949,3.425
		c2.357,2.806,4.646,5.688,6.658,8.673c1.055-4.572-0.154-9.084-1.094-13.572C996.838,457.628,1014.694,447.374,1011.858,428.741z"
		/>
	<path fill="none" stroke="#FFFFFF" stroke-width="2" stroke-miterlimit="10" d="M962.209,441.911l0.139,1.16l0.119,0.539
		c0.311,0.623,0.746,0.902,1.301,0.836l0.475-0.057l0.055-0.064l-0.148-1.227c-0.027-0.236-0.068-0.398-0.119-0.48
		c-0.275-0.623-0.699-0.9-1.27-0.832l-0.504,0.061L962.209,441.911z M958.247,430.032l0.049,0.396l0.113,0.516
		c0.283,0.584,0.688,0.844,1.211,0.781l1.828-0.217l0.857-0.037c0.914,0.166,1.43,0.752,1.551,1.764l0.047,0.398l0.029,0.678
		c-0.152,0.986-0.678,1.532-1.582,1.643c-0.559,0.252-0.803,0.672-0.732,1.264l0.287,2.41l0.105,0.418
		c0.33,0.682,0.805,0.986,1.426,0.912l0.369-0.045l0.045-0.064l-0.373-3.115c0.445-0.141,0.881-0.41,1.309-0.803
		c0.748-0.883,1.062-1.83,0.941-2.834l-0.174-1.465c-0.035-0.307-0.141-0.686-0.309-1.143c-0.744-1.479-1.887-2.127-3.426-1.941
		l-3.525,0.42L958.247,430.032z"/>
	<path fill="none" stroke="#FFFFFF" stroke-width="2" stroke-miterlimit="10" d="M972.133,440.726l0.141,1.16l0.117,0.541
		c0.312,0.623,0.748,0.902,1.303,0.836l0.473-0.057l0.057-0.066l-0.148-1.227c-0.027-0.236-0.068-0.396-0.119-0.48
		c-0.275-0.623-0.699-0.897-1.27-0.832l-0.506,0.061L972.133,440.726z M968.172,428.847l0.049,0.398l0.113,0.514
		c0.283,0.584,0.686,0.844,1.211,0.781l1.828-0.217l0.857-0.035c0.914,0.164,1.43,0.752,1.551,1.764l0.047,0.398l0.027,0.676
		c-0.15,0.987-0.676,1.535-1.58,1.643c-0.561,0.252-0.803,0.674-0.732,1.265l0.287,2.411l0.105,0.416
		c0.328,0.682,0.805,0.986,1.426,0.912l0.369-0.043l0.045-0.064l-0.373-3.115c0.445-0.142,0.881-0.412,1.309-0.803
		c0.748-0.885,1.062-1.83,0.941-2.836l-0.174-1.465c-0.037-0.305-0.141-0.684-0.309-1.143c-0.744-1.477-1.887-2.127-3.426-1.941
		l-3.525,0.42L968.172,428.847z"/>
	<path fill="none" stroke="#FFFFFF" stroke-width="2" stroke-miterlimit="10" d="M982.059,439.54l0.141,1.16l0.117,0.541
		c0.312,0.623,0.748,0.902,1.303,0.836l0.473-0.057l0.057-0.066L984,440.729c-0.027-0.238-0.068-0.398-0.119-0.48
		c-0.275-0.625-0.699-0.9-1.27-0.832l-0.506,0.061L982.059,439.54z M978.098,427.663l0.049,0.396l0.113,0.516
		c0.281,0.584,0.686,0.844,1.211,0.781l1.828-0.219l0.857-0.035c0.914,0.166,1.43,0.752,1.551,1.764l0.047,0.398l0.027,0.676
		c-0.15,0.988-0.678,1.534-1.58,1.643c-0.561,0.252-0.803,0.674-0.734,1.266l0.289,2.41l0.105,0.416
		c0.328,0.682,0.805,0.986,1.426,0.912l0.367-0.043l0.047-0.064l-0.373-3.115c0.445-0.141,0.879-0.41,1.309-0.803
		c0.748-0.883,1.062-1.83,0.941-2.834l-0.174-1.467c-0.038-0.305-0.141-0.684-0.309-1.141c-0.744-1.479-1.887-2.127-3.428-1.943
		l-3.523,0.422L978.098,427.663z"/>
	<path fill="none" stroke="#FFFFFF" stroke-width="2" stroke-miterlimit="10" d="M1044.827,434.124l0.186,1.576l0.158,0.699
		c0.389,0.902,1.008,1.304,1.859,1.203l0.57-0.068l0.074-0.088l-0.227-1.912l-0.15-0.531c-0.396-0.795-1.043-1.139-1.943-1.033
		l-0.467,0.057L1044.827,434.124z M1042.858,417.642l1.502,12.582l0.109,0.568c0.4,0.994,1.021,1.439,1.867,1.338l0.611-0.072
		l0.072-0.1l-1.523-12.771c-0.285-1.26-0.913-1.83-1.879-1.715l-0.698,0.084L1042.858,417.642z"/>
	<path fill="none" stroke="#FFFFFF" stroke-width="2" stroke-miterlimit="10" d="M1051.53,433.323l0.188,1.576l0.158,0.699
		c0.387,0.904,1.006,1.304,1.859,1.203l0.568-0.066l0.074-0.09l-0.229-1.91l-0.146-0.531c-0.396-0.797-1.045-1.141-1.945-1.035
		l-0.467,0.057L1051.53,433.323z M1049.561,416.841l1.502,12.582l0.109,0.568c0.402,0.994,1.021,1.439,1.867,1.34l0.611-0.074
		l0.072-0.098l-1.523-12.773c-0.285-1.258-0.91-1.83-1.879-1.715l-0.698,0.084L1049.561,416.841z"/>
	<path fill="none" stroke="#FFFFFF" stroke-width="2" stroke-miterlimit="10" d="M1058.235,432.524l0.186,1.574l0.158,0.699
		c0.389,0.904,1.008,1.306,1.859,1.203l0.57-0.067l0.074-0.089l-0.227-1.911l-0.15-0.53c-0.396-0.797-1.043-1.141-1.943-1.033
		l-0.467,0.055L1058.235,432.524z M1056.266,416.042l1.502,12.582l0.109,0.568c0.4,0.994,1.021,1.438,1.867,1.338l0.611-0.074
		l0.072-0.098l-1.523-12.773c-0.285-1.258-0.91-1.83-1.879-1.713l-0.698,0.082L1056.266,416.042z"/>
	<path fill="#DF4944" d="M884.591,574.903c-2.65,4.241-6.122,6.872-8.678,10.943c-3.096,4.951-5.108,10.311-8.618,15.216
		c-5.007,7.005-11.034,13.381-15.338,20.893c-5.021,8.776-11.635,16.166-18.022,24.12c-5.615,7.013-8.742,16.135-14.78,22.304
		c-5.948,6.098,0.082,6.242,6.279,6.047c25.573-0.833,51.17,0.916,76.649-1.041c-3.506-13.806-5.014-27.96-7.617-42.076
		c-0.848-4.638-1.932-9.221-2.588-13.9c-0.832-6.146-2.804-12.012-3.396-18.262c-0.515-5.427-1.587-10.72-2.31-16.104
		c-0.356-2.771-1.605-5.19-1.889-7.825"/>
	<path fill="none" stroke="#F2F2F2" stroke-width="2" stroke-miterlimit="10" d="M821.629,564.8
		c3.918,1.846,8.293,2.028,12.066,3.813c4.578,2.165,8.084,5.232,13.096,7.153c7.132,2.736,15.199,4.426,21.723,7.945
		c7.594,4.098,16.541,6.273,25.405,9.004c7.787,2.406,13.452,7.795,21.473,9.339c7.921,1.521,1.509,4.879-5.153,8.048
		c-27.526,13.105-54.414,28.227-82.131,40.411c0.221-12.584-1.787-24.376-2.607-36.698c-0.276-4.067-0.278-8.196-0.791-12.174
		c-0.674-5.214-0.075-10.816-1.037-15.965c-0.836-4.484-1.036-9.181-1.655-13.72c-0.31-2.352,0.405-4.892,0.015-7.086"/>
	<path fill="none" stroke="#F2F2F2" stroke-width="2" stroke-miterlimit="10" d="M827.093,555.513
		c3.994,1.813,8.466,1.95,12.307,3.707c4.663,2.13,8.231,5.164,13.337,7.037c7.269,2.681,15.5,4.291,22.146,7.759
		c7.731,4.03,16.86,6.128,25.896,8.776c7.947,2.336,13.698,7.685,21.885,9.151c8.082,1.449,1.508,4.883-5.316,8.125
		c-28.202,13.416-55.766,28.842-84.158,41.337c0.301-12.621-1.674-24.429-2.443-36.772c-0.25-4.076-0.229-8.224-0.726-12.202
		c-0.655-5.228-0.015-10.85-0.962-16.004c-0.824-4.484-1.004-9.193-1.605-13.741c-0.31-2.351,0.438-4.91,0.054-7.106"/>
	<path fill="#FFFFFF" d="M73.611,313.825c-2.005,5.947-8.4,11.035-12.614,15.463c-5.119,5.379-9.366,11.258-13.347,17.506
		c-7.682,12.061-13.432,23.668-15.506,37.983c-0.993,6.851-1.857,13.815-2.384,20.72c-0.644,8.438-1.921,16.353-3.738,24.627
		c-3.081,14.034-3.378,28.76-3.465,43.101c-0.041,6.885,3.459,12.453,4.312,19.044c0.932,7.195,1.481,14.271,3.173,21.371
		c3.323,13.945,9.44,27.596,16.188,40.194c3.47,6.48,7.654,12.502,11.007,19.036c3.439,6.701,7.962,12.619,11.303,19.37
		c2.944,5.95,6.222,11.565,9.646,17.237c3.161,5.234,7.789,8.643,12.274,12.583c2.06,1.809,4.703,2.752,7.181,3.84
		c3.723,1.634,6.062,3.807,9.263,6.119c7.006,5.061,13.692,10.503,21.396,14.5c6.094,3.162,13.228,4.829,19.78,6.901
		c7.908,2.501,16.493,3.94,23.22,9.099c1.536,1.178,3.027-1.431,1.514-2.59c-4.661-3.575-10.153-5.602-15.844-6.87
		c-6.741-1.504-13.037-4.647-19.736-6.319c-6.568-1.639-12.304-5.339-17.796-9.188c-5.586-3.915-10.534-9.067-16.438-12.418
		c-2.37-1.347-4.978-2.282-7.436-3.455c-2.313-1.105-3.789-2.912-5.903-4.226c-6.35-3.942-10.317-11.466-13.939-17.763
		c-3.286-5.715-5.409-12.373-9.436-17.612c-4.785-6.224-7.79-13.692-11.964-20.31c-8.233-13.052-14.707-27.373-19.448-42.046
		c-2.261-6.999-3.018-13.979-4.37-21.148c-0.632-3.35-0.505-6.729-1.312-10.05c-1.013-4.163-2.96-7.731-3.486-12.094
		c-0.828-6.854,0.174-14.162,0.535-21.029c0.438-8.339,0.918-16.274,2.674-24.48c3.128-14.619,4.398-29.212,5.966-44.071
		c1.665-15.785,8.914-28.562,17.341-41.633c4.15-6.438,9.138-12.081,14.496-17.525c3.694-3.752,8.069-7.979,9.786-13.07
		C77.124,312.784,74.226,312.002,73.611,313.825"/>
	<path fill="#FFFFFF" d="M173.557,661.224c-0.052-7.047-3.216-14.253-6.705-20.257c-0.971-1.672-3.564-0.162-2.59,1.515
		c3.206,5.517,6.247,12.286,6.295,18.742C170.571,663.158,173.571,663.159,173.557,661.224"/>
	<path fill="#FFFFFF" d="M172.057,659.724c-1.537,0.141-2.954,0.522-4.434,0.964c-1.96,0.585-3.907,0.457-5.902,0.777
		c-3.42,0.55-6.816,0.822-10.164,1.259c-1.89,0.246-1.914,3.251,0,3.001c2.7-0.352,5.313,0.021,8.024-0.805
		c2.234-0.678,4.555-0.354,6.787-0.832c1.901-0.408,3.744-1.187,5.689-1.364C173.967,662.55,173.984,659.548,172.057,659.724"/>
	<path fill="#FFFFFF" d="M398.902,744.133c21.238,15.557,49.886,21.08,75.501,24.26c16.023,1.988,32.122,3.312,48.212,4.621
		c16.3,1.326,32.575,2.99,48.918,3.652c31.773,1.287,63.649,0.678,95.443,0.67c6.966-0.002,13.915-0.109,20.839-0.928
		c6.911-0.818,13.247-3.133,19.896-5.006c13.074-3.684,26.682-5.176,40.095-7.053c18.016-2.521,36.126-5.902,51.893-15.457
		c8.446-5.119,15.602-11.914,23.791-17.381c3.607-2.41,7.389-4.803,10.854-7.43c3.562-2.697,5.838-6.957,8.854-10.182
		c1.319-1.41-0.797-3.537-2.121-2.121c-2.28,2.438-4.163,5.152-6.297,7.713c-2.18,2.617-5.165,4.184-8.01,5.939
		c-5.742,3.545-11.08,8.012-16.348,12.221c-11.469,9.162-23.91,15.488-38.124,19.18c-13.033,3.383-26.528,4.732-39.827,6.652
		c-6.457,0.934-12.885,2.033-19.255,3.447c-7.048,1.566-13.761,4.25-20.818,5.729c-14.684,3.074-30.557,1.676-45.464,1.676
		c-15.868,0-31.739,0.057-47.607-0.066c-32.74-0.25-65.27-3.123-97.861-6.045c-18.672-1.674-37.086-3.812-55.365-8.031
		c-16.13-3.723-32.189-8.766-45.684-18.65C398.854,740.398,397.359,743.004,398.902,744.133"/>
	<path fill="#FFFFFF" d="M841.326,710.777c-4.222,1.316-8.508,3.105-12.935,3.613c-1.898,0.219-1.92,3.221,0,3
		c4.75-0.545,9.199-2.307,13.731-3.719C843.963,713.098,843.177,710.199,841.326,710.777"/>
	<path fill="#FFFFFF" d="M840.278,712.623c0.345,2.344,0.934,4.906,1.048,7.252c0.09,1.85-0.317,3.584,0.018,5.416
		c0.349,1.9,3.239,1.094,2.894-0.797c-0.319-1.746,0.137-3.621,0.051-5.398c-0.115-2.363-0.769-4.904-1.117-7.27
		C842.89,709.918,840,710.73,840.278,712.623"/>
</g>
</svg>
