<?xml version="1.0" encoding="utf-8"?>
<!-- Generator: Adobe Illustrator 16.0.0, SVG Export Plug-In . SVG Version: 6.00 Build 0)  -->
<!DOCTYPE svg PUBLIC "-//W3C//DTD SVG 1.1//EN" "http://www.w3.org/Graphics/SVG/1.1/DTD/svg11.dtd">
<svg version="1.1" id="Layer_1" xmlns="http://www.w3.org/2000/svg" xmlns:xlink="http://www.w3.org/1999/xlink" x="0px" y="0px"
	 width="129.333px" height="104px" viewBox="0 0 129.333 104" enable-background="new 0 0 129.333 104" xml:space="preserve">
<g>
	<path fill="none" stroke="#F3F3F3" stroke-width="2" stroke-miterlimit="10" d="M1.688,93.88
		c10.926,21.054,21.001-5.563,34.923-4.885c9.195,0.449,10.977,8.543,20.764,4.546c6.543-2.672,11.059-9.8,18.43-9.506"/>
	<path fill="none" stroke="#F3F3F3" stroke-width="2" stroke-miterlimit="10" d="M96.066,34.115
		c-1.18,2.088-9.684,17.773-12.387,24.474c0.355,3.207,1.057,6.375,1.238,9.625c2.709-1.395,5.357-3.576,7.85-5.306
		c1.447-2.322,7.979-18.176,11.303-23.889c3.453-5.933,6.541-12.263,10.072-18.22c2.479-4.181,4.523-9.474,7.191-13.561
		c-1.412-1.112-3.107-2.056-4.504-2.676c-1.713-0.76-3.303-1.282-4.873-1.66c-1.957,3.357-5.619,9.961-7.141,13.668
		C102.083,23.23,99.576,27.907,96.066,34.115z"/>
	<path fill="none" stroke="#F3F3F3" stroke-width="2" stroke-miterlimit="10" d="M83.679,58.589
		c2.703-6.701,11.207-22.386,12.387-24.474c3.51-6.209,6.018-10.886,8.752-17.545c1.52-3.708,5.18-10.31,7.139-13.669
		C108.779,2.133,105.691,2,101.914,2c0,0-4.295,8.644-5.154,10.227C91.904,21.165,88,29.992,84.093,39.293
		c-1.568,3.738-3.408,7.325-4.645,11.14c-0.834,2.58-3.357,9.177-3.357,9.177c-0.344,0.937-0.52,2.023-0.615,3.17
		c1.148-0.509,2.289-1.133,3.084-1.568C79.976,60.437,82.117,58.712,83.679,58.589z"/>
	<path fill="none" stroke="#F3F3F3" stroke-width="2" stroke-miterlimit="10" d="M80.568,75.615
		c-1.352-0.763-3.631-0.809-5.508-0.235c-0.291,3.623-0.42,8.299,1.195,8.752c0.895,0.25,4.426-2.396,5.363-2.859
		c0.518-0.259,1.039-0.509,1.561-0.762C82.941,78.507,82.054,76.452,80.568,75.615z"/>
	<path fill="none" stroke="#F3F3F3" stroke-width="2" stroke-miterlimit="10" d="M123.171,9.018
		c-0.486-0.625-1.129-1.223-1.838-1.78c-2.668,4.088-4.713,9.38-7.191,13.561c-3.531,5.957-6.619,12.287-10.072,18.22
		c-3.324,5.713-9.855,21.567-11.303,23.891c1.035,1.559,1.5,3.627,1.715,5.476c0.152,1.312,0.018,2.8,0.074,4.216
		c-0.057-1.416,0.078-2.903-0.074-4.216c-0.215-1.849-0.68-3.917-1.715-5.476c-2.492,1.729-5.141,3.911-7.85,5.305
		c-0.182-3.251-0.881-6.418-1.238-9.625c-1.562,0.122-3.701,1.848-5.119,2.622c-0.795,0.435-1.936,1.059-3.084,1.568
		c-0.238,2.86,0.082,6.132-0.055,8.65c-0.037,0.649-0.219,2.173-0.361,3.95c1.877-0.573,4.158-0.527,5.508,0.235
		c1.486,0.837,2.373,2.892,2.611,4.896c1.559-0.755,3.117-1.524,4.553-2.498c3.025-2.05,8.463-6.826,8.463-6.826
		c0.787-1.229,4.676-7.072,5.562-9.039c2.15-4.762,11.887-21.76,14.623-26.452c2.59-4.443,5.434-8.453,7.387-13.24
		c0.908-2.229,3.879-6.797,3.879-6.797C126.9,13.718,124.439,10.648,123.171,9.018z"/>
	<path fill="#F3F3F3" d="M76.097,77.026c0.262-0.121,0.51-0.275,0.771-0.402c-0.684-0.684-1.367-1.367-2.053-2.052
		c-0.561,0.858-1.119,1.653-1.371,2.659c-0.312,1.254,1.049,2.387,2.203,1.694c1.012-0.607,1.717-1.595,2.76-2.123
		c1.734-0.879,0.215-3.423-1.514-2.591c-0.785,0.378-1.303,0.868-1.814,1.562c-0.52,0.7-0.559,1.658-1.133,2.326
		c-1.254,1.459,0.682,3.44,2.121,2.122c0.914-0.838,1.498-2.693,2.645-3.172l-1.459-2.508c-0.615,0.779-1.357,1.47-1.918,2.288
		c-0.646,0.943-0.859,1.948-1.309,2.979c-0.754,1.726,1.629,3.245,2.59,1.514c0.932-1.677,2.027-3.383,3.713-4.38
		c-0.686-0.685-1.369-1.369-2.053-2.053c-0.828,1.099-1.904,1.981-2.699,3.107c-0.359,0.507-0.779,1.081-0.941,1.692
		c-0.248,0.942-0.076,1.864-0.279,2.799c-0.369,1.707,1.77,2.547,2.742,1.156c1.463-2.09,2.252-4.665,4.318-6.275
		c-0.785-0.605-1.572-1.212-2.357-1.817c-1.486,2.702-3.064,5.326-4.252,8.181c-0.662,1.591,1.936,2.614,2.742,1.155
		c1.26-2.279,2.24-5.094,4.502-6.585L80,76.251c-1.105,1.804-1.863,3.825-3.211,5.474c0.785,0.605,1.57,1.212,2.355,1.817
		c0.957-1.582,2.154-3.09,3.703-4.126c-0.684-0.684-1.369-1.367-2.053-2.052c-0.646,1.148-1.275,2.367-2.242,3.279
		c-1.42,1.336,0.68,3.389,2.121,2.121c0.859-0.758,1.545-1.725,2.49-2.383c-0.734-0.564-1.469-1.13-2.203-1.693
		c-0.072,0.409-0.229,0.781-0.473,1.116c-0.852,1.464,1.166,3.062,2.355,1.816c0.309-0.322,0.633-0.623,0.959-0.928
		c1.416-1.324-0.709-3.442-2.121-2.122c-0.326,0.306-0.65,0.606-0.959,0.929c0.785,0.606,1.57,1.212,2.355,1.818
		c0.346-0.594,0.607-1.167,0.775-1.833c0.299-1.19-1.07-2.483-2.203-1.694c-1.176,0.818-2.031,1.913-3.098,2.853
		c0.707,0.707,1.414,1.414,2.121,2.121c1.152-1.086,1.941-2.519,2.711-3.887c0.705-1.252-0.754-2.92-2.051-2.052
		c-1.984,1.327-3.551,3.168-4.779,5.202c-0.863,1.431,1.262,3.157,2.357,1.817c1.525-1.869,2.428-4.038,3.68-6.08
		c0.768-1.253-0.783-2.89-2.053-2.053c-2.791,1.841-4.02,4.842-5.578,7.661c0.914,0.386,1.826,0.771,2.74,1.156
		c1.084-2.603,2.596-4.999,3.949-7.463c0.877-1.592-1.066-2.822-2.354-1.818c-2.283,1.779-3.176,4.579-4.787,6.883
		c0.914,0.385,1.828,0.77,2.742,1.155c0.307-1.423,0.027-2.653,1-3.871c0.834-1.041,1.811-1.941,2.615-3.012
		c0.941-1.25-0.84-2.77-2.053-2.052c-2.127,1.26-3.605,3.329-4.787,5.457c0.863,0.505,1.727,1.009,2.59,1.514
		c0.365-0.837,0.58-1.744,1.012-2.546c0.422-0.781,1.195-1.418,1.746-2.112c0.797-1.011,0.102-3.161-1.459-2.507
		c-2.02,0.843-2.469,2.567-3.969,3.942c0.707,0.708,1.414,1.415,2.121,2.122c0.896-1.044,1.082-2.814,2.34-3.42
		c-0.504-0.863-1.01-1.728-1.514-2.591c-1.076,0.545-1.744,1.515-2.76,2.123l2.205,1.694c0.184-0.74,0.658-1.316,1.068-1.943
		c0.887-1.355-0.797-2.659-2.053-2.052c-0.262,0.126-0.51,0.281-0.771,0.401C72.828,75.242,74.351,77.828,76.097,77.026"/>
</g>
</svg>
