<?xml version="1.0" encoding="utf-8"?>
<!-- Generator: Adobe Illustrator 16.0.0, SVG Export Plug-In . SVG Version: 6.00 Build 0)  -->
<!DOCTYPE svg PUBLIC "-//W3C//DTD SVG 1.1//EN" "http://www.w3.org/Graphics/SVG/1.1/DTD/svg11.dtd">
<svg version="1.1" id="Layer_1" xmlns="http://www.w3.org/2000/svg" xmlns:xlink="http://www.w3.org/1999/xlink" x="0px" y="0px"
	 width="183.485px" height="152.666px" viewBox="0 0 183.485 152.666" enable-background="new 0 0 183.485 152.666"
	 xml:space="preserve">
<path fill="none" stroke="#FFFFFF" stroke-width="2" stroke-linecap="round" stroke-linejoin="round" stroke-miterlimit="10" d="
	M16.841,64.877c0.694,1.949,1.868,3.322,2.541,5.201c0.81,2.28,1.147,4.623,2.131,6.927c1.405,3.275,3.279,6.395,4.351,9.821
	c1.252,3.995,3.269,7.57,5.148,11.366c1.648,3.335,2.105,7.302,3.996,10.34c1.867,2.995-0.588,2.521-3.078,1.886
	c-10.275-2.61-20.794-4.179-30.93-7.238c2.65-5.277,4.517-10.872,6.826-16.35c0.754-1.803,1.604-3.563,2.285-5.396
	c0.881-2.417,2.201-4.618,2.998-7.092c0.687-2.151,1.598-4.195,2.367-6.313c0.393-1.089,1.114-1.955,1.457-2.999"/>
<path fill="none" stroke="#FFFFFF" stroke-width="2" stroke-linecap="round" stroke-linejoin="round" stroke-miterlimit="10" d="
	M29.841,59.93c0.697,1.949,1.869,3.32,2.54,5.199c0.812,2.282,1.15,4.624,2.135,6.924c1.404,3.28,3.278,6.396,4.348,9.823
	c1.257,3.997,3.271,7.571,5.148,11.367c1.649,3.337,2.105,7.302,3.995,10.34c1.868,2.996-0.588,2.521-3.075,1.886
	c-10.277-2.611-20.793-4.178-30.93-7.24c2.648-5.273,4.518-10.871,6.823-16.349c0.757-1.801,1.604-3.56,2.286-5.398
	c0.884-2.411,2.203-4.613,2.998-7.09c0.688-2.146,1.599-4.196,2.369-6.312c0.391-1.087,1.111-1.954,1.459-2.998"/>
<path fill="none" stroke="#FFFFFF" stroke-width="2" stroke-linecap="round" stroke-linejoin="round" stroke-miterlimit="10" d="
	M111.314,33.899c-1.434-0.647-2.806-0.728-4.19-1.351c-1.677-0.759-3.14-1.808-4.92-2.483c-2.538-0.959-5.235-1.576-7.679-2.798
	c-2.851-1.42-5.875-2.2-8.947-3.174c-2.698-0.854-5.111-2.695-7.775-3.263c-2.627-0.556-1.07-1.651,0.59-2.682
	c6.852-4.255,13.26-9.194,20.283-13.136c1.494,4.236,3.577,8.211,5.36,12.365c0.592,1.364,1.108,2.758,1.754,4.101
	c0.86,1.757,1.37,3.642,2.306,5.383c0.817,1.511,1.457,3.089,2.211,4.628c0.391,0.79,0.485,1.643,0.877,2.381"/>
<path fill="none" stroke="#FFFFFF" stroke-width="2" stroke-linecap="round" stroke-linejoin="round" stroke-miterlimit="10" d="
	M107.17,43.636c-1.436-0.646-2.805-0.728-4.189-1.351c-1.68-0.759-3.141-1.808-4.921-2.481c-2.538-0.96-5.235-1.576-7.679-2.798
	c-2.853-1.42-5.875-2.202-8.945-3.174c-2.699-0.856-5.114-2.697-7.775-3.264c-2.627-0.557-1.072-1.652,0.588-2.681
	c6.852-4.257,13.258-9.195,20.283-13.136c1.494,4.232,3.576,8.212,5.363,12.363c0.588,1.365,1.104,2.76,1.753,4.102
	c0.856,1.755,1.366,3.642,2.304,5.382c0.814,1.511,1.457,3.09,2.211,4.63c0.392,0.787,0.485,1.641,0.875,2.38"/>
<path fill="none" stroke="#FFFFFF" stroke-width="2" stroke-linecap="round" stroke-linejoin="round" stroke-miterlimit="10" d="
	M160.846,81.742c-0.777,2.672-0.582,5.095-1.329,7.673c-0.915,3.125-2.392,5.946-3.135,9.232c-1.052,4.681-1.466,9.561-3.001,14.142
	c-1.782,5.344-2.401,10.831-3.344,16.454c-0.832,4.936-3.461,9.618-3.795,14.425c-0.325,4.738-2.629,2.285-4.844-0.37
	c-9.147-10.948-19.38-20.95-28.022-32.278c7.051-3.666,13.497-8.295,20.332-12.447c2.245-1.371,4.56-2.62,6.75-4.084
	c2.864-1.939,6.04-3.3,8.86-5.37c2.443-1.804,5.049-3.314,7.558-5.018c1.286-0.877,2.756-1.253,3.952-2.121"/>
<path fill="none" stroke="#FFFFFF" stroke-width="2" stroke-linecap="round" stroke-linejoin="round" stroke-miterlimit="10" d="
	M178.924,86.594c-0.775,2.675-0.58,5.094-1.329,7.671c-0.912,3.129-2.392,5.95-3.13,9.234c-1.055,4.684-1.467,9.56-3.004,14.139
	c-1.781,5.349-2.403,10.836-3.346,16.454c-0.832,4.939-3.463,9.623-3.795,14.425c-0.326,4.739-2.631,2.288-4.84-0.366
	c-9.152-10.951-19.383-20.949-28.021-32.279c7.044-3.662,13.496-8.294,20.328-12.449c2.246-1.367,4.558-2.617,6.75-4.084
	c2.863-1.932,6.041-3.295,8.857-5.366c2.444-1.8,5.051-3.316,7.562-5.018c1.281-0.879,2.752-1.254,3.951-2.12"/>
<path fill="none" stroke="#FFFFFF" stroke-width="2" stroke-linecap="round" stroke-linejoin="round" stroke-miterlimit="10" d="
	M178.754,33.487c-1.543,0.302-2.709,1.027-4.199,1.32c-1.808,0.35-3.607,0.339-5.451,0.817c-2.625,0.684-5.184,1.739-7.883,2.153
	c-3.147,0.489-6.066,1.601-9.135,2.583c-2.697,0.861-5.73,0.753-8.232,1.83c-2.465,1.064-1.829-0.729-1.067-2.529
	c3.13-7.433,5.507-15.166,8.96-22.442c3.668,2.593,7.664,4.633,11.52,6.993c1.271,0.771,2.5,1.61,3.803,2.332
	c1.717,0.937,3.223,2.18,4.992,3.061c1.539,0.761,2.975,1.678,4.479,2.498c0.774,0.419,1.345,1.06,2.091,1.438"/>
<path fill="none" stroke="#FFFFFF" stroke-width="2" stroke-linecap="round" stroke-linejoin="round" stroke-miterlimit="10" d="
	M181,43.828c-1.545,0.304-2.709,1.029-4.199,1.319c-1.81,0.353-3.608,0.34-5.45,0.82c-2.627,0.683-5.185,1.739-7.884,2.153
	c-3.149,0.491-6.067,1.6-9.135,2.58c-2.699,0.862-5.731,0.756-8.23,1.831c-2.467,1.065-1.831-0.729-1.07-2.528
	c3.131-7.434,5.506-15.166,8.96-22.441c3.666,2.59,7.664,4.634,11.522,6.99c1.269,0.773,2.496,1.611,3.802,2.333
	c1.712,0.938,3.219,2.183,4.99,3.062c1.536,0.762,2.975,1.68,4.481,2.499c0.772,0.417,1.342,1.058,2.088,1.438"/>
<path fill="none" stroke="#FFFFFF" stroke-width="2" stroke-linecap="round" stroke-linejoin="round" stroke-miterlimit="10" d="
	M80.947,84.346c1.098-0.037,1.983-0.408,3.043-0.444c1.285-0.041,2.525,0.166,3.85,0.041c1.886-0.18,3.769-0.624,5.676-0.61
	c2.227,0.013,4.361-0.43,6.588-0.768c1.955-0.294,4.035,0.117,5.879-0.348c1.818-0.46,1.18,0.707,0.456,1.863
	c-2.983,4.778-5.481,9.849-8.671,14.481c-2.242-2.194-4.771-4.045-7.169-6.1c-0.791-0.675-1.544-1.39-2.361-2.031
	c-1.081-0.836-1.981-1.861-3.104-2.665c-0.979-0.696-1.865-1.488-2.812-2.22c-0.486-0.375-0.809-0.882-1.281-1.224"/>
<path fill="none" stroke="#FFFFFF" stroke-width="2" stroke-linecap="round" stroke-linejoin="round" stroke-miterlimit="10" d="
	M80.547,76.964c1.1-0.038,1.982-0.407,3.043-0.442c1.285-0.042,2.525,0.165,3.85,0.039c1.888-0.18,3.768-0.623,5.676-0.61
	c2.227,0.011,4.361-0.429,6.586-0.765c1.956-0.295,4.036,0.115,5.88-0.351c1.819-0.46,1.181,0.707,0.457,1.863
	c-2.985,4.779-5.479,9.849-8.671,14.481c-2.241-2.192-4.771-4.045-7.171-6.099c-0.787-0.676-1.541-1.389-2.362-2.03
	c-1.076-0.838-1.979-1.863-3.102-2.666c-0.975-0.695-1.865-1.488-2.812-2.222c-0.486-0.373-0.809-0.879-1.281-1.224"/>
<path fill="none" stroke="#FFFFFF" stroke-width="2" stroke-linecap="round" stroke-linejoin="round" stroke-miterlimit="10" d="
	M40.337,134.566c0.553,0.415,1.133,0.581,1.667,0.981c0.646,0.487,1.172,1.076,1.871,1.538c0.994,0.656,2.094,1.179,3.023,1.937
	c1.086,0.882,2.307,1.507,3.53,2.22c1.075,0.625,1.933,1.648,3.021,2.146c1.072,0.491,0.3,0.812-0.512,1.093
	c-3.346,1.167-6.568,2.667-9.957,3.683c-0.234-1.958-0.744-3.863-1.109-5.816c-0.123-0.641-0.211-1.289-0.357-1.926
	c-0.201-0.836-0.238-1.693-0.473-2.529c-0.205-0.725-0.327-1.464-0.504-2.195c-0.09-0.377-0.049-0.752-0.146-1.105"/>
<path fill="none" stroke="#FFFFFF" stroke-width="2" stroke-linecap="round" stroke-linejoin="round" stroke-miterlimit="10" d="
	M43.049,130.79c0.555,0.415,1.133,0.581,1.667,0.982c0.647,0.487,1.174,1.077,1.872,1.536c0.996,0.656,2.093,1.18,3.021,1.938
	c1.088,0.883,2.308,1.508,3.53,2.221c1.076,0.625,1.935,1.647,3.021,2.146c1.072,0.492,0.302,0.812-0.51,1.093
	c-3.347,1.167-6.566,2.668-9.957,3.684c-0.234-1.959-0.744-3.864-1.111-5.816c-0.121-0.643-0.209-1.288-0.358-1.927
	c-0.198-0.834-0.235-1.692-0.469-2.528c-0.206-0.727-0.329-1.465-0.504-2.198c-0.093-0.373-0.05-0.749-0.146-1.104"/>
<path fill="none" stroke="#FFFFFF" stroke-width="2" stroke-linecap="round" stroke-linejoin="round" stroke-miterlimit="10" d="
	M32.332,13.815c-0.385,0.117-0.662,0.331-1.035,0.444c-0.45,0.135-0.908,0.178-1.365,0.347c-0.65,0.241-1.275,0.574-1.951,0.749
	c-0.789,0.205-1.503,0.562-2.259,0.89c-0.664,0.289-1.438,0.338-2.047,0.677c-0.601,0.334-0.485-0.14-0.337-0.616
	c0.606-1.973,1.013-4,1.707-5.939c0.998,0.566,2.068,0.983,3.109,1.485c0.344,0.163,0.678,0.346,1.027,0.497
	c0.46,0.193,0.875,0.472,1.348,0.649c0.411,0.155,0.801,0.353,1.204,0.522c0.207,0.087,0.37,0.235,0.568,0.312"/>
<path fill="none" stroke="#FFFFFF" stroke-width="2" stroke-linecap="round" stroke-linejoin="round" stroke-miterlimit="10" d="
	M33.168,16.39c-0.385,0.117-0.662,0.331-1.035,0.442c-0.451,0.136-0.91,0.18-1.365,0.349c-0.652,0.241-1.275,0.575-1.951,0.749
	c-0.789,0.205-1.504,0.562-2.26,0.89c-0.664,0.289-1.438,0.339-2.047,0.677c-0.601,0.334-0.484-0.139-0.336-0.616
	c0.606-1.972,1.014-4,1.705-5.939c1,0.566,2.069,0.984,3.112,1.484c0.341,0.165,0.675,0.346,1.026,0.495
	c0.459,0.196,0.873,0.475,1.348,0.653c0.41,0.154,0.8,0.351,1.205,0.521c0.206,0.087,0.367,0.235,0.568,0.312"/>
</svg>
