<?xml version="1.0" encoding="utf-8"?>
<!-- Generator: Adobe Illustrator 16.0.0, SVG Export Plug-In . SVG Version: 6.00 Build 0)  -->
<!DOCTYPE svg PUBLIC "-//W3C//DTD SVG 1.1//EN" "http://www.w3.org/Graphics/SVG/1.1/DTD/svg11.dtd">
<svg version="1.1" id="Layer_1" xmlns="http://www.w3.org/2000/svg" xmlns:xlink="http://www.w3.org/1999/xlink" x="0px" y="0px"
	 width="1091.213px" height="820.742px" viewBox="0 0 1091.213 820.742" enable-background="new 0 0 1091.213 820.742"
	 xml:space="preserve">
<g>
	<path fill="#DF4944" d="M696.545,345.884c-12.318,2.934-23.09,1.547-34.949,4.378c-14.395,3.431-27.645,9.514-42.66,12.152
		c-21.412,3.741-43.438,4.572-64.611,10.513c-24.683,6.917-49.545,8.546-75.097,11.602c-22.477,2.681-44.544,13.57-66.201,14.03
		c-21.404,0.467-11.305,11.354-0.313,21.884c45.378,43.525,86.064,91.731,133.376,133.074
		c19.274-30.966,42.641-59.064,64.016-88.962c7.039-9.843,13.566-19.992,21.055-29.534c9.814-12.521,17.213-26.51,27.619-38.762
		c9.057-10.637,16.918-22.075,25.555-32.974c4.451-5.626,6.744-12.17,11.123-17.385"/>
	<path fill="none" stroke="#DF4944" stroke-miterlimit="10" d="M696.545,345.884c-12.318,2.934-23.09,1.547-34.949,4.378
		c-14.395,3.431-27.645,9.514-42.66,12.152c-21.412,3.741-43.438,4.572-64.611,10.513c-24.683,6.917-49.545,8.546-75.097,11.602
		c-22.477,2.681-44.544,13.57-66.201,14.03c-21.404,0.467-11.305,11.354-0.313,21.884c45.378,43.525,86.064,91.731,133.376,133.074
		c19.274-30.966,42.641-59.064,64.016-88.962c7.039-9.843,13.566-19.992,21.055-29.534c9.814-12.521,17.213-26.51,27.619-38.762
		c9.057-10.637,16.918-22.075,25.555-32.974c4.451-5.626,6.744-12.17,11.123-17.385"/>
	<path fill="none" stroke="#FFFFFF" stroke-width="2" stroke-miterlimit="10" d="M489.562,237.122
		c-3.87,2.498-5.829,7.066-7.742,10.919c-3.199,6.431-5.727,12.918-8.441,19.638c-8.108,20.066-5.048,42.343-2.378,63.422
		c1.392,10.994,4.108,21.889,6.594,32.778c1.043,4.56,1.145,8.918,2.172,13.42c1.278,5.59,4.505,9.145,7.422,13.865
		c5.258,8.501,9.049,17.888,14.002,26.48c2.114,3.663,3.688,8.05,6.414,11.288c2.624,3.127,7.5,5.875,10.726,8.166
		c6.696,4.764,9.658,8.781,17.292,12.523c6.865,3.362,19.01,1.342,24.334-3.581c2.369-2.192,9.434-10.916,11.658-13.614
		c4.291-5.201,7.127-14.265,9.314-20.605c1.324-3.843,2.504-7.369,3.17-11.355c0.574-3.424,0.975-7.424,1.762-10.805
		c1.982-8.537-1.738-17.035-1.418-25.525c0.641-17.028-5.285-34.039-7.508-50.868c-1.131-8.563-2.305-17.452-6.066-25.235
		c-3.637-7.531-9.209-13.637-12.854-20.968c-7.127-14.322-23.11-27.928-37.466-34.191c-5.684-2.479-11.128-4.138-17.048-3.68
		C500,229.465,492.843,235.003,489.562,237.122z"/>
	<path fill="none" stroke="#FFFFFF" stroke-width="2" stroke-miterlimit="10" d="M479.721,437.225
		c15.95-0.347,29.806-10.767,42.558-19.402c6.872-4.649,12.493-8.916,18.261-14.695c4.962-4.97,10.945-7.757,16.71-11.376
		c6.344-3.982,10.42-10.149,13.74-16.645c4.457-8.717,9.904-17.106,14.152-25.945c8.252-17.163,15.541-34.798,19.449-53.718
		c3.467-16.787,3.162-32.178-8.145-45.341c-5.68-6.618-14.342-9.236-23.713-7.034c-6.863,1.613-13.234,1.659-21.602,3.878
		c-8.269,2.189-15.787,9.564-23.162,13.661c-7.745,4.306-15.09,11.925-22.523,16.388c-8.875,5.329-12.98,12.685-18.168,21.559
		c-5.973,10.222-14.762,18.436-20.055,28.73c-9.425,18.331-20.989,35.856-19.464,57.579c0.41,5.899,1.235,9.372,0.926,15.315
		c-0.253,4.859-0.16,12.723,2.676,17.757C455.619,425.494,470.3,437.429,479.721,437.225z"/>
	<path fill="none" stroke="#FFFFFF" stroke-width="2" stroke-miterlimit="10" d="M428.656,293.149
		c-0.97,4.504,0.873,9.119,2.245,13.195c2.285,6.807,5.086,13.184,7.917,19.854c8.457,19.921,26.372,33.509,43.166,46.53
		c8.757,6.79,18.38,12.571,27.84,18.514c3.959,2.487,7.116,5.494,11.026,7.951c4.856,3.049,9.652,3.285,15.053,4.557
		c9.73,2.294,19.047,6.251,28.623,8.822c4.086,1.099,8.301,3.087,12.52,3.451c4.064,0.352,9.453-1.15,13.357-1.812
		c8.104-1.368,13.039-0.616,21.084-3.37c7.229-2.476,14.389-12.495,14.67-19.737c0.125-3.23-1.045-14.393-1.381-17.874
		c-0.643-6.712-5.043-15.126-7.982-21.156c-1.781-3.657-3.441-6.982-5.787-10.272c-2.018-2.824-4.559-5.94-6.396-8.886
		c-4.633-7.436-13.273-10.816-19.051-17.044c-11.588-12.493-27.809-20.334-41.276-30.662c-6.858-5.255-13.97-10.708-22.134-13.556
		c-7.899-2.752-16.156-3.132-23.919-5.733c-15.163-5.086-36.085-3.409-50.666,2.312c-5.774,2.265-10.797,4.944-14.657,9.451
		C430.618,280.354,429.479,289.329,428.656,293.149z"/>
	<path fill="none" stroke="#FFFFFF" stroke-width="2" stroke-miterlimit="10" d="M428.574,387.23
		c12.703,9.649,30.029,10.109,45.391,11.279c8.272,0.633,15.329,0.789,23.438-0.148c6.976-0.803,13.396,0.734,20.159,1.484
		c7.446,0.828,14.471-1.467,21.112-4.486c8.912-4.053,18.395-7.235,27.221-11.515c17.135-8.31,33.814-17.58,48.641-29.963
		c13.152-10.991,22.49-23.232,21.824-40.569c-0.332-8.717-5.482-16.154-14.197-20.259c-6.373-3.005-11.389-6.933-19.324-10.4
		c-7.834-3.427-18.307-2.329-26.629-3.71c-8.742-1.443-19.236-0.046-27.831-1.175c-10.264-1.346-18.055,1.856-27.637,5.581
		c-11.035,4.289-23.024,5.255-33.573,10.021c-18.782,8.493-38.738,15.024-51.057,32.977c-3.346,4.879-4.859,8.114-8.798,12.574
		c-3.218,3.645-8.043,9.859-8.951,15.566C416.995,363.053,421.068,381.532,428.574,387.23z"/>
	<path fill="none" stroke="#FFFFFF" stroke-width="2" stroke-miterlimit="10" d="M527.712,320.102
		c-18.581,6.262-19.248,22.055-9.288,34.313c12.467,15.349,40.582-1.058,28.49-25.968
		C542.797,319.961,533.704,318.084,527.712,320.102z"/>
	<path fill="none" stroke="#FFFFFF" stroke-width="2" stroke-miterlimit="10" d="M536.657,235.876
		c-5.214,1.755-5.404,6.187-2.606,9.632c3.5,4.306,11.393-0.3,7.995-7.294C540.893,235.835,538.34,235.309,536.657,235.876z"/>
	<path fill="none" stroke="#FFFFFF" stroke-width="2" stroke-miterlimit="10" d="M427.812,294.782
		c-5.214,1.756-5.404,6.19-2.606,9.632c3.5,4.306,11.39-0.3,7.995-7.291C432.044,294.742,429.495,294.216,427.812,294.782z"/>
	<path fill="none" stroke="#FFFFFF" stroke-width="2" stroke-miterlimit="10" d="M447.494,369.825
		c-5.214,1.759-5.404,6.19-2.606,9.631c3.499,4.31,11.39-0.297,7.995-7.287C451.727,369.787,449.177,369.261,447.494,369.825z"/>
	<path fill="none" stroke="#FFFFFF" stroke-width="2" stroke-miterlimit="10" d="M572.926,363.667
		c-5.215,1.756-5.404,6.19-2.607,9.628c3.5,4.31,11.393-0.296,7.996-7.287C577.159,363.624,574.608,363.1,572.926,363.667z"/>
	<path fill="none" stroke="#FFFFFF" stroke-width="2" stroke-miterlimit="10" d="M529.637,439.219
		c-5.217,1.759-5.403,6.189-2.608,9.632c3.502,4.309,11.392-0.297,7.998-7.291C533.871,439.181,531.316,438.654,529.637,439.219z"/>
	<path fill="none" stroke="#FFFFFF" stroke-width="2" stroke-miterlimit="10" d="M624.426,289.533
		c-5.219,1.759-5.404,6.19-2.609,9.632c3.5,4.306,11.393-0.298,7.998-7.291C628.659,289.492,626.106,288.966,624.426,289.533z"/>
	<path fill="none" stroke="#FFFFFF" stroke-width="2" stroke-miterlimit="10" d="M608.092,333.332
		c-5.219,1.755-5.404,6.189-2.609,9.631c3.502,4.307,11.393-0.299,7.998-7.29C612.325,333.291,609.772,332.764,608.092,333.332z"/>
	<text transform="matrix(1 0 0 1 355.1411 17.1094)" fill="#FFFFFF" font-family="'Roboto-Regular'" font-size="20">As sessões integram uma </text>
	<text transform="matrix(1 0 0 1 386.6411 40.1094)" fill="#FFFFFF" font-family="'Roboto-Regular'" font-size="20">REDE CULTURAL mais </text>
	<text transform="matrix(1 0 0 1 300.6211 63.1094)" fill="#FFFFFF" font-family="'Roboto-Regular'" font-size="20">ampla, que visibiliza espaços de </text>
	<text transform="matrix(1 0 0 1 271.4609 86.1094)" fill="#FFFFFF" font-family="'Roboto-Regular'" font-size="20">interesse público e forma um mapa </text>
	<text transform="matrix(1 0 0 1 323.9609 109.1094)" fill="#FFFFFF" font-family="'Roboto-Regular'" font-size="20">de quantas pessoas um filme </text>
	<text transform="matrix(1 0 0 1 327.1611 132.1094)" fill="#FFFFFF" font-family="'Roboto-Regular'" font-size="20">e uma causa podem atingir :-)</text>
	<path fill="#DF4944" d="M215.961,723.322c8.768-3.561,19.384-4.778,27.818-8.216c10.239-4.172,17.472-9.422,28.869-13.324
		c16.231-5.564,35.204-9.793,49.605-16.372c16.765-7.656,37.673-12.789,58.134-18.724c17.976-5.22,29.461-14.338,48.387-18.349
		c18.686-3.959,1.544-7.47-16.119-10.651c-73.003-13.154-145.325-29.397-218.396-41.164c6.054,18.361,6.309,36.052,9.693,54.252
		c1.118,6.01,2.918,12.056,3.407,17.983c0.64,7.777,4.549,15.837,4.457,23.58c-0.074,6.738,1.486,13.654,1.967,20.429
		c0.262,3.507,3.125,7.068,3.133,10.364"/>
	<path fill="#DF4944" d="M1001.489,319.416c-2.988-6.281-4.338-14.019-7.221-20.06c-3.5-7.334-7.662-12.417-11.016-20.612
		c-4.777-11.672-8.693-25.411-14.139-35.697c-6.336-11.974-10.998-27.096-16.23-41.856c-4.6-12.967-11.783-21.003-15.539-34.719
		c-3.705-13.542-5.547-0.812-7.125,12.284c-6.521,54.132-15.342,107.898-20.844,162.02c13.215-5.231,26.184-6.176,39.395-9.439
		c4.361-1.078,8.721-2.658,13.049-3.27c5.68-0.803,11.426-4.016,17.113-4.279c4.945-0.237,9.953-1.677,14.904-2.32
		c2.562-0.344,5.053-2.596,7.471-2.744"/>
	<path fill="none" stroke="#FFFFFF" stroke-width="2" stroke-miterlimit="10" d="M211.132,612.087
		c-2.955-9.141-1.91-25.684,5.398-32.877c4.897-4.826,13.696-8.904,20.649-6.691c7.006,2.229,11.371,11.336,13.51,17.877
		c3.709,11.355-1.487,20.709-9.077,29.061c-2.544,2.799-5.48,5.199-7.708,8.312c-1.317,1.842-4.745,5.977-5.549,7.945
		C227.829,635.183,213.648,619.884,211.132,612.087z"/>
	<path fill="none" stroke="#FFFFFF" stroke-width="2" stroke-miterlimit="10" d="M221.675,590.812
		c-1.332,6.816,3.947,9.404,9.389,9.43c15.709,0.068,7.832-15.402,1.369-16.283C226.339,583.13,222.665,585.741,221.675,590.812z"/>
	<path fill="none" stroke="#FFFFFF" stroke-width="2" stroke-miterlimit="10" d="M294.992,557.425
		c-2.119-6.553-1.371-18.414,3.869-23.57c3.509-3.459,9.82-6.385,14.804-4.799c5.022,1.598,8.153,8.129,9.686,12.818
		c2.658,8.141-1.066,14.846-6.508,20.836c-1.824,2.006-3.928,3.727-5.525,5.957c-0.946,1.322-3.403,4.287-3.979,5.699
		C306.961,573.983,296.794,563.017,294.992,557.425z"/>
	<path fill="none" stroke="#FFFFFF" stroke-width="2" stroke-miterlimit="10" d="M302.55,542.173
		c-0.953,4.887,2.83,6.742,6.733,6.758c11.261,0.051,5.613-11.039,0.978-11.672C305.892,536.663,303.259,538.538,302.55,542.173z"/>
	<path fill="none" stroke="#FFFFFF" stroke-width="2" stroke-miterlimit="10" d="M357.294,612.345
		c-2.338-7.242-1.512-20.346,4.279-26.045c3.879-3.822,10.848-7.053,16.356-5.301c5.551,1.766,9.006,8.979,10.701,14.16
		c2.939,8.996-1.176,16.406-7.189,23.023c-2.016,2.215-4.34,4.119-6.106,6.586c-1.045,1.457-3.758,4.732-4.394,6.293
		C370.522,630.64,359.29,618.522,357.294,612.345z"/>
	<path fill="none" stroke="#FFFFFF" stroke-width="2" stroke-miterlimit="10" d="M365.647,595.491
		c-1.055,5.4,3.127,7.449,7.439,7.467c12.444,0.055,6.204-12.197,1.083-12.896C369.34,589.403,366.433,591.474,365.647,595.491z"/>
	<path fill="none" stroke="#FFFFFF" stroke-width="2" stroke-miterlimit="10" d="M212.498,644.905
		c4.494,2.049,9.316,5.767,14.129,6.861c7.641,1.734,15.346-6.775,20.685-11.465c6.993-6.143,13.11-8.127,18.407-15.703
		c6.043-8.641,15.66-9.834,23.138-17.182c7.174-7.043,14.83-22.709,26.691-15.414c10.862,6.68,18.307,19.889,28.072,28.18
		c12.395,10.525,14.137,16.777,24.584,29.037"/>
	<path fill="none" stroke="#FFFFFF" stroke-width="2" stroke-miterlimit="10" d="M221.484,650.913
		c-0.918,4.715,2.73,6.506,6.498,6.521c10.869,0.049,5.42-10.654,0.945-11.266C224.712,645.597,222.171,647.403,221.484,650.913z"/>
	<path fill="none" stroke="#FFFFFF" stroke-width="2" stroke-miterlimit="10" d="M302.929,588.472
		c-1.297,4.051,1.729,6.002,5.039,6.402c9.551,1.162,5.863-8.811,1.99-9.807C306.312,584.13,303.892,585.456,302.929,588.472z"/>
	<path fill="none" stroke="#FFFFFF" stroke-width="2" stroke-miterlimit="10" d="M366.815,647.931
		c-0.611,3.131,1.811,4.32,4.313,4.33c7.216,0.033,3.597-7.074,0.626-7.479C368.958,644.401,367.269,645.603,366.815,647.931z"/>
	<text transform="matrix(1 0 0 1 848.2056 723.3223)" fill="#FFFFFF" font-family="'Roboto-Regular'" font-size="20">EXIBIÇÕES seguidas de </text>
	<text transform="matrix(1 0 0 1 848.2056 746.3223)" fill="#FFFFFF" font-family="'Roboto-Regular'" font-size="20">ATIVIDADES ajudam a </text>
	<text transform="matrix(1 0 0 1 848.2056 769.3223)" fill="#FFFFFF" font-family="'Roboto-Regular'" font-size="20">formar público e promover </text>
	<text transform="matrix(1 0 0 1 848.2056 792.3223)" fill="#FFFFFF" font-family="'Roboto-Regular'" font-size="20">diálogos sobre temas </text>
	<text transform="matrix(1 0 0 1 848.2056 815.3223)" fill="#FFFFFF" font-family="'Roboto-Regular'" font-size="20">sociais relevantes!</text>
	<path fill="none" stroke="#FFFCFF" stroke-width="3" stroke-linecap="round" stroke-miterlimit="10" d="M566,196.595
		c0.5-1.5,1.453-2.574,1.918-4c1.045-3.21,3-5.75,4.5-7.75s2.582-3.75,4.082-5.25c1.5-2,3.5-4,5.5-5.5c4.5-3,8-6.5,12.5-10
		c2-2,4-4,6-5.5c3-2.5,6-4.5,9-6c6-4,13-6.5,19.5-9c6-2.5,12.5-5,19-7.5c4.5-1.5,9-3,13.5-5l12-4.5c7-2.5,13.5-4.5,20.5-5.5
		c11.5-1.5,23.5-2,35.5-2.5c10-1,20-2,30.5-2c16,0,32.5,2,48.5,3c5,0.5,10.5,1,16,1c3,0,7-0.5,10,0c8,1.5,15.5,5,22.5,7.5
		c5.5,2,11.5,3.5,17.5,5.5c5,1.5,8,5.5,12.5,8.5c2,1.5,4,2.5,5.5,4c1.5,1,2.5,2,3.5,3"/>
	<path fill="none" stroke="#FFFCFF" stroke-width="3" stroke-linecap="round" stroke-miterlimit="10" d="M564.5,196.595
		c-1.875-3.75-1.223-7-1.5-9.667c-0.371-3.571-0.166-6.333-1.5-9.666"/>
	<path fill="none" stroke="#FFFCFF" stroke-width="3" stroke-linecap="round" stroke-miterlimit="10" d="M564.834,196.929
		c3.545-0.333,8.887-1.356,11-2.167c2.16-0.829,3.666-2.166,5-2.833c2-1.333,4-0.667,6-2"/>
	<path fill="#DF4944" d="M132.201,97.116c-2.318,9.664-7.716,18.077-9.935,27.371c-2.689,11.28-2.643,21.691-6.282,33.442
		c-5.153,16.787-13.092,34.017-16.281,50.625c-3.719,19.348-12.062,38.793-19.474,58.807c-6.48,17.592-5.775,34.932-13.866,51.886
		c-7.985,16.723,5.312,8.903,18.669,0.401c55.14-35.181,112.481-66.656,166.506-103.36c-19.033-15.294-34.007-33.776-51.285-50.703
		c-5.711-5.58-11.863-10.761-17.124-16.674c-6.913-7.768-16.018-13.652-22.466-21.881c-5.589-7.175-12.31-13.39-18.309-20.223
		c-3.083-3.527-7.798-5.364-10.559-8.837"/>
	<path fill="#DF4944" d="M980.432,408.077c-1.27,5.351-4.244,10.014-5.459,15.157c-1.473,6.245-1.434,12.005-3.43,18.513
		c-2.828,9.293-7.197,18.836-8.938,28.03c-2.033,10.71-6.619,21.479-10.695,32.563c-3.559,9.742-3.146,19.334-7.598,28.726
		c-4.395,9.265,2.949,4.918,10.33,0.197c30.457-19.541,90.24-33.271,120.08-53.652c-10.551-8.435-44.367-24.126-53.951-33.468
		c-3.166-3.079-6.576-5.938-9.496-9.201c-3.836-4.288-8.881-7.531-12.459-12.075c-3.104-3.962-9.426-5.67-12.754-9.442
		c-1.711-1.946-4.324-2.956-5.855-4.873"/>
	<path fill="none" stroke="#FFFFFF" stroke-width="2" stroke-linecap="round" stroke-linejoin="round" d="M84.874,190.89
		c0.061,0.158,0.126,0.312,0.193,0.461"/>
	
		<path fill="none" stroke="#FFFFFF" stroke-width="2" stroke-linecap="round" stroke-linejoin="round" stroke-dasharray="0.997,0.997" d="
		M85.517,192.242c0.645,1.162,1.406,2.182,1.898,3.454c0.811,2.105,1.148,4.271,2.131,6.399c1.406,3.026,3.28,5.909,4.35,9.076
		c1.253,3.69,3.269,6.994,5.149,10.502c1.649,3.081,2.105,6.746,3.996,9.554c1.868,2.767-0.587,2.33-3.078,1.743
		c-9.951-2.336-20.13-3.77-29.968-6.425"/>
	<path fill="none" stroke="#FFFFFF" stroke-width="2" stroke-linecap="round" stroke-linejoin="round" d="M69.514,226.415
		c-0.16-0.044-0.32-0.089-0.48-0.133c0.08-0.147,0.159-0.294,0.237-0.442"/>
	
		<path fill="none" stroke="#FFFFFF" stroke-width="2" stroke-linecap="round" stroke-linejoin="round" stroke-dasharray="1.019,1.019" d="
		M69.743,224.935c2.286-4.475,4.019-9.163,6.116-13.76c0.754-1.666,1.605-3.293,2.285-4.986c0.881-2.234,2.203-4.268,2.999-6.554
		c0.686-1.988,1.598-3.876,2.367-5.834c0.265-0.677,0.678-1.261,1.025-1.865"/>
	<path fill="none" stroke="#FFFFFF" stroke-width="2" stroke-linecap="round" stroke-linejoin="round" d="M84.772,191.49
		c0.073-0.15,0.139-0.303,0.195-0.46"/>
	<path fill="none" stroke="#FFFFFF" stroke-width="2" stroke-linecap="round" stroke-linejoin="round" d="M97.874,186.317
		c0.061,0.158,0.126,0.312,0.193,0.461"/>
	
		<path fill="none" stroke="#FFFFFF" stroke-width="2" stroke-linecap="round" stroke-linejoin="round" stroke-dasharray="0.997,0.997" d="
		M98.518,187.669c0.645,1.162,1.405,2.182,1.896,3.453c0.812,2.108,1.151,4.273,2.136,6.398c1.404,3.03,3.278,5.91,4.346,9.077
		c1.258,3.694,3.271,6.996,5.149,10.503c1.65,3.083,2.106,6.748,3.995,9.555c1.869,2.768-0.587,2.329-3.074,1.742
		c-9.954-2.336-20.131-3.768-29.969-6.426"/>
	<path fill="none" stroke="#FFFFFF" stroke-width="2" stroke-linecap="round" stroke-linejoin="round" d="M82.516,221.84
		c-0.16-0.044-0.32-0.088-0.48-0.133c0.08-0.147,0.159-0.294,0.237-0.441"/>
	
		<path fill="none" stroke="#FFFFFF" stroke-width="2" stroke-linecap="round" stroke-linejoin="round" stroke-dasharray="1.019,1.019" d="
		M82.744,220.36c2.285-4.473,4.021-9.162,6.114-13.76c0.757-1.664,1.605-3.29,2.286-4.989c0.884-2.227,2.204-4.263,2.999-6.551
		c0.688-1.983,1.598-3.877,2.369-5.832c0.263-0.677,0.675-1.262,1.023-1.866"/>
	<path fill="none" stroke="#FFFFFF" stroke-width="2" stroke-linecap="round" stroke-linejoin="round" d="M97.774,186.917
		c0.073-0.149,0.14-0.303,0.196-0.459"/>
	<path fill="none" stroke="#FFFFFF" stroke-width="2" stroke-linecap="round" stroke-linejoin="round" d="M179.348,162.265
		c-0.157-0.064-0.312-0.125-0.467-0.179"/>
	
		<path fill="none" stroke="#FFFFFF" stroke-width="2" stroke-linecap="round" stroke-linejoin="round" stroke-dasharray="0.996,0.996" d="
		M177.926,161.802c-0.932-0.241-1.848-0.402-2.769-0.785c-1.677-0.701-3.139-1.67-4.92-2.294c-2.538-0.887-5.236-1.457-7.678-2.586
		c-2.851-1.312-5.875-2.033-8.948-2.932c-2.698-0.79-5.111-2.491-7.775-3.015c-2.627-0.514-1.071-1.527,0.59-2.479
		c6.562-3.765,12.717-8.112,19.398-11.672"/>
	<path fill="none" stroke="#FFFFFF" stroke-width="2" stroke-linecap="round" stroke-linejoin="round" d="M166.265,135.806
		c0.148-0.078,0.296-0.155,0.445-0.231c0.059,0.155,0.119,0.309,0.18,0.463"/>
	
		<path fill="none" stroke="#FFFFFF" stroke-width="2" stroke-linecap="round" stroke-linejoin="round" stroke-dasharray="0.982,0.982" d="
		M167.258,136.942c1.43,3.41,3.237,6.669,4.811,10.059c0.592,1.26,1.108,2.548,1.754,3.788c0.86,1.623,1.37,3.365,2.306,4.974
		c0.817,1.396,1.456,2.854,2.211,4.276c0.224,0.419,0.35,0.856,0.491,1.282"/>
	<path fill="none" stroke="#FFFFFF" stroke-width="2" stroke-linecap="round" stroke-linejoin="round" d="M179,161.788
		c0.062,0.154,0.133,0.305,0.216,0.451"/>
	<path fill="none" stroke="#FFFFFF" stroke-width="2" stroke-linecap="round" stroke-linejoin="round" d="M175.204,171.262
		c-0.157-0.065-0.312-0.124-0.468-0.178"/>
	
		<path fill="none" stroke="#FFFFFF" stroke-width="2" stroke-linecap="round" stroke-linejoin="round" stroke-dasharray="0.996,0.996" d="
		M173.781,170.8c-0.932-0.24-1.847-0.402-2.768-0.786c-1.679-0.701-3.141-1.671-4.921-2.294c-2.538-0.886-5.235-1.456-7.678-2.585
		c-2.853-1.312-5.876-2.035-8.945-2.932c-2.7-0.792-5.115-2.493-7.775-3.016c-2.628-0.514-1.074-1.527,0.586-2.477
		c6.564-3.767,12.717-8.113,19.399-11.673"/>
	<path fill="none" stroke="#FFFFFF" stroke-width="2" stroke-linecap="round" stroke-linejoin="round" d="M162.12,144.805
		c0.148-0.078,0.296-0.155,0.445-0.232c0.059,0.154,0.119,0.309,0.18,0.463"/>
	
		<path fill="none" stroke="#FFFFFF" stroke-width="2" stroke-linecap="round" stroke-linejoin="round" stroke-dasharray="0.982,0.982" d="
		M163.116,145.944c1.429,3.407,3.235,6.667,4.812,10.052c0.588,1.261,1.104,2.549,1.753,3.79c0.856,1.621,1.366,3.365,2.303,4.973
		c0.815,1.395,1.458,2.855,2.212,4.278c0.225,0.418,0.352,0.857,0.493,1.284"/>
	<path fill="none" stroke="#FFFFFF" stroke-width="2" stroke-linecap="round" stroke-linejoin="round" d="M174.855,170.785
		c0.062,0.154,0.132,0.305,0.215,0.451"/>
	<path fill="none" stroke="#FFFFFF" stroke-width="2" stroke-linecap="round" stroke-linejoin="round" d="M228.879,206.472
		c-0.051,0.161-0.097,0.321-0.14,0.481"/>
	
		<path fill="none" stroke="#FFFFFF" stroke-width="2" stroke-linecap="round" stroke-linejoin="round" stroke-dasharray="0.998,0.998" d="
		M228.514,207.926c-0.373,1.915-0.366,3.73-0.964,5.637c-0.915,2.888-2.392,5.494-3.135,8.531
		c-1.052,4.325-1.466,8.834-3.001,13.067c-1.782,4.938-2.402,10.009-3.344,15.204c-0.832,4.561-3.461,8.889-3.795,13.33
		c-0.325,4.377-2.628,2.111-4.844-0.343c-8.924-9.869-18.88-18.906-27.386-29.061"/>
	<path fill="none" stroke="#FFFFFF" stroke-width="2" stroke-linecap="round" stroke-linejoin="round" d="M181.727,233.909
		c-0.106-0.128-0.212-0.255-0.317-0.383c0.151-0.073,0.301-0.146,0.451-0.219"/>
	
		<path fill="none" stroke="#FFFFFF" stroke-width="2" stroke-linecap="round" stroke-linejoin="round" stroke-dasharray="1.01,1.01" d="
		M182.769,232.858c6.526-3.271,12.58-7.245,18.972-10.833c2.245-1.268,4.56-2.422,6.75-3.775c2.865-1.791,6.04-3.048,8.86-4.962
		c2.444-1.666,5.049-3.062,7.558-4.636c0.989-0.624,2.086-0.973,3.084-1.465"/>
	<path fill="none" stroke="#FFFFFF" stroke-width="2" stroke-linecap="round" stroke-linejoin="round" d="M228.435,206.954
		c0.145-0.082,0.287-0.169,0.426-0.262"/>
	<path fill="none" stroke="#FFFFFF" stroke-width="2" stroke-linecap="round" stroke-linejoin="round" d="M246.957,210.956
		c-0.051,0.161-0.097,0.321-0.14,0.48"/>
	
		<path fill="none" stroke="#FFFFFF" stroke-width="2" stroke-linecap="round" stroke-linejoin="round" stroke-dasharray="0.998,0.998" d="
		M246.593,212.409c-0.372,1.916-0.366,3.729-0.965,5.634c-0.912,2.892-2.391,5.5-3.13,8.533c-1.055,4.329-1.466,8.834-3.004,13.065
		c-1.781,4.943-2.403,10.013-3.346,15.205c-0.832,4.562-3.462,8.892-3.794,13.328c-0.326,4.381-2.631,2.115-4.841-0.338
		c-8.928-9.872-18.883-18.906-27.385-29.063"/>
	<path fill="none" stroke="#FFFFFF" stroke-width="2" stroke-linecap="round" stroke-linejoin="round" d="M199.81,238.393
		c-0.106-0.127-0.212-0.255-0.317-0.383c0.15-0.073,0.301-0.146,0.451-0.219"/>
	
		<path fill="none" stroke="#FFFFFF" stroke-width="2" stroke-linecap="round" stroke-linejoin="round" stroke-dasharray="1.01,1.01" d="
		M200.851,237.342c6.521-3.268,12.579-7.245,18.97-10.837c2.245-1.263,4.557-2.418,6.749-3.773c2.863-1.785,6.041-3.045,8.858-4.959
		c2.444-1.663,5.051-3.064,7.562-4.636c0.985-0.624,2.082-0.973,3.081-1.464"/>
	<path fill="none" stroke="#FFFFFF" stroke-width="2" stroke-linecap="round" stroke-linejoin="round" d="M246.516,211.439
		c0.145-0.082,0.288-0.168,0.426-0.261"/>
	<path fill="none" stroke="#FFFFFF" stroke-width="2" stroke-linecap="round" stroke-linejoin="round" d="M246.788,161.885
		c-0.167,0.03-0.33,0.065-0.49,0.104"/>
	
		<path fill="none" stroke="#FFFFFF" stroke-width="2" stroke-linecap="round" stroke-linejoin="round" stroke-dasharray="1.013,1.013" d="
		M245.325,162.271c-0.906,0.3-1.75,0.654-2.737,0.833c-1.807,0.323-3.607,0.314-5.451,0.755c-2.625,0.632-5.183,1.608-7.883,1.991
		c-3.147,0.451-6.066,1.478-9.135,2.386c-2.696,0.796-5.73,0.696-8.232,1.691c-2.465,0.984-1.829-0.673-1.067-2.337
		c2.99-6.562,5.293-13.378,8.505-19.837"/>
	<path fill="none" stroke="#FFFFFF" stroke-width="2" stroke-linecap="round" stroke-linejoin="round" d="M219.552,147.3
		c0.075-0.149,0.151-0.298,0.227-0.447c0.139,0.091,0.279,0.181,0.418,0.27"/>
	
		<path fill="none" stroke="#FFFFFF" stroke-width="2" stroke-linecap="round" stroke-linejoin="round" stroke-dasharray="1.029,1.029" d="
		M221.07,147.668c3.304,2.022,6.821,3.719,10.23,5.646c1.271,0.713,2.5,1.488,3.802,2.155c1.717,0.866,3.222,2.014,4.993,2.828
		c1.539,0.704,2.974,1.551,4.479,2.309c0.452,0.226,0.834,0.521,1.223,0.798"/>
	<path fill="none" stroke="#FFFFFF" stroke-width="2" stroke-linecap="round" stroke-linejoin="round" d="M246.226,161.693
		c0.141,0.088,0.286,0.169,0.439,0.24"/>
	<path fill="none" stroke="#FFFFFF" stroke-width="2" stroke-linecap="round" stroke-linejoin="round" d="M249.033,171.439
		c-0.167,0.03-0.33,0.065-0.49,0.104"/>
	
		<path fill="none" stroke="#FFFFFF" stroke-width="2" stroke-linecap="round" stroke-linejoin="round" stroke-dasharray="1.013,1.013" d="
		M247.57,171.827c-0.906,0.3-1.75,0.654-2.737,0.832c-1.809,0.325-3.608,0.314-5.449,0.758c-2.627,0.63-5.185,1.606-7.884,1.99
		c-3.15,0.454-6.068,1.478-9.135,2.383c-2.699,0.797-5.731,0.698-8.231,1.692c-2.467,0.985-1.831-0.673-1.07-2.336
		c2.991-6.563,5.293-13.378,8.505-19.836"/>
	<path fill="none" stroke="#FFFFFF" stroke-width="2" stroke-linecap="round" stroke-linejoin="round" d="M221.796,156.856
		c0.076-0.148,0.151-0.298,0.228-0.447c0.139,0.091,0.278,0.18,0.417,0.27"/>
	
		<path fill="none" stroke="#FFFFFF" stroke-width="2" stroke-linecap="round" stroke-linejoin="round" stroke-dasharray="1.029,1.029" d="
		M223.314,157.225c3.303,2.021,6.822,3.719,10.232,5.645c1.269,0.714,2.497,1.489,3.802,2.155c1.712,0.866,3.219,2.017,4.99,2.829
		c1.537,0.704,2.975,1.551,4.481,2.309c0.451,0.225,0.833,0.52,1.221,0.797"/>
	<path fill="none" stroke="#FFFFFF" stroke-width="2" stroke-linecap="round" stroke-linejoin="round" d="M248.47,171.249
		c0.141,0.088,0.286,0.169,0.438,0.241"/>
	<path fill="none" stroke="#FFFFFF" stroke-width="2" stroke-linecap="round" stroke-linejoin="round" d="M148.981,208.879
		c0.171-0.005,0.337-0.019,0.499-0.036"/>
	
		<path fill="none" stroke="#FFFFFF" stroke-width="2" stroke-linecap="round" stroke-linejoin="round" stroke-dasharray="1.003,1.003" d="
		M150.473,208.682c0.506-0.097,1.005-0.196,1.551-0.214c1.285-0.038,2.525,0.153,3.849,0.039c1.886-0.167,3.769-0.577,5.676-0.564
		c2.226,0.011,4.361-0.398,6.588-0.71c1.955-0.272,4.035,0.108,5.879-0.322c1.818-0.424,1.18,0.654,0.456,1.722
		c-2.797,4.139-5.166,8.514-8.079,12.571"/>
	<path fill="none" stroke="#FFFFFF" stroke-width="2" stroke-linecap="round" stroke-linejoin="round" d="M166.099,221.61
		c-0.099,0.135-0.198,0.271-0.298,0.404c-0.123-0.112-0.246-0.222-0.371-0.331"/>
	
		<path fill="none" stroke="#FFFFFF" stroke-width="2" stroke-linecap="round" stroke-linejoin="round" stroke-dasharray="0.966,0.966" d="
		M164.695,221.056c-1.949-1.625-4.053-3.085-6.063-4.677c-0.791-0.623-1.544-1.284-2.361-1.877c-1.082-0.773-1.981-1.72-3.105-2.463
		c-0.978-0.644-1.865-1.376-2.812-2.051c-0.202-0.144-0.377-0.31-0.545-0.476"/>
	<path fill="none" stroke="#FFFFFF" stroke-width="2" stroke-linecap="round" stroke-linejoin="round" d="M149.461,209.171
		c-0.122-0.113-0.249-0.22-0.389-0.313"/>
	<path fill="none" stroke="#FFFFFF" stroke-width="2" stroke-linecap="round" stroke-linejoin="round" d="M148.58,202.058
		c0.171-0.005,0.337-0.018,0.499-0.036"/>
	
		<path fill="none" stroke="#FFFFFF" stroke-width="2" stroke-linecap="round" stroke-linejoin="round" stroke-dasharray="1.003,1.003" d="
		M150.072,201.86c0.506-0.096,1.005-0.195,1.551-0.211c1.285-0.039,2.526,0.152,3.849,0.035c1.889-0.165,3.768-0.575,5.677-0.563
		c2.226,0.01,4.362-0.396,6.586-0.707c1.956-0.273,4.036,0.107,5.88-0.324c1.819-0.425,1.181,0.654,0.457,1.722
		c-2.798,4.139-5.165,8.514-8.079,12.572"/>
	<path fill="none" stroke="#FFFFFF" stroke-width="2" stroke-linecap="round" stroke-linejoin="round" d="M165.699,214.79
		c-0.099,0.135-0.198,0.27-0.298,0.404c-0.123-0.111-0.247-0.221-0.372-0.331"/>
	
		<path fill="none" stroke="#FFFFFF" stroke-width="2" stroke-linecap="round" stroke-linejoin="round" stroke-dasharray="0.966,0.966" d="
		M164.295,214.235c-1.949-1.625-4.053-3.086-6.065-4.677c-0.788-0.625-1.541-1.283-2.363-1.876
		c-1.076-0.774-1.978-1.722-3.102-2.464c-0.974-0.642-1.865-1.375-2.812-2.053c-0.202-0.144-0.376-0.308-0.545-0.474"/>
	<path fill="none" stroke="#FFFFFF" stroke-width="2" stroke-linecap="round" stroke-linejoin="round" d="M149.061,202.35
		c-0.122-0.113-0.249-0.221-0.388-0.314"/>
	<path fill="none" stroke="#FFFFFF" stroke-width="2" stroke-linecap="round" stroke-linejoin="round" d="M108.37,255.284
		c0.142,0.1,0.285,0.182,0.429,0.257"/>
	
		<path fill="none" stroke="#FFFFFF" stroke-width="2" stroke-linecap="round" stroke-linejoin="round" stroke-dasharray="0.997,0.997" d="
		M109.695,255.981c0.116,0.063,0.23,0.131,0.342,0.209c0.646,0.451,1.172,0.995,1.871,1.421c0.995,0.607,2.094,1.09,3.023,1.79
		c1.087,0.815,2.308,1.392,3.531,2.052c1.075,0.577,1.933,1.523,3.02,1.983c1.073,0.454,0.3,0.751-0.511,1.009
		c-3.028,0.976-5.955,2.204-8.996,3.124"/>
	<path fill="none" stroke="#FFFFFF" stroke-width="2" stroke-linecap="round" stroke-linejoin="round" d="M111.495,267.712
		c-0.16,0.046-0.321,0.092-0.482,0.137c-0.021-0.165-0.045-0.329-0.07-0.494"/>
	
		<path fill="none" stroke="#FFFFFF" stroke-width="2" stroke-linecap="round" stroke-linejoin="round" stroke-dasharray="1.074,1.074" d="
		M110.754,266.303c-0.255-1.275-0.589-2.541-0.85-3.829c-0.123-0.591-0.21-1.191-0.357-1.779c-0.201-0.772-0.239-1.565-0.473-2.337
		c-0.204-0.666-0.325-1.345-0.501-2.017"/>
	<path fill="none" stroke="#FFFFFF" stroke-width="2" stroke-linecap="round" stroke-linejoin="round" d="M108.499,255.802
		c-0.013-0.168-0.027-0.333-0.075-0.494"/>
	<path fill="none" stroke="#FFFFFF" stroke-width="2" stroke-linecap="round" stroke-linejoin="round" d="M111.082,251.795
		c0.142,0.098,0.286,0.181,0.429,0.257"/>
	
		<path fill="none" stroke="#FFFFFF" stroke-width="2" stroke-linecap="round" stroke-linejoin="round" stroke-dasharray="0.997,0.997" d="
		M112.406,252.493c0.116,0.063,0.23,0.131,0.343,0.21c0.647,0.45,1.174,0.996,1.872,1.419c0.996,0.606,2.093,1.09,3.022,1.791
		c1.087,0.815,2.307,1.393,3.53,2.051c1.076,0.578,1.934,1.523,3.021,1.983c1.072,0.455,0.301,0.75-0.51,1.01
		c-3.029,0.976-5.954,2.204-8.995,3.124"/>
	<path fill="none" stroke="#FFFFFF" stroke-width="2" stroke-linecap="round" stroke-linejoin="round" d="M114.209,264.223
		c-0.16,0.046-0.321,0.092-0.482,0.137c-0.021-0.165-0.045-0.33-0.071-0.493"/>
	
		<path fill="none" stroke="#FFFFFF" stroke-width="2" stroke-linecap="round" stroke-linejoin="round" stroke-dasharray="1.074,1.074" d="
		M113.467,262.813c-0.256-1.276-0.591-2.542-0.853-3.828c-0.12-0.593-0.209-1.19-0.357-1.78c-0.198-0.771-0.236-1.564-0.469-2.336
		c-0.205-0.667-0.328-1.346-0.501-2.019"/>
	<path fill="none" stroke="#FFFFFF" stroke-width="2" stroke-linecap="round" stroke-linejoin="round" d="M111.212,252.312
		c-0.013-0.168-0.027-0.334-0.074-0.495"/>
	<path fill="none" stroke="#FFFFFF" stroke-width="2" stroke-linecap="round" stroke-linejoin="round" d="M100.366,143.707
		c-0.17,0.048-0.32,0.114-0.466,0.181"/>
	
		<path fill="none" stroke="#FFFFFF" stroke-width="2" stroke-linecap="round" stroke-linejoin="round" stroke-dasharray="0.999,0.999" d="
		M98.958,144.205c-0.329,0.067-0.661,0.12-0.993,0.233c-0.65,0.223-1.275,0.53-1.951,0.692c-0.789,0.189-1.503,0.519-2.259,0.821
		c-0.664,0.268-1.439,0.312-2.046,0.627c-0.601,0.308-0.486-0.13-0.338-0.57c0.501-1.506,0.866-3.045,1.368-4.545"/>
	<path fill="none" stroke="#FFFFFF" stroke-width="2" stroke-linecap="round" stroke-linejoin="round" d="M92.903,140.989
		c0.056-0.157,0.114-0.313,0.175-0.469c0.147,0.077,0.295,0.151,0.445,0.223"/>
	
		<path fill="none" stroke="#FFFFFF" stroke-width="2" stroke-linecap="round" stroke-linejoin="round" stroke-dasharray="0.991,0.991" d="
		M94.423,141.146c0.585,0.25,1.18,0.485,1.765,0.746c0.344,0.15,0.677,0.319,1.027,0.459c0.46,0.179,0.875,0.436,1.348,0.601
		c0.296,0.103,0.582,0.227,0.869,0.346"/>
	<path fill="none" stroke="#FFFFFF" stroke-width="2" stroke-linecap="round" stroke-linejoin="round" d="M99.895,143.492
		c0.15,0.078,0.285,0.175,0.44,0.23"/>
	<path fill="none" stroke="#FFFFFF" stroke-width="2" stroke-linecap="round" stroke-linejoin="round" d="M101.201,146.085
		c-0.17,0.048-0.32,0.114-0.466,0.181"/>
	
		<path fill="none" stroke="#FFFFFF" stroke-width="2" stroke-linecap="round" stroke-linejoin="round" stroke-dasharray="0.999,0.999" d="
		M99.792,146.583c-0.33,0.068-0.662,0.12-0.992,0.233c-0.652,0.224-1.275,0.532-1.951,0.693c-0.789,0.189-1.504,0.518-2.259,0.822
		c-0.664,0.267-1.439,0.312-2.048,0.625c-0.6,0.309-0.484-0.128-0.336-0.569c0.501-1.505,0.866-3.045,1.368-4.546"/>
	<path fill="none" stroke="#FFFFFF" stroke-width="2" stroke-linecap="round" stroke-linejoin="round" d="M93.738,143.367
		c0.056-0.157,0.114-0.312,0.174-0.469c0.147,0.077,0.296,0.151,0.446,0.222"/>
	
		<path fill="none" stroke="#FFFFFF" stroke-width="2" stroke-linecap="round" stroke-linejoin="round" stroke-dasharray="0.991,0.991" d="
		M95.258,143.525c0.586,0.25,1.18,0.485,1.766,0.745c0.341,0.152,0.675,0.319,1.026,0.458c0.459,0.18,0.874,0.438,1.348,0.603
		c0.296,0.103,0.581,0.226,0.869,0.345"/>
	<path fill="none" stroke="#FFFFFF" stroke-width="2" stroke-linecap="round" stroke-linejoin="round" d="M100.731,145.871
		c0.149,0.078,0.283,0.174,0.44,0.229"/>
	<text transform="matrix(1 0 0 1 28.1201 414.3076)" fill="#FFFFFF" font-family="'Roboto-Regular'" font-size="20">A rede de EMBAIXADORES</text>
	<text transform="matrix(1 0 0 1 28.1201 437.3076)" fill="#FFFFFF" font-family="'Roboto-Regular'" font-size="20"> amplia a distribuição de filmes</text>
	<text transform="matrix(1 0 0 1 28.1201 460.3076)" fill="#FFFFFF" font-family="'Roboto-Regular'" font-size="20"> e contribui para democratizar</text>
	<text transform="matrix(1 0 0 1 28.1201 483.3076)" fill="#FFFFFF" font-family="'Roboto-Regular'" font-size="20"> o acesso à cultura!</text>
	<path fill="none" stroke="#F2F2F2" stroke-width="2" stroke-miterlimit="10" d="M848.206,259.303
		c10.926,21.053,21-5.564,34.924-4.885c9.193,0.449,10.975,8.543,20.764,4.546c6.541-2.672,11.059-9.8,18.43-9.506"/>
	<path fill="none" stroke="#F2F2F2" stroke-width="2" stroke-miterlimit="10" d="M942.583,199.537
		c-1.18,2.088-9.684,17.773-12.387,24.475c0.357,3.207,1.057,6.374,1.24,9.625c2.709-1.395,5.357-3.576,7.848-5.306
		c1.447-2.322,7.98-18.176,11.305-23.889c3.453-5.933,6.541-12.263,10.072-18.22c2.479-4.181,4.521-9.474,7.191-13.562
		c-1.414-1.112-3.109-2.056-4.506-2.676c-1.711-0.76-3.301-1.282-4.871-1.66c-1.959,3.358-5.621,9.961-7.141,13.668
		C948.6,188.652,946.094,193.33,942.583,199.537z"/>
	<path fill="none" stroke="#F2F2F2" stroke-width="2" stroke-miterlimit="10" d="M930.196,224.012
		c2.705-6.701,11.207-22.386,12.389-24.474c3.508-6.209,6.016-10.886,8.75-17.545c1.521-3.708,5.182-10.31,7.141-13.669
		c-3.18-0.768-6.266-0.899-10.045-0.899c0,0-4.295,8.643-5.154,10.226c-4.855,8.938-8.758,17.765-12.666,27.066
		c-1.568,3.738-3.406,7.325-4.643,11.14c-0.836,2.58-3.359,9.177-3.359,9.177c-0.344,0.937-0.518,2.023-0.613,3.17
		c1.146-0.509,2.287-1.133,3.084-1.568C926.495,225.859,928.633,224.135,930.196,224.012z"/>
	<path fill="none" stroke="#F2F2F2" stroke-width="2" stroke-miterlimit="10" d="M969.688,174.44
		c-0.486-0.625-1.129-1.223-1.836-1.78c-2.67,4.088-4.713,9.38-7.191,13.56c-3.533,5.957-6.619,12.287-10.074,18.22
		c-3.322,5.713-9.855,21.567-11.303,23.892c1.035,1.558,1.5,3.627,1.717,5.475c0.152,1.313,0.016,2.8,0.072,4.216
		c-0.057-1.416,0.08-2.903-0.072-4.216c-0.217-1.848-0.682-3.917-1.717-5.475c-2.492,1.728-5.139,3.91-7.848,5.304
		c-0.184-3.251-0.883-6.418-1.24-9.624c-1.561,0.122-3.701,1.848-5.117,2.622c-0.795,0.435-1.936,1.059-3.084,1.569
		c-0.24,2.859,0.082,6.132-0.057,8.649c-0.035,0.649-0.217,2.173-0.361,3.95c1.879-0.573,4.158-0.527,5.508,0.236
		c1.488,0.837,2.375,2.891,2.613,4.895c1.557-0.755,3.115-1.524,4.551-2.498c3.027-2.05,8.463-6.826,8.463-6.826
		c0.789-1.23,4.678-7.072,5.562-9.039c2.152-4.762,11.889-21.76,14.625-26.452c2.59-4.443,5.434-8.452,7.385-13.239
		c0.91-2.23,3.881-6.797,3.881-6.797C973.417,179.141,970.958,176.072,969.688,174.44z"/>
	<path fill="#F2F2F2" d="M922.614,242.448c0.264-0.121,0.512-0.274,0.771-0.4c-0.684-0.686-1.367-1.369-2.051-2.053
		c-0.561,0.858-1.119,1.653-1.371,2.659c-0.314,1.254,1.047,2.387,2.203,1.694c1.01-0.607,1.717-1.594,2.76-2.123
		c1.734-0.879,0.213-3.422-1.514-2.59c-0.785,0.377-1.303,0.868-1.816,1.562c-0.518,0.7-0.559,1.658-1.131,2.326
		c-1.256,1.459,0.682,3.441,2.119,2.122c0.916-0.838,1.498-2.693,2.645-3.172l-1.459-2.507c-0.615,0.779-1.357,1.469-1.918,2.288
		c-0.646,0.943-0.857,1.948-1.309,2.978c-0.754,1.726,1.631,3.245,2.592,1.514c0.93-1.677,2.025-3.383,3.711-4.38
		c-0.684-0.685-1.367-1.369-2.053-2.053c-0.826,1.099-1.904,1.982-2.699,3.109c-0.357,0.506-0.779,1.08-0.939,1.691
		c-0.25,0.942-0.076,1.864-0.279,2.799c-0.369,1.707,1.77,2.547,2.742,1.156c1.461-2.09,2.25-4.665,4.316-6.275
		c-0.785-0.606-1.57-1.212-2.355-1.818c-1.486,2.703-3.066,5.327-4.254,8.181c-0.662,1.591,1.936,2.614,2.742,1.155
		c1.26-2.279,2.24-5.093,4.504-6.585l-2.053-2.052c-1.105,1.803-1.865,3.825-3.213,5.473c0.787,0.606,1.572,1.212,2.357,1.819
		c0.955-1.583,2.154-3.091,3.701-4.126c-0.684-0.686-1.367-1.369-2.051-2.053c-0.646,1.148-1.275,2.367-2.244,3.279
		c-1.42,1.336,0.68,3.389,2.121,2.121c0.861-0.758,1.547-1.723,2.49-2.383c-0.732-0.564-1.469-1.129-2.201-1.693
		c-0.072,0.409-0.23,0.781-0.473,1.116c-0.854,1.464,1.164,3.063,2.355,1.817c0.309-0.323,0.633-0.622,0.959-0.928
		c1.414-1.324-0.711-3.442-2.121-2.122c-0.326,0.306-0.65,0.606-0.961,0.93c0.787,0.604,1.572,1.211,2.355,1.817
		c0.348-0.594,0.609-1.167,0.775-1.833c0.301-1.19-1.068-2.483-2.203-1.694c-1.174,0.818-2.031,1.913-3.098,2.852l2.121,2.121
		c1.152-1.086,1.943-2.518,2.713-3.886c0.703-1.251-0.756-2.919-2.053-2.052c-1.984,1.327-3.549,3.168-4.777,5.202
		c-0.865,1.431,1.26,3.157,2.355,1.817c1.527-1.869,2.428-4.038,3.68-6.08c0.768-1.253-0.783-2.888-2.053-2.052
		c-2.791,1.84-4.02,4.841-5.578,7.662c0.914,0.384,1.826,0.77,2.74,1.155c1.084-2.603,2.596-4.999,3.951-7.463
		c0.875-1.592-1.066-2.822-2.355-1.818c-2.283,1.779-3.176,4.579-4.787,6.882c0.914,0.385,1.828,0.77,2.742,1.156
		c0.309-1.423,0.027-2.654,1.002-3.87c0.832-1.042,1.809-1.943,2.615-3.013c0.939-1.25-0.842-2.77-2.053-2.052
		c-2.129,1.26-3.607,3.329-4.789,5.457c0.863,0.505,1.729,1.009,2.592,1.514c0.363-0.837,0.58-1.744,1.012-2.546
		c0.422-0.781,1.195-1.418,1.744-2.112c0.799-1.011,0.104-3.161-1.459-2.507c-2.018,0.843-2.467,2.567-3.967,3.942
		c0.705,0.708,1.412,1.415,2.119,2.122c0.898-1.044,1.082-2.814,2.342-3.42c-0.506-0.863-1.01-1.727-1.514-2.59
		c-1.076,0.544-1.746,1.514-2.76,2.123l2.203,1.694c0.186-0.74,0.658-1.316,1.07-1.943c0.885-1.356-0.797-2.66-2.055-2.052
		c-0.26,0.126-0.508,0.281-0.771,0.401C919.344,240.665,920.87,243.25,922.614,242.448"/>
	<path fill="none" stroke="#FFFFFF" stroke-width="2" stroke-miterlimit="10" d="M971.36,406.899
		c6.32-41.484,117.266-52.91,111.328,13.85c-2.256,25.352-38.076,34.166-63.758,31.85c-1.393,1.768-3.092,3.564-4.023,4.674
		c-3.213,3.824-6.336,7.756-9.08,11.824c-1.445-6.234,0.211-12.389,1.49-18.51C991.84,446.292,967.491,432.308,971.36,406.899z"/>
	<path fill="none" stroke="#FFFFFF" stroke-width="2" stroke-miterlimit="10" d="M989.301,416.112
		c-4.633-30.418-85.982-38.795-81.629,10.154c1.652,18.59,27.92,25.055,46.75,23.355c1.02,1.299,2.266,2.613,2.949,3.425
		c2.357,2.806,4.646,5.688,6.658,8.673c1.055-4.572-0.154-9.084-1.094-13.572C974.282,444.999,992.137,434.745,989.301,416.112z"/>
	<path fill="none" stroke="#FFFFFF" stroke-width="2" stroke-miterlimit="10" d="M939.653,429.282l0.139,1.16l0.119,0.539
		c0.311,0.623,0.746,0.902,1.301,0.836l0.475-0.057l0.055-0.064l-0.148-1.227c-0.027-0.236-0.068-0.398-0.119-0.48
		c-0.275-0.623-0.699-0.9-1.27-0.832l-0.504,0.061L939.653,429.282z M935.69,417.403l0.049,0.396l0.113,0.516
		c0.283,0.584,0.688,0.844,1.211,0.781l1.828-0.217l0.857-0.037c0.914,0.166,1.43,0.752,1.551,1.764l0.047,0.398l0.029,0.678
		c-0.152,0.986-0.678,1.532-1.582,1.643c-0.559,0.252-0.803,0.672-0.732,1.264l0.287,2.41l0.105,0.418
		c0.33,0.682,0.805,0.986,1.426,0.912l0.369-0.045l0.045-0.064l-0.373-3.115c0.445-0.141,0.881-0.41,1.309-0.803
		c0.748-0.883,1.062-1.83,0.941-2.834l-0.174-1.465c-0.035-0.307-0.141-0.686-0.309-1.143c-0.744-1.479-1.887-2.127-3.426-1.941
		l-3.525,0.42L935.69,417.403z"/>
	<path fill="none" stroke="#FFFFFF" stroke-width="2" stroke-miterlimit="10" d="M949.577,428.097l0.141,1.16l0.117,0.541
		c0.312,0.623,0.748,0.902,1.303,0.836l0.473-0.057l0.057-0.066l-0.148-1.227c-0.027-0.236-0.068-0.396-0.119-0.48
		c-0.275-0.623-0.699-0.898-1.27-0.832l-0.506,0.061L949.577,428.097z M945.616,416.218l0.049,0.398l0.113,0.514
		c0.283,0.584,0.686,0.844,1.211,0.781l1.828-0.217l0.857-0.035c0.914,0.164,1.43,0.752,1.551,1.764l0.047,0.398l0.027,0.676
		c-0.15,0.987-0.676,1.535-1.58,1.643c-0.561,0.252-0.803,0.674-0.732,1.265l0.287,2.411l0.105,0.416
		c0.328,0.682,0.805,0.986,1.426,0.912l0.369-0.043l0.045-0.064l-0.373-3.115c0.445-0.142,0.881-0.412,1.309-0.803
		c0.748-0.885,1.062-1.83,0.941-2.836l-0.174-1.465c-0.037-0.305-0.141-0.684-0.309-1.143c-0.744-1.477-1.887-2.127-3.426-1.941
		l-3.525,0.42L945.616,416.218z"/>
	<path fill="none" stroke="#FFFFFF" stroke-width="2" stroke-miterlimit="10" d="M959.502,426.911l0.141,1.16l0.117,0.541
		c0.312,0.623,0.748,0.902,1.303,0.836l0.473-0.057l0.057-0.066l-0.148-1.225c-0.027-0.238-0.068-0.398-0.119-0.48
		c-0.275-0.625-0.699-0.9-1.27-0.832l-0.506,0.061L959.502,426.911z M955.542,415.034l0.049,0.396l0.113,0.516
		c0.281,0.584,0.686,0.844,1.211,0.781l1.828-0.219l0.857-0.035c0.914,0.166,1.43,0.752,1.551,1.764l0.047,0.398l0.027,0.676
		c-0.15,0.988-0.678,1.534-1.58,1.643c-0.561,0.252-0.803,0.674-0.734,1.266l0.289,2.41l0.105,0.416
		c0.328,0.682,0.805,0.986,1.426,0.912l0.367-0.043l0.047-0.064l-0.373-3.115c0.445-0.141,0.879-0.41,1.309-0.803
		c0.748-0.883,1.062-1.83,0.941-2.834l-0.174-1.467c-0.037-0.305-0.141-0.684-0.309-1.141c-0.744-1.479-1.887-2.127-3.428-1.943
		l-3.523,0.422L955.542,415.034z"/>
	<path fill="none" stroke="#FFFFFF" stroke-width="2" stroke-miterlimit="10" d="M1022.27,421.495l0.186,1.576l0.158,0.699
		c0.389,0.902,1.008,1.304,1.859,1.203l0.57-0.068l0.074-0.088l-0.227-1.912l-0.15-0.531c-0.396-0.795-1.043-1.139-1.943-1.033
		l-0.467,0.057L1022.27,421.495z M1020.301,405.013l1.502,12.582l0.109,0.568c0.4,0.994,1.021,1.439,1.867,1.338l0.611-0.072
		l0.072-0.1l-1.523-12.771c-0.285-1.26-0.912-1.83-1.879-1.715l-0.697,0.084L1020.301,405.013z"/>
	<path fill="none" stroke="#FFFFFF" stroke-width="2" stroke-miterlimit="10" d="M1028.973,420.694l0.188,1.576l0.158,0.699
		c0.387,0.904,1.006,1.304,1.859,1.203l0.568-0.066l0.074-0.09l-0.229-1.91l-0.146-0.531c-0.396-0.797-1.045-1.141-1.945-1.035
		l-0.467,0.057L1028.973,420.694z M1027.004,404.212l1.502,12.582l0.109,0.568c0.402,0.994,1.021,1.439,1.867,1.34l0.611-0.074
		l0.072-0.098l-1.523-12.773c-0.285-1.258-0.91-1.83-1.879-1.715l-0.697,0.084L1027.004,404.212z"/>
	<path fill="none" stroke="#FFFFFF" stroke-width="2" stroke-miterlimit="10" d="M1035.678,419.896l0.186,1.574l0.158,0.699
		c0.389,0.904,1.008,1.306,1.859,1.203l0.57-0.067l0.074-0.089l-0.227-1.911l-0.15-0.53c-0.396-0.797-1.043-1.141-1.943-1.033
		l-0.467,0.055L1035.678,419.896z M1033.709,403.413l1.502,12.582l0.109,0.568c0.4,0.994,1.021,1.438,1.867,1.338l0.611-0.074
		l0.072-0.098l-1.523-12.773c-0.285-1.258-0.91-1.83-1.879-1.713l-0.697,0.082L1033.709,403.413z"/>
	<path fill="#DF4944" d="M862.036,562.274c-2.65,4.24-6.123,6.872-8.678,10.943c-3.096,4.951-5.109,10.311-8.619,15.215
		c-5.006,7.006-11.033,13.382-15.338,20.894c-5.021,8.776-11.635,16.166-18.021,24.12c-5.615,7.013-8.742,16.135-14.781,22.303
		c-5.947,6.098,0.082,6.243,6.279,6.047c25.574-0.832,51.17,0.916,76.65-1.041c-3.506-13.805-5.014-27.959-7.617-42.076
		c-0.848-4.637-1.932-9.22-2.588-13.899c-0.832-6.146-2.805-12.013-3.396-18.263c-0.514-5.426-1.586-10.719-2.309-16.103
		c-0.357-2.772-1.605-5.19-1.889-7.825"/>
	<path fill="none" stroke="#F2F2F2" stroke-width="2" stroke-miterlimit="10" d="M799.073,552.171
		c3.918,1.846,8.293,2.028,12.066,3.813c4.578,2.165,8.084,5.231,13.096,7.153c7.133,2.736,15.199,4.426,21.723,7.945
		c7.594,4.098,16.541,6.273,25.406,9.004c7.787,2.406,13.451,7.795,21.473,9.338c7.92,1.522,1.508,4.879-5.154,8.049
		c-27.525,13.105-54.414,28.227-82.131,40.41c0.221-12.584-1.787-24.375-2.607-36.697c-0.275-4.067-0.277-8.196-0.791-12.174
		c-0.674-5.215-0.074-10.816-1.037-15.965c-0.836-4.484-1.035-9.181-1.654-13.72c-0.311-2.353,0.404-4.892,0.014-7.086"/>
	<path fill="none" stroke="#F2F2F2" stroke-width="2" stroke-miterlimit="10" d="M804.538,542.884
		c3.994,1.813,8.465,1.95,12.307,3.707c4.662,2.129,8.23,5.164,13.336,7.037c7.27,2.68,15.5,4.291,22.146,7.758
		c7.73,4.031,16.859,6.129,25.895,8.777c7.947,2.336,13.699,7.684,21.885,9.15c8.082,1.449,1.508,4.884-5.316,8.125
		c-28.201,13.416-55.766,28.843-84.158,41.338c0.301-12.621-1.674-24.43-2.443-36.772c-0.25-4.077-0.229-8.224-0.725-12.202
		c-0.656-5.228-0.016-10.85-0.963-16.004c-0.824-4.484-1.004-9.193-1.605-13.742c-0.309-2.35,0.439-4.91,0.055-7.105"/>
	<path fill="#FFFFFF" d="M51.055,301.196c-2.005,5.947-8.4,11.035-12.614,15.463c-5.119,5.379-9.366,11.258-13.347,17.506
		c-7.682,12.06-13.432,23.668-15.506,37.983c-0.993,6.851-1.857,13.815-2.384,20.72c-0.644,8.438-1.921,16.352-3.738,24.627
		c-3.081,14.034-3.378,28.76-3.465,43.1c-0.041,6.886,3.459,12.453,4.312,19.045c0.932,7.195,1.481,14.271,3.173,21.371
		c3.323,13.945,9.44,27.596,16.188,40.194c3.47,6.479,7.654,12.502,11.007,19.036c3.439,6.701,7.962,12.619,11.303,19.37
		c2.944,5.95,6.222,11.565,9.646,17.237c3.161,5.234,7.789,8.643,12.274,12.582c2.06,1.81,4.703,2.752,7.181,3.841
		c3.723,1.634,6.062,3.807,9.263,6.118c7.006,5.062,13.692,10.504,21.396,14.5c6.094,3.162,13.228,4.83,19.78,6.902
		c7.908,2.501,16.493,3.94,23.22,9.098c1.536,1.179,3.027-1.43,1.514-2.59c-4.661-3.574-10.153-5.601-15.844-6.869
		c-6.741-1.504-13.037-4.647-19.736-6.319c-6.568-1.64-12.304-5.339-17.796-9.188c-5.586-3.914-10.534-9.066-16.438-12.418
		c-2.37-1.346-4.978-2.281-7.436-3.455c-2.313-1.104-3.789-2.912-5.903-4.225c-6.35-3.943-10.317-11.466-13.939-17.763
		c-3.286-5.716-5.409-12.373-9.436-17.612c-4.785-6.225-7.79-13.693-11.964-20.311c-8.233-13.051-14.707-27.373-19.448-42.045
		c-2.261-7-3.018-13.979-4.37-21.148c-0.632-3.35-0.505-6.73-1.312-10.05c-1.013-4.163-2.96-7.731-3.486-12.095
		c-0.828-6.853,0.174-14.162,0.535-21.028c0.438-8.339,0.918-16.274,2.674-24.48c3.128-14.62,4.398-29.212,5.966-44.072
		c1.665-15.785,8.914-28.561,17.341-41.633c4.15-6.437,9.138-12.081,14.496-17.525c3.694-3.752,8.069-7.979,9.786-13.07
		C54.567,300.155,51.669,299.373,51.055,301.196"/>
	<path fill="#FFFFFF" d="M151.001,648.595c-0.052-7.047-3.216-14.253-6.705-20.257c-0.971-1.672-3.564-0.162-2.59,1.515
		c3.206,5.517,6.247,12.285,6.295,18.742C148.015,650.529,151.015,650.53,151.001,648.595"/>
	<path fill="#FFFFFF" d="M149.501,647.095c-1.537,0.141-2.954,0.522-4.434,0.963c-1.96,0.586-3.907,0.457-5.902,0.778
		c-3.42,0.55-6.816,0.822-10.164,1.259c-1.89,0.246-1.914,3.25,0,3c2.7-0.352,5.313,0.021,8.024-0.804
		c2.234-0.679,4.555-0.354,6.787-0.833c1.901-0.407,3.744-1.186,5.689-1.363C151.411,649.921,151.428,646.919,149.501,647.095"/>
	<path fill="#FFFFFF" d="M376.346,731.504c21.238,15.556,49.886,21.08,75.501,24.259c16.023,1.989,32.122,3.313,48.212,4.621
		c16.3,1.326,32.575,2.991,48.918,3.653c31.773,1.287,63.65,0.677,95.443,0.67c6.967-0.002,13.916-0.109,20.84-0.928
		c6.91-0.818,13.246-3.134,19.895-5.007c13.074-3.683,26.682-5.175,40.096-7.053c18.016-2.521,36.125-5.901,51.893-15.457
		c8.445-5.119,15.602-11.913,23.791-17.381c3.607-2.41,7.389-4.803,10.854-7.429c3.561-2.697,5.838-6.957,8.854-10.183
		c1.32-1.41-0.797-3.536-2.121-2.12c-2.279,2.437-4.162,5.151-6.297,7.713c-2.18,2.616-5.164,4.184-8.01,5.939
		c-5.742,3.545-11.08,8.011-16.348,12.22c-11.469,9.162-23.91,15.489-38.123,19.18c-13.033,3.383-26.529,4.732-39.828,6.652
		c-6.457,0.934-12.885,2.034-19.254,3.448c-7.049,1.565-13.762,4.249-20.818,5.728c-14.684,3.074-30.557,1.677-45.465,1.677
		c-15.867,0-31.738,0.056-47.607-0.066c-32.74-0.25-65.27-3.123-97.861-6.046c-18.672-1.674-37.086-3.812-55.365-8.031
		c-16.13-3.723-32.189-8.766-45.684-18.649C376.297,727.769,374.803,730.374,376.346,731.504"/>
	<path fill="#FFFFFF" d="M818.77,698.148c-4.223,1.316-8.508,3.104-12.936,3.613c-1.898,0.218-1.92,3.221,0,3
		c4.75-0.546,9.199-2.308,13.732-3.72C821.407,700.468,820.622,697.57,818.77,698.148"/>
	<path fill="#FFFFFF" d="M817.721,699.993c0.346,2.345,0.934,4.906,1.049,7.253c0.09,1.849-0.318,3.583,0.018,5.416
		c0.348,1.9,3.238,1.093,2.893-0.798c-0.318-1.746,0.137-3.621,0.051-5.397c-0.115-2.363-0.768-4.905-1.117-7.271
		C820.334,697.288,817.444,698.102,817.721,699.993"/>
</g>
</svg>
