<?xml version="1.0" encoding="utf-8"?>
<!-- Generator: Adobe Illustrator 16.0.0, SVG Export Plug-In . SVG Version: 6.00 Build 0)  -->
<!DOCTYPE svg PUBLIC "-//W3C//DTD SVG 1.1//EN" "http://www.w3.org/Graphics/SVG/1.1/DTD/svg11.dtd">
<svg version="1.1" id="Layer_1" xmlns="http://www.w3.org/2000/svg" xmlns:xlink="http://www.w3.org/1999/xlink" x="0px" y="0px"
	 width="29.168px" height="29.167px" viewBox="0 0 29.168 29.167" enable-background="new 0 0 29.168 29.167" xml:space="preserve">
<path fill="#DF4944" d="M23.529,0H5.637C2.527,0,0,2.527,0,5.637v5.953v11.941c0,3.107,2.527,5.636,5.637,5.636h17.893
	c3.108,0,5.639-2.528,5.639-5.636V11.59V5.637C29.168,2.527,26.638,0,23.529,0 M25.147,3.363l0.644-0.004v0.644v4.3l-4.926,0.017
	l-0.017-4.943L25.147,3.363z M10.422,11.59c0.934-1.293,2.449-2.14,4.162-2.14s3.228,0.847,4.162,2.14
	c0.607,0.844,0.973,1.877,0.973,2.993c0,2.83-2.305,5.134-5.135,5.134c-2.832,0-5.135-2.304-5.135-5.134
	C9.449,13.467,9.813,12.434,10.422,11.59 M26.326,23.531c0,1.542-1.254,2.795-2.797,2.795H5.637c-1.542,0-2.795-1.253-2.795-2.795
	V11.59h4.354c-0.376,0.926-0.587,1.936-0.587,2.993c0,4.398,3.578,7.976,7.976,7.976s7.976-3.577,7.976-7.976
	c0-1.058-0.213-2.067-0.589-2.993h4.355V23.531z"/>
</svg>
