<?xml version="1.0" encoding="utf-8"?>
<!-- Generator: Adobe Illustrator 18.0.0, SVG Export Plug-In . SVG Version: 6.00 Build 0)  -->
<!DOCTYPE svg PUBLIC "-//W3C//DTD SVG 1.1//EN" "http://www.w3.org/Graphics/SVG/1.1/DTD/svg11.dtd">
<svg version="1.1" id="Layer_1" xmlns="http://www.w3.org/2000/svg" xmlns:xlink="http://www.w3.org/1999/xlink" x="0px" y="0px"
	 viewBox="0 0 300 300" enable-background="new 0 0 300 300" xml:space="preserve">
<g>
	<g>
		<path fill="#F2F2F2" d="M250.6,194.6l-0.8-0.4c-0.3-0.2-0.7-0.3-1.1-0.4c-0.4-0.1-0.8-0.3-1.2-0.5l-2.7-1.6
			c-0.5-0.3-1.1-0.5-1.7-0.7c-0.8-0.3-1.7-0.7-2.6-1.2c-1-0.6-2.1-1-3.1-1.4c-0.5-0.2-1.1-0.4-1.6-0.7c-0.6-0.2-1.3-0.6-1.9-1
			c-0.8-0.4-1.5-0.9-2.3-1.1c-0.2-0.1-0.9-0.2-0.9-0.7c-0.1-0.5,0.6-1,1.1-1.2c1.4-0.8,2.8-1.8,4.2-2.7c2-1.4,4.1-2.8,6.3-3.9
			l0.3-0.1l0.1,0.3c0.5,1.5,1.2,3,1.9,4.5c0.4,0.9,0.8,1.8,1.2,2.7c0.4,0.9,0.7,1.6,1,2.3c0.3,0.5,0.5,1.1,0.7,1.6
			c0.2,0.5,0.4,1,0.7,1.6c0.5,0.9,0.9,1.8,1.2,2.7c0.1,0.1,0.1,0.3,0.2,0.5c0.1,0.3,0.1,0.6,0.3,0.9L250.6,194.6z M242.3,177.6
			c-2.1,1.1-4.1,2.5-6,3.8c-1.4,0.9-2.8,1.9-4.3,2.8c-0.6,0.3-0.8,0.6-0.8,0.7c0,0,0.1,0.2,0.6,0.3c0.8,0.2,1.6,0.7,2.4,1.2
			c0.6,0.4,1.2,0.7,1.8,1c0.5,0.2,1.1,0.5,1.6,0.7c1,0.4,2.1,0.9,3.2,1.5c0.8,0.5,1.7,0.9,2.5,1.2c0.6,0.2,1.1,0.5,1.7,0.7l2.7,1.6
			c0.3,0.2,0.7,0.3,1.1,0.4c0.2,0.1,0.4,0.1,0.6,0.2c0-0.1-0.1-0.3-0.1-0.4c0-0.2-0.1-0.3-0.1-0.4c-0.4-0.9-0.7-1.8-1.2-2.6
			c-0.3-0.6-0.5-1.1-0.7-1.6c-0.2-0.5-0.4-1-0.7-1.6c-0.3-0.7-0.7-1.4-1.1-2.3c-0.4-0.9-0.8-1.8-1.2-2.7
			C243.5,180.5,242.9,179.1,242.3,177.6z"/>
	</g>
	<g>
		<path fill="#F2F2F2" d="M218.1,200.4c-0.6,0-1.1-0.6-1.5-1.2c-1.3-1.9-2.8-3.6-4.2-5.4c-2.1-2.5-4.2-5.1-5.9-8l-0.1-0.2l0.2-0.1
			c2.7-1.5,5.5-3.2,8.2-4.8c1.8-1.1,3.7-2.2,5.5-3.3c0.8-0.4,1.5-0.9,2.3-1.3c0.8-0.4,1.5-0.9,2.3-1.3c0.8-0.5,1.7-1,2.5-1.4
			c1.2-0.6,2.4-1.3,3.5-2.1l0.1,0l5.2-3.1c0.5-0.5,1.1-0.8,1.7-1.1c0.3-0.2,0.6-0.3,0.9-0.5l0.9-0.5l-0.6,0.9
			c-0.4,0.6-0.7,1.2-1,1.8c-0.3,0.7-0.7,1.4-1.2,2.1c-0.4,0.7-0.9,1.3-1.5,2c-0.7,0.9-1.4,1.9-2,2.9c-0.4,0.7-0.8,1.4-1.2,2.1
			c-1,1.8-1.9,3.5-3.1,5.2c-1.4,2.1-2.6,4.2-3.7,6.3c-0.4,0.7-0.8,1.4-1.2,2.1c-0.6,1-1.3,2.1-2,3.1c-1,1.5-2.1,3-2.7,4.5
			C219.1,199.9,218.6,200.4,218.1,200.4z M207.1,185.8c1.6,2.8,3.7,5.3,5.7,7.7c1.4,1.7,2.9,3.5,4.2,5.4c0.3,0.4,0.7,1,1.1,1
			c0.3,0,0.7-0.4,1.1-1.3c0.6-1.5,1.7-3,2.8-4.5c0.7-1,1.4-2.1,2-3c0.4-0.7,0.8-1.4,1.2-2.1c1.1-2.1,2.3-4.2,3.8-6.4
			c1.1-1.6,2.1-3.3,3.1-5.1c0.4-0.7,0.8-1.4,1.2-2.1c0.6-1,1.4-2,2.1-2.9c0.5-0.7,1-1.3,1.5-2c0.5-0.7,0.8-1.3,1.1-2
			c0.2-0.4,0.3-0.7,0.5-1.1c0,0-0.1,0-0.1,0.1c-0.6,0.3-1.2,0.6-1.7,1l-5.3,3.2c-1.2,0.8-2.4,1.5-3.5,2.1c-0.8,0.4-1.7,0.9-2.5,1.4
			c-0.8,0.4-1.6,0.9-2.3,1.3c-0.7,0.4-1.5,0.9-2.3,1.3c-1.8,1.1-3.7,2.2-5.5,3.3C212.5,182.7,209.8,184.4,207.1,185.8z"/>
	</g>
	<g>
		<path fill="#F2F2F2" d="M270.4,191.9c-0.1,0-0.3,0-0.5-0.1c-0.9-0.2-1.8-0.3-2.7-0.5c-1.2-0.2-2.4-0.3-3.7-0.8l-0.2-0.1l0-0.2
			c0.2-1.3,0.3-2.6,0.4-4c0-0.6,0.1-1.3,0.1-2c0-0.3,0-0.7,0.1-1c0-0.3,0.1-0.6,0.1-0.9c0-0.5,0-0.9,0.1-1.3c0-0.4,0.1-0.9,0.1-1.3
			c0-0.4,0-0.8,0.1-1.2c0-0.4,0.1-0.8,0.1-1.1v-0.2l0.2-0.1c0.3-0.1,0.4-0.3,0.4-0.6v-2l0.5,2c0.1,0.3,0.2,0.6,0.3,0.8
			c0.1,0.3,0.3,0.6,0.4,0.9l0.1,0.4c0.1,0.6,0.3,1.3,0.6,1.9c0.2,0.6,0.4,1.1,0.6,1.6c0.2,0.5,0.4,1.1,0.6,1.6c0.3,1.1,0.7,2,1.1,3
			c0.1,0.2,0.2,0.5,0.3,0.7c0.3,0.5,0.4,1.1,0.6,1.7c0.2,0.6,0.4,1.2,0.6,1.6c0.2,0.3,0.4,0.7,0.2,0.9
			C270.8,191.7,270.7,191.9,270.4,191.9z M263.9,190.1c1.1,0.3,2.3,0.5,3.4,0.7c0.9,0.1,1.8,0.3,2.7,0.5c0.2,0.1,0.4,0.1,0.5,0.1
			c0,0,0-0.1-0.2-0.4c-0.3-0.5-0.5-1.1-0.7-1.8c-0.2-0.6-0.3-1.1-0.6-1.6c-0.1-0.2-0.2-0.5-0.3-0.7c-0.4-1-0.8-1.9-1.1-3
			c-0.2-0.5-0.4-1-0.6-1.5c-0.2-0.5-0.4-1.1-0.6-1.6c-0.3-0.6-0.5-1.3-0.6-2l-0.1-0.4c-0.1-0.3-0.2-0.6-0.3-0.8
			c0-0.1-0.1-0.1-0.1-0.2c-0.1,0.1-0.2,0.2-0.3,0.2c0,0.3,0,0.7-0.1,1c0,0.4-0.1,0.8-0.1,1.1c0,0.5,0,0.9-0.1,1.3
			c0,0.4-0.1,0.9-0.1,1.3c0,0.4,0,0.7-0.1,1c0,0.3-0.1,0.6-0.1,0.9c-0.1,0.7-0.1,1.4-0.1,2C264.1,187.6,264.1,188.9,263.9,190.1z"/>
	</g>
	<g>
		<path fill="#F2F2F2" d="M276.2,180.5L276.2,180.5c-0.8-0.1-1.4-0.2-2-0.3c-0.9-0.2-1.8-0.4-2.9-0.4c-0.7,0-1.3,0-2,0
			c-0.7,0-1.4,0-2,0c-1.6,0-2.9-0.1-3.9-0.2c-1.1-0.1-2.3-0.2-3.7-0.2c-1.7,0-3.5,0.1-5.4,0.2l-0.2,0c0,0,0,0,0,0
			c-1.2,0-2.3-0.2-3.4-0.3c-1.1-0.2-2.1-0.3-3.1-0.3c-0.5,0-0.9,0-1.3,0.1c-0.3,0-0.5,0.1-0.7,0.1c-0.3,0-0.8,0-0.9-0.4
			c-0.2-0.5,0.5-1.2,3-2.9c3.9-2.7,7.8-5.7,11.5-8.5c5.2-3.9,10.5-7.9,15.9-11.6l0.3-0.2l0,0.4c0.2,2.3,0.8,4.4,1.3,6.4
			c0.3,1.3,0.7,2.6,1,3.9c0.2,1.3,0.4,2.3,0.7,3.5c0.2,0.6,0.2,1.3,0.3,1.9c0.1,0.9,0.2,1.9,0.5,2.7c0.3,0.8,0.5,1.7,0.7,2.5
			c0.1,0.4,0.2,0.9,0.3,1.3c0.2,0.2,0.2,0.5,0.3,0.9c0,0.3,0.1,0.6,0.2,0.9l0.2,0.4l-0.5-0.1c-0.7-0.1-1.7,0-2.6,0.1
			C277.4,180.5,276.8,180.5,276.2,180.5z M271.3,179.3c1.2,0,2.1,0.2,3,0.4c0.6,0.1,1.2,0.3,1.9,0.3c0.5,0,1.1-0.1,1.7-0.1
			c0.8-0.1,1.6-0.1,2.3-0.1c-0.1-0.2-0.1-0.5-0.1-0.7c0-0.3-0.1-0.5-0.2-0.6l0,0l0-0.1c-0.1-0.4-0.2-0.9-0.3-1.4
			c-0.2-0.8-0.4-1.7-0.7-2.5c-0.3-0.9-0.5-1.8-0.6-2.8c-0.1-0.7-0.2-1.3-0.3-1.8c-0.3-1.2-0.5-2.2-0.7-3.5c-0.3-1.3-0.6-2.6-0.9-3.9
			c-0.5-1.9-1.1-4-1.3-6.1c-5.3,3.6-10.5,7.5-15.6,11.3c-3.8,2.8-7.7,5.8-11.5,8.5c-0.7,0.5-2.8,1.9-2.8,2.4c0,0,0.1,0,0.4,0
			c0.2,0,0.4,0,0.6,0c0.5-0.1,0.9-0.1,1.4-0.1c1.1,0,2.2,0.2,3.2,0.3c1.1,0.2,2.2,0.3,3.3,0.3l0.2,0c1.9-0.1,3.7-0.2,5.4-0.2
			c1.4,0,2.7,0.1,3.8,0.2c1.1,0.2,2.2,0.2,3.9,0.2c0.7,0,1.3,0,2,0C270,179.3,270.7,179.3,271.3,179.3z"/>
	</g>
	<g>
		<path fill="#F2F2F2" d="M282.7,182.4l-0.7-0.1c-0.6-0.1-1.4,0-2.2,0c-0.8,0-1.6,0.1-2.2,0c-0.8-0.1-1.5-0.2-2.2-0.4
			c-0.8-0.2-1.6-0.4-2.5-0.5c-0.5,0-1.1-0.1-1.8-0.1c-0.5,0-1.1,0-1.6,0c-0.5,0-1.1,0-1.6,0c-1.2,0-2-0.1-2.8-0.2
			c-1.1-0.2-2.2-0.3-3.7-0.3c-0.9,0-1.8,0-2.6,0.1c-0.9,0-1.8,0.1-2.7,0.1c-1.3,0-2.5-0.2-3.6-0.4c-1.4-0.2-2.6-0.4-4.1-0.3
			c-0.3,0-0.5,0-0.7,0c-0.3,0-0.8,0-0.9-0.4c-0.2-0.6,0.7-1.3,2.8-2.9c3.3-2.4,6.6-4.9,9.8-7.3c5.5-4.1,11.2-8.4,16.9-12.3l0.4-0.2
			l0,0.4c0.2,2.3,0.8,4.4,1.3,6.4c0.3,1.3,0.7,2.6,1,3.9c0.2,1.3,0.4,2.3,0.7,3.5c0.1,0.5,0.2,1.1,0.3,1.7c0.2,1,0.4,2,0.7,2.9
			c0.3,0.8,0.5,1.7,0.7,2.5c0.1,0.5,0.2,0.9,0.3,1.4c0.1,0.2,0.1,0.4,0.1,0.7c0,0.4,0.1,0.9,0.4,1.1L282.7,182.4z M271.1,180.8
			c0.7,0,1.3,0,1.8,0.1c0.9,0.1,1.8,0.3,2.6,0.5c0.7,0.2,1.4,0.3,2.2,0.4c0.6,0.1,1.4,0,2.2,0c0.6,0,1.2-0.1,1.7,0
			c-0.1-0.3-0.2-0.7-0.2-1c0-0.2,0-0.4-0.1-0.6c-0.1-0.5-0.2-0.9-0.3-1.4c-0.2-0.8-0.4-1.7-0.7-2.5c-0.3-0.9-0.5-2-0.7-3
			c-0.1-0.6-0.2-1.1-0.3-1.6c-0.3-1.2-0.5-2.2-0.7-3.5c-0.3-1.3-0.6-2.6-0.9-3.9c-0.5-1.9-1.1-4-1.3-6.1c-5.6,3.8-11.2,8-16.6,12
			c-3.2,2.4-6.5,4.9-9.8,7.3c-1,0.8-2.7,2-2.7,2.4c0,0,0.1,0.1,0.4,0.1c0.2,0,0.4,0,0.6,0c0.3,0,0.5,0,0.8,0c1.2,0,2.4,0.2,3.5,0.4
			c1.1,0.2,2.3,0.4,3.5,0.4c0.9,0,1.8,0,2.7-0.1c0.9,0,1.8-0.1,2.6-0.1c1.5,0,2.8,0.1,3.8,0.3c0.7,0.1,1.5,0.2,2.7,0.2
			c0.5,0,1,0,1.6,0C270,180.9,270.5,180.8,271.1,180.8z"/>
	</g>
	<g>
		<path fill="#F2F2F2" d="M268.6,192.4c-0.1,0-0.3,0-0.5-0.1c-0.9-0.2-1.8-0.3-2.7-0.5c-1.2-0.2-2.4-0.3-3.7-0.8l-0.2-0.1l0-0.2
			c0.2-1.3,0.3-2.6,0.4-4c0-0.6,0.1-1.3,0.1-2c0-0.3,0-0.7,0.1-1c0-0.3,0.1-0.6,0.1-0.9c0-0.5,0-0.9,0.1-1.3c0-0.4,0.1-0.9,0.1-1.3
			c0-0.4,0-0.8,0.1-1.2c0-0.4,0.1-0.8,0.1-1.1v-0.2h0.2c0.3,0,0.3-0.5,0.3-0.6v-2l0.5,2c0.1,0.3,0.2,0.6,0.3,0.8
			c0.1,0.3,0.3,0.6,0.4,0.9l0.1,0.4c0.1,0.6,0.3,1.3,0.6,1.9c0.2,0.6,0.4,1.1,0.6,1.6c0.2,0.5,0.4,1.1,0.6,1.6c0.3,1.1,0.7,2,1.1,3
			c0.1,0.2,0.2,0.5,0.3,0.7c0.3,0.5,0.4,1.1,0.6,1.7c0.2,0.6,0.4,1.2,0.6,1.6c0.2,0.3,0.4,0.7,0.2,0.9
			C269,192.3,268.9,192.4,268.6,192.4z M262.1,190.7c1.1,0.3,2.3,0.5,3.4,0.7c0.9,0.1,1.8,0.3,2.7,0.5c0.2,0.1,0.4,0.1,0.5,0.1
			c0,0,0-0.1-0.2-0.4c-0.3-0.5-0.5-1.1-0.7-1.8c-0.2-0.6-0.3-1.1-0.6-1.6c-0.1-0.2-0.2-0.5-0.3-0.7c-0.4-1-0.8-1.9-1.1-3
			c-0.2-0.5-0.4-1-0.6-1.5c-0.2-0.5-0.4-1.1-0.6-1.6c-0.3-0.6-0.5-1.3-0.6-2l-0.1-0.3c-0.1-0.3-0.2-0.6-0.3-0.8
			c0-0.1-0.1-0.1-0.1-0.2c-0.1,0.1-0.2,0.2-0.3,0.3c0,0.3,0,0.6-0.1,1c0,0.4-0.1,0.8-0.1,1.1c0,0.5,0,0.9-0.1,1.3
			c0,0.4-0.1,0.9-0.1,1.3c0,0.4,0,0.7-0.1,1c0,0.3-0.1,0.6-0.1,0.9c-0.1,0.7-0.1,1.4-0.1,2C262.4,188.1,262.3,189.4,262.1,190.7z"/>
	</g>
	<g>
		<path fill="#F2F2F2" d="M174.8,193.5l-0.2-0.2c-1.9-1.5-4-3-6-4.4c-1.2-0.8-2.4-1.6-3.6-2.5c-0.5-0.4-1.1-0.8-1.6-1.1
			c-0.5-0.4-1-0.8-1.6-1.1c-0.6-0.4-1.2-0.8-1.8-1.3c-0.7-0.6-1.5-1.2-2.4-1.7c-0.8-0.4-1.5-0.9-2.3-1.4c-0.5-0.3-1-0.7-1.6-1
			c-0.2-0.2-0.4-0.3-0.6-0.5c-0.3-0.3-0.6-0.6-1.1-0.8l-0.7-0.3l0.8-0.2c0.6-0.1,1.1-0.4,1.6-0.6c0.7-0.3,1.4-0.6,2.3-0.7
			c0.6-0.1,1.3-0.2,2-0.3c1-0.1,2-0.2,2.9-0.6c0.9-0.2,1.7-0.5,2.5-0.8c1.5-0.5,3.1-1.1,4.7-1.3c2.1-0.4,4.2-1.1,6.3-1.8
			c0.7-0.2,1.4-0.5,2.1-0.7c1.1-0.4,2.4-0.6,3.6-0.8c1.4-0.2,2.8-0.4,4-1c0.5-0.2,0.9-0.3,1.2-0.3c0.4,0,0.5,0.2,0.6,0.3
			c0.3,0.5-0.1,1.5-0.8,2.8c-1.6,3.3-3.1,6.7-4.5,10c-1.7,4-3.5,8.1-5.5,12L174.8,193.5z M152.7,177.2c0.3,0.2,0.5,0.4,0.7,0.7
			c0.2,0.2,0.3,0.4,0.5,0.5c0.6,0.3,1.1,0.7,1.6,1c0.8,0.5,1.5,1,2.3,1.4c0.9,0.5,1.7,1.1,2.5,1.7c0.6,0.5,1.2,0.9,1.8,1.3
			c0.5,0.4,1.1,0.8,1.6,1.2c0.5,0.4,1.1,0.8,1.6,1.1c1.2,0.8,2.4,1.7,3.6,2.5c2,1.3,4,2.7,5.8,4.2c2-3.8,3.7-7.9,5.4-11.7
			c1.4-3.3,2.9-6.7,4.5-10c0.7-1.3,0.9-2.1,0.8-2.4c0,0-0.1-0.3-1.1,0.2c-1.3,0.6-2.7,0.8-4.1,1c-1.2,0.2-2.4,0.4-3.5,0.8
			c-0.7,0.2-1.4,0.5-2.1,0.7c-2.1,0.7-4.2,1.4-6.4,1.8c-1.6,0.2-3.1,0.7-4.6,1.3c-0.8,0.3-1.7,0.6-2.6,0.8c-1,0.3-2,0.4-3,0.6
			c-0.7,0.1-1.3,0.2-2,0.3c-0.8,0.1-1.5,0.4-2.2,0.6C153.4,176.9,153.1,177,152.7,177.2z"/>
	</g>
	<g>
		<path fill="#F2F2F2" d="M63.3,211.8c-0.2,0-0.4-0.1-0.8-0.3c-0.9-0.4-1.9-0.7-2.9-1.1c-1.5-0.6-3.1-1.1-4.5-1.9l-0.2-0.1l0.1-0.2
			c0.5-0.9,1.1-1.8,1.6-2.7c0.5-0.9,1.1-1.8,1.6-2.7c0.2-0.3,0.4-0.6,0.5-0.9c0.2-0.3,0.4-0.6,0.5-0.9c0.3-0.9,0.9-1.6,1.4-2.3
			c0.3-0.6,0.7-1.3,1.2-2c0-0.4,0.1-0.6,0.2-0.8c0-0.1,0.1-0.2,0.2-0.4l0.5-1.5v1.5c0,0.4,0,0.7,0.1,1c0,0.3,0.1,0.5,0.1,0.8
			c0,0.3,0,0.6,0,0.9c0,0.5-0.1,1,0,1.5c0,0.6,0.1,1.2,0.2,1.8c0.1,0.6,0.2,1.2,0.2,1.8c0,1.3,0.1,2.3,0.3,3.6l0.1,0.4
			c0.1,0.6,0.1,1.3,0.1,1.9c0,0.6,0,1.1,0.1,1.7c0.1,0.4,0,0.7-0.1,0.9C63.6,211.7,63.4,211.8,63.3,211.8z M55.6,208.1
			c1.3,0.7,2.8,1.2,4.2,1.7c1,0.4,2,0.7,2.9,1.1c0.4,0.3,0.5,0.3,0.5,0.3c0,0,0.1-0.1,0-0.5c-0.1-0.5-0.1-1.1-0.1-1.7
			c0-0.6,0-1.2-0.1-1.8l-0.1-0.4c-0.2-1.2-0.3-2.4-0.3-3.7c0-0.6-0.1-1.1-0.2-1.7c-0.1-0.6-0.2-1.2-0.2-1.8c-0.1-0.6-0.1-1.1,0-1.6
			c0-0.3,0-0.5,0-0.8c0-0.1,0-0.3,0-0.4l0,0.1c-0.5,0.7-0.9,1.4-1.2,2.1c-0.5,0.7-1.1,1.4-1.4,2.3c-0.2,0.3-0.4,0.6-0.5,0.9
			c-0.2,0.3-0.4,0.6-0.5,0.9c-0.5,0.9-1,1.8-1.6,2.7C56.6,206.5,56.1,207.3,55.6,208.1z"/>
	</g>
	<g>
		<path fill="#F2F2F2" d="M126,196.6l0.5-0.9c0.3-0.6,0.4-1.3,0.6-2c0.1-0.4,0.2-0.9,0.3-1.3c0.3-0.7,0.6-1.4,0.9-2
			c0.3-0.6,0.6-1.2,0.9-1.9c0.3-0.8,0.5-1.6,0.7-2.4c0.3-1.2,0.7-2.4,1.2-3.6c0.7-1.6,1.1-3.1,1.5-4.8c0.2-0.7,0.4-1.5,0.6-2.2
			c0.2-1,0.7-1.9,1.1-2.9c0.5-1.1,1-2.2,1.2-3.3c0.1-0.6,0.3-1.4,0.9-1.4c0.5,0,1.1,0.7,1.7,1.6c1.5,2.1,3.2,4.2,4.8,6.2
			c2.2,2.7,4.4,5.5,6.3,8.4l0.2,0.2l-0.3,0.1c-1.8,0.8-3.6,1.8-5.4,2.8c-1.3,0.7-2.6,1.4-3.9,2.1l-3.2,1.6c-0.4,0.2-0.8,0.4-1.2,0.6
			c-1,0.5-1.9,0.9-2.8,1.5c-0.7,0.4-1.4,0.8-2.1,1.2c-0.5,0.2-1,0.5-1.5,0.8c-0.3,0.1-0.6,0.2-0.8,0.3c-0.5,0.1-0.8,0.2-1.2,0.6
			L126,196.6z M136.3,168.5c-0.1,0-0.3,0.2-0.4,0.9c-0.2,1.2-0.7,2.3-1.2,3.4c-0.4,0.9-0.8,1.8-1.1,2.8c-0.2,0.8-0.4,1.5-0.6,2.2
			c-0.4,1.7-0.8,3.3-1.6,4.9c-0.5,1.1-0.8,2.3-1.2,3.5c-0.2,0.8-0.5,1.7-0.8,2.5c-0.3,0.7-0.6,1.4-0.9,2c-0.3,0.6-0.6,1.2-0.9,1.9
			c-0.1,0.4-0.2,0.9-0.3,1.3c-0.1,0.5-0.2,0.9-0.3,1.4c0.2-0.1,0.5-0.2,0.7-0.3c0.2-0.1,0.5-0.1,0.8-0.3c0.5-0.3,1-0.5,1.4-0.8
			c0.7-0.4,1.4-0.7,2-1.1c0.9-0.6,1.8-1.1,2.9-1.6c0.4-0.2,0.8-0.4,1.2-0.6l3.2-1.6c1.3-0.7,2.6-1.4,3.9-2.1
			c1.7-0.9,3.4-1.9,5.2-2.7c-1.9-2.8-4-5.5-6.1-8.1c-1.6-2-3.3-4.1-4.8-6.3C137.2,169.3,136.6,168.5,136.3,168.5z"/>
	</g>
	<g>
		<path fill="#F2F2F2" d="M158.3,198.1c-0.3,0-0.5-0.4-0.8-0.8c-0.5-0.8-1-1.5-1.4-2.2c-1-1.5-2-3-2.8-4.6l-0.1-0.2l0.3-0.1
			c1.4-0.5,2.8-1,4-1.7c0.3-0.1,0.5-0.2,0.7-0.3c0.2-0.1,0.4-0.2,0.7-0.3c0.3-0.2,0.6-0.3,0.9-0.4c0.3-0.1,0.6-0.2,0.8-0.3l0.1,0
			c0.2-0.1,0.5-0.2,0.8-0.3c0.3-0.1,0.5-0.3,0.8-0.4c0.1-0.1,0.3-0.1,0.5-0.2c0.1,0,0.3-0.1,0.3-0.1l0.7-0.7l-0.3,1
			c-0.1,0.2-0.1,0.3-0.1,0.4c-0.1,0.3-0.2,0.6-0.4,1c-0.1,0.3-0.3,0.6-0.5,0.8c-0.2,0.3-0.3,0.5-0.4,0.7c-0.1,0.3-0.2,0.5-0.3,0.8
			c-0.2,0.6-0.4,1.2-0.8,1.7c-0.3,0.6-0.5,1.2-0.7,2c-0.1,0.3-0.2,0.6-0.3,1c-0.1,0.3-0.3,0.6-0.4,0.9c-0.3,0.6-0.5,1.1-0.6,1.7
			C158.7,197.6,158.6,198.1,158.3,198.1z M153.8,190.4c0.8,1.5,1.7,3,2.6,4.3c0.5,0.7,1,1.5,1.4,2.2c0.1,0.1,0.3,0.4,0.4,0.5
			c0,0,0-0.1,0.1-0.2c0.1-0.6,0.4-1.2,0.7-1.8c0.1-0.3,0.3-0.6,0.4-0.9c0.1-0.3,0.2-0.6,0.3-0.9c0.2-0.7,0.4-1.5,0.8-2.1
			c0.4-0.5,0.5-1,0.7-1.6c0.1-0.3,0.2-0.5,0.3-0.8c0.1-0.3,0.3-0.6,0.5-0.8c0.2-0.3,0.3-0.5,0.4-0.7l0-0.1c0.2-0.3,0.3-0.5,0.4-0.8
			c-0.1,0-0.3,0.1-0.4,0.1c-0.3,0.1-0.5,0.2-0.8,0.4c-0.3,0.1-0.5,0.3-0.8,0.4c-0.3,0.2-0.6,0.3-0.9,0.4c-0.3,0.1-0.6,0.2-0.8,0.3
			l-0.1,0c-0.3,0.1-0.5,0.2-0.7,0.3c-0.2,0.1-0.4,0.2-0.7,0.3C156.4,189.4,155.1,189.9,153.8,190.4z"/>
	</g>
	<g>
		<path fill="#F2F2F2" d="M104.6,204.8v-0.6c0-0.9-0.2-1.7-0.4-2.6c-0.1-0.5-0.2-1-0.3-1.5c-0.1-0.8,0-1.6,0-2.3
			c0-0.8,0.1-1.6,0-2.4c-0.1-0.8-0.2-1.5-0.4-2.3c-0.3-1.7-0.6-3.5-0.7-5.2c0-2.2-0.4-4.5-0.9-6.9c-0.1-0.6-0.2-1.2-0.3-1.9
			c-0.3-1.3-0.3-2.6-0.3-3.8c0-1.2,0-2.4-0.3-3.7c-0.2-0.8-0.2-1.2-0.1-1.5c0.1-0.1,0.2-0.2,0.4-0.2c0.4,0,1,0.5,2.1,1.5
			c0.2,0.2,0.4,0.4,0.7,0.6c3.1,3.3,6.2,6.5,9.3,9.7c3.7,3.8,7.5,7.7,11.1,11.6l0.2,0.3l-0.3,0.1c-1.8,0.7-3.4,1.7-5,2.6
			c-1.1,0.6-2.1,1.2-3.3,1.8c-0.4,0.3-0.9,0.5-1.4,0.7c-0.5,0.2-1,0.4-1.4,0.7c-0.5,0.3-1,0.5-1.5,0.7c-0.7,0.3-1.5,0.7-2.2,1.2
			c-0.4,0.4-1,0.7-1.5,1c-0.5,0.3-1,0.6-1.5,0.9c-0.3,0.3-0.6,0.4-0.9,0.6c-0.3,0.1-0.6,0.2-0.8,0.5L104.6,204.8z M101.4,170.4
			c0,0,0,0.2,0.2,1c0.3,1.4,0.3,2.6,0.3,3.8c0,1.2,0,2.4,0.3,3.7c0.1,0.6,0.2,1.2,0.3,1.9c0.4,2.3,0.9,4.7,0.9,7
			c0.1,1.7,0.4,3.4,0.7,5.2c0.1,0.8,0.3,1.6,0.4,2.4c0.1,0.9,0,1.7,0,2.5c0,0.8-0.1,1.5,0,2.2c0.1,0.4,0.2,0.9,0.3,1.4
			c0.2,0.7,0.3,1.4,0.4,2.2c0.2-0.1,0.4-0.2,0.5-0.3c0.3-0.1,0.6-0.2,0.8-0.5c0.5-0.4,1-0.7,1.5-1c0.5-0.3,1-0.6,1.5-0.9
			c0.8-0.5,1.5-0.9,2.3-1.2c0.5-0.2,1-0.4,1.5-0.7c0.4-0.3,0.9-0.5,1.4-0.7c0.5-0.2,1-0.4,1.4-0.7c1.1-0.6,2.2-1.2,3.3-1.8
			c1.5-0.9,3-1.8,4.7-2.5c-3.5-3.8-7.2-7.7-10.8-11.3c-3.1-3.1-6.3-6.4-9.3-9.7c-0.2-0.2-0.4-0.4-0.7-0.6
			C102.5,171.1,101.7,170.4,101.4,170.4z"/>
	</g>
	<g>
		<path fill="#F2F2F2" d="M84.9,193.7c-0.1,0-0.3-0.1-0.3-0.2c-0.2-0.3-0.1-0.8,0.2-1.7l0-0.2c0.6-2,1.1-4.2,1.6-6.3
			c0.7-2.9,1.5-6,2.4-8.9l0.1-0.3l0.3,0.2c1.1,0.7,2.3,1.3,3.5,1.8c0.8,0.4,1.7,0.8,2.5,1.2c0.4,0.2,0.7,0.4,1,0.5
			c0.3,0.2,0.6,0.3,1,0.5c0.4,0.2,0.9,0.4,1.3,0.7c0.4,0.3,0.9,0.5,1.3,0.7c0.9,0.4,1.6,0.7,2.3,1c0.2,0.1,0.3,0.2,0.4,0.2
			c0.2,0.1,0.4,0.3,0.6,0.3h1.1l-0.9,0.5c-0.3,0.2-0.7,0.4-1,0.6c-0.3,0.2-0.7,0.4-1.1,0.6c-0.9,0.4-1.8,0.7-2.8,1.2
			c-0.4,0.2-0.9,0.5-1.4,0.9c-0.8,0.5-1.7,1.1-2.5,1.4c-1,0.4-1.8,1-2.8,1.6c-0.6,0.4-1.2,0.7-1.8,1.1c-0.6,0.4-1.2,0.6-1.8,0.9
			c-0.8,0.3-1.5,0.6-2.2,1.2C85.3,193.6,85,193.7,84.9,193.7z M89.2,177c-0.9,2.8-1.6,5.7-2.3,8.5c-0.5,2.1-1.1,4.2-1.6,6.3l0,0.2
			c-0.1,0.4-0.3,1-0.3,1.2c0.1,0,0.2-0.1,0.5-0.3c0.7-0.6,1.5-1,2.3-1.3c0.6-0.2,1.2-0.5,1.7-0.8c0.6-0.3,1.2-0.7,1.8-1.1
			c0.9-0.6,1.9-1.2,2.8-1.6c0.8-0.3,1.6-0.9,2.4-1.4c0.5-0.3,1-0.6,1.4-0.9c1.1-0.5,2-0.9,2.8-1.2c0.3-0.2,0.7-0.4,1-0.6
			c0.2-0.1,0.4-0.2,0.6-0.4c-0.1,0-0.2-0.1-0.2-0.2c-0.1-0.1-0.2-0.1-0.3-0.2c-0.7-0.4-1.4-0.7-2.3-1c-0.5-0.2-0.9-0.5-1.4-0.7
			c-0.4-0.3-0.9-0.5-1.3-0.7c-0.4-0.2-0.7-0.4-1-0.5c-0.3-0.2-0.6-0.3-1-0.5c-0.8-0.4-1.7-0.8-2.5-1.2
			C91.4,178.1,90.2,177.6,89.2,177z"/>
	</g>
	<g>
		<path fill="#F2F2F2" d="M195.9,203.3l-0.1-0.2c-1.3-2.1-2.8-4.2-4.3-6.3c-1.1-1.5-2.2-3.1-3.2-4.6c-0.4-0.6-0.8-1.2-1.2-1.8
			c-0.4-0.6-0.8-1.2-1.2-1.8c-0.6-0.8-1.2-1.6-1.7-2.4c-0.5-0.8-1-1.6-1.7-2.4c-0.4-0.5-0.8-1-1.1-1.6c-0.6-0.9-1.2-1.7-1.9-2.5
			l0-0.1c-0.3-0.8-0.7-1.7-1.2-2.2l-0.8-0.8l1.1,0.4c0.6,0.2,1.2,0.4,1.7,0.6c0.7,0.2,1.3,0.4,2,0.7c0.8,0.4,1.6,0.8,2.3,1.2
			c0.7,0.4,1.5,0.8,2.3,1.1c0.9,0.3,1.8,0.6,2.7,0.9c1.4,0.4,2.8,0.9,4.1,1.5c2.1,1,4.2,1.6,6.5,2.3c0.5,0.2,1,0.3,1.6,0.5
			c1.1,0.3,2.2,0.9,3.3,1.4c1.3,0.6,2.5,1.2,3.7,1.4c0.9,0.2,1.4,0.5,1.5,0.9c0.2,0.6-0.4,1.1-1.1,1.8l-0.2,0.2
			c-1.9,1.6-3.6,3.3-5.3,4.9c-2.4,2.3-4.8,4.7-7.6,6.7L195.9,203.3z M179.9,179.4c0.7,0.8,1.2,1.6,1.9,2.5c0.4,0.5,0.7,1,1.1,1.5
			c0.6,0.8,1.2,1.6,1.7,2.4c0.5,0.8,1.1,1.6,1.7,2.4c0.5,0.6,0.9,1.3,1.2,1.9c0.4,0.6,0.8,1.2,1.2,1.8c1,1.6,2.2,3.1,3.2,4.6
			c1.4,2,2.9,4,4.2,6.1c2.6-2,5-4.3,7.3-6.5c1.7-1.7,3.5-3.4,5.3-4.9l0.2-0.2c0.5-0.5,1-1,0.9-1.3c0-0.1-0.2-0.4-1.2-0.6
			c-1.3-0.2-2.5-0.8-3.9-1.5c-1-0.5-2.1-1-3.2-1.3c-0.5-0.2-1.1-0.3-1.6-0.5c-2.3-0.7-4.4-1.3-6.6-2.3c-1.4-0.6-2.7-1.1-4.1-1.5
			c-0.9-0.3-1.8-0.6-2.8-0.9c-0.8-0.4-1.6-0.8-2.3-1.2c-0.7-0.4-1.5-0.8-2.3-1.1c-0.7-0.3-1.3-0.5-1.9-0.7c-0.3-0.1-0.6-0.2-1-0.3
			C179.4,178.3,179.6,178.9,179.9,179.4z"/>
	</g>
	<g>
		<path fill="#F2F2F2" d="M211.7,171.6c-0.3,0-0.5-0.1-0.5-0.3c-0.2-0.3,0.1-0.7,0.5-1.2c0.8-1,1.4-2.1,2.1-3.2
			c0.9-1.4,1.8-2.8,2.8-4.1l0.2-0.2l0.2,0.2c0.6,0.6,1.2,1.2,1.8,1.7c0.6,0.6,1.2,1.2,1.9,1.8l2.8,2.8c0.5,0.3,1,0.8,1.4,1.2
			c0.4,0.2,0.6,0.4,0.7,0.6l0.4,0.4h-0.6c-0.2,0-0.5,0-0.8,0.1c-0.6,0.1-1.3,0.1-1.9,0c-0.7-0.1-1.4-0.1-2.1,0c-0.8,0-1.5,0.1-2,0
			c-0.3,0-0.6-0.1-1-0.1c-0.7,0-1.4,0.1-2.2,0.2l-0.2,0c-0.4,0-0.7,0-1.1,0c-0.7,0-1.5-0.1-2.1,0
			C211.9,171.6,211.8,171.6,211.7,171.6z M211.6,171.1c0.1,0,0.2,0,0.4,0c0.6-0.1,1.4-0.1,2.2,0c0.3,0,0.7,0,1,0l0.2,0
			c1.2-0.2,2.3-0.3,3.4-0.1c0.5,0.1,1.2,0.1,1.9,0c0.7,0,1.5,0,2.2,0c0.6,0.1,1.2,0.1,1.8,0c0.1,0,0.1,0,0.2,0
			c-0.1,0-0.1-0.1-0.2-0.1l-0.1,0c-0.3-0.3-0.9-0.9-1.4-1.2l-2.9-2.8c-0.6-0.6-1.2-1.2-1.8-1.8c-0.5-0.5-1.1-1-1.6-1.6
			c-0.9,1.2-1.7,2.5-2.6,3.8c-0.7,1-1.4,2.1-2.1,3.2C211.9,170.5,211.7,170.9,211.6,171.1z"/>
	</g>
	<g>
		<path fill="#F2F2F2" d="M131.4,173.7l-2.5,0c-0.6-0.2-1.3-0.3-1.7-0.3c-0.9-0.2-1.8,0-2.7-0.2c-1.2-0.3-2.2-0.3-3.3-0.3
			c-0.5,0-1-0.1-1.5-0.2c-0.5-0.1-0.9-0.2-1.4-0.2c-0.3,0-0.6,0-0.8-0.3c-0.1-0.3,0.2-0.6,0.6-1c0.9-1,1.8-2,2.6-3
			c0.9-1,1.8-2,2.6-3l0.2-0.2l0.2,0.3c0.4,0.6,0.9,1.2,1.4,1.7c0.5,0.6,1,1.2,1.4,1.8c0.2,0.2,0.4,0.5,0.6,0.9
			c0.1,0.1,0.2,0.2,0.3,0.4c0.3,0.5,0.7,1,1.2,1.5c0.2,0.2,0.4,0.4,0.5,0.6c0.2,0.2,0.3,0.4,0.5,0.6c0.2,0.1,0.3,0.2,0.4,0.3
			c0.1,0.1,0.1,0.1,0.3,0.2L131.4,173.7z M129,173.2h0.6c0,0-0.1,0-0.1-0.1l-0.1,0c-0.2-0.2-0.4-0.4-0.5-0.6
			c-0.2-0.2-0.3-0.4-0.5-0.6c-0.5-0.5-0.9-1.1-1.3-1.6c-0.1-0.1-0.2-0.3-0.3-0.4c-0.2-0.3-0.4-0.6-0.6-0.8c-0.5-0.6-0.9-1.2-1.4-1.8
			c-0.4-0.5-0.8-1-1.2-1.5c-0.8,0.9-1.6,1.8-2.4,2.8c-0.9,1-1.8,2-2.6,3c-0.1,0.1-0.3,0.3-0.4,0.4c0.1,0,0.1,0,0.2,0
			c0.5,0,1,0.1,1.5,0.2c0.5,0.1,0.9,0.2,1.4,0.2c1.1,0,2.1,0,3.4,0.4c0.8,0.2,1.7,0,2.6,0.2C127.9,172.8,128.7,173,129,173.2z"/>
	</g>
	<g>
		<path fill="#F2F2F2" d="M104.2,214.4l-0.1-0.6c-0.1-0.9-0.3-1.8-0.5-2.6c-0.2-0.8-0.3-1.5-0.4-2.3c-0.1-1,0-1.9,0-2.9
			c0-0.9,0.1-1.9,0-3c-0.1-1.1-0.3-2.3-0.5-3.4c-0.3-1.9-0.7-3.8-0.7-5.6c0-2.6-0.6-5.4-1.1-8.3c-0.1-0.7-0.3-1.5-0.4-2.2
			c-0.2-1.4-0.3-2.7-0.3-4c0-1.7-0.1-3.4-0.6-5.2c-0.3-1-0.3-1.5-0.1-1.8c0.1-0.1,0.2-0.2,0.4-0.2c0.5,0,1.4,0.8,2.9,2.3l0.4,0.4
			c3.7,4.1,7.6,8.1,11.4,11.9c4.4,4.5,9,9.2,13.2,13.9l0.2,0.3l-0.3,0.1c-2.3,0.9-4.5,2.2-6.7,3.4c-1.1,0.6-2.2,1.3-3.3,1.8
			c-0.3,0.1-0.5,0.3-0.8,0.4c-0.8,0.4-1.7,0.8-2.5,1.3c-0.6,0.4-1.3,0.7-2,1c-0.8,0.4-1.7,0.7-2.4,1.3c-0.6,0.5-1.3,0.9-2,1.3
			c-0.6,0.3-1.2,0.6-1.7,1c-0.2,0.1-0.3,0.1-0.5,0.2c-0.4,0.1-0.9,0.2-1.2,0.7L104.2,214.4z M99.8,172.9c0,0-0.1,0.2,0.2,1.3
			c0.5,1.8,0.6,3.6,0.6,5.3c0,1.3,0.1,2.6,0.3,3.9c0.1,0.7,0.3,1.5,0.4,2.2c0.6,2.9,1.2,5.7,1.2,8.4c0,1.7,0.3,3.6,0.7,5.5
			c0.2,1.1,0.4,2.3,0.6,3.5c0.1,1.1,0,2.1,0,3c0,0.9-0.1,1.8,0,2.8c0.1,0.7,0.2,1.5,0.4,2.2c0.2,0.7,0.3,1.4,0.4,2.2
			c0.4-0.3,0.8-0.4,1.1-0.5c0.1,0,0.3-0.1,0.4-0.1c0.5-0.4,1.1-0.7,1.7-1c0.7-0.4,1.4-0.8,1.9-1.2c0.8-0.6,1.7-1,2.5-1.4
			c0.7-0.3,1.3-0.6,1.9-0.9c0.8-0.5,1.7-1,2.6-1.4c0.3-0.1,0.5-0.3,0.8-0.4c1.1-0.6,2.2-1.2,3.3-1.8c2.1-1.2,4.2-2.4,6.4-3.3
			c-4.2-4.6-8.7-9.2-13-13.7c-3.8-3.9-7.7-7.9-11.4-11.9l-0.4-0.4C101.4,174.1,100.2,172.9,99.8,172.9z"/>
	</g>
	<g>
		<path fill="#F2F2F2" d="M82.7,198.9c-0.1,0-0.2-0.1-0.3-0.2c-0.2-0.3-0.1-1,0.2-2.2c0.6-2.1,1.1-4.2,1.7-6.3c1-3.7,2-7.6,3.1-11.3
			l0.1-0.3l0.3,0.2c1.5,1,3.1,1.7,4.7,2.5c0.4,0.2,0.8,0.4,1.3,0.6c0.4,0.2,0.7,0.4,1,0.5c0.3,0.2,0.6,0.3,1,0.5
			c0.4,0.2,0.8,0.4,1.1,0.6c0.4,0.3,0.9,0.6,1.5,0.8c0.9,0.4,1.6,0.7,2.3,1.1l0.1,0l0,0.1c0.2,0.4,0.3,0.6,0.7,0.6h0.9l-0.8,0.5
			c-0.4,0.2-0.7,0.5-1.1,0.8c-0.3,0.3-0.7,0.6-1.1,0.8c-0.4,0.3-0.9,0.5-1.4,0.7c-0.5,0.2-1,0.4-1.4,0.7c-0.6,0.4-1.1,0.8-1.7,1.2
			c-0.8,0.6-1.5,1.2-2.4,1.6c-1.6,0.9-3.2,2.1-4.7,3.3c-0.6,0.5-1.3,0.8-1.9,1.1c-0.8,0.4-1.6,0.8-2.3,1.5
			C83.2,198.8,82.9,198.9,82.7,198.9z M87.8,179.4c-1.1,3.6-2.1,7.4-3,11c-0.5,2.1-1.1,4.2-1.7,6.3c-0.1,0.5-0.3,1.4-0.3,1.7
			c0.1,0,0.2-0.1,0.4-0.4c0.7-0.7,1.6-1.2,2.4-1.6c0.6-0.3,1.2-0.6,1.8-1.1c1.6-1.2,3.2-2.5,4.8-3.4c0.8-0.4,1.5-1,2.3-1.6
			c0.6-0.4,1.1-0.9,1.7-1.3c0.5-0.3,1-0.5,1.4-0.7c0.5-0.2,1-0.4,1.4-0.7c0.3-0.2,0.7-0.4,1-0.7c0.2-0.2,0.4-0.4,0.7-0.6
			c-0.2-0.2-0.4-0.4-0.5-0.6c-0.7-0.3-1.3-0.7-2.2-1c-0.6-0.2-1.1-0.5-1.6-0.8c-0.4-0.2-0.7-0.4-1.1-0.6c-0.4-0.2-0.7-0.4-1-0.5
			c-0.3-0.2-0.6-0.3-1-0.5c-0.4-0.2-0.8-0.4-1.3-0.6C90.7,181,89.2,180.3,87.8,179.4z"/>
	</g>
	<g>
		<path fill="#F2F2F2" d="M196.3,203.9l-0.1-0.2c-1.9-2.9-4-5.9-6-8.7l-0.8-1.1c-0.2-0.3-0.4-0.6-0.6-0.9c-0.5-0.8-1.1-1.7-1.7-2.4
			c-0.5-0.7-1-1.5-1.5-2.2c-0.5-0.7-1-1.5-1.5-2.2c-0.9-1.2-1.8-2.5-2.8-3.7c-0.1-0.2-0.2-0.3-0.3-0.5c-0.3-0.4-0.5-0.9-0.9-1.2
			l-0.9-0.9l1.2,0.5c0.6,0.3,1.1,0.4,1.6,0.5c0.5,0.1,1.1,0.3,1.7,0.5c0.5,0.2,0.9,0.5,1.4,0.7c0.9,0.5,1.8,0.9,2.8,1.4
			c0.8,0.4,1.7,0.6,2.6,0.9c1.3,0.4,2.5,0.8,3.6,1.4c1.7,0.8,3.2,1.3,4.9,1.9c0.8,0.2,1.5,0.5,2.3,0.8c0.9,0.3,1.9,0.8,2.8,1.2
			c1.2,0.6,2.4,1.2,3.5,1.4c0.9,0.2,1.4,0.6,1.5,1c0.1,0.6-0.6,1.2-1.2,1.6c-1.5,1.3-3,2.7-4.4,4.1c-2.2,2.1-4.4,4.3-6.8,6.1
			L196.3,203.9z M180.9,181c0.1,0.2,0.3,0.4,0.4,0.6c0.1,0.2,0.2,0.3,0.3,0.5c1,1.2,1.9,2.5,2.8,3.7c0.5,0.7,1,1.5,1.5,2.2
			c0.5,0.7,1,1.5,1.5,2.2c0.6,0.8,1.2,1.6,1.7,2.4c0.2,0.3,0.4,0.6,0.6,0.9l0.8,1.1c2,2.8,4.1,5.6,5.9,8.5c2.3-1.8,4.5-3.8,6.6-5.9
			c1.4-1.4,2.9-2.8,4.5-4.2c0.9-0.6,1-1,1-1.1c0-0.1-0.2-0.4-1.1-0.6c-1.1-0.2-2.4-0.8-3.6-1.4c-0.9-0.4-1.9-0.9-2.7-1.2
			c-0.8-0.3-1.5-0.5-2.3-0.8c-1.7-0.5-3.3-1-5-1.9c-1.1-0.6-2.3-1-3.5-1.4c-0.8-0.3-1.7-0.5-2.6-0.9c-1.1-0.5-2-1-2.9-1.4
			c-0.4-0.2-0.9-0.5-1.4-0.7c-0.6-0.2-1.1-0.4-1.6-0.5C181.5,181.1,181.2,181.1,180.9,181z"/>
	</g>
	<g>
		<path fill="#F2F2F2" d="M214.6,200.1c-0.8,0-1.3-1-1.9-2.1c-1.5-2.8-3.1-5.5-4.7-8.2c-2.2-3.7-4.5-7.5-6.4-11.5l-0.1-0.3l0.3-0.1
			c3.1-1.1,6.2-2.3,9.2-3.5c2-0.8,4.1-1.7,6.1-2.4c0.9-0.4,1.7-0.7,2.6-1c0.8-0.3,1.7-0.6,2.5-1c0.9-0.4,1.7-0.7,2.7-1
			c1.3-0.5,2.7-1,4-1.6c1-0.4,2-0.8,2.9-1.2c0.9-0.4,1.9-0.8,2.9-1.2c0.3-0.1,0.7-0.2,1-0.4c0.6-0.2,1.1-0.4,1.8-0.7l0.9-0.5
			l-0.6,0.8c-0.6,0.8-0.9,1.6-1.3,2.4c-0.3,0.6-0.6,1.2-1,1.8c-0.6,0.9-1.3,1.8-2,2.6c-0.6,0.8-1.3,1.7-1.9,2.5
			c-0.5,0.9-1,1.8-1.5,2.6c-1,1.7-2,3.5-3.3,5.3c-1.8,2.6-3.3,5.2-4.8,7.9l-0.7,1.2c-0.7,1.3-1.6,2.5-2.5,3.7
			c-1.1,1.4-2.1,2.8-2.7,4.2C215.6,199.6,215.1,200.1,214.6,200.1z M202.2,178.3c1.8,3.9,4.1,7.6,6.2,11.2c1.6,2.7,3.3,5.4,4.7,8.2
			c0.3,0.7,0.9,1.9,1.4,1.9c0.2,0,0.6-0.2,1.1-1.3c0.7-1.5,1.7-2.8,2.8-4.3c0.9-1.2,1.8-2.4,2.5-3.7l0.7-1.2
			c1.5-2.7,2.9-5.3,4.8-7.9c1.3-1.8,2.3-3.5,3.2-5.3c0.5-0.9,1-1.8,1.5-2.6c0.6-0.9,1.3-1.7,1.9-2.6c0.6-0.8,1.3-1.7,1.9-2.5
			c0.4-0.6,0.6-1.2,0.9-1.8c0.3-0.6,0.5-1.1,0.9-1.7c-0.4,0.1-0.7,0.3-1.1,0.4c-0.3,0.1-0.7,0.2-1,0.3c-1,0.4-1.9,0.8-2.9,1.2
			c-0.9,0.4-1.9,0.8-2.9,1.2c-1.4,0.6-2.7,1.1-4,1.6c-0.9,0.3-1.8,0.7-2.6,1c-0.9,0.4-1.7,0.7-2.6,1c-0.8,0.3-1.7,0.6-2.5,1
			c-2,0.8-4.1,1.6-6.1,2.4C208.2,176,205.1,177.3,202.2,178.3z"/>
	</g>
	<g>
		<path fill="#F2F2F2" d="M250.3,191.3l-0.5-0.3c-0.6-0.3-1.2-0.5-1.8-0.7c-0.4-0.1-0.8-0.2-1.1-0.4c-0.6-0.3-1.2-0.6-1.7-1
			c-0.5-0.4-1-0.7-1.6-0.9c-0.4-0.2-0.8-0.3-1.2-0.5c-1.4-0.6-2.9-1.1-4.3-1.8c-1.3-0.7-2.7-1.3-4.2-1.8c-0.7-0.3-1.5-0.5-2.2-0.8
			c-0.9-0.3-1.7-0.8-2.5-1.3c-1-0.6-1.9-1.1-2.9-1.4c-0.5-0.1-1.1-0.4-1.1-0.8c0-0.5,0.6-0.9,2-1.4c2.7-1.1,5.3-2.3,7.9-3.5
			c3.4-1.5,6.8-3.1,10.4-4.4l0.3-0.1l0,0.3c0.2,1.8,0.6,3.6,1,5.4c0.3,1.1,0.5,2.2,0.7,3.3c0.1,0.4,0.2,0.9,0.3,1.4
			c0.1,0.5,0.2,1,0.3,1.4c0.2,0.6,0.3,1.2,0.4,1.9c0.1,0.6,0.2,1.2,0.3,1.8c0.2,0.6,0.3,1.2,0.5,1.8c0.1,0.5,0.2,1,0.4,1.5
			c0.2,0.4,0.3,0.8,0.4,1.2c0,0.2,0.1,0.4,0.1,0.5L250.3,191.3z M245.2,170.9c-3.5,1.3-6.8,2.8-10.1,4.3c-2.6,1.2-5.2,2.4-7.9,3.5
			c-1.7,0.6-1.7,0.9-1.7,0.9c0,0,0.1,0.2,0.8,0.4c1.1,0.3,2.1,0.9,3,1.4c0.8,0.5,1.6,0.9,2.5,1.2c0.7,0.3,1.4,0.6,2.2,0.8
			c1.4,0.5,2.9,1.1,4.2,1.8c1.4,0.7,2.8,1.3,4.2,1.8c0.4,0.2,0.8,0.3,1.2,0.5c0.6,0.3,1.2,0.6,1.7,1c0.5,0.4,1,0.7,1.6,0.9
			c0.3,0.1,0.7,0.2,1.1,0.4c0.5,0.1,0.9,0.3,1.4,0.5c0,0,0-0.1,0-0.1c-0.1-0.3-0.2-0.7-0.4-1.1c-0.2-0.6-0.3-1.1-0.4-1.6
			c-0.2-0.6-0.3-1.2-0.5-1.8c-0.2-0.6-0.3-1.3-0.4-1.9c-0.1-0.6-0.2-1.2-0.3-1.8c-0.1-0.5-0.2-0.9-0.3-1.4c-0.1-0.5-0.2-1-0.3-1.4
			c-0.2-1.1-0.5-2.2-0.7-3.2C245.9,174.4,245.5,172.7,245.2,170.9z"/>
	</g>
	<g>
		<path fill="#F2F2F2" d="M223.8,172.4h-2.6c-0.4,0-0.7,0-1.1-0.1s-0.7-0.1-1-0.1h-3c-0.4-0.1-0.8-0.1-1.2-0.1c-0.4,0-0.7,0-1.1,0
			c-0.8,0-1.7,0-2.5-0.1c-0.7-0.1-1.3-0.2-1.8-0.1c-0.6,0.1-0.8-0.1-0.9-0.2c-0.1-0.3,0.2-0.8,0.5-1.1c0.5-0.8,1.1-1.6,1.6-2.4
			c1-1.5,1.9-2.9,3-4.3l0.2-0.2l0.2,0.2c1.1,1.1,2.2,2,3.4,3.1l0.4,0.4l2.8,2.8c0.5,0.3,1,0.8,1.3,1.2c0.3,0,0.4,0.1,0.6,0.2
			c0.1,0,0.1,0.1,0.2,0.1L223.8,172.4z M219.1,171.7c0.4,0,0.7,0,1.1,0.1s0.7,0.1,1,0.1h0.5c-0.3-0.3-0.8-0.8-1.3-1.1l-2.9-2.8
			l-0.4-0.4c-1.2-1-2.2-1.9-3.2-3c-1,1.3-1.9,2.6-2.8,4c-0.5,0.8-1,1.6-1.6,2.4c-0.3,0.3-0.4,0.4-0.4,0.5h0c0,0,0,0,0.1,0l0,0
			c0.1,0,0.2,0,0.2,0c0.6-0.1,1.3,0,2,0.1c0.9,0.1,1.7,0.1,2.4,0.1c0.8,0,1.6-0.1,2.4,0L219.1,171.7z"/>
	</g>
	<g>
		<path fill="#F2F2F2" d="M131.4,176.8l-2.5,0c-0.6-0.2-1.3-0.3-1.7-0.3c-0.9-0.2-1.8,0-2.7-0.2c-1-0.2-2.1-0.2-3.1-0.2
			c-0.5,0-1-0.1-1.5-0.2c-0.5-0.1-0.9-0.2-1.4-0.2c-0.3,0-0.6,0-0.8-0.3c-0.1-0.3,0.2-0.6,0.6-1c0.9-1,1.8-2,2.6-3
			c0.9-1,1.8-2,2.6-3l0.2-0.2l0.2,0.3c0.4,0.6,0.9,1.2,1.4,1.7c0.5,0.6,1,1.2,1.4,1.8c0.2,0.2,0.4,0.5,0.6,0.9
			c0.1,0.1,0.2,0.2,0.2,0.4c0.3,0.5,0.7,1,1.2,1.5c0.2,0.2,0.4,0.4,0.5,0.6c0.1,0.2,0.3,0.3,0.4,0.5c0.2,0,0.3,0.1,0.4,0.2
			c0.1,0.1,0.1,0.2,0.2,0.2L131.4,176.8z M129,176.3h0.6c-0.2-0.2-0.3-0.4-0.5-0.6c-0.2-0.2-0.3-0.4-0.5-0.6
			c-0.5-0.5-0.9-1.1-1.3-1.6c-0.1-0.1-0.2-0.3-0.3-0.4c-0.2-0.3-0.4-0.6-0.6-0.8c-0.5-0.6-0.9-1.2-1.4-1.8c-0.4-0.5-0.8-1-1.2-1.5
			c-0.8,0.9-1.6,1.8-2.4,2.8c-0.9,1-1.8,2-2.6,3c-0.1,0.1-0.3,0.3-0.4,0.4c0.1,0,0.1,0,0.2,0c0.5,0,1,0.1,1.5,0.2
			c0.5,0.1,0.9,0.2,1.4,0.2c1,0,2.1,0,3.2,0.2c0.9,0.2,1.7,0,2.6,0.2C127.9,175.9,128.7,176.2,129,176.3z"/>
	</g>
	<g>
		<path fill="#F2F2F2" d="M80.3,203.7c-0.9-0.3-1.8-0.4-2.8-0.6c-1-0.2-2-0.4-2.8-0.6c-1-0.3-1.8-0.7-2.7-1.1
			c-0.9-0.4-1.9-0.8-3.1-1.2c-1.1-0.3-2.3-0.5-3.4-0.8c-2.3-0.5-4.6-1-6.6-1.9c-2.1-0.8-4.7-1.4-7.3-2c-1.4-0.3-2.9-0.6-4.3-1
			c-1.6-0.4-3-0.9-4.3-1.4c-1.7-0.7-3.3-1.3-5.3-1.6c-1.3-0.2-1.8-0.4-1.8-0.8c0-0.6,1.4-1.1,4.8-2c6.3-1.5,12.8-3.1,19-4.7
			c7.8-2,15.8-4.1,23.7-5.8l0.4-0.1l-0.1,0.4c-0.7,2.3-0.8,4.6-1,6.7c-0.1,1.2-0.2,2.5-0.4,3.8c-0.1,0.4-0.1,0.9-0.2,1.3
			c-0.2,0.7-0.3,1.4-0.3,2.2c0,0.8-0.2,1.7-0.4,2.5c-0.2,0.7-0.3,1.4-0.3,2.1c0,0.6,0,1.2-0.1,1.9c0,0.7-0.1,1.4-0.1,2.1
			c0,0.4-0.1,0.8-0.3,1.1c-0.1,0.3-0.2,0.6-0.2,0.9c0.1,0,0.1,0,0.2,0L80.3,203.7z M36.3,190.8c0.1,0.1,0.4,0.2,1.4,0.3
			c2.1,0.3,3.7,0.9,5.4,1.6c1.3,0.5,2.6,1,4.3,1.4c1.4,0.4,2.9,0.7,4.3,1c2.7,0.6,5.2,1.2,7.4,2c2,0.8,4.3,1.3,6.6,1.8
			c1.1,0.3,2.3,0.5,3.4,0.8c1.3,0.4,2.2,0.8,3.2,1.2c0.8,0.4,1.7,0.7,2.6,1c0.9,0.3,1.8,0.4,2.8,0.6c0.7,0.1,1.5,0.3,2.2,0.4
			c0-0.3,0.2-0.6,0.3-0.9c0.1-0.3,0.2-0.7,0.2-1c0-0.7,0-1.5,0.1-2.2c0-0.7,0.1-1.3,0.1-1.9c0-0.7,0.2-1.4,0.3-2.2
			c0.2-0.8,0.4-1.6,0.4-2.4c0-0.8,0.1-1.5,0.3-2.3c0.1-0.4,0.2-0.8,0.2-1.2c0.2-1.3,0.3-2.6,0.4-3.8c0.2-2.1,0.3-4.2,0.9-6.4
			c-7.8,1.7-15.7,3.8-23.3,5.7c-6.2,1.6-12.7,3.3-19,4.7C39.1,189.7,36.6,190.4,36.3,190.8z"/>
	</g>
	<g>
		<path fill="#F2F2F2" d="M81.2,206c-0.8-0.2-1.8-0.4-2.7-0.6c-1-0.2-2-0.4-2.8-0.6c-1-0.3-1.8-0.7-2.7-1.1
			c-0.9-0.4-1.9-0.8-3.1-1.2c-1.1-0.3-2.3-0.6-3.4-0.9c-2.2-0.5-4.4-1.1-6.2-1.8c-3.3-1.2-7.4-2.1-11.4-3c-1.5-0.4-2.8-0.9-4.1-1.4
			c-1.7-0.7-3.3-1.3-5.4-1.6c-1.3-0.2-1.8-0.4-1.8-0.8c0-0.6,1.4-1.1,4.8-2c6-1.4,12-3,17.9-4.5c7.8-2,15.9-4.1,23.8-5.9l0.4-0.1
			l-0.1,0.4c-0.6,2.6-0.8,5.1-1,7.6c-0.1,1-0.1,2-0.2,3c-0.1,0.6-0.2,1.2-0.3,1.8c-0.1,0.6-0.2,1.2-0.3,1.8c0,0.7-0.1,1.4-0.3,2.2
			c-0.2,0.8-0.3,1.6-0.2,2.4c0.1,0.8,0,1.5-0.1,2.4c-0.1,0.6-0.1,1.1-0.1,1.7c0,0.4-0.1,0.8-0.3,1.1c-0.1,0.3-0.2,0.7-0.2,1h-0.1
			L81.2,206z M38.1,193c0.1,0.1,0.4,0.2,1.4,0.3c2.2,0.3,3.8,1,5.5,1.6c1.2,0.5,2.5,1,4,1.4c4,0.9,8.1,1.8,11.5,3
			c1.8,0.7,4,1.2,6.2,1.7c1.2,0.3,2.4,0.6,3.5,0.9c1.2,0.4,2.2,0.8,3.2,1.2c0.8,0.4,1.6,0.7,2.6,1c0.8,0.3,1.7,0.4,2.7,0.6
			c0.8,0.1,1.5,0.3,2.3,0.5c0.1-0.3,0.1-0.5,0.2-0.8c0.1-0.3,0.2-0.7,0.2-1c0-0.6,0.1-1.2,0.1-1.7c0.1-0.8,0.2-1.6,0.1-2.3
			c-0.1-0.8,0.1-1.6,0.2-2.5c0.1-0.7,0.3-1.4,0.3-2.1c0.1-0.7,0.2-1.2,0.3-1.8c0.1-0.6,0.2-1.1,0.3-1.7c0.1-1,0.2-2,0.2-3
			c0.2-2.3,0.3-4.7,0.9-7.2c-7.8,1.8-15.7,3.8-23.4,5.8c-5.9,1.5-11.9,3.1-17.9,4.5C40.8,192,38.4,192.7,38.1,193z"/>
	</g>
	<g>
		<path fill="#F2F2F2" d="M178,197.9l-0.2-0.1c-3.1-1.6-6.3-3-9.7-4.4c-1.7-0.7-3.5-1.5-5.2-2.3c-0.6-0.3-1.3-0.6-1.9-0.9
			c-1-0.5-1.9-1-3-1.4c-1.2-0.4-2.2-1-3.3-1.5c-1-0.5-2.1-1.1-3.2-1.5c-1.9-0.7-3.9-1.6-5.8-2.5c-0.3-0.1-0.7-0.3-1.1-0.5
			c-0.5-0.3-1.1-0.5-1.7-0.7l-0.9-0.3l0.9-0.2c0.9-0.2,1.6-0.4,2.3-0.7c0.7-0.3,1.5-0.5,2.4-0.7c0.9-0.1,1.7-0.2,2.6-0.3
			c1.2-0.1,2.5-0.3,3.8-0.6c1.2-0.3,2.3-0.6,3.4-0.9c1.8-0.5,3.6-1,5.5-1.4c2.8-0.4,5.2-1.2,7.8-2c0.8-0.3,1.7-0.5,2.6-0.8
			c1.4-0.4,2.9-0.6,4.3-0.8c1.8-0.3,3.6-0.5,5-1.1c1.2-0.5,1.9-0.4,2.2,0c0.4,0.5,0.2,1.4-0.2,2.7c-0.9,2.9-1.7,5.9-2.4,8.8
			c-1.2,4.5-2.4,9.2-4.1,13.7L178,197.9z M143.7,181.9c0.3,0.1,0.7,0.3,1,0.5c0.4,0.2,0.7,0.3,1.1,0.5c1.9,0.9,3.9,1.8,5.8,2.5
			c1.2,0.4,2.2,1,3.3,1.5c1,0.5,2.1,1,3.2,1.5c1.1,0.4,2.1,0.9,3,1.4c0.6,0.3,1.3,0.6,1.9,0.9c1.7,0.8,3.5,1.5,5.2,2.3
			c3.3,1.4,6.5,2.7,9.5,4.3c1.7-4.4,2.8-9,4-13.4c0.8-2.9,1.5-5.9,2.4-8.8c0.2-0.6,0.6-1.9,0.2-2.3c0,0-0.1-0.2-0.5-0.2
			c-0.3,0-0.7,0.1-1.2,0.3c-1.5,0.6-3.3,0.9-5.1,1.1c-1.4,0.2-2.9,0.4-4.3,0.8c-0.9,0.3-1.7,0.5-2.6,0.8c-2.6,0.8-5.1,1.6-7.9,2
			c-1.9,0.3-3.7,0.8-5.5,1.3c-1.1,0.3-2.3,0.7-3.5,0.9c-1.3,0.3-2.6,0.5-3.8,0.6c-0.8,0.1-1.7,0.2-2.5,0.3c-0.9,0.2-1.6,0.4-2.3,0.7
			C144.8,181.6,144.3,181.7,143.7,181.9z"/>
	</g>
	<g>
		<path fill="#F2F2F2" d="M117.9,198.2l0.5-1c0.4-0.8,0.6-1.5,0.7-2.3c0.1-0.6,0.3-1.1,0.5-1.8c0.3-0.7,0.7-1.4,1.1-2.1
			c0.5-0.9,1-1.8,1.4-2.8c0.3-0.8,0.6-1.6,0.8-2.5c0.5-1.7,1.1-3.4,1.8-4.9c1.2-2.4,1.9-4.7,2.6-7.2c0.1-0.4,0.3-0.9,0.4-1.3
			c0.4-1.2,1-2.3,1.5-3.4c0.7-1.4,1.4-2.8,1.7-4.1c0.1-0.7,0.4-1.6,1.1-1.6c0.6,0,1.3,0.8,1.9,1.7c1.8,2.5,3.7,4.9,5.6,7.3
			c2.5,3.1,5.1,6.4,7.4,9.8l0.2,0.2l-0.3,0.1c-2.3,1.1-4.7,2.5-6.9,3.7c-1.6,0.9-3.3,1.9-5,2.8c-0.7,0.4-1.4,0.7-2,1.1
			c-0.7,0.4-1.3,0.7-2,1.1c-0.9,0.5-1.8,1-2.6,1.4c-0.9,0.4-1.8,0.9-2.6,1.4c-1.4,0.9-3,1.8-4.6,2.6c-0.2,0.1-0.4,0.2-0.6,0.3
			c-0.5,0.2-1,0.4-1.6,0.9L117.9,198.2z M132,163.6c-0.3,0-0.5,0.4-0.6,1.2c-0.3,1.4-1,2.8-1.7,4.2c-0.5,1.1-1.1,2.2-1.5,3.4
			c-0.1,0.4-0.3,0.9-0.4,1.3c-0.7,2.5-1.4,4.9-2.6,7.3c-0.7,1.5-1.2,3.2-1.8,4.9c-0.3,0.8-0.5,1.7-0.8,2.5c-0.4,1-0.9,1.9-1.4,2.9
			c-0.4,0.7-0.8,1.4-1.1,2.1c-0.2,0.6-0.3,1.1-0.5,1.7c-0.1,0.5-0.2,1-0.4,1.6c0.4-0.2,0.7-0.4,1-0.5c0.2-0.1,0.4-0.2,0.6-0.3
			c1.5-0.9,3.2-1.8,4.6-2.6c0.9-0.5,1.8-1,2.7-1.4c0.9-0.4,1.8-0.9,2.6-1.4c0.7-0.4,1.4-0.7,2-1.1c0.7-0.4,1.3-0.7,2-1.1
			c1.7-0.9,3.4-1.8,5-2.8c2.2-1.2,4.4-2.5,6.7-3.6c-2.3-3.3-4.8-6.5-7.2-9.5c-1.9-2.4-3.8-4.8-5.6-7.3
			C133.1,164.6,132.4,163.6,132,163.6z"/>
	</g>
	<g>
		<path fill="#F2F2F2" d="M33.3,194l-0.1-0.3c-1.8-4.2-3.9-8.3-6-12.3c-0.3-0.6-0.6-1.2-0.8-1.7c-0.4-0.8-0.7-1.6-1.1-2.3
			c-0.4-0.8-0.7-1.6-1.1-2.4c-0.5-1-0.9-2-1.4-2.9c-0.4-0.6-0.7-1.3-1-1.9c-0.5-0.9-0.9-1.8-1.5-2.7c-0.2-0.3-0.3-0.6-0.5-1
			c-0.2-0.4-0.3-0.9-0.6-1.3l-0.4-0.7l0.8,0.4c0.8,0.4,1.5,0.6,2.4,0.7c0.6,0.1,1.2,0.3,1.8,0.5c0.9,0.4,1.7,0.8,2.5,1.2
			c0.8,0.4,1.6,0.9,2.4,1.2c0.9,0.3,1.9,0.6,2.9,1c1.6,0.5,3.3,1,4.8,1.7c2.2,1.1,4.6,1.8,7,2.4c0.7,0.2,1.3,0.4,2,0.6
			c1.1,0.4,2.2,0.9,3.3,1.4c1.5,0.7,2.9,1.4,4.4,1.7c1,0.2,1.5,0.5,1.6,0.9c0.1,0.7-0.7,1.3-1.7,2l-0.2,0.2
			c-2.4,1.7-4.9,3.4-7.2,5.1c-3.9,2.8-7.9,5.8-12.2,8.3L33.3,194z M20.1,165.6c0.1,0.3,0.2,0.5,0.3,0.7c0.1,0.4,0.3,0.7,0.4,0.9
			c0.5,0.9,1,1.8,1.5,2.7c0.3,0.6,0.6,1.2,1,1.9c0.5,0.9,0.9,1.9,1.4,3c0.3,0.8,0.7,1.6,1.1,2.3c0.4,0.7,0.8,1.5,1.1,2.3
			c0.3,0.6,0.5,1.1,0.8,1.7c2,3.9,4.1,7.9,5.9,12.1c4.2-2.5,8.1-5.4,11.9-8.1c2.3-1.7,4.7-3.4,7.2-5.1l0.2-0.1
			c0.7-0.5,1.5-1.2,1.5-1.5c0-0.1-0.2-0.3-1.2-0.6c-1.6-0.3-3.1-1-4.5-1.8c-1.1-0.5-2.2-1-3.3-1.4c-0.6-0.2-1.3-0.4-2-0.6
			c-2.4-0.7-4.8-1.3-7-2.4c-1.5-0.6-3.2-1.2-4.8-1.7c-1-0.3-2-0.6-3-1c-0.9-0.4-1.7-0.8-2.5-1.2c-0.8-0.4-1.6-0.9-2.4-1.2
			c-0.6-0.2-1.2-0.3-1.8-0.5C21.3,166,20.7,165.9,20.1,165.6z"/>
	</g>
	<g>
		<path fill="#F2F2F2" d="M19.3,188.4c-0.4,0-0.6-0.4-0.6-1.1c-0.1-0.6-0.2-1.3-0.3-1.9c-0.3-2-0.6-4-0.6-6v-0.3l0.3,0
			c1.4,0.2,3,0.2,4.4,0.2h1.4c0.4,0,0.7,0,1,0.1c0.3,0,0.6,0.1,0.9,0.1h3.2l-1.5,1.5c-0.5,0.4-1.1,0.7-1.4,1.1c-0.4,0.3-0.6,0.6-1,1
			c-0.3,0.4-0.6,0.7-1,1c-0.9,0.7-1.5,1.4-2.2,2.2c-0.3,0.3-0.7,0.6-1,0.8c-0.4,0.3-0.8,0.6-1.1,0.9
			C19.8,188.2,19.6,188.4,19.3,188.4z M18.4,179.7c0,1.9,0.3,3.8,0.6,5.6c0.1,0.7,0.2,1.3,0.3,2c0,0.3,0.1,0.5,0.1,0.6
			c0,0,0.1-0.1,0.2-0.2c0.3-0.4,0.7-0.7,1.2-1c0.3-0.2,0.7-0.5,1-0.8c0.7-0.9,1.4-1.6,2.3-2.3c0.3-0.3,0.6-0.6,0.9-0.9
			c0.3-0.4,0.6-0.7,1-1c0.3-0.3,0.9-0.7,1.4-1.1l0.6-0.6h-2c-0.4,0-0.7,0-1-0.1c-0.3,0-0.6-0.1-0.9-0.1h-1.4
			C21.2,179.8,19.7,179.8,18.4,179.7z"/>
	</g>
	<g>
		<path fill="#F2F2F2" d="M31.7,196.5l-0.1-0.3c-1.8-4.2-3.9-8.3-6-12.3c-0.3-0.6-0.6-1.2-0.8-1.7c-0.4-0.8-0.7-1.6-1.1-2.3
			c-0.4-0.8-0.7-1.6-1.1-2.4c-0.5-1-0.9-2-1.4-2.9c-0.4-0.6-0.7-1.3-1-1.9c-0.5-0.9-0.9-1.8-1.5-2.7c-0.2-0.3-0.3-0.7-0.3-1
			c-0.1-0.5-0.2-0.9-0.5-1.3l-0.6-0.8l0.9,0.5c0.8,0.4,1.5,0.6,2.4,0.7c0.6,0.1,1.2,0.3,1.8,0.5c0.9,0.4,1.7,0.8,2.5,1.2
			c0.8,0.4,1.6,0.9,2.4,1.2c0.9,0.3,1.9,0.6,2.9,1c1.6,0.5,3.3,1,4.8,1.7c2.2,1.1,4.6,1.8,7,2.4c0.7,0.2,1.3,0.4,2,0.6
			c1.1,0.4,2.2,0.9,3.3,1.4c1.5,0.7,2.9,1.4,4.4,1.7c1,0.2,1.5,0.5,1.6,0.9c0.1,0.7-0.9,1.4-2,2.2c-2.4,1.6-4.8,3.4-7.2,5.1
			c-3.9,2.8-7.9,5.8-12.2,8.3L31.7,196.5z M18.7,168.1c0.1,0.3,0.2,0.5,0.2,0.8c0.1,0.3,0.2,0.6,0.3,0.9c0.5,0.8,1,1.7,1.5,2.7
			c0.3,0.6,0.6,1.2,1,1.9c0.5,0.9,0.9,1.9,1.4,3c0.3,0.8,0.7,1.6,1.1,2.3c0.4,0.7,0.8,1.5,1.1,2.3c0.3,0.6,0.5,1.1,0.8,1.7
			c2,3.9,4.1,7.9,5.9,12.1c4.2-2.5,8.1-5.3,11.9-8.1c2.3-1.7,4.7-3.5,7.2-5.1c0.8-0.5,1.9-1.3,1.8-1.6c0-0.1-0.1-0.3-1.2-0.5
			c-1.6-0.3-3.1-1-4.5-1.8c-1.1-0.5-2.1-1-3.2-1.4c-0.6-0.2-1.3-0.4-2-0.6c-2.4-0.7-4.8-1.3-7-2.4c-1.5-0.6-3.2-1.2-4.8-1.7
			c-1-0.3-2-0.6-3-1c-0.9-0.4-1.7-0.8-2.5-1.2c-0.8-0.4-1.6-0.9-2.4-1.2c-0.6-0.2-1.2-0.3-1.8-0.5C19.9,168.5,19.3,168.3,18.7,168.1
			z"/>
	</g>
	<g>
		<path fill="#F2F2F2" d="M21.4,190.8c-0.4,0-0.6-0.4-0.6-1.1c-0.1-0.6-0.2-1.3-0.3-1.9c-0.3-2-0.6-4-0.6-6v-0.3l0.3,0
			c1.4,0.2,3,0.2,4.4,0.2H26c0.4,0,0.7,0,1,0.1c0.3,0,0.6,0.1,0.9,0.1h3.2l-1.5,1.5c-0.5,0.3-1,0.7-1.4,1c-0.4,0.3-0.6,0.6-1,1
			c-0.3,0.4-0.6,0.7-1,1c-0.9,0.7-1.6,1.4-2.2,2.2c-0.3,0.3-0.7,0.6-1,0.8c-0.4,0.3-0.8,0.6-1.1,0.9
			C21.9,190.6,21.7,190.8,21.4,190.8z M20.5,182.1c0,1.9,0.3,3.8,0.6,5.6c0.1,0.7,0.2,1.3,0.3,2c0,0.3,0.1,0.5,0.1,0.6
			c0,0,0.1-0.1,0.2-0.2c0.3-0.4,0.7-0.7,1.2-1c0.3-0.2,0.7-0.5,1-0.8c0.7-0.9,1.4-1.6,2.3-2.3c0.3-0.3,0.6-0.6,0.9-0.9
			c0.3-0.4,0.6-0.7,1-1c0.3-0.3,0.9-0.7,1.4-1.1l0.6-0.6h-2c-0.4,0-0.7,0-1-0.1c-0.3,0-0.6-0.1-0.9-0.1h-1.4
			C23.3,182.3,21.8,182.3,20.5,182.1z"/>
	</g>
	<g>
		<path fill="#F2F2F2" d="M60.6,211.9c-0.2,0-0.4-0.1-0.8-0.3c-0.9-0.4-1.9-0.7-2.9-1.1c-1.5-0.6-3.1-1.1-4.5-1.9l-0.2-0.1l0.1-0.2
			c0.5-0.9,1.1-1.8,1.6-2.7c0.5-0.9,1.1-1.8,1.6-2.7c0.2-0.3,0.4-0.6,0.5-0.9c0.2-0.3,0.4-0.6,0.5-0.9c0.3-0.9,0.9-1.6,1.4-2.3
			c0.3-0.6,0.7-1.3,1.2-2.1c0-0.5,0.2-0.9,0.4-1.3l0.5-0.9v1.1c0,0.4,0,0.7,0.1,1c0,0.3,0.1,0.5,0.1,0.8c0,0.3,0,0.6,0,0.9
			c0,0.5-0.1,1,0,1.5c0,0.6,0.1,1.2,0.2,1.8c0.1,0.6,0.2,1.2,0.2,1.8c0,1.2,0.1,2.3,0.3,3.6l0.1,0.4c0.1,0.6,0.1,1.3,0.1,1.9
			c0,0.6,0,1.1,0.1,1.7c0.1,0.4,0,0.7-0.1,0.9C60.9,211.9,60.8,211.9,60.6,211.9z M53,208.3c1.3,0.7,2.8,1.2,4.2,1.7
			c1,0.4,2,0.7,2.9,1.1c0.4,0.3,0.5,0.3,0.5,0.3c0,0,0.1-0.1,0-0.5c-0.1-0.5-0.1-1.1-0.1-1.7c0-0.6,0-1.2-0.1-1.8l-0.1-0.4
			c-0.2-1.2-0.3-2.4-0.3-3.7c0-0.6-0.1-1.1-0.2-1.7c-0.1-0.6-0.2-1.2-0.2-1.8c-0.1-0.6-0.1-1.1,0-1.6c0-0.3,0-0.5,0-0.8
			c0-0.1,0-0.3,0-0.4l0,0.1c-0.5,0.7-0.9,1.4-1.2,2.1c-0.6,0.8-1.1,1.4-1.4,2.3c-0.2,0.3-0.4,0.6-0.5,0.9c-0.2,0.3-0.4,0.6-0.5,0.9
			c-0.5,0.9-1,1.8-1.6,2.7C53.9,206.7,53.4,207.5,53,208.3z"/>
	</g>
	<g>
		<path fill="#F2F2F2" d="M161.4,199.5c-0.3,0-0.5-0.4-0.8-0.8c-0.5-0.8-1-1.5-1.4-2.2c-1-1.5-2-3-2.8-4.6l-0.1-0.2l0.3-0.1
			c1.4-0.5,2.8-1.1,4-1.7c0.3-0.1,0.5-0.2,0.7-0.3c0.2-0.1,0.4-0.2,0.7-0.3c0.3-0.2,0.6-0.3,0.9-0.4c0.3-0.1,0.6-0.2,0.8-0.3l0.1,0
			c0.2-0.1,0.5-0.2,0.8-0.3c0.3-0.1,0.5-0.3,0.8-0.4c0.1-0.1,0.3-0.1,0.5-0.2c0.1,0,0.3-0.1,0.3-0.1l0.7-0.7l-0.3,1
			c-0.1,0.2-0.1,0.3-0.1,0.4c-0.1,0.3-0.2,0.6-0.4,1c-0.1,0.3-0.3,0.6-0.5,0.8c-0.2,0.3-0.3,0.5-0.4,0.7c-0.1,0.3-0.2,0.5-0.3,0.8
			c-0.2,0.6-0.4,1.2-0.8,1.7c-0.3,0.6-0.5,1.2-0.7,2c-0.1,0.3-0.2,0.6-0.3,1c-0.1,0.3-0.3,0.6-0.4,0.9c-0.3,0.6-0.5,1.1-0.6,1.7
			C161.9,199,161.8,199.5,161.4,199.5z M156.9,191.8c0.8,1.5,1.7,3,2.6,4.3c0.5,0.7,1,1.5,1.5,2.3c0.1,0.1,0.3,0.4,0.4,0.5
			c0,0,0-0.1,0.1-0.2c0.1-0.6,0.4-1.2,0.7-1.8c0.1-0.3,0.3-0.6,0.4-0.9c0.1-0.3,0.2-0.6,0.3-0.9c0.2-0.7,0.4-1.5,0.8-2.1
			c0.4-0.5,0.5-1,0.8-1.6c0.1-0.3,0.2-0.5,0.3-0.8c0.1-0.3,0.3-0.6,0.5-0.8c0.2-0.3,0.3-0.5,0.4-0.7l0-0.1c0.2-0.3,0.3-0.5,0.4-0.8
			c-0.1,0-0.3,0.1-0.4,0.1c-0.3,0.1-0.5,0.2-0.8,0.4c-0.3,0.1-0.5,0.3-0.8,0.4c-0.3,0.2-0.6,0.3-0.9,0.4c-0.3,0.1-0.6,0.2-0.8,0.3
			l-0.1,0c-0.3,0.1-0.5,0.2-0.7,0.3c-0.2,0.1-0.5,0.2-0.7,0.3C159.6,190.8,158.3,191.3,156.9,191.8z"/>
	</g>
	<g>
		<g>
			<g>
				<path fill="#F2F2F2" d="M43.3,131.9l14.6-1.6h0.2l0.2,1.2c0.2,1.4-0.5,2.5-1.9,3.2l-0.7,0.2l-3.3,0.4l3.2,28.5
					c0,0.2-0.5,0.4-1.4,0.4c-2.1,0-3.2-0.9-3.3-2.6l-2.8-25.7l-5.3,0.5l-1.6,0.2c-0.4-2.5,0.4-3.9,1.8-4.4L43.3,131.9z"/>
			</g>
		</g>
		<g>
			<g>
				<path fill="#F2F2F2" d="M65.6,129.6l9.7-1.1c3.5-0.4,6.2,1.1,7.9,4.4c0.4,1.1,0.7,1.8,0.7,2.5l2.8,25.3l-0.2,0.2h-0.4
					c-2.1,0.2-3.3-0.4-4-1.9c-0.2-0.4-0.4-0.9-0.4-1.8l-0.9-7.9l-8.6,1.1l1.2,11.6l-0.2,0.2l-1.2,0.2c-1.4,0.2-2.5-0.5-3.2-1.9
					l-0.4-1.2L65.6,129.6L65.6,129.6z M70.4,133.5l1.4,12.3l8.6-1.1l-1.1-9.1c-0.2-1.6-1.2-2.6-3-2.8h-0.9L70.4,133.5z"/>
			</g>
		</g>
		<g>
			<g>
				<path fill="#F2F2F2" d="M92.9,126.4l14.6-1.6l0.2,0.2l0.2,1.2c0.2,1.4-0.5,2.5-1.9,3.2l-0.7,0.2l-3.3,0.4l3.2,28.5
					c0,0.2-0.5,0.4-1.4,0.4c-2.1,0-3.2-0.9-3.3-2.6l-2.8-25.7l-5.3,0.5l-1.6,0.2c-0.4-2.5,0.4-3.9,1.8-4.4L92.9,126.4z"/>
			</g>
		</g>
		<g>
			<g>
				<path fill="#F2F2F2" d="M127.4,122.7l1.1-0.2c1.6-0.2,2.6,0.5,3.3,1.9l0.4,1.6l2.1,19.4c0.5,3.9-0.2,6.7-1.9,8.1
					c-1.4,1.4-3.2,2.3-5.5,2.5l-1.1,0.2c-3,0.4-5.5-0.7-7.4-3.2c-0.7-1.2-1.2-2.5-1.4-3.7l-2.6-25l0.2-0.2l1.4-0.2
					c1.4-0.2,2.3,0.5,3.2,1.9l0.2,1.1l2.5,21.5c0.2,1.8,1.1,2.8,2.5,3.2l1.6,0.2c1.8-0.2,3.2-0.7,3.7-1.6c0.5-0.5,0.7-1.4,0.7-2.3
					L127.4,122.7L127.4,122.7z"/>
			</g>
		</g>
		<g>
			<g>
				<path fill="#F2F2F2" d="M142.7,121l0.9-0.2c1.2-0.2,2.1,0.2,2.8,0.7l0,0c1.1-0.9,2.3-1.4,3.7-1.6l0.9-0.2c3.2-0.4,5.3,0,6.5,1.2
					c1.9,1.4,3,3.2,3.2,5.3l0.9,7.9c0.2,2.1-0.4,4-1.6,5.8c1.8,1.2,2.6,3.5,3,6.7l0.5,4.8l-0.2,0.2l-0.7,0.2
					c-1.8,0.2-2.8-0.4-3.7-1.6l-0.4-1.1l-0.4-3c-0.2-1.8-1.1-2.6-2.8-3h-1.2l-4.6,0.7l1.1,9.5l-0.2,0.2l-1.4,0.2
					c-1.2,0.2-2.3-0.7-3-2.3l-0.2-0.7L142.7,121L142.7,121z M148,128.7l1.2,10.6l4.9-0.5h0.4c0.7,0,1.4-0.5,2.3-1.2
					c0.5-0.7,0.7-2.1,0.5-3.9l-0.7-6c-0.2-2.1-1.2-3.2-3.2-3.3h-0.9H152c-1.9,0.2-3.2,0.9-3.7,1.8
					C147.8,126.8,147.8,127.7,148,128.7z"/>
			</g>
		</g>
		<g>
			<g>
				<path fill="#F2F2F2" d="M170.9,117.6l9.7-1.1c3.5-0.4,6.2,1.1,7.9,4.4c0.4,1.1,0.7,1.8,0.7,2.5l2.8,25.3l-0.2,0.2h-0.4
					c-2.1,0.2-3.3-0.4-4-1.9c-0.2-0.4-0.4-0.9-0.4-1.8l-0.9-7.7l-8.6,1.1l1.2,11.6l-0.2,0.2l-1.2,0.2c-1.4,0.2-2.5-0.5-3.2-1.9
					l-0.4-1.2L170.9,117.6L170.9,117.6z M175.6,121.5l1.4,12.3l8.6-1.1l-1.1-9.1c-0.2-1.6-1.2-2.6-3-2.8h-0.9L175.6,121.5z"/>
			</g>
		</g>
		<g>
			<g>
				<path fill="#F2F2F2" d="M199.5,114.6c0.9-0.2,1.6,0.2,2.5,0.7c0.9-0.7,2.5-1.2,4.8-1.6l0,0c3.9-0.4,6.7,0.7,8.3,3.2
					c0.7,1.1,1.1,2.3,1.2,3.5l2.8,25.2l-0.2,0.2l-1.1,0.2c-1.8,0.2-2.8-0.5-3.5-2.3l-2.5-21.8c-0.2-2.1-0.9-3.2-2.1-3.5
					c-0.7-0.2-1.8-0.4-3.2-0.2c-2.6,0.4-3.7,1.8-3.3,4.4L206,147l-0.2,0.2l-1.1,0.2c-1.6,0.2-2.8-0.5-3.5-2.1l-0.2-0.7l-3.3-29.6
					C197.9,115,198.5,114.8,199.5,114.6z"/>
			</g>
		</g>
		<g>
			<g>
				<path fill="#F2F2F2" d="M226.5,111.8l9.7-1.1c3.5-0.4,6.2,1.1,7.9,4.4c0.4,1.1,0.7,1.8,0.7,2.5l2.8,25.3l-0.2,0.2H247
					c-2.1,0.2-3.3-0.4-4-1.9c-0.2-0.4-0.4-0.9-0.4-1.8l-0.9-7.7l-8.6,1.1l1.2,11.6l-0.2,0.2l-1.2,0.2c-1.4,0.2-2.5-0.5-3.2-1.9
					l-0.4-1.2L226.5,111.8L226.5,111.8z M231.2,115.7l1.4,12.3l8.6-1.1l-1.1-9.1c-0.2-1.6-1.2-2.6-3-2.8h-0.9L231.2,115.7z"/>
			</g>
		</g>
	</g>
	<g>
		
			<rect x="205" y="151" transform="matrix(0.1418 0.9899 -0.9899 0.1418 326.9589 -72.5751)" fill="#F2F2F2" width="0.6" height="2.5"/>
	</g>
	<g>
		<path fill="#F2F2F2" d="M199.8,162.6l-0.6-0.2c0.1-0.4,0.3-0.8,0.4-1.2c0.1-0.2,0.2-0.4,0.3-0.6l0.6,0.2c-0.1,0.2-0.2,0.5-0.3,0.7
			C200.1,161.8,199.9,162.2,199.8,162.6z"/>
	</g>
	<g>
		<g>
			<g>
				<path fill="#F2F2F2" d="M153.8,160.2c0.4,0,0.5,0.2,0.5,0.5c0.4-0.4,0.7-0.5,1.2-0.7h0.4c0.7,0,1.2,0.2,1.8,0.7l0,0
					c0.2-0.5,0.7-0.9,1.6-1.1h0.2c0.9-0.2,1.4,0.2,1.9,0.9c0.2,0.4,0.4,0.7,0.4,1.2l0.5,3.9l0,0c-0.4,0-0.5-0.2-0.5-0.5l-0.4-3.2
					c-0.2-1.2-0.7-1.8-1.6-1.6h-0.4c-0.5,0-1.1,0.4-1.1,0.9c0,0.2-0.2,0.5,0,1.1l0.5,3.9l0,0c-0.2,0-0.5-0.2-0.5-0.4v-0.2l-0.4-3.5
					c0-0.7-0.4-1.2-0.9-1.4c-0.2,0-0.5-0.2-0.7,0h-0.4c-0.5,0-0.9,0.4-1.1,0.9c0,0.2,0,0.5,0,0.7l0.5,4l0,0c-0.2,0-0.5-0.2-0.5-0.5
					L153.8,160.2L153.8,160.2z"/>
			</g>
			<g>
				<path fill="#F2F2F2" d="M165.4,159h0.2c0.9-0.2,1.6,0.2,1.9,1.1c0.2,0.2,0.2,0.5,0.2,0.9l0.2,1.9c0.2,0.9-0.2,1.6-1.1,2.1
					l-0.4,0.2l-0.9,0.2c-0.5,0-1.1-0.2-1.4-0.7c-0.4-0.4-0.4-0.9-0.5-1.4l0-1.6c-0.2-1.1,0-1.8,0.7-2.3
					C164.7,159.1,165,159,165.4,159z M164.3,161.3l0.2,1.9c0.2,1.1,0.7,1.6,1.6,1.4h0.2h0.2c0.7,0,1.1-0.4,1.2-0.9
					c0-0.2,0-0.4,0-0.7l-0.5-2.3c-0.2-0.9-0.7-1.2-1.6-1.2c-0.7,0.2-1.2,0.4-1.2,1.1C164.2,160.7,164.2,160.9,164.3,161.3z"/>
			</g>
			<g>
				<path fill="#F2F2F2" d="M169.3,155.5c0.4,0,0.5,0.2,0.5,0.5l0.2,1.2l0.2,1.1l0,0l1.8-0.2c0.7,0,1.4,0.4,1.8,1.1
					c0.2,0.4,0.2,0.5,0.2,1.1l0.2,1.6c0.2,0.7,0,1.2,0,1.4s-0.2,0.4-0.5,0.7c-0.4,0.4-0.5,0.4-0.9,0.5h-0.5c-0.7,0-1.1,0-1.4-0.4
					l0,0c0,0.4-0.2,0.5-0.5,0.7l0,0L169.3,155.5L169.3,155.5z M170.1,159l0.4,3c0.2,1.1,0.4,1.6,0.9,1.8c0.2,0.2,0.5,0.2,1.1,0h0.2
					c0.5,0,0.9-0.4,1.1-1.1c0-0.2,0-0.4,0-0.7v-0.2l-0.2-1.4v-0.5c0-0.7-0.4-1.1-1.1-1.2c-0.2,0-0.5,0-0.7,0L170.1,159z"/>
			</g>
			<g>
				<path fill="#F2F2F2" d="M175.4,154.8c0.4,0,0.5,0.2,0.7,0.7v0.4l0,0c-0.2,0-0.4,0-0.5-0.4v-0.2L175.4,154.8L175.4,154.8
					L175.4,154.8z M175.8,157.7L175.8,157.7c0.4,0,0.5,0.2,0.7,0.5l0.7,5.6l0,0c-0.2,0-0.4-0.2-0.5-0.4v-0.2L175.8,157.7
					L175.8,157.7z"/>
			</g>
			<g>
				<path fill="#F2F2F2" d="M177.9,154.4c0.4,0,0.5,0.2,0.7,0.5l0.7,6.3c0.2,0.7,0.4,1.2,0.9,1.4c0,0,0.4,0,0.9,0
					c0.2,0.2,0.4,0.4,0.4,0.5l0,0h-0.7c-0.9,0.2-1.4-0.4-1.9-1.2c-0.2-0.2-0.2-0.5-0.2-0.9L177.9,154.4L177.9,154.4z"/>
			</g>
			<g>
				<path fill="#F2F2F2" d="M182.3,153.9c0.4,0,0.7,0.2,0.7,0.7v0.4l0,0c-0.2,0-0.4,0-0.5-0.4v-0.2L182.3,153.9L182.3,153.9
					L182.3,153.9z M182.6,156.9L182.6,156.9c0.4,0,0.5,0.2,0.7,0.5l0.7,5.6l0,0c-0.2,0-0.4-0.2-0.5-0.4v-0.2L182.6,156.9
					L182.6,156.9z"/>
			</g>
			<g>
				<path fill="#F2F2F2" d="M185.3,156.5l3.5-0.4c0.5,0,0.7,0.2,0.7,0.5l0,0c0,0.4-0.9,2.1-2.8,5.1l-0.2,0.2l0,0l3-0.4
					c0.4,0,0.5,0.2,0.5,0.5l0,0l0,0l-3.5,0.4c-0.4,0-0.5-0.2-0.5-0.4V162c0,0,0.2-0.4,0.5-1.1l2.5-4.4l-3,0.4
					C185.5,157,185.3,156.9,185.3,156.5L185.3,156.5L185.3,156.5z"/>
			</g>
			<g>
				<path fill="#F2F2F2" d="M193,155.6l2.5-0.4l0,0l0.7,6.2l0,0c-0.4,0-0.5-0.2-0.5-0.5l0,0c-0.4,0.4-0.7,0.7-1.4,0.7l-2.1,0.2l0,0
					l-0.5-4.2c-0.2-1.1,0.4-1.8,1.2-2.1L193,155.6z M192.1,157.7l0.4,3.7l1.6-0.2c0.7,0,1.1-0.4,1.2-1.1c0-0.2,0-0.5,0-0.7l-0.4-3.3
					l-1.8,0.2c-0.5,0-1.1,0.4-1.1,0.9V157.7z"/>
			</g>
			<g>
				<path fill="#F2F2F2" d="M199.5,154.8l1.4-0.2c0.5,0,0.7,0.2,0.7,0.4v0.2l0,0l-2.3,0.2c-0.7,0-1.1,0.4-1.2,1.1c0,0.2,0,0.4,0,0.7
					l0.2,1.9c0.2,1.1,0.7,1.6,1.6,1.4l1.6-0.2c0.5,0,0.7,0.2,0.7,0.5l0,0l-2.3,0.4c-0.7,0.2-1.4-0.2-1.8-1.1
					c-0.2-0.2-0.2-0.5-0.2-0.9l-0.2-2.1c-0.2-0.9,0.2-1.4,0.9-1.9C198.8,154.9,199.2,154.9,199.5,154.8z"/>
			</g>
			<g>
				<path fill="#F2F2F2" d="M205.3,154l2.5-0.4l0,0l0.7,6.2l0,0c-0.4,0-0.5-0.2-0.5-0.5l0,0c-0.4,0.4-0.7,0.7-1.4,0.7l-2.1,0.2l0,0
					l-0.5-4.2c-0.2-1.1,0.4-1.8,1.2-2.1L205.3,154z M204.5,156.2l0.4,3.7l1.6-0.2c0.7,0,1.1-0.4,1.2-1.1c0-0.2,0-0.5,0-0.7l-0.4-3.3
					l-1.8,0.2c-0.5,0-1.1,0.4-1.1,0.9V156.2z"/>
			</g>
			<g>
				<path fill="#F2F2F2" d="M211.7,153.3h0.2c0.9-0.2,1.6,0.2,1.9,1.1c0.2,0.2,0.2,0.5,0.2,0.9l0.2,1.9c0.2,0.9-0.2,1.6-1.1,2.1
					l-0.4,0.2l-0.9,0.2c-0.5,0-1.1-0.2-1.4-0.7c-0.2-0.4-0.4-0.9-0.5-1.4l-0.2-1.6c-0.2-1.1,0-1.8,0.7-2.3
					C211,153.5,211.3,153.3,211.7,153.3z M210.6,155.6l0.2,1.9c0.2,1.1,0.7,1.6,1.6,1.4h0.2h0.2c0.7,0,1.1-0.4,1.2-0.9
					c0-0.2,0-0.4,0-0.7l-0.2-2.1c-0.2-0.9-0.7-1.2-1.6-1.2c-0.7,0.2-1.2,0.4-1.2,1.1C210.4,155.3,210.4,155.5,210.6,155.6z"/>
			</g>
			<g>
				<path fill="#F2F2F2" d="M220.3,152.3l2.1-0.2l0,0c0,0.4-0.2,0.5-0.5,0.7l-1.8,0.2c-0.5,0-1.1,0.4-1.2,1.1v0.2
					c0,0.4,0.4,0.7,0.9,0.9c0.2,0,0.7,0,1.2,0s0.9,0.2,1.2,0.5s0.5,0.7,0.5,0.9l0,0c0,0.5-0.2,1.1-0.9,1.6c-0.2,0.2-0.5,0.2-0.5,0.2
					l-2.5,0.4l0,0l0,0c0-0.4,0.2-0.5,0.5-0.5l1.4-0.2c0.7,0,1.2-0.4,1.4-1.1v-0.2l0,0c0-0.4-0.4-0.7-0.9-0.9c-0.4,0-0.7,0-1.2,0
					c-0.5-0.2-1.1-0.4-1.2-0.7c-0.2-0.2-0.4-0.5-0.4-0.7v-0.2c0-0.5,0.2-1.1,0.7-1.4C219.6,152.5,219.8,152.5,220.3,152.3z"/>
			</g>
			<g>
				<path fill="#F2F2F2" d="M226.3,151.6h0.2c0.9-0.2,1.6,0.2,1.9,1.1c0.2,0.2,0.2,0.5,0.2,0.9l0.2,1.9c0.2,0.9-0.2,1.6-1.1,2.1
					l-0.4,0.2l-0.9,0.2c-0.5,0-1.1-0.2-1.4-0.7c-0.2-0.4-0.4-0.9-0.5-1.4l-0.2-1.6c-0.2-1.1,0-1.8,0.7-2.3
					C225.6,151.8,225.9,151.6,226.3,151.6z M225.2,153.9l0.2,1.9c0.2,1.1,0.7,1.6,1.6,1.4h0.2h0.2c0.7,0,1.1-0.4,1.2-0.9
					c0-0.2,0-0.4,0-0.7l-0.2-2.1c-0.2-0.9-0.7-1.2-1.6-1.2c-0.7,0.2-1.2,0.4-1.2,1.1C225.2,153.5,225.2,153.7,225.2,153.9z"/>
			</g>
			<g>
				<path fill="#F2F2F2" d="M232.6,150.9l1.4-0.2c0.5,0,0.7,0.2,0.7,0.4v0.2l0,0l-2.3,0.2c-0.7,0-1.1,0.4-1.2,1.1c0,0.2,0,0.4,0,0.7
					l0.2,1.9c0.2,1.1,0.7,1.6,1.6,1.4l1.6-0.2c0.5,0,0.7,0.2,0.7,0.5l0,0l-2.3,0.4c-0.7,0.2-1.4-0.2-1.8-1.1
					c-0.2-0.2-0.2-0.5-0.2-0.9l-0.2-2.1c-0.2-0.9,0.2-1.4,0.9-1.9C231.9,151.1,232.3,150.9,232.6,150.9z"/>
			</g>
			<g>
				<path fill="#F2F2F2" d="M236.3,147.5c0.4,0,0.5,0.2,0.7,0.7v0.4l0,0c-0.2,0-0.4,0-0.5-0.4v-0.2L236.3,147.5L236.3,147.5
					L236.3,147.5z M236.7,150.4L236.7,150.4c0.4,0,0.5,0.2,0.7,0.5l0.7,5.6l0,0c-0.2,0-0.4-0.2-0.5-0.4V156L236.7,150.4L236.7,150.4
					z"/>
			</g>
			<g>
				<path fill="#F2F2F2" d="M240.9,149.8l2.5-0.4l0,0l0.7,6.2l0,0c-0.4,0-0.5-0.2-0.5-0.5l0,0c-0.4,0.4-0.7,0.7-1.4,0.7L240,156l0,0
					l-0.5-4.2c-0.2-1.1,0.4-1.8,1.2-2.1L240.9,149.8z M240,151.9l0.4,3.7l1.6-0.2c0.7,0,1.1-0.4,1.2-1.1c0-0.2,0-0.5,0-0.7l-0.4-3.3
					l-1.8,0.2c-0.5,0-1.1,0.4-1.1,0.9L240,151.9z"/>
			</g>
			<g>
				<path fill="#F2F2F2" d="M244.9,146.5c0.4,0,0.5,0.2,0.7,0.5l0.7,6.3c0.2,0.7,0.4,1.2,0.9,1.4c0,0,0.4,0,0.9,0
					c0.2,0.2,0.4,0.4,0.4,0.5l0,0h-0.7c-0.9,0.2-1.4-0.4-1.9-1.2c-0.2-0.2-0.2-0.5-0.2-0.9L244.9,146.5L244.9,146.5z"/>
			</g>
		</g>
	</g>
</g>
</svg>
