<?xml version="1.0" encoding="UTF-8" standalone="no"?>
<!-- Generator: Adobe Illustrator 16.0.0, SVG Export Plug-In . SVG Version: 6.00 Build 0)  -->

<svg
   xmlns:dc="http://purl.org/dc/elements/1.1/"
   xmlns:cc="http://creativecommons.org/ns#"
   xmlns:rdf="http://www.w3.org/1999/02/22-rdf-syntax-ns#"
   xmlns:svg="http://www.w3.org/2000/svg"
   xmlns="http://www.w3.org/2000/svg"
   xmlns:xlink="http://www.w3.org/1999/xlink"
   xmlns:sodipodi="http://sodipodi.sourceforge.net/DTD/sodipodi-0.dtd"
   xmlns:inkscape="http://www.inkscape.org/namespaces/inkscape"
   version="1.1"
   id="Layer_1"
   x="0px"
   y="0px"
   width="170"
   height="102"
   viewBox="0 0 170 102"
   enable-background="new 0 0 362 102"
   xml:space="preserve"
   inkscape:version="0.48.4 r9939"
   sodipodi:docname="logo_footer1.svg"><metadata
     id="metadata3735"><rdf:RDF><cc:Work
         rdf:about=""><dc:format>image/svg+xml</dc:format><dc:type
           rdf:resource="http://purl.org/dc/dcmitype/StillImage" /><dc:title></dc:title></cc:Work></rdf:RDF></metadata><defs
     id="defs3733" /><sodipodi:namedview
     pagecolor="#ffffff"
     bordercolor="#666666"
     borderopacity="1"
     objecttolerance="10"
     gridtolerance="10"
     guidetolerance="10"
     inkscape:pageopacity="0"
     inkscape:pageshadow="2"
     inkscape:window-width="1301"
     inkscape:window-height="744"
     id="namedview3731"
     showgrid="false"
     inkscape:zoom="3.1381215"
     inkscape:cx="135.49412"
     inkscape:cy="51.144894"
     inkscape:window-x="65"
     inkscape:window-y="24"
     inkscape:window-maximized="1"
     inkscape:current-layer="Layer_1" /><g
     id="g3381"><defs
       id="defs3383"><rect
         id="SVGID_40_"
         x="-205.66701"
         y="-3782.3101"
         width="1380.1379"
         height="4002.6411" /></defs><clipPath
       id="SVGID_2_"><use
         xlink:href="#SVGID_40_"
         overflow="visible"
         id="use3387"
         style="overflow:visible"
         x="0"
         y="0"
         width="362"
         height="102" /></clipPath></g><g
     id="g3389"><defs
       id="defs3391"><rect
         id="SVGID_49_"
         x="-205.66701"
         y="-3782.3101"
         width="1380.1379"
         height="4002.6411" /></defs><clipPath
       id="SVGID_4_"><use
         xlink:href="#SVGID_49_"
         overflow="visible"
         id="use3395"
         style="overflow:visible"
         x="0"
         y="0"
         width="362"
         height="102" /></clipPath><g
       clip-path="url(#SVGID_4_)"
       id="g3397"
       style="opacity:0.75"><g
         id="g3399"><defs
           id="defs3401"><rect
             id="SVGID_51_"
             x="-434.565"
             y="-2860.3889"
             width="1947.198"
             height="3018.198" /></defs><clipPath
           id="SVGID_6_"><use
             xlink:href="#SVGID_51_"
             overflow="visible"
             id="use3405"
             style="overflow:visible"
             x="0"
             y="0"
             width="362"
             height="102" /></clipPath><g
           clip-path="url(#SVGID_6_)"
           id="g3407"
           style="opacity:0.35"><g
             id="g3409"><defs
               id="defs3411"><rect
                 id="SVGID_55_"
                 x="-434.565"
                 y="-762.38599"
                 width="1785.198"
                 height="920.19501" /></defs><clipPath
               id="SVGID_7_"><use
                 xlink:href="#SVGID_55_"
                 overflow="visible"
                 id="use3415"
                 style="overflow:visible"
                 x="0"
                 y="0"
                 width="362"
                 height="102" /></clipPath><path
               clip-path="url(#SVGID_7_)"
               stroke-miterlimit="10"
               d="m 296.067,-379.643 c 8.623,16.157 13.219,36.434 21.547,51.968 10.104,18.864 21.575,31.672 31.416,52.847 14.034,30.146 26.129,65.901 41.68,92.284 18.09,30.706 32.32,69.992 47.959,108.242 13.752,33.609 33.479,53.765 45.148,89.478 11.523,35.264 14.449,1.287 16.63,-33.609 9.064,-144.244 24.101,-287.877 30.52,-431.946 -33.376,15.875 -66.744,20.383 -100.408,31.048 -11.116,3.53 -22.15,8.385 -33.244,10.68 -14.556,2.994 -28.944,12.388 -43.597,13.969 -12.747,1.378 -25.478,5.969 -38.185,8.436 -6.563,1.291 -12.678,7.645 -18.902,8.409"
               id="path3417"
               inkscape:connector-curvature="0"
               style="fill:none;stroke:#32436b;stroke-width:3;stroke-miterlimit:10" /></g></g></g></g></g><g
     id="g3419"><defs
       id="defs3421"><rect
         id="SVGID_59_"
         x="-205.66701"
         y="-3782.3101"
         width="1380.1379"
         height="4002.6411" /></defs><clipPath
       id="SVGID_8_"><use
         xlink:href="#SVGID_59_"
         overflow="visible"
         id="use3425"
         style="overflow:visible"
         x="0"
         y="0"
         width="362"
         height="102" /></clipPath></g><g
     id="g3427"><defs
       id="defs3429"><rect
         id="SVGID_61_"
         x="-205.66701"
         y="-3782.3101"
         width="1380.1379"
         height="4002.6411" /></defs><clipPath
       id="SVGID_9_"><use
         xlink:href="#SVGID_61_"
         overflow="visible"
         id="use3433"
         style="overflow:visible"
         x="0"
         y="0"
         width="362"
         height="102" /></clipPath></g><g
     id="g3435"><defs
       id="defs3437"><rect
         id="SVGID_63_"
         x="-205.66701"
         y="-3782.3101"
         width="1380.1379"
         height="4002.6411" /></defs><clipPath
       id="SVGID_11_"><use
         xlink:href="#SVGID_63_"
         overflow="visible"
         id="use3441"
         style="overflow:visible"
         x="0"
         y="0"
         width="362"
         height="102" /></clipPath></g><g
     id="g3443"><defs
       id="defs3445"><rect
         id="SVGID_69_"
         x="-205.66701"
         y="-3782.3101"
         width="1380.1379"
         height="4002.6411" /></defs><clipPath
       id="SVGID_13_"><use
         xlink:href="#SVGID_69_"
         overflow="visible"
         id="use3449"
         style="overflow:visible"
         x="0"
         y="0"
         width="362"
         height="102" /></clipPath></g><g
     id="g3451"><defs
       id="defs3453"><rect
         id="SVGID_73_"
         x="-205.66701"
         y="-3782.3101"
         width="1380.1379"
         height="4002.6411" /></defs><clipPath
       id="SVGID_15_"><use
         xlink:href="#SVGID_73_"
         overflow="visible"
         id="use3457"
         style="overflow:visible"
         x="0"
         y="0"
         width="362"
         height="102" /></clipPath></g><g
     id="g3459"><defs
       id="defs3461"><rect
         id="SVGID_75_"
         x="-205.66701"
         y="-3782.3101"
         width="1380.1379"
         height="4002.6411" /></defs><clipPath
       id="SVGID_17_"><use
         xlink:href="#SVGID_75_"
         overflow="visible"
         id="use3465"
         style="overflow:visible"
         x="0"
         y="0"
         width="362"
         height="102" /></clipPath></g><g
     id="g3467"><defs
       id="defs3469"><rect
         id="SVGID_81_"
         x="-205.66701"
         y="-3782.3101"
         width="1380.1379"
         height="4002.6411" /></defs><clipPath
       id="SVGID_19_"><use
         xlink:href="#SVGID_81_"
         overflow="visible"
         id="use3473"
         style="overflow:visible"
         x="0"
         y="0"
         width="362"
         height="102" /></clipPath></g><g
     id="g3475"><defs
       id="defs3477"><rect
         id="SVGID_85_"
         x="-205.66701"
         y="-3782.3101"
         width="1380.1379"
         height="4002.6411" /></defs><clipPath
       id="SVGID_21_"><use
         xlink:href="#SVGID_85_"
         overflow="visible"
         id="use3481"
         style="overflow:visible"
         x="0"
         y="0"
         width="362"
         height="102" /></clipPath></g><g
     id="g3483"><defs
       id="defs3485"><rect
         id="SVGID_87_"
         x="-205.66701"
         y="-3782.3101"
         width="1380.1379"
         height="4002.6411" /></defs><clipPath
       id="SVGID_23_"><use
         xlink:href="#SVGID_87_"
         overflow="visible"
         id="use3489"
         style="overflow:visible"
         x="0"
         y="0"
         width="362"
         height="102" /></clipPath></g><g
     id="g3491"><defs
       id="defs3493"><rect
         id="SVGID_89_"
         x="-205.66701"
         y="-3782.3101"
         width="1380.1379"
         height="4002.6411" /></defs><clipPath
       id="SVGID_25_"><use
         xlink:href="#SVGID_89_"
         overflow="visible"
         id="use3497"
         style="overflow:visible"
         x="0"
         y="0"
         width="362"
         height="102" /></clipPath></g><g
     id="g3499"><defs
       id="defs3501"><rect
         id="SVGID_91_"
         x="-205.66701"
         y="-3782.3101"
         width="1380.1379"
         height="4002.6411" /></defs><clipPath
       id="SVGID_27_"><use
         xlink:href="#SVGID_91_"
         overflow="visible"
         id="use3505"
         style="overflow:visible"
         x="0"
         y="0"
         width="362"
         height="102" /></clipPath></g><g
     id="g3507"><defs
       id="defs3509"><rect
         id="SVGID_93_"
         x="-205.66701"
         y="-3782.3101"
         width="1380.1379"
         height="4002.6411" /></defs><clipPath
       id="SVGID_29_"><use
         xlink:href="#SVGID_93_"
         overflow="visible"
         id="use3513"
         style="overflow:visible"
         x="0"
         y="0"
         width="362"
         height="102" /></clipPath></g><g
     id="g3515"><defs
       id="defs3517"><rect
         id="SVGID_97_"
         x="-205.66701"
         y="-3782.3101"
         width="1380.1379"
         height="4002.6411" /></defs><clipPath
       id="SVGID_31_"><use
         xlink:href="#SVGID_97_"
         overflow="visible"
         id="use3521"
         style="overflow:visible"
         x="0"
         y="0"
         width="362"
         height="102" /></clipPath></g><g
     id="g3523"><defs
       id="defs3525"><rect
         id="SVGID_101_"
         x="-205.66701"
         y="-3782.3101"
         width="1380.1379"
         height="4002.6411" /></defs><clipPath
       id="SVGID_33_"><use
         xlink:href="#SVGID_101_"
         overflow="visible"
         id="use3529"
         style="overflow:visible"
         x="0"
         y="0"
         width="362"
         height="102" /></clipPath></g><g
     id="g3531"><defs
       id="defs3533"><rect
         id="SVGID_105_"
         x="-205.66701"
         y="-3782.3101"
         width="1380.1379"
         height="4002.6411" /></defs><clipPath
       id="SVGID_35_"><use
         xlink:href="#SVGID_105_"
         overflow="visible"
         id="use3537"
         style="overflow:visible"
         x="0"
         y="0"
         width="362"
         height="102" /></clipPath></g><g
     id="g3539"><defs
       id="defs3541"><rect
         id="SVGID_111_"
         x="-205.66701"
         y="-3782.3101"
         width="1380.1379"
         height="4002.6411" /></defs><clipPath
       id="SVGID_37_"><use
         xlink:href="#SVGID_111_"
         overflow="visible"
         id="use3545"
         style="overflow:visible"
         x="0"
         y="0"
         width="362"
         height="102" /></clipPath></g><g
     id="g3547"><defs
       id="defs3549"><rect
         id="SVGID_115_"
         x="-205.66701"
         y="-3782.3101"
         width="1380.1379"
         height="4002.6411" /></defs><clipPath
       id="SVGID_39_"><use
         xlink:href="#SVGID_115_"
         overflow="visible"
         id="use3553"
         style="overflow:visible"
         x="0"
         y="0"
         width="362"
         height="102" /></clipPath></g><g
     id="g3555"><defs
       id="defs3557"><rect
         id="SVGID_117_"
         x="-205.66701"
         y="-3782.3101"
         width="1380.1379"
         height="4002.6411" /></defs><clipPath
       id="SVGID_41_"><use
         xlink:href="#SVGID_117_"
         overflow="visible"
         id="use3561"
         style="overflow:visible"
         x="0"
         y="0"
         width="362"
         height="102" /></clipPath></g><g
     id="g3563"><defs
       id="defs3565"><rect
         id="SVGID_119_"
         x="-205.66701"
         y="-3782.3101"
         width="1380.1379"
         height="4002.6411" /></defs><clipPath
       id="SVGID_43_"><use
         xlink:href="#SVGID_119_"
         overflow="visible"
         id="use3569"
         style="overflow:visible"
         x="0"
         y="0"
         width="362"
         height="102" /></clipPath><path
       clip-path="url(#SVGID_43_)"
       stroke-miterlimit="10"
       d="m 248.232,78.318 c 0.468,-0.031 0.794,-0.422 1.301,-1.049 1.626,-2.012 2.334,-3.921 3.583,-6.611 0,0 1.002,-2.301 0.273,-4.41 -1.09,-3.149 -4.012,-10.393 -5.122,-13.788 -0.347,-1.059 -0.506,-1.422 -0.786,-1.462 -0.281,0.041 -0.363,0.404 -0.71,1.462 -1.111,3.396 -4.031,10.639 -5.121,13.788 -0.73,2.109 0.272,4.41 0.272,4.41 1.45,2.69 2.157,4.737 3.582,6.611 0.498,0.654 0.849,1.025 1.325,1.049 h 1.403 z"
       id="path3571"
       inkscape:connector-curvature="0"
       style="fill:none;stroke:#f2f2f2;stroke-width:0.72899997;stroke-miterlimit:10" /><path
       clip-path="url(#SVGID_43_)"
       stroke-miterlimit="10"
       d="M 264.019,34.282 C 259.925,21.37 251.264,14.284 250.004,13.339 c -1.044,-0.794 -1.743,-1.251 -2.262,-1.335 -0.01,-0.002 -0.015,-0.006 -0.024,-0.009 -0.061,-0.013 -0.121,-0.021 -0.182,-0.026 -0.005,-10e-4 -0.012,0.003 -0.017,0.003 -0.005,0 -0.012,-0.004 -0.017,-0.003 -0.061,0.005 -0.121,0.014 -0.182,0.026 -0.009,0.003 -0.014,0.007 -0.023,0.009 -0.519,0.084 -1.219,0.541 -2.263,1.335 -1.26,0.945 -9.921,8.031 -14.015,20.943 -4.094,12.912 1.102,29.604 1.89,31.493 0.787,1.891 2.677,1.732 2.677,1.732 h 3.733 c 0,0 0,-0.631 0.63,-3.151 0.63,-2.519 5.094,-13.698 5.094,-13.698 0,0 0.56,-1.11 1.462,-1.628 0.757,-0.184 1.014,-0.197 1.014,-0.197 0,0 0.131,-0.02 1.014,0.197 0.901,0.518 1.463,1.628 1.463,1.628 0,0 4.422,11.18 5.053,13.698 0.63,2.521 0.63,3.151 0.63,3.151 h 3.773 c 0,0 1.89,0.158 2.677,-1.732 0.788,-1.888 5.983,-18.581 1.89,-31.493 z"
       id="path3573"
       inkscape:connector-curvature="0"
       style="fill:none;stroke:#f2f2f2;stroke-width:0.78299999;stroke-miterlimit:10" /><path
       clip-path="url(#SVGID_43_)"
       stroke-miterlimit="10"
       d="m 227.311,51.761 c 0,0 1.667,12.645 4.89,16.691 0,0 -6.833,1.534 -4.471,8.306 0,0 -2.204,1.574 -3.307,-0.473 -1.101,-2.047 0.22,0.199 -2.93,-5.627 0,0 -1.158,-2.301 -0.315,-4.41 1.259,-3.149 2.826,-10.393 4.11,-13.788 1.066,-2.823 2.023,-0.699 2.023,-0.699 z"
       id="path3575"
       inkscape:connector-curvature="0"
       style="fill:none;stroke:#f2f2f2;stroke-width:0.78299999;stroke-miterlimit:10" /><path
       clip-path="url(#SVGID_43_)"
       stroke-miterlimit="10"
       d="m 267.397,51.761 c 0,0 -1.667,12.645 -4.89,16.691 0,0 6.833,1.534 4.471,8.306 0,0 2.204,1.574 3.307,-0.473 1.102,-2.047 -0.22,0.199 2.93,-5.627 0,0 1.158,-2.301 0.315,-4.41 -1.259,-3.149 -2.826,-10.393 -4.11,-13.788 -1.066,-2.823 -2.023,-0.699 -2.023,-0.699 z"
       id="path3577"
       inkscape:connector-curvature="0"
       style="fill:none;stroke:#f2f2f2;stroke-width:0.78299999;stroke-miterlimit:10" /><circle
       clip-path="url(#SVGID_43_)"
       stroke-miterlimit="10"
       cx="247.657"
       cy="23.344"
       r="2.691"
       id="circle3579"
       sodipodi:cx="247.657"
       sodipodi:cy="23.344"
       sodipodi:rx="2.691"
       sodipodi:ry="2.691"
       style="fill:none;stroke:#f2f2f2;stroke-width:0.78299999;stroke-miterlimit:10" /><path
       clip-path="url(#SVGID_43_)"
       stroke-miterlimit="10"
       d="m 238.941,37.099 c -1.109,2.715 -1.852,5.511 -2.114,8.896"
       id="path3581"
       inkscape:connector-curvature="0"
       style="fill:none;stroke:#f2f2f2;stroke-width:0.78299999;stroke-miterlimit:10" /><path
       clip-path="url(#SVGID_43_)"
       stroke-miterlimit="10"
       d="m 245.567,25.407 c -1.366,1.586 -3.745,4.135 -5.276,7.822"
       id="path3583"
       inkscape:connector-curvature="0"
       style="fill:none;stroke:#f2f2f2;stroke-width:0.78299999;stroke-miterlimit:10" /><path
       clip-path="url(#SVGID_43_)"
       stroke-miterlimit="10"
       d="m 241.741,35.201 c 0,1.146 -0.929,2.075 -2.075,2.075 -0.287,-0.001 -0.56,-0.059 -0.809,-0.164 -0.743,-0.316 -1.265,-1.052 -1.265,-1.911 0,-1.145 0.929,-2.074 2.074,-2.074 1.146,0 2.075,0.93 2.075,2.074 z"
       id="path3585"
       inkscape:connector-curvature="0"
       style="fill:none;stroke:#f2f2f2;stroke-width:0.78299999;stroke-miterlimit:10" /><circle
       clip-path="url(#SVGID_43_)"
       stroke-miterlimit="10"
       cx="236.80901"
       cy="47.626999"
       r="1.705"
       id="circle3587"
       sodipodi:cx="236.80901"
       sodipodi:cy="47.626999"
       sodipodi:rx="1.705"
       sodipodi:ry="1.705"
       style="fill:none;stroke:#f2f2f2;stroke-width:0.78299999;stroke-miterlimit:10" /><path
       clip-path="url(#SVGID_43_)"
       d="m 281.293,54.032 0.835,-0.068 c 0.395,-0.024 0.603,-0.186 0.603,-0.648 V 42.532 l -1.321,-0.067 v -1.972 h 4.173 l 6.561,10.642 h 0.047 v -8.603 l -1.53,-0.067 v -1.972 h 5.657 v 1.877 l -0.835,0.069 c -0.348,0.025 -0.555,0.232 -0.555,0.72 V 55.91 h -2.715 l -6.697,-10.802 h -0.05 v 8.761 l 1.508,0.07 v 1.971 h -5.681 v -1.878 z"
       id="path3589"
       inkscape:connector-curvature="0"
       style="fill:#f2f2f2" /><path
       clip-path="url(#SVGID_43_)"
       d="m 309.95,55.91 h -3.755 v -1.506 c -0.813,1.159 -2.226,1.809 -3.756,1.809 -2.318,0 -3.593,-1.277 -3.593,-4.01 v -5.358 c 0,-0.486 -0.185,-0.625 -0.581,-0.648 l -0.741,-0.047 v -1.902 h 4.08 V 51.6 c 0,1.414 0.232,2.481 1.717,2.481 1.62,0 2.48,-1.091 2.48,-2.296 v -4.894 c 0,-0.511 -0.139,-0.671 -0.58,-0.694 L 304.48,46.15 v -1.902 h 4.08 v 9.091 c 0,0.509 0.139,0.626 0.58,0.672 l 0.81,0.07 v 1.829 z m -5.633,-18.221 1.089,0.508 c 0.952,0.439 0.764,1.184 0.096,1.832 l -2.969,2.875 -0.906,-0.767 2.69,-4.448 z"
       id="path3591"
       inkscape:connector-curvature="0"
       style="fill:#f2f2f2" /><path
       clip-path="url(#SVGID_43_)"
       d="m 319.828,53.106 0.996,1.784 c -0.904,0.741 -2.319,1.344 -4.033,1.344 -3.408,0 -5.426,-2.154 -5.426,-6.005 0,-4.705 2.901,-6.328 5.519,-6.328 1.39,0 2.503,0.346 3.616,0.951 v 3.013 l -2.133,0.162 v -1.112 c 0,-0.439 -0.07,-0.648 -0.486,-0.789 -0.279,-0.092 -0.559,-0.139 -0.905,-0.139 -1.853,0 -2.806,1.391 -2.806,3.966 0,2.528 0.93,4.148 2.992,4.148 0.903,10e-4 1.715,-0.301 2.666,-0.995"
       id="path3593"
       inkscape:connector-curvature="0"
       style="fill:#f2f2f2" /><path
       clip-path="url(#SVGID_43_)"
       d="m 326.435,53.985 1.321,0.071 v 1.854 h -5.517 v -1.76 l 0.764,-0.07 c 0.418,-0.048 0.674,-0.185 0.674,-0.743 V 41.906 c 0,-0.417 -0.233,-0.532 -0.58,-0.556 l -0.811,-0.046 V 39.38 h 4.149 v 14.605 z"
       id="path3595"
       inkscape:connector-curvature="0"
       style="fill:#f2f2f2" /><path
       clip-path="url(#SVGID_43_)"
       d="m 338.792,47.125 c 0,3.568 -3.874,4.172 -6.607,4.195 0.094,1.505 0.88,2.735 2.852,2.735 1.367,0 2.364,-0.624 2.918,-1.021 l 0.882,1.881 c -0.37,0.323 -1.9,1.298 -4.08,1.298 -3.941,0 -5.471,-2.412 -5.471,-5.867 0,-3.43 1.925,-6.444 5.728,-6.444 2.273,-10e-4 3.778,1.159 3.778,3.223 m -3.941,-1.254 c -1.855,0 -2.69,1.785 -2.758,3.503 1.716,-0.024 4.149,-0.418 4.149,-2.202 0,-0.86 -0.554,-1.301 -1.391,-1.301"
       id="path3597"
       inkscape:connector-curvature="0"
       style="fill:#f2f2f2" /><path
       clip-path="url(#SVGID_43_)"
       d="m 345.7,43.9 c 1.715,0 5.17,0.533 5.17,5.867 0,4.45 -2.484,6.49 -5.541,6.49 -3.104,0 -5.146,-1.994 -5.146,-6.19 0,-4.82 3.13,-6.167 5.517,-6.167 m 2.341,6.239 c 0,-2.598 -0.626,-4.199 -2.479,-4.199 -1.834,0 -2.575,1.578 -2.575,3.804 0,2.155 0.301,4.475 2.527,4.475 1.805,-10e-4 2.527,-1.67 2.527,-4.08"
       id="path3599"
       inkscape:connector-curvature="0"
       style="fill:#f2f2f2" /><path
       clip-path="url(#SVGID_43_)"
       d="m 281.537,73.354 0.766,-0.069 c 0.394,-0.048 0.67,-0.188 0.67,-0.65 v -10.78 l -1.319,-0.07 v -1.972 h 6.353 c 4.427,0 7.233,2.343 7.233,7.165 0,6.073 -3.386,8.254 -7.118,8.254 h -6.585 v -1.878 z m 4.265,-0.348 h 2.366 c 2.599,0 4.218,-1.899 4.218,-5.609 0,-4.174 -2.015,-5.334 -4.518,-5.334 h -2.066 v 10.943 z"
       id="path3601"
       inkscape:connector-curvature="0"
       style="fill:#f2f2f2" /><path
       clip-path="url(#SVGID_43_)"
       d="m 301.129,73.306 1.32,0.07 v 1.856 h -5.516 v -1.764 l 0.764,-0.067 c 0.417,-0.047 0.671,-0.186 0.671,-0.744 v -6.445 c 0,-0.509 -0.137,-0.672 -0.578,-0.672 l -0.811,-0.046 v -1.925 h 4.15 v 9.737 z m -1.623,-14.697 c 1.02,0 1.762,0.764 1.762,1.737 0,0.976 -0.742,1.694 -1.785,1.694 -1.067,0 -1.763,-0.719 -1.763,-1.694 0,-0.973 0.696,-1.737 1.786,-1.737"
       id="path3603"
       inkscape:connector-curvature="0"
       style="fill:#f2f2f2" /><path
       clip-path="url(#SVGID_43_)"
       d="m 304.396,79.428 v -3.223 l 2.203,-0.186 v 1.113 c 0,0.44 0.115,0.671 0.532,0.834 0.442,0.163 0.953,0.232 1.648,0.232 2.13,0 2.691,-1.461 2.691,-3.409 v -1.274 c -0.789,0.929 -1.95,1.301 -3.086,1.301 -3.386,0 -4.543,-2.785 -4.543,-5.429 0,-4.196 2.526,-6.165 6.028,-6.165 1.112,0 2.92,0.277 4.289,0.856 v 8.6 c 0,0.814 0.021,1.695 -0.047,2.53 -0.279,3.407 -1.879,4.984 -5.356,4.984 -1.461,0.001 -3.384,-0.278 -4.359,-0.764 m 7.074,-13.91 c -0.536,-0.184 -1.207,-0.279 -1.859,-0.279 -1.921,0 -2.917,1.531 -2.917,3.872 0,1.578 0.253,3.666 2.409,3.666 1.299,0 2.367,-0.859 2.367,-2.274 v -4.985 z"
       id="path3605"
       inkscape:connector-curvature="0"
       style="fill:#f2f2f2" /><path
       clip-path="url(#SVGID_43_)"
       d="m 320.604,73.306 1.321,0.07 v 1.856 h -5.516 v -1.764 l 0.763,-0.067 c 0.417,-0.047 0.673,-0.186 0.673,-0.744 v -6.445 c 0,-0.509 -0.139,-0.672 -0.579,-0.672 l -0.813,-0.046 v -1.925 h 4.151 v 9.737 z m -1.623,-14.697 c 1.021,0 1.762,0.764 1.762,1.737 0,0.976 -0.741,1.694 -1.786,1.694 -1.067,0 -1.76,-0.719 -1.76,-1.694 0,-0.973 0.694,-1.737 1.784,-1.737"
       id="path3607"
       inkscape:connector-curvature="0"
       style="fill:#f2f2f2" /><path
       clip-path="url(#SVGID_43_)"
       d="m 327.349,61.112 v 2.457 h 3.086 l -0.232,1.948 h -2.854 v 6.096 c 0,1.415 0.557,1.832 1.508,1.832 0.627,0 1.206,-0.254 1.578,-0.485 l 0.694,1.784 c -0.694,0.488 -1.853,0.812 -2.941,0.812 -3.618,0 -3.597,-2.226 -3.597,-3.849 v -6.19 h -1.646 l 0.234,-1.691 c 1.622,-0.141 2.179,-1.393 2.666,-2.714 h 1.504 z"
       id="path3609"
       inkscape:connector-curvature="0"
       style="fill:#f2f2f2" /><path
       clip-path="url(#SVGID_43_)"
       d="m 342.417,72.657 c 0,0.512 0.139,0.649 0.579,0.674 l 0.743,0.045 v 1.856 h -3.685 v -1.345 l -0.069,-0.023 c -0.718,1.042 -1.901,1.669 -3.174,1.669 -3.269,0 -4.637,-2.317 -4.637,-5.635 0,-4.08 1.947,-6.675 6.118,-6.675 0.767,0 2.458,0.186 4.125,0.81 v 8.624 z m -2.688,-7.117 c -0.347,-0.163 -1.066,-0.302 -1.783,-0.302 -2.202,0 -2.943,2.063 -2.943,4.57 0,1.923 0.464,3.753 2.41,3.753 1.436,0 2.316,-1.02 2.316,-2.015 V 65.54 z"
       id="path3611"
       inkscape:connector-curvature="0"
       style="fill:#f2f2f2" /><path
       clip-path="url(#SVGID_43_)"
       d="m 349.302,73.307 1.322,0.069 v 1.856 h -5.518 V 73.47 l 0.764,-0.068 c 0.417,-0.047 0.673,-0.186 0.673,-0.744 V 61.229 c 0,-0.418 -0.23,-0.532 -0.579,-0.557 l -0.811,-0.045 v -1.926 h 4.149 v 14.606 z"
       id="path3613"
       inkscape:connector-curvature="0"
       style="fill:#f2f2f2" /><path
       clip-path="url(#SVGID_43_)"
       stroke-miterlimit="10"
       d="m 238.609,69.63 h -2.618 c 0,0 -1.578,-0.12 -1.227,1.229 0,0 0.568,1.968 1.001,2.738 0.276,0.492 0.866,1.95 3.105,1.95 h 2.96 c 0,0 -0.75,-1.564 -1.423,-3.085 -0.635,-1.436 -1.177,-2.832 -1.798,-2.832 z"
       id="path3615"
       inkscape:connector-curvature="0"
       style="fill:none;stroke:#f2f2f2;stroke-width:0.78299999;stroke-miterlimit:10" /><path
       clip-path="url(#SVGID_43_)"
       stroke-miterlimit="10"
       d="m 256.454,69.63 h 2.618 c 0,0 1.578,-0.12 1.227,1.229 0,0 -0.568,1.968 -1.001,2.738 -0.276,0.492 -0.866,1.95 -3.105,1.95 h -2.96 c 0,0 0.75,-1.564 1.423,-3.085 0.635,-1.436 1.177,-2.832 1.798,-2.832 z"
       id="path3617"
       inkscape:connector-curvature="0"
       style="fill:none;stroke:#f2f2f2;stroke-width:0.78299999;stroke-miterlimit:10" /></g><g
     id="g7811"><path
       id="path3619"
       d="m 141.978,69.87 c -0.445,-0.235 -0.86,-0.292 -1.287,-0.521 -0.518,-0.274 -0.976,-0.645 -1.522,-0.897 -0.779,-0.356 -1.604,-0.611 -2.36,-1.055 -0.881,-0.515 -1.806,-0.827 -2.747,-1.201 -0.829,-0.332 -1.582,-0.972 -2.395,-1.209 -0.805,-0.233 -0.346,-0.55 0.141,-0.846 2.016,-1.216 3.887,-2.663 5.961,-3.776 0.508,1.386 1.191,2.702 1.786,4.067 0.196,0.451 0.37,0.907 0.586,1.349 0.28,0.581 0.461,1.195 0.768,1.771 0.266,0.5 0.481,1.018 0.73,1.526 0.127,0.261 0.167,0.534 0.297,0.781"
       stroke-miterlimit="10"
       clip-path="url(#SVGID_43_)"
       inkscape:connector-curvature="0"
       style="fill:none;stroke:#f2f2f2;stroke-width:0.5;stroke-miterlimit:10" /><path
       id="path3621"
       d="m 135.729,54.386 c -0.525,0.793 -0.711,1.461 -1.218,2.225 -0.615,0.927 -1.383,1.8 -1.958,2.761 -0.819,1.37 -1.454,2.762 -2.42,4.132 -1.127,1.595 -1.892,3.17 -2.772,4.797 -0.774,1.43 -2.106,2.887 -2.705,4.252 -0.593,1.349 -1.083,0.781 -1.524,0.156 -1.822,-2.583 -4.093,-4.841 -5.714,-7.557 2.648,-1.407 5.205,-3.054 7.833,-4.585 0.867,-0.505 1.74,-0.979 2.596,-1.509 1.125,-0.696 2.286,-1.249 3.407,-1.982 0.973,-0.635 1.97,-1.202 2.951,-1.812 0.507,-0.316 1.02,-0.5 1.494,-0.81"
       stroke-miterlimit="10"
       clip-path="url(#SVGID_43_)"
       inkscape:connector-curvature="0"
       style="fill:none;stroke:#f2f2f2;stroke-width:0.5;stroke-miterlimit:10" /><path
       id="path3623"
       d="m 150.708,59.968 c 0.125,0.364 0.287,0.604 0.407,0.957 0.146,0.424 0.242,0.876 0.408,1.301 0.235,0.607 0.519,1.173 0.723,1.817 0.236,0.751 0.546,1.401 0.846,2.099 0.264,0.613 0.414,1.378 0.697,1.926 0.279,0.542 -0.002,0.507 -0.289,0.442 -1.186,-0.269 -2.372,-0.324 -3.556,-0.682 0.156,-1.095 0.22,-2.232 0.333,-3.357 0.038,-0.371 0.087,-0.734 0.114,-1.109 0.036,-0.493 0.124,-0.955 0.148,-1.457 0.022,-0.435 0.069,-0.857 0.099,-1.288 0.016,-0.224 0.073,-0.409 0.084,-0.622"
       stroke-miterlimit="10"
       clip-path="url(#SVGID_43_)"
       inkscape:connector-curvature="0"
       style="fill:none;stroke:#f2f2f2;stroke-width:0.5;stroke-miterlimit:10" /><path
       id="path3625"
       d="m 159.438,61.972 c -0.824,-0.079 -1.706,0.142 -2.5,0.062 -0.963,-0.097 -1.732,-0.402 -2.777,-0.433 -1.488,-0.044 -3.14,0.139 -4.523,-0.069 -1.61,-0.243 -3.448,-0.09 -5.284,-0.034 -1.612,0.048 -2.862,-0.519 -4.504,-0.313 -1.62,0.201 -0.405,-0.722 0.863,-1.626 5.241,-3.74 10.312,-7.779 15.612,-11.38 0.222,2.094 0.874,3.928 1.301,5.915 0.139,0.657 0.228,1.34 0.414,1.968 0.247,0.822 0.245,1.782 0.547,2.579 0.262,0.692 0.402,1.458 0.622,2.172 0.112,0.371 0.023,0.832 0.147,1.172"
       stroke-miterlimit="10"
       clip-path="url(#SVGID_43_)"
       inkscape:connector-curvature="0"
       style="fill:none;stroke:#f2f2f2;stroke-width:0.5;stroke-miterlimit:10" /><path
       id="path3627"
       d="m 160.219,63.094 c -0.812,-0.09 -1.675,0.118 -2.457,0.029 -0.947,-0.106 -1.705,-0.419 -2.731,-0.462 -1.463,-0.063 -3.085,0.1 -4.445,-0.125 -1.585,-0.261 -3.39,-0.13 -5.193,-0.099 -1.583,0.029 -2.817,-0.549 -4.426,-0.365 -1.591,0.181 -0.406,-0.722 0.832,-1.604 5.114,-3.654 10.06,-7.604 15.233,-11.117 0.238,2.081 0.895,3.911 1.332,5.893 0.144,0.654 0.237,1.334 0.427,1.96 0.249,0.821 0.256,1.774 0.56,2.569 0.263,0.691 0.409,1.453 0.632,2.165 0.113,0.37 0.03,0.827 0.154,1.166"
       stroke-miterlimit="10"
       clip-path="url(#SVGID_43_)"
       inkscape:connector-curvature="0"
       style="fill:none;stroke:#f2f2f2;stroke-width:0.5;stroke-miterlimit:10" /><path
       id="path3629"
       d="m 149.657,60.351 c 0.126,0.365 0.287,0.605 0.408,0.956 0.146,0.428 0.242,0.877 0.408,1.304 0.235,0.606 0.518,1.172 0.722,1.815 0.237,0.753 0.547,1.403 0.847,2.101 0.264,0.611 0.413,1.378 0.697,1.926 0.279,0.542 -0.001,0.506 -0.289,0.44 -1.186,-0.267 -2.373,-0.323 -3.556,-0.681 0.156,-1.095 0.219,-2.233 0.333,-3.357 0.037,-0.37 0.085,-0.734 0.113,-1.109 0.036,-0.493 0.123,-0.954 0.149,-1.456 0.021,-0.437 0.068,-0.859 0.098,-1.289 0.017,-0.223 0.073,-0.409 0.084,-0.622"
       stroke-miterlimit="10"
       clip-path="url(#SVGID_43_)"
       inkscape:connector-curvature="0"
       style="fill:none;stroke:#f2f2f2;stroke-width:0.5;stroke-miterlimit:10" /><path
       id="path3631"
       d="m 86.395,60.334 c 0.805,-0.169 1.437,-0.57 2.214,-0.733 0.941,-0.198 1.861,-0.189 2.825,-0.456 1.375,-0.38 2.735,-0.966 4.136,-1.199 1.632,-0.271 3.18,-0.886 4.795,-1.433 1.421,-0.48 2.967,-0.42 4.297,-1.019 1.315,-0.592 0.898,0.405 0.419,1.404 -1.975,4.131 -3.576,8.427 -5.708,12.472 -1.743,-1.439 -3.682,-2.575 -5.533,-3.884 -0.609,-0.432 -1.193,-0.897 -1.824,-1.296 -0.829,-0.523 -1.535,-1.212 -2.395,-1.7 -0.748,-0.425 -1.435,-0.934 -2.162,-1.387 -0.374,-0.235 -0.634,-0.591 -0.997,-0.8"
       stroke-miterlimit="10"
       clip-path="url(#SVGID_43_)"
       inkscape:connector-curvature="0"
       style="fill:none;stroke:#f2f2f2;stroke-width:0.5;stroke-miterlimit:10" /><path
       id="path3633"
       d="m 35.462,70.758 c 0.009,0.385 0.115,0.663 0.124,1.035 0.011,0.45 -0.053,0.909 -0.018,1.365 0.049,0.649 0.175,1.273 0.168,1.949 -0.008,0.788 0.117,1.503 0.212,2.26 0.083,0.663 -0.041,1.438 0.092,2.047 0.13,0.601 -0.208,0.481 -0.544,0.331 -1.385,-0.619 -2.856,-1.04 -4.2,-1.744 0.642,-0.993 1.186,-2.058 1.788,-3.092 0.197,-0.341 0.407,-0.673 0.594,-1.021 0.246,-0.457 0.546,-0.87 0.781,-1.34 0.205,-0.408 0.437,-0.795 0.651,-1.196 0.111,-0.207 0.258,-0.367 0.359,-0.565"
       stroke-miterlimit="10"
       clip-path="url(#SVGID_43_)"
       inkscape:connector-curvature="0"
       style="fill:none;stroke:#f2f2f2;stroke-width:0.5;stroke-miterlimit:10" /><path
       id="path3635"
       d="m 72.012,70.919 c 0.251,-0.648 0.256,-1.248 0.497,-1.872 0.294,-0.758 0.725,-1.432 0.978,-2.23 0.363,-1.139 0.572,-2.333 1.053,-3.441 0.561,-1.293 0.833,-2.635 1.189,-4.005 0.313,-1.205 1.07,-2.322 1.256,-3.501 0.183,-1.163 0.702,-0.526 1.194,0.157 2.033,2.819 4.356,5.42 6.257,8.328 -1.829,0.806 -3.533,1.858 -5.32,2.789 -0.589,0.306 -1.19,0.58 -1.765,0.913 -0.755,0.438 -1.571,0.729 -2.316,1.201 -0.647,0.409 -1.328,0.748 -1.985,1.133 -0.339,0.198 -0.713,0.271 -1.03,0.47"
       stroke-miterlimit="10"
       clip-path="url(#SVGID_43_)"
       inkscape:connector-curvature="0"
       style="fill:none;stroke:#f2f2f2;stroke-width:0.5;stroke-miterlimit:10" /><path
       id="path3637"
       d="m 92.678,65.515 c -0.127,0.268 -0.147,0.524 -0.269,0.784 -0.149,0.312 -0.351,0.584 -0.486,0.916 -0.189,0.475 -0.315,0.979 -0.554,1.435 -0.277,0.532 -0.435,1.098 -0.629,1.671 -0.17,0.506 -0.526,0.953 -0.642,1.453 -0.115,0.492 -0.314,0.195 -0.502,-0.121 -0.777,-1.305 -1.682,-2.528 -2.399,-3.865 0.802,-0.265 1.558,-0.643 2.346,-0.964 0.259,-0.104 0.524,-0.198 0.777,-0.314 0.335,-0.154 0.691,-0.244 1.022,-0.413 0.287,-0.148 0.587,-0.264 0.879,-0.4 0.15,-0.07 0.31,-0.086 0.451,-0.156"
       stroke-miterlimit="10"
       clip-path="url(#SVGID_43_)"
       inkscape:connector-curvature="0"
       style="fill:none;stroke:#f2f2f2;stroke-width:0.5;stroke-miterlimit:10" /><path
       id="path3639"
       d="m 59.601,75.681 c -0.044,-0.793 -0.346,-1.571 -0.388,-2.335 -0.051,-0.928 0.101,-1.719 -0.018,-2.708 -0.164,-1.408 -0.539,-2.922 -0.554,-4.268 -0.016,-1.568 -0.392,-3.263 -0.687,-4.975 -0.257,-1.505 0.043,-2.807 -0.348,-4.303 -0.388,-1.479 0.541,-0.543 1.465,0.448 3.814,4.089 7.851,7.951 11.556,12.13 -1.707,0.677 -3.14,1.699 -4.732,2.544 -0.526,0.278 -1.08,0.515 -1.575,0.831 -0.652,0.414 -1.449,0.628 -2.068,1.09 -0.539,0.401 -1.153,0.703 -1.719,1.07 -0.291,0.188 -0.686,0.208 -0.951,0.4"
       stroke-miterlimit="10"
       clip-path="url(#SVGID_43_)"
       inkscape:connector-curvature="0"
       style="fill:none;stroke:#f2f2f2;stroke-width:0.5;stroke-miterlimit:10" /><path
       id="path3641"
       d="m 58.502,64.039 c -0.441,0.212 -0.767,0.546 -1.192,0.749 -0.514,0.245 -1.032,0.359 -1.555,0.652 -0.747,0.417 -1.467,0.964 -2.239,1.291 -0.898,0.382 -1.723,0.972 -2.591,1.525 -0.764,0.485 -1.639,0.647 -2.344,1.197 -0.695,0.543 -0.532,-0.138 -0.337,-0.826 0.809,-2.849 1.396,-5.752 2.3,-8.568 1.085,0.677 2.259,1.136 3.394,1.716 0.375,0.192 0.738,0.408 1.121,0.576 0.504,0.221 0.952,0.56 1.471,0.755 0.452,0.169 0.876,0.398 1.317,0.588 0.228,0.099 0.4,0.288 0.619,0.372"
       stroke-miterlimit="10"
       clip-path="url(#SVGID_43_)"
       inkscape:connector-curvature="0"
       style="fill:none;stroke:#f2f2f2;stroke-width:0.5;stroke-miterlimit:10" /><path
       id="path3643"
       d="m 101.346,60.364 c 0.754,0.325 1.392,0.368 2.118,0.683 0.881,0.383 1.709,0.913 2.623,1.253 1.302,0.483 2.627,0.797 3.929,1.411 1.516,0.719 3.015,1.113 4.562,1.604 1.362,0.431 2.744,1.362 4.044,1.646 1.284,0.282 0.74,0.833 0.14,1.352 -2.478,2.141 -4.649,4.626 -7.255,6.61 -1.325,-2.135 -2.881,-4.14 -4.326,-6.231 -0.476,-0.69 -0.924,-1.393 -1.424,-2.067 -0.658,-0.888 -1.179,-1.836 -1.87,-2.713 -0.601,-0.761 -1.135,-1.558 -1.714,-2.331 -0.298,-0.398 -0.471,-0.829 -0.762,-1.201"
       stroke-miterlimit="10"
       clip-path="url(#SVGID_43_)"
       inkscape:connector-curvature="0"
       style="fill:none;stroke:#f2f2f2;stroke-width:0.5;stroke-miterlimit:10" /><path
       id="path3645"
       d="m 128.097,56.953 c -0.338,-0.017 -0.613,0.073 -0.938,0.058 -0.396,-0.022 -0.775,-0.115 -1.182,-0.111 -0.581,0.006 -1.163,0.092 -1.749,0.041 -0.683,-0.062 -1.343,0.017 -2.029,0.062 -0.603,0.039 -1.238,-0.139 -1.808,-0.045 -0.564,0.093 -0.356,-0.241 -0.122,-0.57 0.963,-1.361 1.779,-2.821 2.804,-4.134 0.667,0.717 1.425,1.338 2.141,2.016 0.236,0.223 0.46,0.457 0.706,0.671 0.323,0.279 0.589,0.608 0.926,0.878 0.293,0.235 0.558,0.495 0.841,0.739 0.146,0.126 0.24,0.285 0.382,0.4"
       stroke-miterlimit="10"
       clip-path="url(#SVGID_43_)"
       inkscape:connector-curvature="0"
       style="fill:none;stroke:#f2f2f2;stroke-width:0.5;stroke-miterlimit:10" /><path
       id="path3647"
       d="m 74.031,58.256 c -0.292,-0.048 -0.546,0.004 -0.828,-0.041 -0.342,-0.056 -0.658,-0.176 -1.015,-0.212 -0.509,-0.05 -1.029,-0.031 -1.533,-0.132 -0.588,-0.12 -1.175,-0.114 -1.78,-0.142 -0.532,-0.023 -1.061,-0.24 -1.572,-0.214 -0.506,0.028 -0.277,-0.248 -0.025,-0.515 1.038,-1.109 1.962,-2.319 3.046,-3.378 0.478,0.696 1.051,1.317 1.578,1.985 0.173,0.219 0.336,0.447 0.518,0.659 0.243,0.278 0.427,0.596 0.682,0.866 0.222,0.235 0.416,0.49 0.628,0.733 0.11,0.125 0.168,0.273 0.275,0.39"
       stroke-miterlimit="10"
       clip-path="url(#SVGID_43_)"
       inkscape:connector-curvature="0"
       style="fill:none;stroke:#f2f2f2;stroke-width:0.5;stroke-miterlimit:10" /><path
       id="path3649"
       d="m 59.278,81.075 c -0.06,-0.956 -0.432,-1.896 -0.49,-2.818 -0.07,-1.118 0.105,-2.069 -0.046,-3.262 -0.214,-1.698 -0.68,-3.526 -0.71,-5.148 -0.035,-1.889 -0.503,-3.935 -0.875,-6.001 -0.325,-1.816 0.024,-3.382 -0.462,-5.188 -0.479,-1.783 0.648,-0.648 1.769,0.555 4.629,4.964 9.527,9.659 14.026,14.729 -2.047,0.798 -3.762,2.017 -5.671,3.02 -0.629,0.331 -1.294,0.609 -1.887,0.985 -0.78,0.493 -1.737,0.742 -2.478,1.293 -0.644,0.479 -1.382,0.836 -2.059,1.273 -0.348,0.225 -0.824,0.244 -1.14,0.474"
       stroke-miterlimit="10"
       clip-path="url(#SVGID_43_)"
       inkscape:connector-curvature="0"
       style="fill:none;stroke:#f2f2f2;stroke-width:0.5;stroke-miterlimit:10" /><path
       id="path3651"
       d="m 57.572,65.661 c -0.456,0.265 -0.802,0.668 -1.241,0.922 -0.533,0.309 -1.063,0.465 -1.605,0.83 -0.775,0.518 -1.531,1.184 -2.327,1.599 -0.928,0.484 -1.789,1.205 -2.694,1.887 -0.797,0.598 -1.689,0.825 -2.428,1.495 -0.729,0.662 -0.534,-0.133 -0.305,-0.942 0.949,-3.341 1.676,-6.737 2.72,-10.044 1.067,0.734 2.236,1.215 3.36,1.836 0.371,0.206 0.729,0.438 1.11,0.616 0.5,0.233 0.938,0.607 1.455,0.81 0.45,0.175 0.869,0.423 1.307,0.624 0.227,0.103 0.392,0.313 0.61,0.401"
       stroke-miterlimit="10"
       clip-path="url(#SVGID_43_)"
       inkscape:connector-curvature="0"
       style="fill:none;stroke:#f2f2f2;stroke-width:0.5;stroke-miterlimit:10" /><path
       id="path3653"
       d="m 102.37,62.195 c 0.677,0.304 1.248,0.35 1.901,0.642 0.792,0.354 1.539,0.843 2.36,1.159 1.171,0.45 2.358,0.749 3.529,1.318 1.364,0.664 2.709,1.039 4.097,1.499 1.222,0.404 2.47,1.26 3.635,1.531 1.151,0.271 0.673,0.757 0.143,1.214 -2.185,1.888 -4.091,4.09 -6.393,5.835 -1.213,-1.931 -2.63,-3.752 -3.949,-5.648 -0.434,-0.625 -0.842,-1.261 -1.3,-1.873 -0.599,-0.806 -1.077,-1.663 -1.706,-2.459 -0.547,-0.692 -1.036,-1.413 -1.562,-2.114 -0.271,-0.363 -0.432,-0.751 -0.697,-1.089"
       stroke-miterlimit="10"
       clip-path="url(#SVGID_43_)"
       inkscape:connector-curvature="0"
       style="fill:none;stroke:#f2f2f2;stroke-width:0.5;stroke-miterlimit:10" /><path
       id="path3655"
       d="m 134.949,52.888 c -0.58,0.841 -0.786,1.625 -1.347,2.435 -0.678,0.982 -1.528,1.851 -2.163,2.888 -0.907,1.478 -1.607,3.037 -2.675,4.471 -1.243,1.671 -2.089,3.422 -3.061,5.204 -0.857,1.568 -2.328,3.004 -2.989,4.541 -0.655,1.518 -1.197,0.663 -1.687,-0.252 -2.019,-3.776 -4.535,-7.276 -6.333,-11.163 2.93,-0.986 5.758,-2.3 8.665,-3.449 0.959,-0.379 1.924,-0.716 2.872,-1.13 1.243,-0.543 2.528,-0.894 3.767,-1.484 1.078,-0.512 2.181,-0.928 3.265,-1.406 0.56,-0.247 1.128,-0.329 1.652,-0.576"
       stroke-miterlimit="10"
       clip-path="url(#SVGID_43_)"
       inkscape:connector-curvature="0"
       style="fill:none;stroke:#f2f2f2;stroke-width:0.5;stroke-miterlimit:10" /><path
       id="path3657"
       d="m 141.978,68.114 c -0.568,-0.292 -1.164,-0.364 -1.709,-0.649 -0.661,-0.339 -1.195,-0.792 -1.908,-1.106 -1.018,-0.444 -2.143,-0.764 -3.094,-1.31 -1.106,-0.636 -2.358,-1.028 -3.609,-1.494 -1.103,-0.413 -1.969,-1.197 -3.086,-1.495 -1.104,-0.296 -0.297,-0.67 0.545,-1.02 3.48,-1.438 6.836,-3.155 10.36,-4.468 0.208,1.681 0.703,3.281 1.048,4.938 0.114,0.547 0.192,1.101 0.338,1.637 0.188,0.706 0.214,1.449 0.442,2.15 0.198,0.608 0.312,1.238 0.484,1.854 0.084,0.316 0.037,0.648 0.131,0.948"
       stroke-miterlimit="10"
       clip-path="url(#SVGID_43_)"
       inkscape:connector-curvature="0"
       style="fill:none;stroke:#f2f2f2;stroke-width:0.5;stroke-miterlimit:10" /><path
       id="path3659"
       d="m 126.573,57.533 c -0.329,-0.028 -0.594,0.046 -0.912,0.02 -0.386,-0.035 -0.758,-0.137 -1.156,-0.147 -0.565,-0.017 -1.128,0.044 -1.701,-0.026 -0.668,-0.082 -1.308,-0.031 -1.975,-0.013 -0.586,0.015 -1.213,-0.177 -1.764,-0.108 -0.545,0.067 -0.355,-0.243 -0.14,-0.547 0.89,-1.256 1.631,-2.611 2.582,-3.819 0.676,0.704 1.437,1.321 2.16,1.99 0.238,0.219 0.465,0.45 0.711,0.662 0.325,0.276 0.597,0.599 0.935,0.868 0.294,0.232 0.561,0.488 0.846,0.73 0.147,0.123 0.244,0.279 0.386,0.394"
       stroke-miterlimit="10"
       clip-path="url(#SVGID_43_)"
       inkscape:connector-curvature="0"
       style="fill:none;stroke:#f2f2f2;stroke-width:0.5;stroke-miterlimit:10" /><path
       id="path3661"
       d="m 74.031,59.989 c -0.292,-0.047 -0.546,0.005 -0.828,-0.041 -0.342,-0.056 -0.658,-0.175 -1.015,-0.211 -0.509,-0.05 -1.029,-0.03 -1.533,-0.133 -0.588,-0.119 -1.175,-0.114 -1.78,-0.141 -0.532,-0.024 -1.061,-0.241 -1.572,-0.213 -0.506,0.025 -0.277,-0.249 -0.025,-0.518 1.038,-1.106 1.962,-2.317 3.046,-3.377 0.478,0.697 1.051,1.318 1.578,1.986 0.173,0.219 0.336,0.447 0.518,0.659 0.243,0.276 0.427,0.595 0.682,0.865 0.222,0.235 0.416,0.491 0.628,0.733 0.11,0.125 0.168,0.275 0.275,0.39"
       stroke-miterlimit="10"
       clip-path="url(#SVGID_43_)"
       inkscape:connector-curvature="0"
       style="fill:none;stroke:#f2f2f2;stroke-width:0.5;stroke-miterlimit:10" /><path
       id="path3663"
       d="m 45.64,75.354 c -1.005,-0.331 -2.205,-0.392 -3.173,-0.711 -1.175,-0.39 -2.018,-0.916 -3.322,-1.269 -1.856,-0.499 -4.013,-0.834 -5.67,-1.458 -1.929,-0.727 -4.307,-1.147 -6.641,-1.659 -2.051,-0.451 -3.394,-1.374 -5.545,-1.686 -2.122,-0.307 -0.216,-0.81 1.75,-1.281 8.127,-1.944 16.16,-4.225 24.304,-6.019 -0.574,2.059 -0.5,4.005 -0.774,6.028 -0.091,0.668 -0.258,1.345 -0.279,1.999 -0.027,0.859 -0.419,1.771 -0.365,2.621 0.048,0.74 -0.085,1.512 -0.101,2.26 -0.008,0.386 -0.31,0.798 -0.291,1.159"
       stroke-miterlimit="10"
       clip-path="url(#SVGID_43_)"
       inkscape:connector-curvature="0"
       style="fill:none;stroke:#f2f2f2;stroke-width:0.5;stroke-miterlimit:10" /><path
       id="path3665"
       d="m 46.166,76.661 c -0.984,-0.336 -2.157,-0.404 -3.105,-0.729 -1.15,-0.394 -1.977,-0.925 -3.253,-1.282 -1.817,-0.51 -3.926,-0.854 -5.549,-1.486 -1.888,-0.736 -4.216,-1.169 -6.498,-1.693 -2.007,-0.46 -3.325,-1.39 -5.428,-1.711 -2.076,-0.318 -0.215,-0.811 1.703,-1.27 7.933,-1.901 15.772,-4.138 23.72,-5.887 -0.549,2.055 -0.467,3.998 -0.724,6.019 -0.086,0.666 -0.245,1.341 -0.262,1.995 -0.021,0.857 -0.401,1.767 -0.342,2.615 0.05,0.74 -0.078,1.51 -0.088,2.257 -0.007,0.387 -0.298,0.795 -0.279,1.157"
       stroke-miterlimit="10"
       clip-path="url(#SVGID_43_)"
       inkscape:connector-curvature="0"
       style="fill:none;stroke:#f2f2f2;stroke-width:0.5;stroke-miterlimit:10" /><path
       id="path3667"
       d="m 81.167,62.993 c 1.008,-0.19 1.716,-0.614 2.689,-0.798 1.177,-0.224 2.39,-0.237 3.578,-0.533 1.693,-0.419 3.303,-1.047 5.075,-1.317 2.067,-0.313 3.914,-0.978 5.872,-1.571 1.724,-0.522 3.776,-0.498 5.345,-1.139 1.547,-0.633 1.304,0.389 0.981,1.414 -1.334,4.238 -2.127,8.637 -3.694,12.792 -2.734,-1.419 -5.634,-2.521 -8.471,-3.805 -0.934,-0.423 -1.845,-0.881 -2.798,-1.268 -1.251,-0.513 -2.391,-1.193 -3.673,-1.667 -1.112,-0.412 -2.175,-0.912 -3.269,-1.354 -0.564,-0.229 -1.016,-0.583 -1.557,-0.787"
       stroke-miterlimit="10"
       clip-path="url(#SVGID_43_)"
       inkscape:connector-curvature="0"
       style="fill:none;stroke:#f2f2f2;stroke-width:0.5;stroke-miterlimit:10" /><path
       id="path3669"
       d="m 67.41,71.77 c 0.352,-0.803 0.393,-1.529 0.734,-2.303 0.413,-0.937 0.991,-1.781 1.356,-2.766 0.522,-1.403 0.854,-2.867 1.522,-4.24 0.778,-1.601 1.2,-3.248 1.726,-4.932 0.463,-1.481 1.476,-2.883 1.78,-4.324 0.299,-1.423 0.911,-0.682 1.487,0.12 2.382,3.304 5.142,6.323 7.352,9.742 -2.341,1.088 -4.537,2.466 -6.831,3.698 -0.756,0.407 -1.526,0.777 -2.265,1.215 -0.973,0.574 -2.013,0.978 -2.974,1.594 -0.835,0.536 -1.708,0.986 -2.555,1.492 -0.437,0.262 -0.909,0.371 -1.318,0.631"
       stroke-miterlimit="10"
       clip-path="url(#SVGID_43_)"
       inkscape:connector-curvature="0"
       style="fill:none;stroke:#f2f2f2;stroke-width:0.5;stroke-miterlimit:10" /><path
       id="path3671"
       d="m 11.072,53.546 c 0.824,0.357 1.593,0.395 2.387,0.739 0.962,0.419 1.811,1.008 2.827,1.379 1.449,0.526 2.977,0.858 4.382,1.536 1.638,0.789 3.354,1.211 5.1,1.742 1.537,0.466 2.943,1.501 4.449,1.802 1.489,0.298 0.649,0.934 -0.249,1.532 -3.71,2.476 -7.149,5.337 -10.967,7.637 -0.961,-2.401 -2.244,-4.653 -3.366,-7.007 -0.37,-0.774 -0.699,-1.564 -1.104,-2.324 -0.53,-0.996 -0.872,-2.064 -1.448,-3.049 -0.499,-0.855 -0.906,-1.752 -1.374,-2.621 -0.241,-0.447 -0.32,-0.933 -0.561,-1.352"
       stroke-miterlimit="10"
       clip-path="url(#SVGID_43_)"
       inkscape:connector-curvature="0"
       style="fill:none;stroke:#f2f2f2;stroke-width:0.5;stroke-miterlimit:10" /><path
       id="path3673"
       d="m 16.148,61.838 c -0.228,0.189 -0.355,0.413 -0.574,0.597 -0.267,0.221 -0.566,0.382 -0.827,0.627 -0.372,0.35 -0.699,0.755 -1.106,1.067 -0.476,0.364 -0.859,0.812 -1.276,1.251 -0.368,0.386 -0.879,0.642 -1.194,1.046 -0.311,0.397 -0.368,0.044 -0.405,-0.321 -0.153,-1.51 -0.46,-3.002 -0.547,-4.515 0.84,0.097 1.684,0.072 2.535,0.113 0.279,0.014 0.557,0.041 0.837,0.043 0.369,0 0.729,0.069 1.101,0.055 0.323,-0.014 0.643,0.008 0.965,0.008 0.166,0 0.317,0.054 0.475,0.05"
       stroke-miterlimit="10"
       clip-path="url(#SVGID_43_)"
       inkscape:connector-curvature="0"
       style="fill:none;stroke:#f2f2f2;stroke-width:0.5;stroke-miterlimit:10" /><path
       id="path3675"
       d="m 10.219,54.893 c 0.824,0.358 1.594,0.396 2.387,0.74 0.961,0.418 1.811,1.007 2.827,1.378 1.45,0.527 2.977,0.859 4.382,1.536 1.638,0.79 3.354,1.212 5.1,1.742 1.536,0.467 2.942,1.501 4.449,1.802 1.489,0.298 0.649,0.933 -0.25,1.533 -3.71,2.476 -7.149,5.336 -10.965,7.636 -0.962,-2.401 -2.245,-4.654 -3.367,-7.007 -0.369,-0.774 -0.699,-1.564 -1.103,-2.324 -0.53,-0.996 -0.873,-2.063 -1.448,-3.049 -0.501,-0.855 -0.907,-1.751 -1.375,-2.62 -0.242,-0.448 -0.32,-0.933 -0.561,-1.352"
       stroke-miterlimit="10"
       clip-path="url(#SVGID_43_)"
       inkscape:connector-curvature="0"
       style="fill:none;stroke:#f2f2f2;stroke-width:0.5;stroke-miterlimit:10" /><path
       id="path3677"
       d="m 17.399,63.192 c -0.228,0.189 -0.355,0.414 -0.575,0.598 -0.266,0.221 -0.565,0.382 -0.826,0.627 -0.372,0.35 -0.699,0.755 -1.107,1.066 -0.476,0.365 -0.858,0.813 -1.275,1.251 -0.368,0.387 -0.879,0.643 -1.194,1.046 -0.312,0.398 -0.368,0.044 -0.406,-0.321 -0.153,-1.511 -0.459,-3.001 -0.546,-4.515 0.839,0.098 1.684,0.073 2.534,0.114 0.279,0.013 0.558,0.041 0.838,0.042 0.369,0 0.729,0.069 1.1,0.055 0.323,-0.013 0.643,0.009 0.966,0.009 0.166,0 0.317,0.054 0.474,0.049"
       stroke-miterlimit="10"
       clip-path="url(#SVGID_43_)"
       inkscape:connector-curvature="0"
       style="fill:none;stroke:#f2f2f2;stroke-width:0.5;stroke-miterlimit:10" /><path
       id="path3679"
       d="m 33.982,70.799 c 0.009,0.385 0.116,0.664 0.124,1.035 0.01,0.451 -0.053,0.909 -0.017,1.365 0.048,0.649 0.174,1.274 0.168,1.95 -0.009,0.788 0.117,1.503 0.211,2.259 0.084,0.665 -0.041,1.438 0.092,2.047 0.131,0.602 -0.208,0.482 -0.543,0.331 -1.385,-0.62 -2.857,-1.039 -4.201,-1.743 0.643,-0.993 1.187,-2.057 1.788,-3.092 0.198,-0.341 0.407,-0.672 0.594,-1.021 0.246,-0.458 0.547,-0.869 0.782,-1.34 0.205,-0.409 0.437,-0.796 0.651,-1.195 0.11,-0.208 0.257,-0.367 0.358,-0.567"
       stroke-miterlimit="10"
       clip-path="url(#SVGID_43_)"
       inkscape:connector-curvature="0"
       style="fill:none;stroke:#f2f2f2;stroke-width:0.5;stroke-miterlimit:10" /><path
       id="path3681"
       d="m 94.495,66.329 c -0.126,0.269 -0.148,0.526 -0.27,0.784 -0.149,0.312 -0.352,0.585 -0.485,0.917 -0.189,0.474 -0.315,0.979 -0.554,1.435 -0.277,0.531 -0.435,1.098 -0.629,1.672 -0.171,0.505 -0.526,0.952 -0.642,1.45 -0.115,0.493 -0.315,0.197 -0.503,-0.12 -0.776,-1.304 -1.682,-2.527 -2.398,-3.863 0.802,-0.266 1.558,-0.644 2.346,-0.964 0.259,-0.106 0.523,-0.198 0.777,-0.315 0.335,-0.155 0.69,-0.244 1.022,-0.414 0.288,-0.147 0.587,-0.263 0.878,-0.399 0.151,-0.07 0.311,-0.086 0.453,-0.155"
       stroke-miterlimit="10"
       clip-path="url(#SVGID_43_)"
       inkscape:connector-curvature="0"
       style="fill:none;stroke:#f2f2f2;stroke-width:0.5;stroke-miterlimit:10" /><g
       id="text3683"
       style="font-size:21.49670029px;fill:#f2f2f2;font-family:JUICEBold-Bold"
       transform="matrix(0.9937,-0.1124,0.1124,0.9937,22.936,53.7881)"><path
         id="path3795"
         style="font-size:21.49670029px;fill:#f2f2f2;font-family:JUICEBold-Bold"
         d="m -0.06297861,-15.671178 13.25699861,0 0,1.784394 -5.5631113,0 0,13.886784 -2.1307764,0 0,-13.886784 -5.56311091,0 0,-1.784394"
         inkscape:connector-curvature="0" /></g><g
       id="text3685"
       style="font-size:21.49670029px;fill:#f2f2f2;font-family:JUICEBold-Bold"
       transform="matrix(0.9937,-0.1124,0.1124,0.9937,37.1802,52.3291)"><path
         id="path3792"
         style="font-size:21.49670029px;fill:#f2f2f2;font-family:JUICEBold-Bold"
         d="m 7.347505,-13.582388 -2.8760234,7.7988519 5.7625434,0 -2.88652,-7.7988519 m -1.1965937,-2.08879 2.4036838,0 L 14.527067,0 12.322815,0 10.8953,-4.0201349 l -7.064101,0 L 2.4036838,0 0.16794297,0 6.1509113,-15.671178"
         inkscape:connector-curvature="0" /></g><g
       id="text3687"
       style="font-size:21.49670029px;fill:#f2f2f2;font-family:JUICEBold-Bold"
       transform="matrix(0.9937,-0.1124,0.1124,0.9937,51.1919,50.7451)"><path
         id="path3789"
         style="font-size:21.49670029px;fill:#f2f2f2;font-family:JUICEBold-Bold"
         d="m -0.06297861,-15.671178 13.25699861,0 0,1.784394 -5.5631113,0 0,13.886784 -2.1307764,0 0,-13.886784 -5.56311091,0 0,-1.784394"
         inkscape:connector-curvature="0" /></g><g
       id="text3689"
       style="font-size:21.49670029px;fill:#f2f2f2;font-family:JUICEBold-Bold"
       transform="matrix(0.9937,-0.1124,0.1124,0.9937,64.9048,49.1943)"><path
         id="path3786"
         style="font-size:21.49670029px;fill:#f2f2f2;font-family:JUICEBold-Bold"
         d="m 1.8683656,-15.671178 2.1307764,0 0,9.5202667 c -4e-6,1.6794342 0.3043923,2.8900219 0.9131899,3.6317667 0.6087878,0.7347523 1.5954517,1.1021272 2.9599949,1.1021258 1.3575298,1.4e-6 2.3406952,-0.3673735 2.9494982,-1.1021258 0.608782,-0.7417448 0.913178,-1.9523325 0.91319,-3.6317667 l 0,-9.5202667 2.130777,0 0,9.7826776 c -1.4e-5,2.04331 -0.507342,3.5862845 -1.521984,4.6289281 C 11.336139,-0.21692612 9.8456468,0.30439633 7.8723268,0.30439663 5.8919933,0.30439633 4.3945033,-0.21692612 3.3798523,-1.2595723 2.3721921,-2.3022159 1.8683637,-3.8451904 1.8683656,-5.8885004 l 0,-9.7826776"
         inkscape:connector-curvature="0" /></g><g
       id="text3691"
       style="font-size:21.49670029px;fill:#f2f2f2;font-family:JUICEBold-Bold"
       transform="matrix(0.9937,-0.1124,0.1124,0.9937,80.9312,47.4258)"><path
         id="path3783"
         style="font-size:21.49670029px;fill:#f2f2f2;font-family:JUICEBold-Bold"
         d="m 9.54126,-7.347505 c 0.4548356,0.1539549 0.895685,0.4828429 1.322551,0.986665 0.433841,0.5038347 0.867694,1.1965988 1.301558,2.0782942 L 14.317138,0 12.039412,0 10.034593,-4.0201349 C 9.5167588,-5.0697734 9.0129304,-5.7660362 8.5231058,-6.1089256 8.0402617,-6.4518027 7.3789869,-6.6232443 6.5392794,-6.6232509 l -2.3092158,0 0,6.6232509 -2.12028,0 0,-15.671178 4.7863746,0 c 1.791383,1.5e-5 3.1279278,0.374388 4.0096388,1.123118 0.881688,0.74876 1.322538,1.878875 1.322551,3.390349 -1.3e-5,0.986675 -0.230934,1.8053962 -0.692765,2.4561658 -0.454857,0.6507871 -1.11963,1.1021334 -1.994323,1.3540402 m -5.3111964,-6.581265 0,5.5631108 2.6660946,0 c 1.0216452,8.3e-6 1.791383,-0.2344118 2.3092159,-0.7032612 0.5248121,-0.4758289 0.7872227,-1.1720916 0.7872327,-2.0887906 -1e-5,-0.916677 -0.2624206,-1.605942 -0.7872327,-2.067798 -0.5178329,-0.468827 -1.2875707,-0.703247 -2.3092159,-0.703261 l -2.6660946,0"
         inkscape:connector-curvature="0" /></g><g
       id="text3693"
       style="font-size:21.49670029px;fill:#f2f2f2;font-family:JUICEBold-Bold"
       transform="matrix(0.9937,-0.1124,0.1124,0.9937,96.938,45.5059)"><path
         id="path3780"
         style="font-size:21.49670029px;fill:#f2f2f2;font-family:JUICEBold-Bold"
         d="m 7.347505,-13.582388 -2.8760234,7.7988519 5.7625434,0 -2.88652,-7.7988519 m -1.1965937,-2.08879 2.4036838,0 L 14.527067,0 12.322815,0 10.8953,-4.0201349 l -7.064101,0 L 2.4036838,0 0.16794297,0 6.1509113,-15.671178"
         inkscape:connector-curvature="0" /></g><g
       id="text3695"
       style="font-size:21.49670029px;fill:#f2f2f2;font-family:JUICEBold-Bold"
       transform="matrix(0.9937,-0.1124,0.1124,0.9937,112.4419,43.9033)"><path
         id="path3777"
         style="font-size:21.49670029px;fill:#f2f2f2;font-family:JUICEBold-Bold"
         d="m 2.1097836,-15.671178 2.8550305,0 6.9486409,13.1100477 0,-13.1100477 2.057301,0 0,15.671178 -2.855031,0 -6.94864,-13.110048 0,13.110048 -2.0573014,0 0,-15.671178"
         inkscape:connector-curvature="0" /></g><g
       id="text3697"
       style="font-size:21.49670029px;fill:#f2f2f2;font-family:JUICEBold-Bold"
       transform="matrix(0.9937,-0.1124,0.1124,0.9937,128.5649,42.2314)"><path
         id="path3774"
         style="font-size:21.49670029px;fill:#f2f2f2;font-family:JUICEBold-Bold"
         d="m 7.347505,-13.582388 -2.8760234,7.7988519 5.7625434,0 -2.88652,-7.7988519 m -1.1965937,-2.08879 2.4036838,0 L 14.527067,0 12.322815,0 10.8953,-4.0201349 l -7.064101,0 L 2.4036838,0 0.16794297,0 6.1509113,-15.671178"
         inkscape:connector-curvature="0" /></g><g
       id="g3699"><defs
         id="defs3701"><rect
           height="4002.6411"
           width="1380.1379"
           y="-3782.3101"
           x="-205.66701"
           id="SVGID_121_" /></defs><clipPath
         id="SVGID_45_"><use
           id="use3705"
           overflow="visible"
           xlink:href="#SVGID_121_"
           style="overflow:visible"
           x="0"
           y="0"
           width="362"
           height="102" /></clipPath><path
         id="line3707"
         d="m 115.979,46.360001 1.438,-0.271"
         clip-path="url(#SVGID_45_)"
         style="fill:none;stroke:#f2f2f2;stroke-width:0.64700001;stroke-miterlimit:10"
         inkscape:connector-curvature="0" /><path
         id="path3709"
         d="m 113.802,51.023 c -0.145,0.32 -0.292,0.643 -0.438,0.962"
         stroke-miterlimit="10"
         clip-path="url(#SVGID_45_)"
         inkscape:connector-curvature="0"
         style="fill:none;stroke:#f2f2f2;stroke-width:0.64700001;stroke-miterlimit:10" /></g><g
       id="text3711"
       style="font-size:5.71220016px;fill:#f2f2f2;font-family:JUICELight"
       transform="matrix(0.9929,-0.1185,0.1284,1.0757,87.1958,54.3779)"><path
         id="path3738"
         style="font-size:5.71220016px;fill:#f2f2f2;font-family:JUICELight"
         d="m 2.9704557,-2.52419 c 0.1282982,-0.2305678 0.2817019,-0.4007064 0.4602114,-0.5104163 0.1785026,-0.1097039 0.3886192,-0.1645573 0.6303502,-0.1645605 0.3253976,3.2e-6 0.5764218,0.1143587 0.7530733,0.3430667 0.1766418,0.2268543 0.2649651,0.5503966 0.2649702,0.9706278 l 0,1.8854723 -0.5159947,0 0,-1.8687374 C 4.5630616,-2.1681051 4.5100676,-2.3903079 4.404084,-2.5353467 4.2980916,-2.6803803 4.1363205,-2.7528984 3.9187701,-2.7529012 c -0.2659036,2.8e-6 -0.4760201,0.088326 -0.6303502,0.2649703 -0.1543366,0.1766491 -0.2315033,0.4174464 -0.2315003,0.7223925 l 0,1.7655384 -0.5159946,0 0,-1.8687374 c -2.6e-6,-0.3012271 -0.052997,-0.52343 -0.1589822,-0.6666093 -0.1059903,-0.1450336 -0.2696209,-0.2175517 -0.4908922,-0.2175545 -0.2621827,2.8e-6 -0.4704397,0.089256 -0.6247719,0.2677594 -0.1543346,0.1766492 -0.2315013,0.4165167 -0.2315003,0.7196034 l 0,1.7655384 -0.5159946,0 0,-3.1238595 0.5159946,0 0,0.4853139 c 0.1171436,-0.1915195 0.2575312,-0.3328368 0.4211632,-0.4239523 0.1636292,-0.091109 0.3579405,-0.1366657 0.5829345,-0.1366689 0.2268495,3.2e-6 0.4193013,0.057646 0.5773562,0.1729279 0.1599091,0.1152882 0.2779834,0.2826377 0.3542234,0.5020489"
         inkscape:connector-curvature="0" /><path
         id="path3740"
         style="font-size:5.71220016px;fill:#f2f2f2;font-family:JUICELight"
         d="m 7.3159674,-2.7640578 c -0.2751986,2.8e-6 -0.4927529,0.1078502 -0.6526635,0.3235426 -0.1599128,0.2138378 -0.2398686,0.5076291 -0.2398678,0.8813746 -8e-7,0.3737487 0.079025,0.66846966 0.2370787,0.88416382 0.1599106,0.21383608 0.3783946,0.32075378 0.6554526,0.32075343 0.2733357,3.5e-7 0.4899603,-0.10784707 0.6498743,-0.32354259 C 8.125751,-0.8934601 8.2057069,-1.1872514 8.2057095,-1.5591406 8.2057069,-1.9291672 8.125751,-2.2220288 7.9658417,-2.437726 7.8059277,-2.6552779 7.5893031,-2.764055 7.3159674,-2.7640578 m 0,-0.435109 c 0.4462635,3.2e-6 0.7967676,0.1450394 1.0515134,0.435109 0.2547403,0.2900751 0.3821118,0.6917138 0.382115,1.2049172 -3.2e-6,0.5113471 -0.1273747,0.91298579 -0.382115,1.20491725 -0.2547458,0.29007273 -0.6052499,0.43510892 -1.0515134,0.435109 -0.4481264,-8e-8 -0.7995602,-0.14503627 -1.0543026,-0.435109 C 6.0087805,-0.64615481 5.8823387,-1.0477935 5.8823391,-1.5591406 c -4e-7,-0.5132034 0.1264414,-0.9148421 0.3793257,-1.2049172 0.2547424,-0.2900696 0.6061762,-0.4351058 1.0543026,-0.435109"
         inkscape:connector-curvature="0" /><path
         id="path3742"
         style="font-size:5.71220016px;fill:#f2f2f2;font-family:JUICELight"
         d="m 11.839985,-1.5591406 c -2e-6,-0.3774644 -0.0781,-0.6731151 -0.234289,-0.8869529 -0.154336,-0.2156924 -0.367242,-0.3235398 -0.638718,-0.3235426 -0.27148,2.8e-6 -0.485315,0.1078502 -0.641507,0.3235426 -0.154334,0.2138378 -0.231501,0.5094885 -0.2315,0.8869529 -10e-7,0.3774676 0.07717,0.67404797 0.2315,0.88974214 0.156192,0.21383608 0.370027,0.32075378 0.641507,0.32075343 0.271476,3.5e-7 0.484382,-0.10691735 0.638718,-0.32075343 0.15619,-0.21569417 0.234287,-0.51227454 0.234289,-0.88974214 m -1.746014,-1.0905616 c 0.107846,-0.1859412 0.243585,-0.3235396 0.407217,-0.4127957 0.165489,-0.091109 0.36259,-0.1366657 0.591302,-0.1366689 0.379324,3.2e-6 0.687061,0.1506177 0.923213,0.451844 0.238005,0.3012317 0.357009,0.6972921 0.357012,1.1881822 -3e-6,0.4908933 -0.119007,0.88695366 -0.357012,1.18818229 -0.236152,0.30122937 -0.543889,0.45184388 -0.923213,0.45184396 -0.228712,-8e-8 -0.425813,-0.0446266 -0.591302,-0.13387969 -0.163632,-0.09111243 -0.299371,-0.22964058 -0.407217,-0.41558488 l 0,0.46857892 -0.5159945,0 0,-4.3399333 0.5159945,0 0,1.6902311"
         inkscape:connector-curvature="0" /><path
         id="path3744"
         style="font-size:5.71220016px;fill:#f2f2f2;font-family:JUICELight"
         d="m 13.223408,-3.1238595 0.513206,0 0,3.1238595 -0.513206,0 0,-3.1238595 m 0,-1.2160738 0.513206,0 0,0.6498743 -0.513206,0 0,-0.6498743"
         inkscape:connector-curvature="0" /><path
         id="path3746"
         style="font-size:5.71220016px;fill:#f2f2f2;font-family:JUICELight"
         d="m 14.807652,-4.3399333 0.513206,0 0,4.3399333 -0.513206,0 0,-4.3399333"
         inkscape:connector-curvature="0" /><path
         id="path3748"
         style="font-size:5.71220016px;fill:#f2f2f2;font-family:JUICELight"
         d="m 16.391895,-3.1238595 0.513206,0 0,3.1238595 -0.513206,0 0,-3.1238595 m 0,-1.2160738 0.513206,0 0,0.6498743 -0.513206,0 0,-0.6498743"
         inkscape:connector-curvature="0" /><path
         id="path3750"
         style="font-size:5.71220016px;fill:#f2f2f2;font-family:JUICELight"
         d="m 17.753005,-3.1238595 2.437726,0 0,0.468579 -1.930099,2.24527395 1.930099,0 0,0.41000655 -2.507455,0 0,-0.46857892 1.930099,-2.24527398 -1.86037,0 0,-0.4100066"
         inkscape:connector-curvature="0" /><path
         id="path3752"
         style="font-size:5.71220016px;fill:#f2f2f2;font-family:JUICELight"
         d="m 22.396957,-1.5702972 c -0.414656,1.6e-6 -0.70194,0.047417 -0.86185,0.1422472 -0.159913,0.094833 -0.239869,0.2566039 -0.239868,0.48531384 -10e-7,0.1822259 0.0595,0.32726208 0.178506,0.435109 0.120863,0.10598849 0.284493,0.15898248 0.490892,0.15898213 0.284493,3.5e-7 0.512274,-0.10040932 0.683345,-0.30122931 0.172925,-0.20267812 0.259389,-0.47136696 0.259392,-0.80606726 l 0,-0.1143556 -0.510417,0 m 1.023622,-0.2119762 0,1.7822734 -0.513205,0 0,-0.47415724 c -0.117148,0.18966318 -0.263113,0.33005077 -0.437899,0.4211632 -0.174789,0.08925309 -0.388624,0.13387961 -0.641506,0.13387969 -0.319825,-8e-8 -0.574568,-0.08925312 -0.76423,-0.26775939 -0.187804,-0.18036532 -0.281706,-0.42116258 -0.281706,-0.7223925 0,-0.35143296 0.117145,-0.61640286 0.351435,-0.79491066 0.236148,-0.1785044 0.587581,-0.2677574 1.054302,-0.2677594 l 0.719604,0 0,-0.050205 c -3e-6,-0.2361466 -0.0781,-0.4183716 -0.23429,-0.5466754 -0.154336,-0.1301581 -0.37189,-0.1952384 -0.652663,-0.1952412 -0.178508,2.8e-6 -0.352366,0.021386 -0.521573,0.064151 -0.16921,0.04277 -0.331911,0.1069204 -0.488103,0.192452 l 0,-0.4741572 c 0.187802,-0.072515 0.370027,-0.1264388 0.546675,-0.1617713 0.176646,-0.037186 0.348644,-0.05578 0.515995,-0.055783 0.451842,3.2e-6 0.78933,0.1171478 1.012465,0.3514342 0.22313,0.2342921 0.334696,0.5894448 0.334699,1.0654592"
         inkscape:connector-curvature="0" /><path
         id="path3754"
         style="font-size:5.71220016px;fill:#f2f2f2;font-family:JUICELight"
         d="m 26.728523,-3.0039256 0,0.4797356 c -0.145039,-0.079953 -0.291005,-0.1394554 -0.437898,-0.1785063 -0.145039,-0.040905 -0.291934,-0.061359 -0.440687,-0.061361 -0.332842,2.8e-6 -0.591304,0.1059908 -0.775387,0.3179643 -0.184085,0.2101189 -0.276128,0.5057696 -0.276127,0.8869529 -1e-6,0.3811864 0.09204,0.67776685 0.276127,0.88974214 0.184083,0.2101172 0.442545,0.31517546 0.775387,0.31517511 0.148753,3.5e-7 0.295648,-0.0195238 0.440687,-0.0585724 0.146893,-0.0409072 0.292859,-0.10133897 0.437898,-0.18129541 l 0,0.47415724 c -0.143179,0.0669399 -0.291934,0.11714473 -0.446266,0.15061465 -0.152476,0.03346986 -0.315177,0.05020481 -0.488103,0.05020489 -0.470439,-8e-8 -0.844186,-0.14782543 -1.121242,-0.44347648 -0.277057,-0.29565033 -0.415585,-0.69449984 -0.415585,-1.19654974 0,-0.5094845 0.139458,-0.9101935 0.418374,-1.202128 0.280775,-0.2919291 0.664749,-0.437895 1.151923,-0.4378982 0.158051,3.2e-6 0.312384,0.016738 0.463001,0.050205 0.150612,0.031614 0.296578,0.079959 0.437898,0.1450363"
         inkscape:connector-curvature="0" /><path
         id="path3756"
         style="font-size:5.71220016px;fill:#f2f2f2;font-family:JUICELight"
         d="m 29.046316,-1.5702972 c -0.414657,1.6e-6 -0.70194,0.047417 -0.861851,0.1422472 -0.159912,0.094833 -0.239868,0.2566039 -0.239867,0.48531384 -10e-7,0.1822259 0.0595,0.32726208 0.178506,0.435109 0.120862,0.10598849 0.284493,0.15898248 0.490892,0.15898213 0.284493,3.5e-7 0.512274,-0.10040932 0.683344,-0.30122931 0.172926,-0.20267812 0.25939,-0.47136696 0.259392,-0.80606726 l 0,-0.1143556 -0.510416,0 m 1.023622,-0.2119762 0,1.7822734 -0.513206,0 0,-0.47415724 c -0.117147,0.18966318 -0.263113,0.33005077 -0.437898,0.4211632 -0.174789,0.08925309 -0.388624,0.13387961 -0.641507,0.13387969 -0.319824,-8e-8 -0.574568,-0.08925312 -0.76423,-0.26775939 -0.187803,-0.18036532 -0.281705,-0.42116258 -0.281705,-0.7223925 0,-0.35143296 0.117144,-0.61640286 0.351434,-0.79491066 0.236148,-0.1785044 0.587582,-0.2677574 1.054303,-0.2677594 l 0.719603,0 0,-0.050205 c -2e-6,-0.2361466 -0.0781,-0.4183716 -0.234289,-0.5466754 -0.154336,-0.1301581 -0.37189,-0.1952384 -0.652664,-0.1952412 -0.178507,2.8e-6 -0.352365,0.021386 -0.521573,0.064151 -0.16921,0.04277 -0.33191,0.1069204 -0.488103,0.192452 l 0,-0.4741572 c 0.187803,-0.072515 0.370028,-0.1264388 0.546676,-0.1617713 0.176645,-0.037186 0.348643,-0.05578 0.515994,-0.055783 0.451842,3.2e-6 0.78933,0.1171478 1.012466,0.3514342 0.22313,0.2342921 0.334696,0.5894448 0.334699,1.0654592"
         inkscape:connector-curvature="0" /><path
         id="path3758"
         style="font-size:5.71220016px;fill:#f2f2f2;font-family:JUICELight"
         d="m 32.340314,-2.7640578 c -0.275198,2.8e-6 -0.492753,0.1078502 -0.652663,0.3235426 -0.159913,0.2138378 -0.239869,0.5076291 -0.239868,0.8813746 -1e-6,0.3737487 0.07902,0.66846966 0.237079,0.88416382 0.15991,0.21383608 0.378394,0.32075378 0.655452,0.32075343 0.273336,3.5e-7 0.48996,-0.10784707 0.649875,-0.32354259 0.159909,-0.21569416 0.239865,-0.50948546 0.239867,-0.88137466 -2e-6,-0.3700266 -0.07996,-0.6628882 -0.239867,-0.8785854 -0.159915,-0.2175519 -0.376539,-0.326329 -0.649875,-0.3263318 m 0,-0.435109 c 0.446264,3.2e-6 0.796768,0.1450394 1.051514,0.435109 0.25474,0.2900751 0.382111,0.6917138 0.382115,1.2049172 -4e-6,0.5113471 -0.127375,0.91298579 -0.382115,1.20491725 -0.254746,0.29007273 -0.60525,0.43510892 -1.051514,0.435109 -0.448126,-8e-8 -0.79956,-0.14503627 -1.054302,-0.435109 -0.252885,-0.29193146 -0.379326,-0.69357015 -0.379326,-1.20491725 0,-0.5132034 0.126441,-0.9148421 0.379326,-1.2049172 0.254742,-0.2900696 0.606176,-0.4351058 1.054302,-0.435109"
         inkscape:connector-curvature="0" /><path
         id="path3760"
         style="font-size:5.71220016px;fill:#f2f2f2;font-family:JUICELight"
         d="m 38.431837,-3.0318172 0,0.4853139 c -0.145038,-0.074375 -0.295653,-0.1301581 -0.451844,-0.1673496 -0.156194,-0.037186 -0.317966,-0.05578 -0.485313,-0.055783 -0.254745,2.8e-6 -0.446267,0.039051 -0.574567,0.1171447 -0.126443,0.078099 -0.189664,0.1952437 -0.189663,0.3514342 -10e-7,0.1190064 0.04556,0.212908 0.136669,0.2817052 0.09111,0.066942 0.274266,0.1310924 0.549464,0.192452 l 0.175717,0.039048 c 0.364448,0.078098 0.62291,0.1887348 0.775387,0.3319101 0.154331,0.1413187 0.231497,0.3393489 0.2315,0.59409109 -3e-6,0.29007323 -0.115288,0.51971386 -0.345856,0.68892258 -0.228713,0.16920905 -0.543888,0.2538135 -0.945525,0.25381358 -0.167351,-8e-8 -0.342138,-0.01673503 -0.524362,-0.05020489 -0.180367,-0.0316104791 -0.370959,-0.07995587 -0.571778,-0.14503633 l 0,-0.52994044 c 0.189662,0.0985509 0.376536,0.1729284 0.560621,0.22313281 0.184084,0.0483458 0.366309,0.0725185 0.546675,0.0725182 0.241726,3.5e-7 0.42767,-0.0409073 0.557833,-0.12272305 0.130158,-0.0836743 0.195239,-0.20081886 0.195241,-0.35143419 -2e-6,-0.13945705 -0.04742,-0.24637476 -0.142247,-0.32075346 -0.09297,-0.074376 -0.298442,-0.1459648 -0.616405,-0.2147653 l -0.178506,-0.041837 c -0.317965,-0.066938 -0.547606,-0.1692075 -0.688923,-0.3068077 -0.141318,-0.1394561 -0.211976,-0.3300486 -0.211976,-0.5717778 0,-0.293789 0.104128,-0.5206405 0.312386,-0.6805551 0.208257,-0.1599087 0.503907,-0.2398646 0.886953,-0.2398678 0.189661,3.2e-6 0.368167,0.013949 0.535519,0.041837 0.167347,0.027895 0.321681,0.069732 0.463,0.1255122"
         inkscape:connector-curvature="0" /><path
         id="path3762"
         style="font-size:5.71220016px;fill:#f2f2f2;font-family:JUICELight"
         d="m 40.629697,-2.7640578 c -0.275198,2.8e-6 -0.492753,0.1078502 -0.652663,0.3235426 -0.159913,0.2138378 -0.239869,0.5076291 -0.239868,0.8813746 -1e-6,0.3737487 0.07903,0.66846966 0.237079,0.88416382 0.15991,0.21383608 0.378394,0.32075378 0.655452,0.32075343 0.273336,3.5e-7 0.48996,-0.10784707 0.649875,-0.32354259 0.159909,-0.21569416 0.239865,-0.50948546 0.239867,-0.88137466 -2e-6,-0.3700266 -0.07996,-0.6628882 -0.239867,-0.8785854 -0.159915,-0.2175519 -0.376539,-0.326329 -0.649875,-0.3263318 m 0,-0.435109 c 0.446264,3.2e-6 0.796768,0.1450394 1.051514,0.435109 0.25474,0.2900751 0.382111,0.6917138 0.382115,1.2049172 -4e-6,0.5113471 -0.127375,0.91298579 -0.382115,1.20491725 -0.254746,0.29007273 -0.60525,0.43510892 -1.051514,0.435109 -0.448126,-8e-8 -0.79956,-0.14503627 -1.054302,-0.435109 -0.252885,-0.29193146 -0.379327,-0.69357015 -0.379326,-1.20491725 -1e-6,-0.5132034 0.126441,-0.9148421 0.379326,-1.2049172 0.254742,-0.2900696 0.606176,-0.4351058 1.054302,-0.435109"
         inkscape:connector-curvature="0" /><path
         id="path3764"
         style="font-size:5.71220016px;fill:#f2f2f2;font-family:JUICELight"
         d="m 45.159296,-3.0039256 0,0.4797356 c -0.145039,-0.079953 -0.291005,-0.1394554 -0.437898,-0.1785063 -0.145039,-0.040905 -0.291934,-0.061359 -0.440688,-0.061361 -0.332841,2.8e-6 -0.591303,0.1059908 -0.775386,0.3179643 -0.184086,0.2101189 -0.276128,0.5057696 -0.276127,0.8869529 -10e-7,0.3811864 0.09204,0.67776685 0.276127,0.88974214 0.184083,0.2101172 0.442545,0.31517546 0.775386,0.31517511 0.148754,3.5e-7 0.295649,-0.0195238 0.440688,-0.0585724 0.146893,-0.0409072 0.292859,-0.10133897 0.437898,-0.18129541 l 0,0.47415724 c -0.14318,0.0669399 -0.291935,0.11714473 -0.446266,0.15061465 -0.152476,0.03346986 -0.315177,0.05020481 -0.488103,0.05020489 -0.47044,-8e-8 -0.844187,-0.14782543 -1.121242,-0.44347648 C 42.826628,-0.65824116 42.6881,-1.0570907 42.6881,-1.5591406 c 0,-0.5094845 0.139457,-0.9101935 0.418374,-1.202128 0.280774,-0.2919291 0.664748,-0.437895 1.151923,-0.4378982 0.15805,3.2e-6 0.312384,0.016738 0.463001,0.050205 0.150612,0.031614 0.296578,0.079959 0.437898,0.1450363"
         inkscape:connector-curvature="0" /><path
         id="path3766"
         style="font-size:5.71220016px;fill:#f2f2f2;font-family:JUICELight"
         d="m 46.057404,-3.1238595 0.513206,0 0,3.1238595 -0.513206,0 0,-3.1238595 m 0,-1.2160738 0.513206,0 0,0.6498743 -0.513206,0 0,-0.6498743"
         inkscape:connector-curvature="0" /><path
         id="path3768"
         style="font-size:5.71220016px;fill:#f2f2f2;font-family:JUICELight"
         d="m 49.061331,-1.5702972 c -0.414657,1.6e-6 -0.70194,0.047417 -0.861851,0.1422472 -0.159913,0.094833 -0.239869,0.2566039 -0.239868,0.48531384 -10e-7,0.1822259 0.0595,0.32726208 0.178507,0.435109 0.120862,0.10598849 0.284493,0.15898248 0.490892,0.15898213 0.284492,3.5e-7 0.512274,-0.10040932 0.683344,-0.30122931 0.172926,-0.20267812 0.259389,-0.47136696 0.259392,-0.80606726 l 0,-0.1143556 -0.510416,0 m 1.023621,-0.2119762 0,1.7822734 -0.513205,0 0,-0.47415724 c -0.117147,0.18966318 -0.263113,0.33005077 -0.437898,0.4211632 -0.174789,0.08925309 -0.388625,0.13387961 -0.641507,0.13387969 -0.319825,-8e-8 -0.574568,-0.08925312 -0.76423,-0.26775939 -0.187804,-0.18036532 -0.281705,-0.42116258 -0.281705,-0.7223925 0,-0.35143296 0.117144,-0.61640286 0.351434,-0.79491066 0.236148,-0.1785044 0.587582,-0.2677574 1.054303,-0.2677594 l 0.719603,0 0,-0.050205 c -3e-6,-0.2361466 -0.0781,-0.4183716 -0.23429,-0.5466754 -0.154335,-0.1301581 -0.371889,-0.1952384 -0.652663,-0.1952412 -0.178508,2.8e-6 -0.352365,0.021386 -0.521573,0.064151 -0.16921,0.04277 -0.331911,0.1069204 -0.488103,0.192452 l 0,-0.4741572 c 0.187803,-0.072515 0.370028,-0.1264388 0.546675,-0.1617713 0.176646,-0.037186 0.348644,-0.05578 0.515995,-0.055783 0.451842,3.2e-6 0.78933,0.1171478 1.012465,0.3514342 0.22313,0.2342921 0.334696,0.5894448 0.334699,1.0654592"
         inkscape:connector-curvature="0" /><path
         id="path3770"
         style="font-size:5.71220016px;fill:#f2f2f2;font-family:JUICELight"
         d="m 51.144833,-4.3399333 0.513206,0 0,4.3399333 -0.513206,0 0,-4.3399333"
         inkscape:connector-curvature="0" /></g></g><g
     id="g3713"><defs
       id="defs3715"><rect
         id="SVGID_123_"
         x="-205.66701"
         y="-3782.3101"
         width="1380.1379"
         height="4002.6411" /></defs><clipPath
       id="SVGID_46_"><use
         xlink:href="#SVGID_123_"
         overflow="visible"
         id="use3719"
         style="overflow:visible"
         x="0"
         y="0"
         width="362"
         height="102" /></clipPath></g><g
     id="g3721"><defs
       id="defs3723"><rect
         id="SVGID_125_"
         x="-205.66701"
         y="-3782.3101"
         width="1380.1379"
         height="4002.6411" /></defs><clipPath
       id="SVGID_47_"><use
         xlink:href="#SVGID_125_"
         overflow="visible"
         id="use3727"
         style="overflow:visible"
         x="0"
         y="0"
         width="362"
         height="102" /></clipPath></g><rect
     x="-205.66701"
     y="-3782.3091"
     width="1380.14"
     height="4002.6399"
     id="rect3729"
     style="fill:none" /></svg>