<?xml version="1.0" encoding="utf-8"?>
<!-- Generator: Adobe Illustrator 16.0.0, SVG Export Plug-In . SVG Version: 6.00 Build 0)  -->
<!DOCTYPE svg PUBLIC "-//W3C//DTD SVG 1.1//EN" "http://www.w3.org/Graphics/SVG/1.1/DTD/svg11.dtd">
<svg version="1.1" id="Layer_1" xmlns="http://www.w3.org/2000/svg" xmlns:xlink="http://www.w3.org/1999/xlink" x="0px" y="0px"
	 width="362px" height="102px" viewBox="0 0 362 102" enable-background="new 0 0 362 102" xml:space="preserve">
<g>
	<defs>
		<rect id="SVGID_40_" x="-205.667" y="-3782.31" width="1380.138" height="4002.641"/>
	</defs>
	<clipPath id="SVGID_2_">
		<use xlink:href="#SVGID_40_"  overflow="visible"/>
	</clipPath>
</g>
<g>
	<defs>
		<rect id="SVGID_49_" x="-205.667" y="-3782.31" width="1380.138" height="4002.641"/>
	</defs>
	<clipPath id="SVGID_4_">
		<use xlink:href="#SVGID_49_"  overflow="visible"/>
	</clipPath>
	<g opacity="0.75" clip-path="url(#SVGID_4_)">
		<g>
			<defs>
				<rect id="SVGID_51_" x="-434.565" y="-2860.389" width="1947.198" height="3018.198"/>
			</defs>
			<clipPath id="SVGID_6_">
				<use xlink:href="#SVGID_51_"  overflow="visible"/>
			</clipPath>
			<g opacity="0.35" clip-path="url(#SVGID_6_)">
				<g>
					<defs>
						<rect id="SVGID_55_" x="-434.565" y="-762.386" width="1785.198" height="920.195"/>
					</defs>
					<clipPath id="SVGID_7_">
						<use xlink:href="#SVGID_55_"  overflow="visible"/>
					</clipPath>
					<path clip-path="url(#SVGID_7_)" fill="none" stroke="#32436B" stroke-width="3" stroke-miterlimit="10" d="M296.067-379.643
						c8.623,16.157,13.219,36.434,21.547,51.968c10.104,18.864,21.575,31.672,31.416,52.847
						c14.034,30.146,26.129,65.901,41.68,92.284c18.09,30.706,32.32,69.992,47.959,108.242
						c13.752,33.609,33.479,53.765,45.148,89.478c11.523,35.264,14.449,1.287,16.63-33.609
						c9.064-144.244,24.101-287.877,30.52-431.946c-33.376,15.875-66.744,20.383-100.408,31.048
						c-11.116,3.53-22.15,8.385-33.244,10.68c-14.556,2.994-28.944,12.388-43.597,13.969c-12.747,1.378-25.478,5.969-38.185,8.436
						c-6.563,1.291-12.678,7.645-18.902,8.409"/>
				</g>
			</g>
		</g>
	</g>
</g>
<g>
	<defs>
		<rect id="SVGID_59_" x="-205.667" y="-3782.31" width="1380.138" height="4002.641"/>
	</defs>
	<clipPath id="SVGID_8_">
		<use xlink:href="#SVGID_59_"  overflow="visible"/>
	</clipPath>
</g>
<g>
	<defs>
		<rect id="SVGID_61_" x="-205.667" y="-3782.31" width="1380.138" height="4002.641"/>
	</defs>
	<clipPath id="SVGID_9_">
		<use xlink:href="#SVGID_61_"  overflow="visible"/>
	</clipPath>
</g>
<g>
	<defs>
		<rect id="SVGID_63_" x="-205.667" y="-3782.31" width="1380.138" height="4002.641"/>
	</defs>
	<clipPath id="SVGID_11_">
		<use xlink:href="#SVGID_63_"  overflow="visible"/>
	</clipPath>
</g>
<g>
	<defs>
		<rect id="SVGID_69_" x="-205.667" y="-3782.31" width="1380.138" height="4002.641"/>
	</defs>
	<clipPath id="SVGID_13_">
		<use xlink:href="#SVGID_69_"  overflow="visible"/>
	</clipPath>
</g>
<g>
	<defs>
		<rect id="SVGID_73_" x="-205.667" y="-3782.31" width="1380.138" height="4002.641"/>
	</defs>
	<clipPath id="SVGID_15_">
		<use xlink:href="#SVGID_73_"  overflow="visible"/>
	</clipPath>
</g>
<g>
	<defs>
		<rect id="SVGID_75_" x="-205.667" y="-3782.31" width="1380.138" height="4002.641"/>
	</defs>
	<clipPath id="SVGID_17_">
		<use xlink:href="#SVGID_75_"  overflow="visible"/>
	</clipPath>
</g>
<g>
	<defs>
		<rect id="SVGID_81_" x="-205.667" y="-3782.31" width="1380.138" height="4002.641"/>
	</defs>
	<clipPath id="SVGID_19_">
		<use xlink:href="#SVGID_81_"  overflow="visible"/>
	</clipPath>
</g>
<g>
	<defs>
		<rect id="SVGID_85_" x="-205.667" y="-3782.31" width="1380.138" height="4002.641"/>
	</defs>
	<clipPath id="SVGID_21_">
		<use xlink:href="#SVGID_85_"  overflow="visible"/>
	</clipPath>
</g>
<g>
	<defs>
		<rect id="SVGID_87_" x="-205.667" y="-3782.31" width="1380.138" height="4002.641"/>
	</defs>
	<clipPath id="SVGID_23_">
		<use xlink:href="#SVGID_87_"  overflow="visible"/>
	</clipPath>
</g>
<g>
	<defs>
		<rect id="SVGID_89_" x="-205.667" y="-3782.31" width="1380.138" height="4002.641"/>
	</defs>
	<clipPath id="SVGID_25_">
		<use xlink:href="#SVGID_89_"  overflow="visible"/>
	</clipPath>
</g>
<g>
	<defs>
		<rect id="SVGID_91_" x="-205.667" y="-3782.31" width="1380.138" height="4002.641"/>
	</defs>
	<clipPath id="SVGID_27_">
		<use xlink:href="#SVGID_91_"  overflow="visible"/>
	</clipPath>
</g>
<g>
	<defs>
		<rect id="SVGID_93_" x="-205.667" y="-3782.31" width="1380.138" height="4002.641"/>
	</defs>
	<clipPath id="SVGID_29_">
		<use xlink:href="#SVGID_93_"  overflow="visible"/>
	</clipPath>
</g>
<g>
	<defs>
		<rect id="SVGID_97_" x="-205.667" y="-3782.31" width="1380.138" height="4002.641"/>
	</defs>
	<clipPath id="SVGID_31_">
		<use xlink:href="#SVGID_97_"  overflow="visible"/>
	</clipPath>
</g>
<g>
	<defs>
		<rect id="SVGID_101_" x="-205.667" y="-3782.31" width="1380.138" height="4002.641"/>
	</defs>
	<clipPath id="SVGID_33_">
		<use xlink:href="#SVGID_101_"  overflow="visible"/>
	</clipPath>
</g>
<g>
	<defs>
		<rect id="SVGID_105_" x="-205.667" y="-3782.31" width="1380.138" height="4002.641"/>
	</defs>
	<clipPath id="SVGID_35_">
		<use xlink:href="#SVGID_105_"  overflow="visible"/>
	</clipPath>
</g>
<g>
	<defs>
		<rect id="SVGID_111_" x="-205.667" y="-3782.31" width="1380.138" height="4002.641"/>
	</defs>
	<clipPath id="SVGID_37_">
		<use xlink:href="#SVGID_111_"  overflow="visible"/>
	</clipPath>
</g>
<g>
	<defs>
		<rect id="SVGID_115_" x="-205.667" y="-3782.31" width="1380.138" height="4002.641"/>
	</defs>
	<clipPath id="SVGID_39_">
		<use xlink:href="#SVGID_115_"  overflow="visible"/>
	</clipPath>
</g>
<g>
	<defs>
		<rect id="SVGID_117_" x="-205.667" y="-3782.31" width="1380.138" height="4002.641"/>
	</defs>
	<clipPath id="SVGID_41_">
		<use xlink:href="#SVGID_117_"  overflow="visible"/>
	</clipPath>
</g>
<g>
	<defs>
		<rect id="SVGID_119_" x="-205.667" y="-3782.31" width="1380.138" height="4002.641"/>
	</defs>
	<clipPath id="SVGID_43_">
		<use xlink:href="#SVGID_119_"  overflow="visible"/>
	</clipPath>
	<path clip-path="url(#SVGID_43_)" fill="none" stroke="#F2F2F2" stroke-width="0.729" stroke-miterlimit="10" d="M248.232,78.318
		c0.468-0.031,0.794-0.422,1.301-1.049c1.626-2.012,2.334-3.921,3.583-6.611c0,0,1.002-2.301,0.273-4.41
		c-1.09-3.149-4.012-10.393-5.122-13.788c-0.347-1.059-0.506-1.422-0.786-1.462c-0.281,0.041-0.363,0.404-0.71,1.462
		c-1.111,3.396-4.031,10.639-5.121,13.788c-0.73,2.109,0.272,4.41,0.272,4.41c1.45,2.69,2.157,4.737,3.582,6.611
		c0.498,0.654,0.849,1.025,1.325,1.049H248.232z"/>
	<path clip-path="url(#SVGID_43_)" fill="none" stroke="#F2F2F2" stroke-width="0.783" stroke-miterlimit="10" d="M264.019,34.282
		c-4.094-12.912-12.755-19.998-14.015-20.943c-1.044-0.794-1.743-1.251-2.262-1.335c-0.01-0.002-0.015-0.006-0.024-0.009
		c-0.061-0.013-0.121-0.021-0.182-0.026c-0.005-0.001-0.012,0.003-0.017,0.003c-0.005,0-0.012-0.004-0.017-0.003
		c-0.061,0.005-0.121,0.014-0.182,0.026c-0.009,0.003-0.014,0.007-0.023,0.009c-0.519,0.084-1.219,0.541-2.263,1.335
		c-1.26,0.945-9.921,8.031-14.015,20.943c-4.094,12.912,1.102,29.604,1.89,31.493c0.787,1.891,2.677,1.732,2.677,1.732h3.733
		c0,0,0-0.631,0.63-3.151c0.63-2.519,5.094-13.698,5.094-13.698s0.56-1.11,1.462-1.628c0.757-0.184,1.014-0.197,1.014-0.197
		s0.131-0.02,1.014,0.197c0.901,0.518,1.463,1.628,1.463,1.628s4.422,11.18,5.053,13.698c0.63,2.521,0.63,3.151,0.63,3.151h3.773
		c0,0,1.89,0.158,2.677-1.732C262.917,63.887,268.112,47.194,264.019,34.282z"/>
	<path clip-path="url(#SVGID_43_)" fill="none" stroke="#F2F2F2" stroke-width="0.783" stroke-miterlimit="10" d="M227.311,51.761
		c0,0,1.667,12.645,4.89,16.691c0,0-6.833,1.534-4.471,8.306c0,0-2.204,1.574-3.307-0.473c-1.101-2.047,0.22,0.199-2.93-5.627
		c0,0-1.158-2.301-0.315-4.41c1.259-3.149,2.826-10.393,4.11-13.788C226.354,49.637,227.311,51.761,227.311,51.761z"/>
	<path clip-path="url(#SVGID_43_)" fill="none" stroke="#F2F2F2" stroke-width="0.783" stroke-miterlimit="10" d="M267.397,51.761
		c0,0-1.667,12.645-4.89,16.691c0,0,6.833,1.534,4.471,8.306c0,0,2.204,1.574,3.307-0.473c1.102-2.047-0.22,0.199,2.93-5.627
		c0,0,1.158-2.301,0.315-4.41c-1.259-3.149-2.826-10.393-4.11-13.788C268.354,49.637,267.397,51.761,267.397,51.761z"/>
	
		<circle clip-path="url(#SVGID_43_)" fill="none" stroke="#F2F2F2" stroke-width="0.783" stroke-miterlimit="10" cx="247.657" cy="23.344" r="2.691"/>
	<path clip-path="url(#SVGID_43_)" fill="none" stroke="#F2F2F2" stroke-width="0.783" stroke-miterlimit="10" d="M238.941,37.099
		c-1.109,2.715-1.852,5.511-2.114,8.896"/>
	<path clip-path="url(#SVGID_43_)" fill="none" stroke="#F2F2F2" stroke-width="0.783" stroke-miterlimit="10" d="M245.567,25.407
		c-1.366,1.586-3.745,4.135-5.276,7.822"/>
	<path clip-path="url(#SVGID_43_)" fill="none" stroke="#F2F2F2" stroke-width="0.783" stroke-miterlimit="10" d="M241.741,35.201
		c0,1.146-0.929,2.075-2.075,2.075c-0.287-0.001-0.56-0.059-0.809-0.164c-0.743-0.316-1.265-1.052-1.265-1.911
		c0-1.145,0.929-2.074,2.074-2.074C240.812,33.127,241.741,34.057,241.741,35.201z"/>
	
		<circle clip-path="url(#SVGID_43_)" fill="none" stroke="#F2F2F2" stroke-width="0.783" stroke-miterlimit="10" cx="236.809" cy="47.627" r="1.705"/>
	<path clip-path="url(#SVGID_43_)" fill="#F2F2F2" d="M281.293,54.032l0.835-0.068c0.395-0.024,0.603-0.186,0.603-0.648V42.532
		l-1.321-0.067v-1.972h4.173l6.561,10.642h0.047v-8.603l-1.53-0.067v-1.972h5.657v1.877l-0.835,0.069
		c-0.348,0.025-0.555,0.232-0.555,0.72V55.91h-2.715l-6.697-10.802h-0.05v8.761l1.508,0.07v1.971h-5.681V54.032z"/>
	<path clip-path="url(#SVGID_43_)" fill="#F2F2F2" d="M309.95,55.91h-3.755v-1.506c-0.813,1.159-2.226,1.809-3.756,1.809
		c-2.318,0-3.593-1.277-3.593-4.01v-5.358c0-0.486-0.185-0.625-0.581-0.648l-0.741-0.047v-1.902h4.08v7.352
		c0,1.414,0.232,2.481,1.717,2.481c1.62,0,2.48-1.091,2.48-2.296v-4.894c0-0.511-0.139-0.671-0.58-0.694l-0.741-0.047v-1.902h4.08
		v9.091c0,0.509,0.139,0.626,0.58,0.672l0.81,0.07V55.91z M304.317,37.689l1.089,0.508c0.952,0.439,0.764,1.184,0.096,1.832
		l-2.969,2.875l-0.906-0.767L304.317,37.689z"/>
	<path clip-path="url(#SVGID_43_)" fill="#F2F2F2" d="M319.828,53.106l0.996,1.784c-0.904,0.741-2.319,1.344-4.033,1.344
		c-3.408,0-5.426-2.154-5.426-6.005c0-4.705,2.901-6.328,5.519-6.328c1.39,0,2.503,0.346,3.616,0.951v3.013l-2.133,0.162v-1.112
		c0-0.439-0.07-0.648-0.486-0.789c-0.279-0.092-0.559-0.139-0.905-0.139c-1.853,0-2.806,1.391-2.806,3.966
		c0,2.528,0.93,4.148,2.992,4.148C318.065,54.102,318.877,53.8,319.828,53.106"/>
	<path clip-path="url(#SVGID_43_)" fill="#F2F2F2" d="M326.435,53.985l1.321,0.071v1.854h-5.517v-1.76l0.764-0.07
		c0.418-0.048,0.674-0.185,0.674-0.743V41.906c0-0.417-0.233-0.532-0.58-0.556l-0.811-0.046v-1.924h4.149V53.985z"/>
	<path clip-path="url(#SVGID_43_)" fill="#F2F2F2" d="M338.792,47.125c0,3.568-3.874,4.172-6.607,4.195
		c0.094,1.505,0.88,2.735,2.852,2.735c1.367,0,2.364-0.624,2.918-1.021l0.882,1.881c-0.37,0.323-1.9,1.298-4.08,1.298
		c-3.941,0-5.471-2.412-5.471-5.867c0-3.43,1.925-6.444,5.728-6.444C337.287,43.901,338.792,45.061,338.792,47.125 M334.851,45.871
		c-1.855,0-2.69,1.785-2.758,3.503c1.716-0.024,4.149-0.418,4.149-2.202C336.242,46.312,335.688,45.871,334.851,45.871"/>
	<path clip-path="url(#SVGID_43_)" fill="#F2F2F2" d="M345.7,43.9c1.715,0,5.17,0.533,5.17,5.867c0,4.45-2.484,6.49-5.541,6.49
		c-3.104,0-5.146-1.994-5.146-6.19C340.183,45.247,343.313,43.9,345.7,43.9 M348.041,50.139c0-2.598-0.626-4.199-2.479-4.199
		c-1.834,0-2.575,1.578-2.575,3.804c0,2.155,0.301,4.475,2.527,4.475C347.319,54.218,348.041,52.549,348.041,50.139"/>
	<path clip-path="url(#SVGID_43_)" fill="#F2F2F2" d="M281.537,73.354l0.766-0.069c0.394-0.048,0.67-0.188,0.67-0.65V61.855
		l-1.319-0.07v-1.972h6.353c4.427,0,7.233,2.343,7.233,7.165c0,6.073-3.386,8.254-7.118,8.254h-6.585V73.354z M285.802,73.006h2.366
		c2.599,0,4.218-1.899,4.218-5.609c0-4.174-2.015-5.334-4.518-5.334h-2.066V73.006z"/>
	<path clip-path="url(#SVGID_43_)" fill="#F2F2F2" d="M301.129,73.306l1.32,0.07v1.856h-5.516v-1.764l0.764-0.067
		c0.417-0.047,0.671-0.186,0.671-0.744v-6.445c0-0.509-0.137-0.672-0.578-0.672l-0.811-0.046v-1.925h4.15V73.306z M299.506,58.609
		c1.02,0,1.762,0.764,1.762,1.737c0,0.976-0.742,1.694-1.785,1.694c-1.067,0-1.763-0.719-1.763-1.694
		C297.72,59.373,298.416,58.609,299.506,58.609"/>
	<path clip-path="url(#SVGID_43_)" fill="#F2F2F2" d="M304.396,79.428v-3.223l2.203-0.186v1.113c0,0.44,0.115,0.671,0.532,0.834
		c0.442,0.163,0.953,0.232,1.648,0.232c2.13,0,2.691-1.461,2.691-3.409v-1.274c-0.789,0.929-1.95,1.301-3.086,1.301
		c-3.386,0-4.543-2.785-4.543-5.429c0-4.196,2.526-6.165,6.028-6.165c1.112,0,2.92,0.277,4.289,0.856v8.6
		c0,0.814,0.021,1.695-0.047,2.53c-0.279,3.407-1.879,4.984-5.356,4.984C307.294,80.193,305.371,79.914,304.396,79.428
		 M311.47,65.518c-0.536-0.184-1.207-0.279-1.859-0.279c-1.921,0-2.917,1.531-2.917,3.872c0,1.578,0.253,3.666,2.409,3.666
		c1.299,0,2.367-0.859,2.367-2.274V65.518z"/>
	<path clip-path="url(#SVGID_43_)" fill="#F2F2F2" d="M320.604,73.306l1.321,0.07v1.856h-5.516v-1.764l0.763-0.067
		c0.417-0.047,0.673-0.186,0.673-0.744v-6.445c0-0.509-0.139-0.672-0.579-0.672l-0.813-0.046v-1.925h4.151V73.306z M318.981,58.609
		c1.021,0,1.762,0.764,1.762,1.737c0,0.976-0.741,1.694-1.786,1.694c-1.067,0-1.76-0.719-1.76-1.694
		C317.197,59.373,317.891,58.609,318.981,58.609"/>
	<path clip-path="url(#SVGID_43_)" fill="#F2F2F2" d="M327.349,61.112v2.457h3.086l-0.232,1.948h-2.854v6.096
		c0,1.415,0.557,1.832,1.508,1.832c0.627,0,1.206-0.254,1.578-0.485l0.694,1.784c-0.694,0.488-1.853,0.812-2.941,0.812
		c-3.618,0-3.597-2.226-3.597-3.849v-6.19h-1.646l0.234-1.691c1.622-0.141,2.179-1.393,2.666-2.714H327.349z"/>
	<path clip-path="url(#SVGID_43_)" fill="#F2F2F2" d="M342.417,72.657c0,0.512,0.139,0.649,0.579,0.674l0.743,0.045v1.856h-3.685
		v-1.345l-0.069-0.023c-0.718,1.042-1.901,1.669-3.174,1.669c-3.269,0-4.637-2.317-4.637-5.635c0-4.08,1.947-6.675,6.118-6.675
		c0.767,0,2.458,0.186,4.125,0.81V72.657z M339.729,65.54c-0.347-0.163-1.066-0.302-1.783-0.302c-2.202,0-2.943,2.063-2.943,4.57
		c0,1.923,0.464,3.753,2.41,3.753c1.436,0,2.316-1.02,2.316-2.015V65.54z"/>
	<path clip-path="url(#SVGID_43_)" fill="#F2F2F2" d="M349.302,73.307l1.322,0.069v1.856h-5.518V73.47l0.764-0.068
		c0.417-0.047,0.673-0.186,0.673-0.744V61.229c0-0.418-0.23-0.532-0.579-0.557l-0.811-0.045v-1.926h4.149V73.307z"/>
	<path clip-path="url(#SVGID_43_)" fill="none" stroke="#F2F2F2" stroke-width="0.783" stroke-miterlimit="10" d="M238.609,69.63
		h-2.618c0,0-1.578-0.12-1.227,1.229c0,0,0.568,1.968,1.001,2.738c0.276,0.492,0.866,1.95,3.105,1.95h2.96
		c0,0-0.75-1.564-1.423-3.085C239.772,71.026,239.23,69.63,238.609,69.63z"/>
	<path clip-path="url(#SVGID_43_)" fill="none" stroke="#F2F2F2" stroke-width="0.783" stroke-miterlimit="10" d="M256.454,69.63
		h2.618c0,0,1.578-0.12,1.227,1.229c0,0-0.568,1.968-1.001,2.738c-0.276,0.492-0.866,1.95-3.105,1.95h-2.96
		c0,0,0.75-1.564,1.423-3.085C255.291,71.026,255.833,69.63,256.454,69.63z"/>
	<path clip-path="url(#SVGID_43_)" fill="none" stroke="#F2F2F2" stroke-width="0.5" stroke-miterlimit="10" d="M141.978,69.87
		c-0.445-0.235-0.86-0.292-1.287-0.521c-0.518-0.274-0.976-0.645-1.522-0.897c-0.779-0.356-1.604-0.611-2.36-1.055
		c-0.881-0.515-1.806-0.827-2.747-1.201c-0.829-0.332-1.582-0.972-2.395-1.209c-0.805-0.233-0.346-0.55,0.141-0.846
		c2.016-1.216,3.887-2.663,5.961-3.776c0.508,1.386,1.191,2.702,1.786,4.067c0.196,0.451,0.37,0.907,0.586,1.349
		c0.28,0.581,0.461,1.195,0.768,1.771c0.266,0.5,0.481,1.018,0.73,1.526c0.127,0.261,0.167,0.534,0.297,0.781"/>
	<path clip-path="url(#SVGID_43_)" fill="none" stroke="#F2F2F2" stroke-width="0.5" stroke-miterlimit="10" d="M135.729,54.386
		c-0.525,0.793-0.711,1.461-1.218,2.225c-0.615,0.927-1.383,1.8-1.958,2.761c-0.819,1.37-1.454,2.762-2.42,4.132
		c-1.127,1.595-1.892,3.17-2.772,4.797c-0.774,1.43-2.106,2.887-2.705,4.252c-0.593,1.349-1.083,0.781-1.524,0.156
		c-1.822-2.583-4.093-4.841-5.714-7.557c2.648-1.407,5.205-3.054,7.833-4.585c0.867-0.505,1.74-0.979,2.596-1.509
		c1.125-0.696,2.286-1.249,3.407-1.982c0.973-0.635,1.97-1.202,2.951-1.812c0.507-0.316,1.02-0.5,1.494-0.81"/>
	<path clip-path="url(#SVGID_43_)" fill="none" stroke="#F2F2F2" stroke-width="0.5" stroke-miterlimit="10" d="M150.708,59.968
		c0.125,0.364,0.287,0.604,0.407,0.957c0.146,0.424,0.242,0.876,0.408,1.301c0.235,0.607,0.519,1.173,0.723,1.817
		c0.236,0.751,0.546,1.401,0.846,2.099c0.264,0.613,0.414,1.378,0.697,1.926c0.279,0.542-0.002,0.507-0.289,0.442
		c-1.186-0.269-2.372-0.324-3.556-0.682c0.156-1.095,0.22-2.232,0.333-3.357c0.038-0.371,0.087-0.734,0.114-1.109
		c0.036-0.493,0.124-0.955,0.148-1.457c0.022-0.435,0.069-0.857,0.099-1.288c0.016-0.224,0.073-0.409,0.084-0.622"/>
	<path clip-path="url(#SVGID_43_)" fill="none" stroke="#F2F2F2" stroke-width="0.5" stroke-miterlimit="10" d="M159.438,61.972
		c-0.824-0.079-1.706,0.142-2.5,0.062c-0.963-0.097-1.732-0.402-2.777-0.433c-1.488-0.044-3.14,0.139-4.523-0.069
		c-1.61-0.243-3.448-0.09-5.284-0.034c-1.612,0.048-2.862-0.519-4.504-0.313c-1.62,0.201-0.405-0.722,0.863-1.626
		c5.241-3.74,10.312-7.779,15.612-11.38c0.222,2.094,0.874,3.928,1.301,5.915c0.139,0.657,0.228,1.34,0.414,1.968
		c0.247,0.822,0.245,1.782,0.547,2.579c0.262,0.692,0.402,1.458,0.622,2.172c0.112,0.371,0.023,0.832,0.147,1.172"/>
	<path clip-path="url(#SVGID_43_)" fill="none" stroke="#F2F2F2" stroke-width="0.5" stroke-miterlimit="10" d="M160.219,63.094
		c-0.812-0.09-1.675,0.118-2.457,0.029c-0.947-0.106-1.705-0.419-2.731-0.462c-1.463-0.063-3.085,0.1-4.445-0.125
		c-1.585-0.261-3.39-0.13-5.193-0.099c-1.583,0.029-2.817-0.549-4.426-0.365c-1.591,0.181-0.406-0.722,0.832-1.604
		c5.114-3.654,10.06-7.604,15.233-11.117c0.238,2.081,0.895,3.911,1.332,5.893c0.144,0.654,0.237,1.334,0.427,1.96
		c0.249,0.821,0.256,1.774,0.56,2.569c0.263,0.691,0.409,1.453,0.632,2.165c0.113,0.37,0.03,0.827,0.154,1.166"/>
	<path clip-path="url(#SVGID_43_)" fill="none" stroke="#F2F2F2" stroke-width="0.5" stroke-miterlimit="10" d="M149.657,60.351
		c0.126,0.365,0.287,0.605,0.408,0.956c0.146,0.428,0.242,0.877,0.408,1.304c0.235,0.606,0.518,1.172,0.722,1.815
		c0.237,0.753,0.547,1.403,0.847,2.101c0.264,0.611,0.413,1.378,0.697,1.926c0.279,0.542-0.001,0.506-0.289,0.44
		c-1.186-0.267-2.373-0.323-3.556-0.681c0.156-1.095,0.219-2.233,0.333-3.357c0.037-0.37,0.085-0.734,0.113-1.109
		c0.036-0.493,0.123-0.954,0.149-1.456c0.021-0.437,0.068-0.859,0.098-1.289c0.017-0.223,0.073-0.409,0.084-0.622"/>
	<path clip-path="url(#SVGID_43_)" fill="none" stroke="#F2F2F2" stroke-width="0.5" stroke-miterlimit="10" d="M86.395,60.334
		c0.805-0.169,1.437-0.57,2.214-0.733c0.941-0.198,1.861-0.189,2.825-0.456c1.375-0.38,2.735-0.966,4.136-1.199
		c1.632-0.271,3.18-0.886,4.795-1.433c1.421-0.48,2.967-0.42,4.297-1.019c1.315-0.592,0.898,0.405,0.419,1.404
		c-1.975,4.131-3.576,8.427-5.708,12.472c-1.743-1.439-3.682-2.575-5.533-3.884c-0.609-0.432-1.193-0.897-1.824-1.296
		c-0.829-0.523-1.535-1.212-2.395-1.7c-0.748-0.425-1.435-0.934-2.162-1.387c-0.374-0.235-0.634-0.591-0.997-0.8"/>
	<path clip-path="url(#SVGID_43_)" fill="none" stroke="#F2F2F2" stroke-width="0.5" stroke-miterlimit="10" d="M35.462,70.758
		c0.009,0.385,0.115,0.663,0.124,1.035c0.011,0.45-0.053,0.909-0.018,1.365c0.049,0.649,0.175,1.273,0.168,1.949
		c-0.008,0.788,0.117,1.503,0.212,2.26c0.083,0.663-0.041,1.438,0.092,2.047c0.13,0.601-0.208,0.481-0.544,0.331
		c-1.385-0.619-2.856-1.04-4.2-1.744c0.642-0.993,1.186-2.058,1.788-3.092c0.197-0.341,0.407-0.673,0.594-1.021
		c0.246-0.457,0.546-0.87,0.781-1.34c0.205-0.408,0.437-0.795,0.651-1.196c0.111-0.207,0.258-0.367,0.359-0.565"/>
	<path clip-path="url(#SVGID_43_)" fill="none" stroke="#F2F2F2" stroke-width="0.5" stroke-miterlimit="10" d="M72.012,70.919
		c0.251-0.648,0.256-1.248,0.497-1.872c0.294-0.758,0.725-1.432,0.978-2.23c0.363-1.139,0.572-2.333,1.053-3.441
		c0.561-1.293,0.833-2.635,1.189-4.005c0.313-1.205,1.07-2.322,1.256-3.501c0.183-1.163,0.702-0.526,1.194,0.157
		c2.033,2.819,4.356,5.42,6.257,8.328c-1.829,0.806-3.533,1.858-5.32,2.789c-0.589,0.306-1.19,0.58-1.765,0.913
		c-0.755,0.438-1.571,0.729-2.316,1.201c-0.647,0.409-1.328,0.748-1.985,1.133c-0.339,0.198-0.713,0.271-1.03,0.47"/>
	<path clip-path="url(#SVGID_43_)" fill="none" stroke="#F2F2F2" stroke-width="0.5" stroke-miterlimit="10" d="M92.678,65.515
		c-0.127,0.268-0.147,0.524-0.269,0.784c-0.149,0.312-0.351,0.584-0.486,0.916c-0.189,0.475-0.315,0.979-0.554,1.435
		c-0.277,0.532-0.435,1.098-0.629,1.671c-0.17,0.506-0.526,0.953-0.642,1.453c-0.115,0.492-0.314,0.195-0.502-0.121
		c-0.777-1.305-1.682-2.528-2.399-3.865c0.802-0.265,1.558-0.643,2.346-0.964c0.259-0.104,0.524-0.198,0.777-0.314
		c0.335-0.154,0.691-0.244,1.022-0.413c0.287-0.148,0.587-0.264,0.879-0.4c0.15-0.07,0.31-0.086,0.451-0.156"/>
	<path clip-path="url(#SVGID_43_)" fill="none" stroke="#F2F2F2" stroke-width="0.5" stroke-miterlimit="10" d="M59.601,75.681
		c-0.044-0.793-0.346-1.571-0.388-2.335c-0.051-0.928,0.101-1.719-0.018-2.708c-0.164-1.408-0.539-2.922-0.554-4.268
		c-0.016-1.568-0.392-3.263-0.687-4.975c-0.257-1.505,0.043-2.807-0.348-4.303c-0.388-1.479,0.541-0.543,1.465,0.448
		c3.814,4.089,7.851,7.951,11.556,12.13c-1.707,0.677-3.14,1.699-4.732,2.544c-0.526,0.278-1.08,0.515-1.575,0.831
		c-0.652,0.414-1.449,0.628-2.068,1.09c-0.539,0.401-1.153,0.703-1.719,1.07c-0.291,0.188-0.686,0.208-0.951,0.4"/>
	<path clip-path="url(#SVGID_43_)" fill="none" stroke="#F2F2F2" stroke-width="0.5" stroke-miterlimit="10" d="M58.502,64.039
		c-0.441,0.212-0.767,0.546-1.192,0.749c-0.514,0.245-1.032,0.359-1.555,0.652c-0.747,0.417-1.467,0.964-2.239,1.291
		c-0.898,0.382-1.723,0.972-2.591,1.525c-0.764,0.485-1.639,0.647-2.344,1.197c-0.695,0.543-0.532-0.138-0.337-0.826
		c0.809-2.849,1.396-5.752,2.3-8.568c1.085,0.677,2.259,1.136,3.394,1.716c0.375,0.192,0.738,0.408,1.121,0.576
		c0.504,0.221,0.952,0.56,1.471,0.755c0.452,0.169,0.876,0.398,1.317,0.588c0.228,0.099,0.4,0.288,0.619,0.372"/>
	<path clip-path="url(#SVGID_43_)" fill="none" stroke="#F2F2F2" stroke-width="0.5" stroke-miterlimit="10" d="M101.346,60.364
		c0.754,0.325,1.392,0.368,2.118,0.683c0.881,0.383,1.709,0.913,2.623,1.253c1.302,0.483,2.627,0.797,3.929,1.411
		c1.516,0.719,3.015,1.113,4.562,1.604c1.362,0.431,2.744,1.362,4.044,1.646c1.284,0.282,0.74,0.833,0.14,1.352
		c-2.478,2.141-4.649,4.626-7.255,6.61c-1.325-2.135-2.881-4.14-4.326-6.231c-0.476-0.69-0.924-1.393-1.424-2.067
		c-0.658-0.888-1.179-1.836-1.87-2.713c-0.601-0.761-1.135-1.558-1.714-2.331c-0.298-0.398-0.471-0.829-0.762-1.201"/>
	<path clip-path="url(#SVGID_43_)" fill="none" stroke="#F2F2F2" stroke-width="0.5" stroke-miterlimit="10" d="M128.097,56.953
		c-0.338-0.017-0.613,0.073-0.938,0.058c-0.396-0.022-0.775-0.115-1.182-0.111c-0.581,0.006-1.163,0.092-1.749,0.041
		c-0.683-0.062-1.343,0.017-2.029,0.062c-0.603,0.039-1.238-0.139-1.808-0.045c-0.564,0.093-0.356-0.241-0.122-0.57
		c0.963-1.361,1.779-2.821,2.804-4.134c0.667,0.717,1.425,1.338,2.141,2.016c0.236,0.223,0.46,0.457,0.706,0.671
		c0.323,0.279,0.589,0.608,0.926,0.878c0.293,0.235,0.558,0.495,0.841,0.739c0.146,0.126,0.24,0.285,0.382,0.4"/>
	<path clip-path="url(#SVGID_43_)" fill="none" stroke="#F2F2F2" stroke-width="0.5" stroke-miterlimit="10" d="M74.031,58.256
		c-0.292-0.048-0.546,0.004-0.828-0.041c-0.342-0.056-0.658-0.176-1.015-0.212c-0.509-0.05-1.029-0.031-1.533-0.132
		c-0.588-0.12-1.175-0.114-1.78-0.142c-0.532-0.023-1.061-0.24-1.572-0.214c-0.506,0.028-0.277-0.248-0.025-0.515
		c1.038-1.109,1.962-2.319,3.046-3.378c0.478,0.696,1.051,1.317,1.578,1.985c0.173,0.219,0.336,0.447,0.518,0.659
		c0.243,0.278,0.427,0.596,0.682,0.866c0.222,0.235,0.416,0.49,0.628,0.733c0.11,0.125,0.168,0.273,0.275,0.39"/>
	<path clip-path="url(#SVGID_43_)" fill="none" stroke="#F2F2F2" stroke-width="0.5" stroke-miterlimit="10" d="M59.278,81.075
		c-0.06-0.956-0.432-1.896-0.49-2.818c-0.07-1.118,0.105-2.069-0.046-3.262c-0.214-1.698-0.68-3.526-0.71-5.148
		c-0.035-1.889-0.503-3.935-0.875-6.001c-0.325-1.816,0.024-3.382-0.462-5.188c-0.479-1.783,0.648-0.648,1.769,0.555
		c4.629,4.964,9.527,9.659,14.026,14.729c-2.047,0.798-3.762,2.017-5.671,3.02c-0.629,0.331-1.294,0.609-1.887,0.985
		c-0.78,0.493-1.737,0.742-2.478,1.293c-0.644,0.479-1.382,0.836-2.059,1.273c-0.348,0.225-0.824,0.244-1.14,0.474"/>
	<path clip-path="url(#SVGID_43_)" fill="none" stroke="#F2F2F2" stroke-width="0.5" stroke-miterlimit="10" d="M57.572,65.661
		c-0.456,0.265-0.802,0.668-1.241,0.922c-0.533,0.309-1.063,0.465-1.605,0.83c-0.775,0.518-1.531,1.184-2.327,1.599
		c-0.928,0.484-1.789,1.205-2.694,1.887c-0.797,0.598-1.689,0.825-2.428,1.495c-0.729,0.662-0.534-0.133-0.305-0.942
		c0.949-3.341,1.676-6.737,2.72-10.044c1.067,0.734,2.236,1.215,3.36,1.836c0.371,0.206,0.729,0.438,1.11,0.616
		c0.5,0.233,0.938,0.607,1.455,0.81c0.45,0.175,0.869,0.423,1.307,0.624c0.227,0.103,0.392,0.313,0.61,0.401"/>
	<path clip-path="url(#SVGID_43_)" fill="none" stroke="#F2F2F2" stroke-width="0.5" stroke-miterlimit="10" d="M102.37,62.195
		c0.677,0.304,1.248,0.35,1.901,0.642c0.792,0.354,1.539,0.843,2.36,1.159c1.171,0.45,2.358,0.749,3.529,1.318
		c1.364,0.664,2.709,1.039,4.097,1.499c1.222,0.404,2.47,1.26,3.635,1.531c1.151,0.271,0.673,0.757,0.143,1.214
		c-2.185,1.888-4.091,4.09-6.393,5.835c-1.213-1.931-2.63-3.752-3.949-5.648c-0.434-0.625-0.842-1.261-1.3-1.873
		c-0.599-0.806-1.077-1.663-1.706-2.459c-0.547-0.692-1.036-1.413-1.562-2.114c-0.271-0.363-0.432-0.751-0.697-1.089"/>
	<path clip-path="url(#SVGID_43_)" fill="none" stroke="#F2F2F2" stroke-width="0.5" stroke-miterlimit="10" d="M134.949,52.888
		c-0.58,0.841-0.786,1.625-1.347,2.435c-0.678,0.982-1.528,1.851-2.163,2.888c-0.907,1.478-1.607,3.037-2.675,4.471
		c-1.243,1.671-2.089,3.422-3.061,5.204c-0.857,1.568-2.328,3.004-2.989,4.541c-0.655,1.518-1.197,0.663-1.687-0.252
		c-2.019-3.776-4.535-7.276-6.333-11.163c2.93-0.986,5.758-2.3,8.665-3.449c0.959-0.379,1.924-0.716,2.872-1.13
		c1.243-0.543,2.528-0.894,3.767-1.484c1.078-0.512,2.181-0.928,3.265-1.406c0.56-0.247,1.128-0.329,1.652-0.576"/>
	<path clip-path="url(#SVGID_43_)" fill="none" stroke="#F2F2F2" stroke-width="0.5" stroke-miterlimit="10" d="M141.978,68.114
		c-0.568-0.292-1.164-0.364-1.709-0.649c-0.661-0.339-1.195-0.792-1.908-1.106c-1.018-0.444-2.143-0.764-3.094-1.31
		c-1.106-0.636-2.358-1.028-3.609-1.494c-1.103-0.413-1.969-1.197-3.086-1.495c-1.104-0.296-0.297-0.67,0.545-1.02
		c3.48-1.438,6.836-3.155,10.36-4.468c0.208,1.681,0.703,3.281,1.048,4.938c0.114,0.547,0.192,1.101,0.338,1.637
		c0.188,0.706,0.214,1.449,0.442,2.15c0.198,0.608,0.312,1.238,0.484,1.854c0.084,0.316,0.037,0.648,0.131,0.948"/>
	<path clip-path="url(#SVGID_43_)" fill="none" stroke="#F2F2F2" stroke-width="0.5" stroke-miterlimit="10" d="M126.573,57.533
		c-0.329-0.028-0.594,0.046-0.912,0.02c-0.386-0.035-0.758-0.137-1.156-0.147c-0.565-0.017-1.128,0.044-1.701-0.026
		c-0.668-0.082-1.308-0.031-1.975-0.013c-0.586,0.015-1.213-0.177-1.764-0.108c-0.545,0.067-0.355-0.243-0.14-0.547
		c0.89-1.256,1.631-2.611,2.582-3.819c0.676,0.704,1.437,1.321,2.16,1.99c0.238,0.219,0.465,0.45,0.711,0.662
		c0.325,0.276,0.597,0.599,0.935,0.868c0.294,0.232,0.561,0.488,0.846,0.73c0.147,0.123,0.244,0.279,0.386,0.394"/>
	<path clip-path="url(#SVGID_43_)" fill="none" stroke="#F2F2F2" stroke-width="0.5" stroke-miterlimit="10" d="M74.031,59.989
		c-0.292-0.047-0.546,0.005-0.828-0.041c-0.342-0.056-0.658-0.175-1.015-0.211c-0.509-0.05-1.029-0.03-1.533-0.133
		c-0.588-0.119-1.175-0.114-1.78-0.141c-0.532-0.024-1.061-0.241-1.572-0.213c-0.506,0.025-0.277-0.249-0.025-0.518
		c1.038-1.106,1.962-2.317,3.046-3.377c0.478,0.697,1.051,1.318,1.578,1.986c0.173,0.219,0.336,0.447,0.518,0.659
		c0.243,0.276,0.427,0.595,0.682,0.865c0.222,0.235,0.416,0.491,0.628,0.733c0.11,0.125,0.168,0.275,0.275,0.39"/>
	<path clip-path="url(#SVGID_43_)" fill="none" stroke="#F2F2F2" stroke-width="0.5" stroke-miterlimit="10" d="M45.64,75.354
		c-1.005-0.331-2.205-0.392-3.173-0.711c-1.175-0.39-2.018-0.916-3.322-1.269c-1.856-0.499-4.013-0.834-5.67-1.458
		c-1.929-0.727-4.307-1.147-6.641-1.659c-2.051-0.451-3.394-1.374-5.545-1.686c-2.122-0.307-0.216-0.81,1.75-1.281
		c8.127-1.944,16.16-4.225,24.304-6.019c-0.574,2.059-0.5,4.005-0.774,6.028c-0.091,0.668-0.258,1.345-0.279,1.999
		c-0.027,0.859-0.419,1.771-0.365,2.621c0.048,0.74-0.085,1.512-0.101,2.26c-0.008,0.386-0.31,0.798-0.291,1.159"/>
	<path clip-path="url(#SVGID_43_)" fill="none" stroke="#F2F2F2" stroke-width="0.5" stroke-miterlimit="10" d="M46.166,76.661
		c-0.984-0.336-2.157-0.404-3.105-0.729c-1.15-0.394-1.977-0.925-3.253-1.282c-1.817-0.51-3.926-0.854-5.549-1.486
		c-1.888-0.736-4.216-1.169-6.498-1.693c-2.007-0.46-3.325-1.39-5.428-1.711c-2.076-0.318-0.215-0.811,1.703-1.27
		c7.933-1.901,15.772-4.138,23.72-5.887c-0.549,2.055-0.467,3.998-0.724,6.019c-0.086,0.666-0.245,1.341-0.262,1.995
		c-0.021,0.857-0.401,1.767-0.342,2.615c0.05,0.74-0.078,1.51-0.088,2.257c-0.007,0.387-0.298,0.795-0.279,1.157"/>
	<path clip-path="url(#SVGID_43_)" fill="none" stroke="#F2F2F2" stroke-width="0.5" stroke-miterlimit="10" d="M81.167,62.993
		c1.008-0.19,1.716-0.614,2.689-0.798c1.177-0.224,2.39-0.237,3.578-0.533c1.693-0.419,3.303-1.047,5.075-1.317
		c2.067-0.313,3.914-0.978,5.872-1.571c1.724-0.522,3.776-0.498,5.345-1.139c1.547-0.633,1.304,0.389,0.981,1.414
		c-1.334,4.238-2.127,8.637-3.694,12.792c-2.734-1.419-5.634-2.521-8.471-3.805c-0.934-0.423-1.845-0.881-2.798-1.268
		c-1.251-0.513-2.391-1.193-3.673-1.667c-1.112-0.412-2.175-0.912-3.269-1.354c-0.564-0.229-1.016-0.583-1.557-0.787"/>
	<path clip-path="url(#SVGID_43_)" fill="none" stroke="#F2F2F2" stroke-width="0.5" stroke-miterlimit="10" d="M67.41,71.77
		c0.352-0.803,0.393-1.529,0.734-2.303c0.413-0.937,0.991-1.781,1.356-2.766c0.522-1.403,0.854-2.867,1.522-4.24
		c0.778-1.601,1.2-3.248,1.726-4.932c0.463-1.481,1.476-2.883,1.78-4.324c0.299-1.423,0.911-0.682,1.487,0.12
		c2.382,3.304,5.142,6.323,7.352,9.742c-2.341,1.088-4.537,2.466-6.831,3.698c-0.756,0.407-1.526,0.777-2.265,1.215
		c-0.973,0.574-2.013,0.978-2.974,1.594c-0.835,0.536-1.708,0.986-2.555,1.492c-0.437,0.262-0.909,0.371-1.318,0.631"/>
	<path clip-path="url(#SVGID_43_)" fill="none" stroke="#F2F2F2" stroke-width="0.5" stroke-miterlimit="10" d="M11.072,53.546
		c0.824,0.357,1.593,0.395,2.387,0.739c0.962,0.419,1.811,1.008,2.827,1.379c1.449,0.526,2.977,0.858,4.382,1.536
		c1.638,0.789,3.354,1.211,5.1,1.742c1.537,0.466,2.943,1.501,4.449,1.802c1.489,0.298,0.649,0.934-0.249,1.532
		c-3.71,2.476-7.149,5.337-10.967,7.637c-0.961-2.401-2.244-4.653-3.366-7.007c-0.37-0.774-0.699-1.564-1.104-2.324
		c-0.53-0.996-0.872-2.064-1.448-3.049c-0.499-0.855-0.906-1.752-1.374-2.621c-0.241-0.447-0.32-0.933-0.561-1.352"/>
	<path clip-path="url(#SVGID_43_)" fill="none" stroke="#F2F2F2" stroke-width="0.5" stroke-miterlimit="10" d="M16.148,61.838
		c-0.228,0.189-0.355,0.413-0.574,0.597c-0.267,0.221-0.566,0.382-0.827,0.627c-0.372,0.35-0.699,0.755-1.106,1.067
		c-0.476,0.364-0.859,0.812-1.276,1.251c-0.368,0.386-0.879,0.642-1.194,1.046c-0.311,0.397-0.368,0.044-0.405-0.321
		c-0.153-1.51-0.46-3.002-0.547-4.515c0.84,0.097,1.684,0.072,2.535,0.113c0.279,0.014,0.557,0.041,0.837,0.043
		c0.369,0,0.729,0.069,1.101,0.055c0.323-0.014,0.643,0.008,0.965,0.008c0.166,0,0.317,0.054,0.475,0.05"/>
	<path clip-path="url(#SVGID_43_)" fill="none" stroke="#F2F2F2" stroke-width="0.5" stroke-miterlimit="10" d="M10.219,54.893
		c0.824,0.358,1.594,0.396,2.387,0.74c0.961,0.418,1.811,1.007,2.827,1.378c1.45,0.527,2.977,0.859,4.382,1.536
		c1.638,0.79,3.354,1.212,5.1,1.742c1.536,0.467,2.942,1.501,4.449,1.802c1.489,0.298,0.649,0.933-0.25,1.533
		c-3.71,2.476-7.149,5.336-10.965,7.636c-0.962-2.401-2.245-4.654-3.367-7.007c-0.369-0.774-0.699-1.564-1.103-2.324
		c-0.53-0.996-0.873-2.063-1.448-3.049c-0.501-0.855-0.907-1.751-1.375-2.62c-0.242-0.448-0.32-0.933-0.561-1.352"/>
	<path clip-path="url(#SVGID_43_)" fill="none" stroke="#F2F2F2" stroke-width="0.5" stroke-miterlimit="10" d="M17.399,63.192
		c-0.228,0.189-0.355,0.414-0.575,0.598c-0.266,0.221-0.565,0.382-0.826,0.627c-0.372,0.35-0.699,0.755-1.107,1.066
		c-0.476,0.365-0.858,0.813-1.275,1.251c-0.368,0.387-0.879,0.643-1.194,1.046c-0.312,0.398-0.368,0.044-0.406-0.321
		c-0.153-1.511-0.459-3.001-0.546-4.515c0.839,0.098,1.684,0.073,2.534,0.114c0.279,0.013,0.558,0.041,0.838,0.042
		c0.369,0,0.729,0.069,1.1,0.055c0.323-0.013,0.643,0.009,0.966,0.009c0.166,0,0.317,0.054,0.474,0.049"/>
	<path clip-path="url(#SVGID_43_)" fill="none" stroke="#F2F2F2" stroke-width="0.5" stroke-miterlimit="10" d="M33.982,70.799
		c0.009,0.385,0.116,0.664,0.124,1.035c0.01,0.451-0.053,0.909-0.017,1.365c0.048,0.649,0.174,1.274,0.168,1.95
		c-0.009,0.788,0.117,1.503,0.211,2.259c0.084,0.665-0.041,1.438,0.092,2.047c0.131,0.602-0.208,0.482-0.543,0.331
		c-1.385-0.62-2.857-1.039-4.201-1.743c0.643-0.993,1.187-2.057,1.788-3.092c0.198-0.341,0.407-0.672,0.594-1.021
		c0.246-0.458,0.547-0.869,0.782-1.34c0.205-0.409,0.437-0.796,0.651-1.195c0.11-0.208,0.257-0.367,0.358-0.567"/>
	<path clip-path="url(#SVGID_43_)" fill="none" stroke="#F2F2F2" stroke-width="0.5" stroke-miterlimit="10" d="M94.495,66.329
		c-0.126,0.269-0.148,0.526-0.27,0.784c-0.149,0.312-0.352,0.585-0.485,0.917c-0.189,0.474-0.315,0.979-0.554,1.435
		c-0.277,0.531-0.435,1.098-0.629,1.672c-0.171,0.505-0.526,0.952-0.642,1.45c-0.115,0.493-0.315,0.197-0.503-0.12
		c-0.776-1.304-1.682-2.527-2.398-3.863c0.802-0.266,1.558-0.644,2.346-0.964c0.259-0.106,0.523-0.198,0.777-0.315
		c0.335-0.155,0.69-0.244,1.022-0.414c0.288-0.147,0.587-0.263,0.878-0.399c0.151-0.07,0.311-0.086,0.453-0.155"/>
</g>
<text transform="matrix(0.9937 -0.1124 0.1124 0.9937 22.936 53.7881)" fill="#F2F2F2" font-family="'JUICEBold-Bold'" font-size="21.4967">T</text>
<text transform="matrix(0.9937 -0.1124 0.1124 0.9937 37.1802 52.3291)" fill="#F2F2F2" font-family="'JUICEBold-Bold'" font-size="21.4967">A</text>
<text transform="matrix(0.9937 -0.1124 0.1124 0.9937 51.1919 50.7451)" fill="#F2F2F2" font-family="'JUICEBold-Bold'" font-size="21.4967">T</text>
<text transform="matrix(0.9937 -0.1124 0.1124 0.9937 64.9048 49.1943)" fill="#F2F2F2" font-family="'JUICEBold-Bold'" font-size="21.4967">U</text>
<text transform="matrix(0.9937 -0.1124 0.1124 0.9937 80.9312 47.4258)" fill="#F2F2F2" font-family="'JUICEBold-Bold'" font-size="21.4967">R</text>
<text transform="matrix(0.9937 -0.1124 0.1124 0.9937 96.938 45.5059)" fill="#F2F2F2" font-family="'JUICEBold-Bold'" font-size="21.4967">A</text>
<text transform="matrix(0.9937 -0.1124 0.1124 0.9937 112.4419 43.9033)" fill="#F2F2F2" font-family="'JUICEBold-Bold'" font-size="21.4967">N</text>
<text transform="matrix(0.9937 -0.1124 0.1124 0.9937 128.5649 42.2314)" fill="#F2F2F2" font-family="'JUICEBold-Bold'" font-size="21.4967">A</text>
<g>
	<defs>
		<rect id="SVGID_121_" x="-205.667" y="-3782.31" width="1380.138" height="4002.641"/>
	</defs>
	<clipPath id="SVGID_45_">
		<use xlink:href="#SVGID_121_"  overflow="visible"/>
	</clipPath>
	
		<line clip-path="url(#SVGID_45_)" fill="none" stroke="#F2F2F2" stroke-width="0.647" stroke-miterlimit="10" x1="115.979" y1="46.36" x2="117.417" y2="46.089"/>
	<path clip-path="url(#SVGID_45_)" fill="none" stroke="#F2F2F2" stroke-width="0.647" stroke-miterlimit="10" d="M113.802,51.023
		c-0.145,0.32-0.292,0.643-0.438,0.962"/>
</g>
<text transform="matrix(0.9929 -0.1185 0.1284 1.0757 87.1958 54.3779)" fill="#F2F2F2" font-family="'JUICELight'" font-size="5.7122">mobilizacao social</text>
<g>
	<defs>
		<rect id="SVGID_123_" x="-205.667" y="-3782.31" width="1380.138" height="4002.641"/>
	</defs>
	<clipPath id="SVGID_46_">
		<use xlink:href="#SVGID_123_"  overflow="visible"/>
	</clipPath>
</g>
<g>
	<defs>
		<rect id="SVGID_125_" x="-205.667" y="-3782.31" width="1380.138" height="4002.641"/>
	</defs>
	<clipPath id="SVGID_47_">
		<use xlink:href="#SVGID_125_"  overflow="visible"/>
	</clipPath>
</g>
<rect x="-205.667" y="-3782.309" fill="none" width="1380.14" height="4002.64"/>
</svg>
