<?xml version="1.0" encoding="utf-8"?>
<!-- Generator: Adobe Illustrator 16.0.0, SVG Export Plug-In . SVG Version: 6.00 Build 0)  -->
<!DOCTYPE svg PUBLIC "-//W3C//DTD SVG 1.1//EN" "http://www.w3.org/Graphics/SVG/1.1/DTD/svg11.dtd">
<svg version="1.1" id="Layer_1" xmlns="http://www.w3.org/2000/svg" xmlns:xlink="http://www.w3.org/1999/xlink" x="0px" y="0px"
	 width="461.994px" height="1121.603px" viewBox="0 0 461.994 1121.603" enable-background="new 0 0 461.994 1121.603"
	 xml:space="preserve">
<g>
	<path fill="#FFFFFF" d="M37.341,286.533c0.576,4.117-1.352,8.613-1.675,12.764c-0.251,3.225-0.273,6.906,0.299,10.092
		c1.472,8.215,6.657,14.238,10.257,21.512c3.53,7.133,6.932,13.959,12.112,20.117c1.988,2.362,4.981,3.988,7.217,6.15
		c2.991,2.893,5.953,5.426,9.44,7.714c6.562,4.308,13.718,6.95,20.745,10.313c6.275,3.003,13.376,6.8,20.275,8.08
		c2.336,0.435,4.714,0.36,7.049,0.035c4.326-0.605,8.926,0.186,13.307,0.196c8.037,0.019,15.432-4.503,23.398-4.364
		c1.723,0.029,1.72-2.642,0-2.672c-6.91-0.119-13.244,3.481-20.038,4.164c-3.997,0.402-8.565,0.479-12.528-0.244
		c-2.744-0.502-5.583,0.735-8.352,0.441c-7.037-0.747-12.344-4.684-18.915-6.766c-7.581-2.403-15.355-6.455-22.129-10.584
		c-5.885-3.586-9.956-9.027-15.624-12.676c-3.604-2.32-5.839-7.121-8.237-10.584c-2.302-3.328-3.753-6.998-5.413-10.67
		c-3.459-7.648-9.148-13.443-10.128-22.185c-0.464-4.147-0.179-8.692,0.577-12.765c0.561-3.021,1.371-5.692,0.939-8.78
		C39.679,284.123,37.104,284.85,37.341,286.533"/>
	<path fill="#FFFFFF" d="M160.993,375.404c-5.037-3.035-11.463-4.021-17.247-4.408c-1.72-0.115-1.709,2.557,0,2.67
		c5.27,0.353,11.336,1.295,15.899,4.045C161.124,378.603,162.466,376.293,160.993,375.404"/>
	<path fill="#FFFFFF" d="M159.426,375.822c-1.762,2.586-3.357,5.437-4.979,8.121c-1.257,2.08-2.651,3.981-3.96,6.006
		c-0.938,1.451,1.375,2.789,2.306,1.349c1.31-2.026,2.759-3.879,3.96-6.006c0.753-1.333,1.694-2.533,2.554-3.795
		c0.931-1.366,1.49-2.954,2.425-4.327C162.706,375.742,160.389,374.408,159.426,375.822"/>
	<path fill="#DF4944" d="M70.313,0c-2.388,9.956-7.95,18.624-10.235,28.198c-2.771,11.622-2.723,22.347-6.473,34.454
		c-5.308,17.294-13.487,35.044-16.773,52.154c-3.831,19.934-12.426,39.967-20.062,60.584c-6.676,18.125-5.949,35.989-14.285,53.455
		c-8.227,17.229,5.472,9.172,19.233,0.414c56.807-36.244,115.881-68.671,171.54-106.484c-19.609-15.756-35.035-34.797-52.835-52.236
		c-5.885-5.749-12.223-11.086-17.643-17.178c-7.121-8.004-16.501-14.064-23.144-22.542c-5.759-7.394-12.683-13.796-18.863-20.835
		c-3.176-3.633-8.034-5.526-10.878-9.104"/>
	<path fill="none" stroke="#FFFFFF" stroke-width="2" stroke-linecap="round" stroke-linejoin="round" d="M21.555,96.608
		c0.063,0.163,0.129,0.321,0.199,0.476"/>
	
		<path fill="none" stroke="#FFFFFF" stroke-width="2" stroke-linecap="round" stroke-linejoin="round" stroke-dasharray="1.028,1.028" d="
		M22.217,98.001c0.664,1.197,1.448,2.248,1.956,3.559c0.834,2.17,1.182,4.399,2.195,6.593c1.448,3.119,3.378,6.088,4.482,9.352
		c1.29,3.801,3.367,7.205,5.304,10.818c1.699,3.175,2.169,6.951,4.117,9.843c1.924,2.853-0.606,2.401-3.171,1.796
		c-10.252-2.406-20.739-3.883-30.875-6.619"/>
	<path fill="none" stroke="#FFFFFF" stroke-width="2" stroke-linecap="round" stroke-linejoin="round" d="M5.73,133.207
		c-0.165-0.045-0.33-0.091-0.495-0.137c0.082-0.152,0.164-0.303,0.245-0.455"/>
	
		<path fill="none" stroke="#FFFFFF" stroke-width="2" stroke-linecap="round" stroke-linejoin="round" stroke-dasharray="1.05,1.05" d="
		M5.966,131.682c2.355-4.61,4.14-9.439,6.301-14.176c0.777-1.716,1.654-3.393,2.354-5.137c0.908-2.301,2.269-4.396,3.09-6.751
		c0.707-2.048,1.646-3.994,2.438-6.011c0.273-0.698,0.699-1.301,1.056-1.922"/>
	<path fill="none" stroke="#FFFFFF" stroke-width="2" stroke-linecap="round" stroke-linejoin="round" d="M21.45,97.227
		c0.075-0.155,0.143-0.312,0.201-0.475"/>
	<path fill="none" stroke="#FFFFFF" stroke-width="2" stroke-linecap="round" stroke-linejoin="round" d="M34.948,91.897
		c0.063,0.163,0.129,0.321,0.199,0.477"/>
	
		<path fill="none" stroke="#FFFFFF" stroke-width="2" stroke-linecap="round" stroke-linejoin="round" stroke-dasharray="1.028,1.028" d="
		M35.611,93.291c0.665,1.196,1.448,2.246,1.954,3.557c0.836,2.172,1.185,4.402,2.2,6.591c1.446,3.123,3.377,6.089,4.478,9.353
		c1.295,3.805,3.369,7.207,5.304,10.82c1.7,3.176,2.169,6.951,4.116,9.844c1.925,2.852-0.606,2.399-3.168,1.795
		c-10.254-2.407-20.738-3.883-30.875-6.62"/>
	<path fill="none" stroke="#FFFFFF" stroke-width="2" stroke-linecap="round" stroke-linejoin="round" d="M19.125,128.494
		c-0.165-0.045-0.33-0.091-0.495-0.137c0.082-0.152,0.164-0.303,0.244-0.455"/>
	
		<path fill="none" stroke="#FFFFFF" stroke-width="2" stroke-linecap="round" stroke-linejoin="round" stroke-dasharray="1.05,1.05" d="
		M19.361,126.97c2.354-4.607,4.142-9.438,6.299-14.176c0.78-1.715,1.653-3.39,2.355-5.139c0.911-2.296,2.27-4.394,3.089-6.75
		c0.709-2.043,1.647-3.994,2.441-6.009c0.271-0.697,0.696-1.299,1.054-1.922"/>
	<path fill="none" stroke="#FFFFFF" stroke-width="2" stroke-linecap="round" stroke-linejoin="round" d="M34.845,92.516
		c0.075-0.154,0.144-0.312,0.202-0.473"/>
	<path fill="none" stroke="#FFFFFF" stroke-width="2" stroke-linecap="round" stroke-linejoin="round" d="M118.885,67.118
		c-0.161-0.067-0.322-0.128-0.482-0.185"/>
	
		<path fill="none" stroke="#FFFFFF" stroke-width="2" stroke-linecap="round" stroke-linejoin="round" stroke-dasharray="1.026,1.026" d="
		M117.42,66.641c-0.96-0.248-1.904-0.414-2.853-0.808c-1.727-0.724-3.234-1.722-5.068-2.365c-2.615-0.913-5.394-1.5-7.911-2.663
		c-2.937-1.352-6.052-2.095-9.218-3.021c-2.78-0.814-5.266-2.566-8.01-3.106c-2.706-0.529-1.104-1.572,0.608-2.554
		c6.76-3.879,13.102-8.356,19.984-12.025"/>
	<path fill="none" stroke="#FFFFFF" stroke-width="2" stroke-linecap="round" stroke-linejoin="round" d="M105.406,39.859
		c0.152-0.08,0.305-0.16,0.458-0.239c0.061,0.159,0.123,0.319,0.186,0.478"/>
	
		<path fill="none" stroke="#FFFFFF" stroke-width="2" stroke-linecap="round" stroke-linejoin="round" stroke-dasharray="1.011,1.011" d="
		M106.43,41.029c1.473,3.514,3.335,6.871,4.957,10.362c0.609,1.298,1.141,2.625,1.807,3.903c0.885,1.672,1.411,3.467,2.375,5.124
		c0.842,1.438,1.5,2.94,2.278,4.405c0.231,0.432,0.361,0.883,0.506,1.32"/>
	<path fill="none" stroke="#FFFFFF" stroke-width="2" stroke-linecap="round" stroke-linejoin="round" d="M118.526,66.627
		c0.064,0.158,0.136,0.314,0.223,0.464"/>
	<path fill="none" stroke="#FFFFFF" stroke-width="2" stroke-linecap="round" stroke-linejoin="round" d="M114.615,76.387
		c-0.161-0.067-0.322-0.127-0.482-0.184"/>
	
		<path fill="none" stroke="#FFFFFF" stroke-width="2" stroke-linecap="round" stroke-linejoin="round" stroke-dasharray="1.026,1.026" d="
		M113.15,75.911c-0.96-0.248-1.902-0.415-2.851-0.81c-1.731-0.723-3.236-1.721-5.07-2.363c-2.615-0.913-5.394-1.5-7.91-2.663
		c-2.939-1.353-6.054-2.097-9.216-3.021c-2.781-0.816-5.269-2.568-8.01-3.107c-2.708-0.53-1.106-1.573,0.604-2.553
		c6.762-3.881,13.102-8.357,19.985-12.024"/>
	<path fill="none" stroke="#FFFFFF" stroke-width="2" stroke-linecap="round" stroke-linejoin="round" d="M101.136,49.129
		c0.153-0.08,0.305-0.159,0.458-0.238c0.061,0.158,0.123,0.318,0.186,0.478"/>
	
		<path fill="none" stroke="#FFFFFF" stroke-width="2" stroke-linecap="round" stroke-linejoin="round" stroke-dasharray="1.011,1.011" d="
		M102.162,50.305c1.472,3.51,3.333,6.869,4.958,10.355c0.605,1.299,1.137,2.626,1.805,3.904c0.882,1.67,1.408,3.467,2.373,5.124
		c0.84,1.438,1.502,2.94,2.279,4.407c0.232,0.431,0.362,0.883,0.508,1.322"/>
	<path fill="none" stroke="#FFFFFF" stroke-width="2" stroke-linecap="round" stroke-linejoin="round" d="M114.256,75.896
		c0.064,0.159,0.136,0.314,0.221,0.466"/>
	<path fill="none" stroke="#FFFFFF" stroke-width="2" stroke-linecap="round" stroke-linejoin="round" d="M169.913,112.662
		c-0.052,0.166-0.1,0.331-0.145,0.495"/>
	
		<path fill="none" stroke="#FFFFFF" stroke-width="2" stroke-linecap="round" stroke-linejoin="round" stroke-dasharray="1.028,1.028" d="
		M169.538,114.159c-0.384,1.974-0.378,3.843-0.994,5.809c-0.942,2.975-2.464,5.659-3.229,8.788
		c-1.084,4.455-1.511,9.102-3.092,13.463c-1.836,5.087-2.474,10.31-3.445,15.662c-0.857,4.699-3.566,9.158-3.91,13.732
		c-0.334,4.51-2.707,2.176-4.99-0.352c-9.194-10.168-19.451-19.479-28.214-29.94"/>
	<path fill="none" stroke="#FFFFFF" stroke-width="2" stroke-linecap="round" stroke-linejoin="round" d="M121.335,140.928
		c-0.109-0.131-0.218-0.263-0.327-0.395c0.155-0.074,0.311-0.149,0.465-0.225"/>
	
		<path fill="none" stroke="#FFFFFF" stroke-width="2" stroke-linecap="round" stroke-linejoin="round" stroke-dasharray="1.041,1.041" d="
		M122.409,139.846c6.723-3.37,12.96-7.464,19.546-11.161c2.312-1.306,4.697-2.495,6.954-3.888c2.951-1.846,6.222-3.141,9.127-5.113
		c2.518-1.716,5.202-3.154,7.787-4.775c1.019-0.643,2.149-1.002,3.177-1.51"/>
	<path fill="none" stroke="#FFFFFF" stroke-width="2" stroke-linecap="round" stroke-linejoin="round" d="M169.456,113.158
		c0.149-0.085,0.296-0.174,0.439-0.27"/>
	<path fill="none" stroke="#FFFFFF" stroke-width="2" stroke-linecap="round" stroke-linejoin="round" d="M188.538,117.281
		c-0.052,0.166-0.1,0.33-0.144,0.494"/>
	
		<path fill="none" stroke="#FFFFFF" stroke-width="2" stroke-linecap="round" stroke-linejoin="round" stroke-dasharray="1.028,1.028" d="
		M188.163,118.778c-0.383,1.974-0.377,3.841-0.995,5.804c-0.94,2.98-2.463,5.666-3.224,8.791c-1.087,4.459-1.511,9.102-3.095,13.461
		c-1.835,5.092-2.476,10.315-3.447,15.664c-0.858,4.701-3.567,9.162-3.909,13.731c-0.336,4.513-2.71,2.179-4.987-0.349
		c-9.198-10.17-19.454-19.479-28.213-29.941"/>
	<path fill="none" stroke="#FFFFFF" stroke-width="2" stroke-linecap="round" stroke-linejoin="round" d="M139.965,145.547
		c-0.109-0.131-0.218-0.264-0.327-0.395c0.155-0.074,0.31-0.149,0.465-0.226"/>
	
		<path fill="none" stroke="#FFFFFF" stroke-width="2" stroke-linecap="round" stroke-linejoin="round" stroke-dasharray="1.041,1.041" d="
		M141.038,144.465c6.718-3.367,12.96-7.465,19.543-11.164c2.313-1.301,4.695-2.492,6.953-3.889c2.95-1.838,6.224-3.136,9.126-5.107
		c2.518-1.714,5.204-3.157,7.791-4.777c1.015-0.643,2.145-1.002,3.175-1.509"/>
	<path fill="none" stroke="#FFFFFF" stroke-width="2" stroke-linecap="round" stroke-linejoin="round" d="M188.083,117.779
		c0.15-0.084,0.296-0.174,0.439-0.27"/>
	<path fill="none" stroke="#FFFFFF" stroke-width="2" stroke-linecap="round" stroke-linejoin="round" d="M188.363,66.727
		c-0.172,0.03-0.34,0.066-0.504,0.106"/>
	
		<path fill="none" stroke="#FFFFFF" stroke-width="2" stroke-linecap="round" stroke-linejoin="round" stroke-dasharray="1.044,1.044" d="
		M186.856,67.124c-0.934,0.309-1.804,0.674-2.82,0.858c-1.862,0.332-3.716,0.323-5.616,0.777c-2.704,0.651-5.339,1.656-8.121,2.051
		c-3.242,0.465-6.249,1.523-9.411,2.459c-2.778,0.82-5.903,0.717-8.481,1.742c-2.54,1.014-1.884-0.693-1.099-2.408
		c3.081-6.761,5.453-13.781,8.762-20.437"/>
	<path fill="none" stroke="#FFFFFF" stroke-width="2" stroke-linecap="round" stroke-linejoin="round" d="M160.304,51.7
		c0.078-0.153,0.156-0.307,0.235-0.461c0.143,0.095,0.286,0.188,0.43,0.278"/>
	
		<path fill="none" stroke="#FFFFFF" stroke-width="2" stroke-linecap="round" stroke-linejoin="round" stroke-dasharray="1.06,1.06" d="
		M161.868,52.08c3.404,2.082,7.028,3.83,10.539,5.815c1.309,0.736,2.576,1.534,3.917,2.22c1.769,0.894,3.32,2.076,5.144,2.914
		c1.585,0.726,3.064,1.599,4.614,2.379c0.466,0.233,0.86,0.537,1.261,0.822"/>
	<path fill="none" stroke="#FFFFFF" stroke-width="2" stroke-linecap="round" stroke-linejoin="round" d="M187.785,66.529
		c0.145,0.09,0.295,0.174,0.452,0.248"/>
	<path fill="none" stroke="#FFFFFF" stroke-width="2" stroke-linecap="round" stroke-linejoin="round" d="M190.676,76.569
		c-0.172,0.031-0.34,0.067-0.504,0.107"/>
	
		<path fill="none" stroke="#FFFFFF" stroke-width="2" stroke-linecap="round" stroke-linejoin="round" stroke-dasharray="1.044,1.044" d="
		M189.169,76.969c-0.933,0.31-1.803,0.674-2.819,0.857c-1.864,0.335-3.717,0.322-5.615,0.781c-2.706,0.648-5.341,1.654-8.121,2.05
		c-3.246,0.468-6.252,1.522-9.411,2.455c-2.781,0.821-5.906,0.72-8.48,1.743c-2.542,1.015-1.887-0.692-1.103-2.406
		c3.082-6.762,5.453-13.782,8.762-20.436"/>
	<path fill="none" stroke="#FFFFFF" stroke-width="2" stroke-linecap="round" stroke-linejoin="round" d="M162.617,61.547
		c0.078-0.154,0.156-0.308,0.235-0.461c0.143,0.094,0.286,0.186,0.43,0.277"/>
	
		<path fill="none" stroke="#FFFFFF" stroke-width="2" stroke-linecap="round" stroke-linejoin="round" stroke-dasharray="1.06,1.06" d="
		M164.181,61.925c3.403,2.082,7.028,3.832,10.542,5.815c1.307,0.736,2.572,1.534,3.916,2.221c1.764,0.893,3.316,2.078,5.141,2.914
		c1.584,0.725,3.065,1.598,4.617,2.38c0.464,0.231,0.858,0.535,1.257,0.82"/>
	<path fill="none" stroke="#FFFFFF" stroke-width="2" stroke-linecap="round" stroke-linejoin="round" d="M190.096,76.374
		c0.145,0.091,0.294,0.175,0.451,0.249"/>
	<path fill="none" stroke="#FFFFFF" stroke-width="2" stroke-linecap="round" stroke-linejoin="round" d="M87.6,115.142
		c0.176-0.007,0.347-0.019,0.514-0.037"/>
	
		<path fill="none" stroke="#FFFFFF" stroke-width="2" stroke-linecap="round" stroke-linejoin="round" stroke-dasharray="1.033,1.033" d="
		M89.137,114.938c0.521-0.1,1.036-0.201,1.598-0.22c1.324-0.039,2.601,0.158,3.965,0.04c1.943-0.172,3.883-0.595,5.848-0.581
		c2.293,0.011,4.493-0.41,6.787-0.731c2.014-0.279,4.157,0.111,6.057-0.332c1.873-0.437,1.216,0.674,0.47,1.773
		c-2.882,4.266-5.323,8.773-8.323,12.953"/>
	<path fill="none" stroke="#FFFFFF" stroke-width="2" stroke-linecap="round" stroke-linejoin="round" d="M105.235,128.258
		c-0.102,0.139-0.204,0.277-0.307,0.416c-0.127-0.114-0.254-0.229-0.383-0.342"/>
	
		<path fill="none" stroke="#FFFFFF" stroke-width="2" stroke-linecap="round" stroke-linejoin="round" stroke-dasharray="0.995,0.995" d="
		M103.789,127.687c-2.008-1.675-4.175-3.179-6.246-4.819c-0.815-0.642-1.591-1.322-2.433-1.933
		c-1.114-0.796-2.041-1.773-3.199-2.538c-1.008-0.663-1.921-1.417-2.897-2.113c-0.208-0.148-0.388-0.318-0.561-0.49"/>
	<path fill="none" stroke="#FFFFFF" stroke-width="2" stroke-linecap="round" stroke-linejoin="round" d="M88.094,115.441
		c-0.126-0.115-0.256-0.227-0.401-0.322"/>
	<path fill="none" stroke="#FFFFFF" stroke-width="2" stroke-linecap="round" stroke-linejoin="round" d="M87.186,108.113
		c0.176-0.006,0.347-0.019,0.514-0.037"/>
	
		<path fill="none" stroke="#FFFFFF" stroke-width="2" stroke-linecap="round" stroke-linejoin="round" stroke-dasharray="1.033,1.033" d="
		M88.724,107.911c0.521-0.101,1.035-0.201,1.598-0.218c1.324-0.041,2.602,0.156,3.966,0.037c1.945-0.17,3.882-0.594,5.848-0.582
		c2.293,0.011,4.493-0.407,6.785-0.728c2.015-0.281,4.158,0.11,6.057-0.333c1.875-0.438,1.217,0.673,0.471,1.773
		c-2.882,4.265-5.321,8.771-8.323,12.951"/>
	<path fill="none" stroke="#FFFFFF" stroke-width="2" stroke-linecap="round" stroke-linejoin="round" d="M104.823,121.231
		c-0.102,0.139-0.204,0.278-0.307,0.416c-0.127-0.114-0.254-0.228-0.382-0.341"/>
	
		<path fill="none" stroke="#FFFFFF" stroke-width="2" stroke-linecap="round" stroke-linejoin="round" stroke-dasharray="0.995,0.995" d="
		M103.377,120.66c-2.008-1.674-4.175-3.18-6.249-4.819c-0.811-0.643-1.587-1.321-2.433-1.932c-1.11-0.798-2.038-1.774-3.196-2.539
		c-1.004-0.661-1.921-1.416-2.897-2.115c-0.209-0.147-0.388-0.317-0.562-0.489"/>
	<path fill="none" stroke="#FFFFFF" stroke-width="2" stroke-linecap="round" stroke-linejoin="round" d="M87.682,108.415
		c-0.125-0.117-0.256-0.228-0.4-0.325"/>
	<path fill="none" stroke="#FFFFFF" stroke-width="2" stroke-linecap="round" stroke-linejoin="round" d="M45.761,162.949
		c0.146,0.102,0.294,0.188,0.442,0.266"/>
	
		<path fill="none" stroke="#FFFFFF" stroke-width="2" stroke-linecap="round" stroke-linejoin="round" stroke-dasharray="1.027,1.027" d="
		M47.126,163.668c0.119,0.064,0.237,0.135,0.353,0.215c0.665,0.465,1.207,1.025,1.928,1.465c1.024,0.625,2.157,1.122,3.114,1.844
		c1.12,0.84,2.377,1.435,3.637,2.113c1.108,0.596,1.992,1.569,3.112,2.043c1.105,0.469,0.309,0.774-0.527,1.041
		c-3.119,1.006-6.135,2.27-9.268,3.217"/>
	<path fill="none" stroke="#FFFFFF" stroke-width="2" stroke-linecap="round" stroke-linejoin="round" d="M48.981,175.753
		c-0.165,0.048-0.331,0.095-0.497,0.142c-0.022-0.17-0.046-0.34-0.072-0.509"/>
	
		<path fill="none" stroke="#FFFFFF" stroke-width="2" stroke-linecap="round" stroke-linejoin="round" stroke-dasharray="1.106,1.106" d="
		M48.217,174.301c-0.263-1.314-0.607-2.618-0.875-3.943c-0.127-0.61-0.217-1.228-0.368-1.834c-0.207-0.796-0.247-1.611-0.487-2.408
		c-0.21-0.686-0.336-1.385-0.517-2.077"/>
	<path fill="none" stroke="#FFFFFF" stroke-width="2" stroke-linecap="round" stroke-linejoin="round" d="M45.894,163.482
		c-0.013-0.173-0.028-0.344-0.077-0.509"/>
	<path fill="none" stroke="#FFFFFF" stroke-width="2" stroke-linecap="round" stroke-linejoin="round" d="M48.555,159.354
		c0.146,0.101,0.294,0.187,0.442,0.265"/>
	
		<path fill="none" stroke="#FFFFFF" stroke-width="2" stroke-linecap="round" stroke-linejoin="round" stroke-dasharray="1.027,1.027" d="
		M49.919,160.073c0.119,0.065,0.237,0.136,0.353,0.216c0.667,0.465,1.21,1.026,1.929,1.463c1.026,0.625,2.156,1.123,3.113,1.845
		c1.12,0.841,2.377,1.435,3.637,2.114c1.108,0.595,1.992,1.567,3.112,2.043c1.105,0.468,0.31,0.771-0.525,1.039
		c-3.121,1.006-6.134,2.271-9.267,3.219"/>
	<path fill="none" stroke="#FFFFFF" stroke-width="2" stroke-linecap="round" stroke-linejoin="round" d="M51.777,172.158
		c-0.165,0.048-0.331,0.096-0.497,0.141c-0.022-0.17-0.046-0.339-0.073-0.508"/>
	
		<path fill="none" stroke="#FFFFFF" stroke-width="2" stroke-linecap="round" stroke-linejoin="round" stroke-dasharray="1.106,1.106" d="
		M51.012,170.706c-0.263-1.315-0.608-2.618-0.878-3.944c-0.124-0.61-0.215-1.225-0.369-1.832c-0.204-0.795-0.243-1.611-0.483-2.408
		c-0.211-0.687-0.337-1.387-0.516-2.079"/>
	<path fill="none" stroke="#FFFFFF" stroke-width="2" stroke-linecap="round" stroke-linejoin="round" d="M48.689,159.888
		c-0.013-0.173-0.027-0.344-0.076-0.509"/>
	<path fill="none" stroke="#FFFFFF" stroke-width="2" stroke-linecap="round" stroke-linejoin="round" d="M37.515,47.999
		c-0.176,0.05-0.33,0.116-0.48,0.187"/>
	
		<path fill="none" stroke="#FFFFFF" stroke-width="2" stroke-linecap="round" stroke-linejoin="round" stroke-dasharray="1.029,1.029" d="
		M36.064,48.512c-0.339,0.07-0.681,0.123-1.023,0.24c-0.67,0.229-1.313,0.546-2.01,0.713c-0.813,0.195-1.548,0.535-2.327,0.847
		c-0.684,0.275-1.482,0.321-2.109,0.645c-0.619,0.317-0.5-0.134-0.347-0.587c0.516-1.551,0.892-3.137,1.409-4.682"/>
	<path fill="none" stroke="#FFFFFF" stroke-width="2" stroke-linecap="round" stroke-linejoin="round" d="M29.826,45.199
		c0.058-0.162,0.118-0.323,0.18-0.484c0.152,0.08,0.304,0.156,0.459,0.23"/>
	
		<path fill="none" stroke="#FFFFFF" stroke-width="2" stroke-linecap="round" stroke-linejoin="round" stroke-dasharray="1.021,1.021" d="
		M31.393,45.361c0.603,0.257,1.215,0.5,1.818,0.769c0.354,0.154,0.698,0.329,1.058,0.472c0.474,0.186,0.902,0.449,1.389,0.619
		c0.305,0.107,0.599,0.234,0.896,0.357"/>
	<path fill="none" stroke="#FFFFFF" stroke-width="2" stroke-linecap="round" stroke-linejoin="round" d="M37.03,47.778
		c0.155,0.08,0.293,0.18,0.453,0.237"/>
	<path fill="none" stroke="#FFFFFF" stroke-width="2" stroke-linecap="round" stroke-linejoin="round" d="M38.375,50.449
		c-0.176,0.05-0.33,0.117-0.48,0.187"/>
	
		<path fill="none" stroke="#FFFFFF" stroke-width="2" stroke-linecap="round" stroke-linejoin="round" stroke-dasharray="1.029,1.029" d="
		M36.924,50.962c-0.34,0.07-0.682,0.124-1.022,0.24c-0.672,0.229-1.314,0.548-2.011,0.714c-0.812,0.195-1.549,0.534-2.326,0.846
		c-0.685,0.276-1.483,0.323-2.11,0.645c-0.619,0.318-0.499-0.131-0.346-0.586c0.516-1.551,0.892-3.137,1.408-4.683"/>
	<path fill="none" stroke="#FFFFFF" stroke-width="2" stroke-linecap="round" stroke-linejoin="round" d="M30.687,47.649
		c0.058-0.162,0.118-0.323,0.18-0.483c0.151,0.078,0.304,0.155,0.458,0.229"/>
	
		<path fill="none" stroke="#FFFFFF" stroke-width="2" stroke-linecap="round" stroke-linejoin="round" stroke-dasharray="1.021,1.021" d="
		M32.253,47.812c0.603,0.257,1.216,0.5,1.82,0.768c0.351,0.157,0.695,0.329,1.057,0.472c0.472,0.186,0.9,0.451,1.389,0.621
		c0.304,0.107,0.598,0.232,0.895,0.355"/>
	<path fill="none" stroke="#FFFFFF" stroke-width="2" stroke-linecap="round" stroke-linejoin="round" d="M37.891,50.229
		c0.154,0.08,0.291,0.18,0.454,0.237"/>
	<text transform="matrix(1 0 0 1 69.2485 220.9551)" fill="#FFFFFF" font-family="'Roboto-Regular'" font-size="18">mobiliza localmente</text>
	<path fill="#DF4944" d="M230.689,520.604c8.768-3.56,19.384-4.778,27.818-8.216c10.239-4.171,17.472-9.421,28.869-13.324
		c16.231-5.563,35.204-9.793,49.605-16.371c16.765-7.656,37.673-12.789,58.134-18.724c17.976-5.22,29.461-14.339,48.387-18.349
		c18.686-3.959,1.544-7.471-16.119-10.651c-73.003-13.155-145.325-29.397-218.396-41.164c6.054,18.361,6.309,36.052,9.693,54.252
		c1.118,6.009,2.918,12.056,3.407,17.982c0.64,7.778,4.549,15.838,4.456,23.581c-0.073,6.738,1.487,13.654,1.968,20.429
		c0.262,3.506,3.125,7.067,3.133,10.364"/>
	<path fill="none" stroke="#FFFFFF" stroke-width="2" stroke-miterlimit="10" d="M225.86,409.369
		c-2.955-9.141-1.91-25.684,5.398-32.877c4.897-4.826,13.696-8.904,20.649-6.691c7.006,2.229,11.371,11.336,13.51,17.877
		c3.709,11.355-1.487,20.709-9.077,29.061c-2.544,2.799-5.48,5.199-7.708,8.312c-1.317,1.842-4.745,5.977-5.549,7.945
		C242.558,432.465,228.376,417.166,225.86,409.369z"/>
	<path fill="none" stroke="#FFFFFF" stroke-width="2" stroke-miterlimit="10" d="M236.403,388.094
		c-1.332,6.816,3.947,9.404,9.389,9.43c15.709,0.068,7.832-15.402,1.369-16.283C241.067,380.412,237.394,383.023,236.403,388.094z"
		/>
	<path fill="none" stroke="#FFFFFF" stroke-width="2" stroke-miterlimit="10" d="M309.72,354.707
		c-2.119-6.553-1.371-18.414,3.869-23.57c3.509-3.459,9.82-6.385,14.804-4.799c5.022,1.598,8.153,8.129,9.686,12.818
		c2.658,8.141-1.067,14.846-6.508,20.836c-1.824,2.006-3.928,3.727-5.525,5.957c-0.946,1.322-3.403,4.287-3.979,5.699
		C321.69,371.266,311.523,360.299,309.72,354.707z"/>
	<path fill="none" stroke="#FFFFFF" stroke-width="2" stroke-miterlimit="10" d="M317.278,339.455
		c-0.953,4.887,2.83,6.742,6.732,6.758c11.262,0.051,5.614-11.039,0.979-11.672C320.62,333.945,317.987,335.82,317.278,339.455z"/>
	<path fill="none" stroke="#FFFFFF" stroke-width="2" stroke-miterlimit="10" d="M372.022,409.627
		c-2.338-7.242-1.512-20.346,4.279-26.045c3.879-3.822,10.848-7.053,16.356-5.301c5.55,1.766,9.006,8.979,10.701,14.16
		c2.939,8.996-1.176,16.406-7.189,23.023c-2.016,2.215-4.34,4.119-6.106,6.586c-1.045,1.457-3.758,4.732-4.395,6.293
		C385.25,427.922,374.018,415.805,372.022,409.627z"/>
	<path fill="none" stroke="#FFFFFF" stroke-width="2" stroke-miterlimit="10" d="M380.375,392.773
		c-1.055,5.4,3.127,7.449,7.439,7.467c12.444,0.055,6.204-12.197,1.083-12.896C384.069,386.686,381.161,388.756,380.375,392.773z"/>
	<path fill="none" stroke="#FFFFFF" stroke-width="2" stroke-miterlimit="10" d="M227.226,442.188
		c4.494,2.049,9.316,5.768,14.129,6.861c7.641,1.734,15.346-6.775,20.685-11.465c6.993-6.143,13.11-8.127,18.407-15.703
		c6.043-8.641,15.66-9.834,23.138-17.182c7.174-7.043,14.83-22.709,26.691-15.414c10.862,6.68,18.307,19.889,28.072,28.18
		c12.395,10.525,14.137,16.777,24.585,29.037"/>
	<path fill="none" stroke="#FFFFFF" stroke-width="2" stroke-miterlimit="10" d="M236.212,448.195
		c-0.918,4.715,2.73,6.506,6.498,6.522c10.869,0.048,5.42-10.655,0.945-11.267C239.441,442.879,236.899,444.686,236.212,448.195z"/>
	<path fill="none" stroke="#FFFFFF" stroke-width="2" stroke-miterlimit="10" d="M317.657,385.754
		c-1.297,4.051,1.729,6.002,5.039,6.402c9.551,1.162,5.863-8.811,1.99-9.807C321.04,381.412,318.62,382.738,317.657,385.754z"/>
	<path fill="none" stroke="#FFFFFF" stroke-width="2" stroke-miterlimit="10" d="M381.543,445.213
		c-0.611,3.131,1.811,4.32,4.312,4.33c7.217,0.033,3.598-7.074,0.627-7.479C383.687,441.684,381.997,442.885,381.543,445.213z"/>
	<text transform="matrix(1 0 0 1 199.1919 487.9697)"><tspan x="0" y="0" fill="#FFFFFF" font-family="'Roboto-Regular'" font-size="18">a</tspan><tspan x="9.896" y="0" fill="#FFFFFF" font-family="'Roboto-Regular'" font-size="18">r</tspan><tspan x="16.21" y="0" fill="#FFFFFF" font-family="'Roboto-Regular'" font-size="18">ticula a exibição em espaços </tspan></text>
	<text transform="matrix(1 0 0 1 193.7017 519.9736)"><tspan x="0" y="0" fill="#FFFFFF" font-family="'Roboto-Regular'" font-size="18">públicos ou de inte</tspan><tspan x="153.097" y="0" fill="#FFFFFF" font-family="'Roboto-Regular'" font-size="18">r</tspan><tspan x="159.159" y="0" fill="#FFFFFF" font-family="'Roboto-Regular'" font-size="18">esse público</tspan></text>
	<path fill="#DF4944" d="M177.641,636.843c-4.011,6.417-9.265,10.399-13.132,16.561c-4.683,7.493-7.731,15.604-13.042,23.025
		c-7.577,10.602-16.698,20.25-23.211,31.618c-7.599,13.28-17.607,24.464-27.273,36.502c-8.498,10.612-13.228,24.416-22.366,33.75
		c-9.003,9.229,0.124,9.448,9.501,9.151c38.7-1.26,77.436,1.385,115.994-1.575c-5.305-20.892-7.587-42.312-11.527-63.674
		c-1.283-7.018-2.923-13.952-3.916-21.035c-1.259-9.3-4.243-18.177-5.139-27.636c-0.779-8.213-2.401-16.223-3.495-24.369
		c-0.539-4.195-2.43-7.856-2.858-11.842"/>
	<path fill="none" stroke="#F2F2F2" stroke-width="2" stroke-miterlimit="10" d="M82.36,621.555
		c5.929,2.792,12.55,3.068,18.26,5.771c6.928,3.276,12.234,7.917,19.818,10.824c10.792,4.142,23.001,6.698,32.873,12.024
		c11.492,6.199,25.031,9.493,38.446,13.625c11.784,3.643,20.357,11.796,32.495,14.133c11.986,2.303,2.281,7.383-7.799,12.178
		c-41.656,19.834-82.345,42.717-124.289,61.155c0.334-19.044-2.704-36.89-3.946-55.536c-0.418-6.154-0.421-12.402-1.197-18.423
		c-1.02-7.891-0.114-16.367-1.569-24.159c-1.265-6.786-1.568-13.893-2.505-20.761c-0.469-3.56,0.613-7.404,0.022-10.724"/>
	<path fill="none" stroke="#F2F2F2" stroke-width="2" stroke-miterlimit="10" d="M90.628,607.5
		c6.044,2.744,12.812,2.951,18.624,5.61c7.056,3.222,12.456,7.814,20.183,10.648c10.999,4.056,23.456,6.494,33.512,11.741
		c11.702,6.1,25.515,9.273,39.188,13.282c12.027,3.535,20.73,11.628,33.119,13.847c12.23,2.194,2.281,7.389-8.046,12.296
		c-42.678,20.303-84.39,43.648-127.357,62.558c0.455-19.101-2.533-36.97-3.697-55.648c-0.379-6.17-0.348-12.445-1.098-18.467
		c-0.992-7.91-0.022-16.418-1.456-24.218c-1.247-6.787-1.519-13.914-2.43-20.795c-0.468-3.558,0.664-7.432,0.082-10.753"/>
	<text transform="matrix(1 0 0 1 136.8428 769.2051)"><tspan x="0" y="0" fill="#FFFFFF" font-family="'Roboto-Regular'" font-size="18">r</tspan><tspan x="6.008" y="0" fill="#FFFFFF" font-family="'Roboto-Regular'" font-size="18">ealiza a sessão/atividade</tspan></text>
	<path fill="#FFFFFF" d="M420.819,574.294c6.868,14.974,2.27,31.779-4.406,45.88c-3.41,7.203-8.984,12.05-14.013,18.018
		c-4.174,4.952-7.703,10.426-11.166,15.884c-7.642,12.044-15.123,24.248-27.384,32.14c-6.66,4.286-14.254,6.69-21.492,9.765
		c-3.215,1.365-6.432,2.81-9.481,4.517c-4.253,2.381-9.015,2.33-13.655,3.385c-1.821,0.413-1.048,3.204,0.77,2.791
		c3.811-0.865,8.115-0.749,11.71-2.379c3.597-1.631,7.122-3.434,10.674-5.162c8.057-3.922,16.518-6.286,24.129-11.185
		c12.51-8.052,20.183-21.305,27.956-33.555c4.085-6.438,8.409-12.693,13.641-18.263c5.527-5.886,9.655-11.414,12.819-18.953
		c5.889-14.035,9.012-29.923,2.398-44.343C422.541,571.137,420.046,572.609,420.819,574.294"/>
	<path fill="#FFFFFF" d="M320.42,705.518c2.938-3.821,6.304-7.521,8.489-11.848c0.84-1.661-1.658-3.128-2.5-1.461
		c-2.179,4.314-5.559,8.037-8.489,11.848C316.782,705.536,319.299,706.976,320.42,705.518"/>
	<path fill="#FFFFFF" d="M318.44,706.037c3.012,1.459,6.022,2.889,9.007,4.403c2.508,1.274,5.321,1.856,7.832,3.126
		c1.661,0.842,3.127-1.656,1.461-2.5c-1.951-0.986-4.025-1.679-6.079-2.426c-3.669-1.337-7.236-3.396-10.76-5.104
		C318.229,702.727,316.76,705.223,318.44,706.037"/>
	<path fill="#DF4944" d="M461.912,972.232c-8.737,2.08-16.376,1.097-24.788,3.104c-10.209,2.433-19.607,6.748-30.256,8.619
		c-15.187,2.653-30.808,3.242-45.825,7.456c-17.507,4.906-35.14,6.062-53.263,8.228c-15.941,1.902-31.592,9.625-46.953,9.951
		c-15.18,0.331-8.017,8.053-0.222,15.521c32.185,30.871,61.041,65.06,94.596,94.383c13.67-21.963,30.244-41.893,45.404-63.096
		c4.993-6.982,9.621-14.181,14.933-20.947c6.961-8.881,12.208-18.802,19.589-27.491c6.423-7.545,11.999-15.657,18.124-23.387
		c3.157-3.991,4.783-8.632,7.889-12.331"/>
	<path fill="none" stroke="#DF4944" stroke-width="0.709" stroke-miterlimit="10" d="M461.912,972.232
		c-8.737,2.08-16.376,1.097-24.788,3.104c-10.209,2.433-19.607,6.748-30.256,8.619c-15.187,2.653-30.808,3.242-45.825,7.456
		c-17.507,4.906-35.14,6.062-53.263,8.228c-15.941,1.902-31.592,9.625-46.953,9.951c-15.18,0.331-8.017,8.053-0.222,15.521
		c32.185,30.871,61.041,65.06,94.596,94.383c13.67-21.963,30.244-41.893,45.404-63.096c4.993-6.982,9.621-14.181,14.933-20.947
		c6.961-8.881,12.208-18.802,19.589-27.491c6.423-7.545,11.999-15.657,18.124-23.387c3.157-3.991,4.783-8.632,7.889-12.331"/>
	<path fill="none" stroke="#FFFFFF" stroke-width="1.558" stroke-miterlimit="10" d="M312.489,880.65
		c-3.014,1.944-4.54,5.503-6.029,8.503c-2.492,5.008-4.46,10.061-6.574,15.294c-6.315,15.627-3.931,32.975-1.852,49.391
		c1.084,8.562,3.2,17.047,5.136,25.527c0.811,3.551,0.891,6.944,1.691,10.451c0.996,4.353,3.508,7.12,5.78,10.797
		c4.095,6.621,7.047,13.931,10.904,20.622c1.646,2.853,2.873,6.27,4.995,8.791c2.043,2.435,5.841,4.575,8.354,6.359
		c5.214,3.71,7.521,6.839,13.466,9.752c5.346,2.619,14.804,1.046,18.951-2.788c1.845-1.708,7.346-8.501,9.078-10.603
		c3.343-4.05,5.551-11.108,7.254-16.047c1.032-2.993,1.95-5.739,2.469-8.843c0.447-2.666,0.76-5.781,1.372-8.414
		c1.544-6.648-1.354-13.268-1.104-19.878c0.499-13.262-4.116-26.51-5.848-39.615c-0.88-6.668-1.793-13.591-4.723-19.652
		c-2.832-5.865-7.172-10.62-10.01-16.33c-5.551-11.152-17.997-21.749-29.178-26.626c-4.426-1.932-8.666-3.223-13.276-2.866
		C320.618,874.687,315.044,879,312.489,880.65z"/>
	<path fill="none" stroke="#FFFFFF" stroke-width="1.558" stroke-miterlimit="10" d="M304.825,1036.483
		c12.421-0.27,23.212-8.385,33.143-15.109c5.351-3.621,9.729-6.943,14.221-11.444c3.864-3.87,8.523-6.04,13.014-8.859
		c4.94-3.101,8.114-7.903,10.699-12.962c3.472-6.789,7.714-13.322,11.022-20.206c6.427-13.366,12.103-27.1,15.147-41.834
		c2.7-13.073,2.462-25.06-6.343-35.31c-4.423-5.154-11.169-7.193-18.467-5.479c-5.345,1.256-10.306,1.292-16.823,3.021
		c-6.439,1.705-12.294,7.448-18.037,10.639c-6.032,3.354-11.752,9.287-17.541,12.763c-6.911,4.149-10.108,9.877-14.148,16.788
		c-4.652,7.961-11.497,14.358-15.619,22.375c-7.339,14.276-16.345,27.924-15.157,44.842c0.319,4.593,0.961,7.299,0.72,11.926
		c-0.196,3.785-0.124,9.909,2.084,13.83C286.055,1027.349,297.488,1036.643,304.825,1036.483z"/>
	<path fill="none" stroke="#FFFFFF" stroke-width="1.558" stroke-miterlimit="10" d="M265.057,924.282
		c-0.755,3.508,0.68,7.102,1.748,10.275c1.78,5.302,3.961,10.268,6.166,15.463c6.586,15.513,20.537,26.095,33.616,36.234
		c6.82,5.288,14.314,9.791,21.681,14.419c3.084,1.937,5.542,4.279,8.587,6.192c3.782,2.375,7.517,2.558,11.723,3.549
		c7.578,1.786,14.833,4.868,22.291,6.87c3.181,0.854,6.464,2.404,9.75,2.687c3.165,0.274,7.362-0.895,10.403-1.409
		c6.31-1.066,10.153-0.481,16.418-2.626c5.63-1.928,11.206-9.729,11.425-15.371c0.098-2.516-0.813-11.207-1.076-13.919
		c-0.499-5.228-3.927-11.78-6.216-16.477c-1.388-2.848-2.68-5.437-4.507-7.999c-1.571-2.199-3.55-4.626-4.982-6.92
		c-3.607-5.791-10.336-8.424-14.835-13.273c-9.025-9.729-21.657-15.837-32.145-23.879c-5.341-4.093-10.88-8.34-17.238-10.557
		c-6.151-2.143-12.581-2.439-18.627-4.465c-11.809-3.961-28.102-2.655-39.457,1.801c-4.497,1.763-8.408,3.851-11.414,7.36
		C266.585,914.317,265.698,921.307,265.057,924.282z"/>
	<path fill="none" stroke="#FFFFFF" stroke-width="1.558" stroke-miterlimit="10" d="M264.994,997.55
		c9.893,7.514,23.386,7.872,35.349,8.784c6.442,0.491,11.938,0.613,18.253-0.116c5.433-0.625,10.432,0.572,15.699,1.156
		c5.799,0.645,11.27-1.143,16.442-3.493c6.94-3.157,14.325-5.635,21.198-8.968c13.344-6.472,26.334-13.691,37.88-23.334
		c10.243-8.561,17.515-18.093,16.997-31.596c-0.259-6.788-4.27-12.579-11.057-15.776c-4.963-2.34-8.87-5.398-15.049-8.1
		c-6.101-2.668-14.257-1.812-20.738-2.889c-6.809-1.124-14.98-0.036-21.674-0.915c-7.993-1.048-14.06,1.446-21.522,4.346
		c-8.594,3.34-17.931,4.093-26.146,7.806c-14.627,6.613-30.168,11.699-39.762,25.681c-2.605,3.8-3.784,6.319-6.851,9.793
		c-2.506,2.838-6.264,7.677-6.971,12.122C255.976,978.721,259.147,993.111,264.994,997.55z"/>
	<path fill="none" stroke="#FFFFFF" stroke-width="1.558" stroke-miterlimit="10" d="M342.2,945.271
		c-14.471,4.877-14.99,17.177-7.233,26.723c9.709,11.953,31.603-0.824,22.187-20.224C353.946,945.163,346.867,943.701,342.2,945.271
		z"/>
	<path fill="none" stroke="#FFFFFF" stroke-width="1.558" stroke-miterlimit="10" d="M349.165,879.68
		c-4.061,1.367-4.208,4.817-2.029,7.501c2.725,3.353,8.872-0.234,6.226-5.681C352.464,879.647,350.476,879.237,349.165,879.68z"/>
	<path fill="none" stroke="#FFFFFF" stroke-width="1.558" stroke-miterlimit="10" d="M264.4,925.554
		c-4.061,1.367-4.209,4.821-2.029,7.501c2.725,3.354,8.869-0.233,6.226-5.678C267.697,925.521,265.709,925.112,264.4,925.554z"/>
	<path fill="none" stroke="#FFFFFF" stroke-width="1.558" stroke-miterlimit="10" d="M279.728,983.995
		c-4.061,1.37-4.209,4.82-2.029,7.501c2.725,3.355,8.869-0.232,6.226-5.675C283.023,983.966,281.038,983.555,279.728,983.995z"/>
	<path fill="none" stroke="#FFFFFF" stroke-width="1.558" stroke-miterlimit="10" d="M377.41,979.199
		c-4.061,1.367-4.208,4.821-2.029,7.498c2.725,3.355,8.87-0.231,6.226-5.675C380.708,979.165,378.72,978.757,377.41,979.199z"/>
	<path fill="none" stroke="#FFFFFF" stroke-width="1.558" stroke-miterlimit="10" d="M343.698,1038.037
		c-4.063,1.369-4.208,4.819-2.031,7.5c2.727,3.355,8.872-0.231,6.228-5.677C346.995,1038.007,345.006,1037.597,343.698,1038.037z"/>
	<path fill="none" stroke="#FFFFFF" stroke-width="1.558" stroke-miterlimit="10" d="M417.517,921.466
		c-4.063,1.37-4.209,4.821-2.031,7.501c2.725,3.354,8.872-0.232,6.228-5.678C420.813,921.434,418.825,921.023,417.517,921.466z"/>
	<path fill="none" stroke="#FFFFFF" stroke-width="1.558" stroke-miterlimit="10" d="M404.796,955.575
		c-4.063,1.367-4.209,4.82-2.032,7.501c2.728,3.353,8.873-0.234,6.229-5.678C408.093,955.543,406.104,955.133,404.796,955.575z"/>
	<text transform="matrix(1 0 0 1 167.7344 1084.7207)"><tspan x="0" y="0" fill="#FFFFFF" font-family="'Roboto-Regular'" font-size="18">conecta o ponto local à </tspan><tspan x="193.597" y="0" fill="#FFFFFF" font-family="'Roboto-Regular'" font-size="18">r</tspan><tspan x="199.641" y="0" fill="#FFFFFF" font-family="'Roboto-Regular'" font-size="18">ede gerada </tspan></text>
	<text transform="matrix(1 0 0 1 163.0005 1116.7246)"><tspan x="0" y="0" fill="#FFFFFF" font-family="'Roboto-Regular'" font-size="18">em torno da obra audi</tspan><tspan x="177.776" y="0" fill="#FFFFFF" font-family="'Roboto-Regular'" font-size="18">o</tspan><tspan x="187.899" y="0" fill="#FFFFFF" font-family="'Roboto-Regular'" font-size="18">visual exibida</tspan></text>
	<path fill="#FFFCFF" d="M189.107,949.458c-12.448,1.613-24.516-5.211-34.438-12.009c-5.433-3.722-10.905-7.526-16.115-11.555
		c-4.784-3.7-8.571-8.541-12.371-13.198c-8.399-10.293-16.224-20.478-23.326-31.742c-1.26-1.997-2.614-3.913-4.084-5.759
		c-2.647-3.325-3.712-7.432-5.097-11.373c-1.169-3.33-3.157-6.523-3.511-10.086c-0.256-2.569-0.552-5.307-0.45-7.893
		c0.062-1.589-2.402-1.583-2.464,0c-0.221,5.614,0.78,10.627,2.923,15.758c1.262,3.02,2.218,6.149,3.36,9.214
		c1.226,3.29,3.213,5.632,5.247,8.446c4.122,5.703,7.655,11.863,11.606,17.689c3.903,5.754,8.603,10.738,12.954,16.129
		c4.163,5.157,8.306,10.36,13.471,14.556c5.264,4.275,11.043,8.076,16.614,11.94c10.214,7.085,22.831,14.011,35.681,12.346
		C190.66,951.72,190.679,949.254,189.107,949.458"/>
	<path fill="#FFFCFF" d="M188.801,951.078c-2.949,4.19-8.007,6.437-11.203,10.469c-0.975,1.231,0.756,2.987,1.742,1.742
		c3.339-4.213,8.491-6.566,11.588-10.968C191.845,951.019,189.708,949.79,188.801,951.078"/>
	<path fill="#FFFCFF" d="M190.383,950.152c-1.938-2.358-3.937-4.68-6.066-6.868c-1.016-1.044-2.184-1.914-3.329-2.81
		c-1.569-1.225-2.708-2.848-4.209-4.14c-1.198-1.031-2.948,0.703-1.742,1.742c1.345,1.157,2.391,2.589,3.737,3.748
		c1.137,0.979,2.353,1.847,3.46,2.863c2.346,2.156,4.389,4.751,6.407,7.206C189.65,953.123,191.383,951.37,190.383,950.152"/>
</g>
</svg>
