<?xml version="1.0" encoding="utf-8"?>
<!-- Generator: Adobe Illustrator 16.0.0, SVG Export Plug-In . SVG Version: 6.00 Build 0)  -->
<!DOCTYPE svg PUBLIC "-//W3C//DTD SVG 1.1//EN" "http://www.w3.org/Graphics/SVG/1.1/DTD/svg11.dtd">
<svg version="1.1" id="Layer_1" xmlns="http://www.w3.org/2000/svg" xmlns:xlink="http://www.w3.org/1999/xlink" x="0px" y="0px"
	 width="17.192px" height="12.521px" viewBox="0 0 17.192 12.521" enable-background="new 0 0 17.192 12.521" xml:space="preserve">
<path fill="#E04A45" d="M17.192,5.924c-0.728-0.214-1.254-0.612-1.953-0.818c-0.852-0.248-1.717-0.323-2.576-0.634
	C11.434,4.027,10.255,3.41,8.981,3.09C7.493,2.717,6.144,2.055,4.718,1.449C3.464,0.917,2.004,0.835,0.855,0.206
	C-0.28-0.412-0.053,0.475,0.23,1.372c1.172,3.7,1.967,7.51,3.299,11.149c1.872-1.079,3.877-1.881,5.832-2.84
	c0.642-0.314,1.266-0.661,1.924-0.949c0.863-0.374,1.638-0.901,2.527-1.246c0.771-0.298,1.5-0.671,2.256-0.998
	c0.391-0.167,0.692-0.448,1.065-0.597"/>
</svg>
