<?xml version="1.0" encoding="utf-8"?>
<!-- Generator: Adobe Illustrator 16.0.0, SVG Export Plug-In . SVG Version: 6.00 Build 0)  -->
<!DOCTYPE svg PUBLIC "-//W3C//DTD SVG 1.1//EN" "http://www.w3.org/Graphics/SVG/1.1/DTD/svg11.dtd">
<svg version="1.1" id="Layer_1" xmlns="http://www.w3.org/2000/svg" xmlns:xlink="http://www.w3.org/1999/xlink" x="0px" y="0px"
	 width="29.166px" height="25px" viewBox="0 0 29.166 25" enable-background="new 0 0 29.166 25" xml:space="preserve">
<path fill="#DF4944" d="M28.361,0.461c-1.156,0.726-2.438,1.25-3.801,1.534C23.471,0.769,21.916,0,20.193,0
	c-3.303,0-5.982,2.826-5.982,6.313c0,0.494,0.053,0.975,0.154,1.438C9.393,7.487,4.984,4.976,2.031,1.156
	C1.518,2.087,1.221,3.173,1.221,4.33c0,2.188,1.059,4.12,2.664,5.251C2.904,9.549,1.98,9.265,1.174,8.792v0.08
	c0,3.057,2.062,5.607,4.801,6.189c-0.502,0.144-1.031,0.222-1.578,0.222c-0.385,0-0.76-0.04-1.125-0.114
	c0.762,2.507,2.971,4.332,5.59,4.384c-2.049,1.692-4.627,2.702-7.434,2.702c-0.484,0-0.959-0.029-1.428-0.088
	C2.65,23.957,5.797,25,9.174,25c11.008,0,17.023-9.615,17.023-17.956c0-0.271-0.004-0.547-0.016-0.816
	c1.168-0.89,2.184-2.002,2.984-3.268c-1.072,0.503-2.225,0.842-3.436,0.994C26.967,3.173,27.914,1.937,28.361,0.461"/>
</svg>
