<?xml version="1.0" encoding="utf-8"?>
<!-- Generator: Adobe Illustrator 16.0.0, SVG Export Plug-In . SVG Version: 6.00 Build 0)  -->
<!DOCTYPE svg PUBLIC "-//W3C//DTD SVG 1.1//EN" "http://www.w3.org/Graphics/SVG/1.1/DTD/svg11.dtd">
<svg version="1.1" id="Layer_1" xmlns="http://www.w3.org/2000/svg" xmlns:xlink="http://www.w3.org/1999/xlink" x="0px" y="0px"
	 width="173.167px" height="176px" viewBox="0 0 173.167 176" enable-background="new 0 0 173.167 176" xml:space="preserve">
<path fill="none" stroke="#E04A45" stroke-width="2" stroke-miterlimit="10" d="M57.049,7.878c-3.016,1.946-4.541,5.504-6.031,8.503
	c-2.49,5.008-4.459,10.061-6.573,15.295c-6.314,15.628-3.931,32.978-1.853,49.396c1.084,8.563,3.199,17.048,5.137,25.531
	c0.811,3.549,0.891,6.943,1.691,10.45c0.995,4.353,3.508,7.123,5.781,10.799c4.095,6.622,7.047,13.934,10.904,20.623
	c1.645,2.854,2.873,6.271,4.994,8.794c2.045,2.434,5.844,4.574,8.354,6.36c5.216,3.711,7.522,6.84,13.47,9.754
	c5.344,2.618,14.805,1.045,18.95-2.79c1.847-1.708,7.349-8.502,9.082-10.604c3.341-4.05,5.552-11.108,7.254-16.048
	c1.032-2.995,1.95-5.738,2.47-8.843c0.445-2.668,0.76-5.783,1.371-8.416c1.543-6.648-1.353-13.269-1.104-19.88
	c0.499-13.263-4.116-26.513-5.847-39.618c-0.881-6.67-1.795-13.592-4.725-19.655c-2.833-5.865-7.172-10.621-10.012-16.329
	c-5.553-11.154-17.998-21.753-29.18-26.632c-4.428-1.931-8.668-3.222-13.277-2.865C65.178,1.913,59.606,6.227,57.049,7.878z"/>
<path fill="none" stroke="#E04A45" stroke-width="2" stroke-miterlimit="10" d="M49.385,163.725
	c12.422-0.27,23.211-8.384,33.146-15.109c5.352-3.622,9.729-6.945,14.223-11.446c3.863-3.87,8.523-6.041,13.012-8.858
	c4.941-3.104,8.115-7.906,10.703-12.965c3.472-6.789,7.715-13.322,11.022-20.207c6.425-13.369,12.104-27.104,15.147-41.839
	c2.699-13.074,2.463-25.062-6.342-35.312c-4.426-5.155-11.17-7.195-18.471-5.479c-5.345,1.257-10.307,1.292-16.825,3.021
	c-6.44,1.705-12.294,7.449-18.036,10.64c-6.033,3.353-11.754,9.288-17.545,12.764c-6.91,4.149-10.109,9.879-14.148,16.791
	c-4.653,7.962-11.498,14.358-15.62,22.376c-7.341,14.277-16.349,27.927-15.161,44.846c0.322,4.595,0.963,7.302,0.723,11.929
	c-0.197,3.784-0.125,9.91,2.082,13.831C30.613,154.589,42.047,163.884,49.385,163.725z"/>
<path fill="none" stroke="#E04A45" stroke-width="2" stroke-miterlimit="10" d="M9.612,51.514
	c-0.755,3.507,0.682,7.103,1.748,10.276c1.779,5.302,3.961,10.268,6.166,15.464c6.587,15.516,20.54,26.099,33.619,36.239
	c6.822,5.288,14.316,9.791,21.685,14.42c3.083,1.937,5.541,4.279,8.587,6.192c3.782,2.375,7.518,2.558,11.723,3.548
	c7.58,1.787,14.836,4.869,22.293,6.872c3.183,0.855,6.467,2.404,9.752,2.688c3.166,0.274,7.363-0.897,10.404-1.41
	c6.312-1.065,10.155-0.481,16.42-2.627c5.631-1.928,11.209-9.729,11.429-15.373c0.098-2.513-0.817-11.208-1.077-13.92
	c-0.501-5.227-3.93-11.781-6.219-16.478c-1.387-2.848-2.678-5.437-4.506-7.998c-1.571-2.201-3.553-4.627-4.981-6.922
	c-3.61-5.793-10.339-8.426-14.839-13.275c-9.025-9.731-21.658-15.837-32.148-23.88c-5.34-4.093-10.88-8.341-17.238-10.559
	c-6.151-2.144-12.582-2.438-18.629-4.467c-11.811-3.962-28.104-2.655-39.461,1.802c-4.498,1.766-8.408,3.851-11.416,7.362
	C11.141,41.547,10.252,48.539,9.612,51.514z"/>
<path fill="none" stroke="#E04A45" stroke-width="2" stroke-miterlimit="10" d="M9.548,124.789
	c9.894,7.515,23.39,7.873,35.353,8.785c6.442,0.492,11.938,0.613,18.256-0.116c5.433-0.627,10.431,0.571,15.699,1.157
	c5.799,0.644,11.272-1.144,16.443-3.495c6.941-3.156,14.327-5.634,21.2-8.967c13.347-6.474,26.336-13.695,37.884-23.339
	c10.247-8.56,17.518-18.094,16.999-31.598c-0.26-6.789-4.272-12.581-11.058-15.777c-4.965-2.341-8.871-5.399-15.049-8.102
	c-6.105-2.669-14.262-1.812-20.744-2.886c-6.807-1.127-14.979-0.038-21.676-0.917c-7.992-1.05-14.061,1.446-21.523,4.346
	c-8.594,3.341-17.934,4.092-26.148,7.807C40.557,58.3,25.013,63.386,15.419,77.371c-2.606,3.798-3.786,6.318-6.853,9.792
	c-2.508,2.84-6.263,7.681-6.972,12.124C0.53,105.958,3.704,120.349,9.548,124.789z"/>
<path fill="none" stroke="#E04A45" stroke-width="2" stroke-miterlimit="10" d="M86.762,72.506
	c-14.473,4.877-14.99,17.177-7.234,26.724c9.711,11.954,31.607-0.824,22.189-20.227C98.509,72.396,91.428,70.934,86.762,72.506z"/>
<path fill="none" stroke="#E04A45" stroke-width="2" stroke-miterlimit="10" d="M93.729,6.906c-4.062,1.369-4.208,4.821-2.031,7.501
	c2.727,3.356,8.873-0.231,6.229-5.678C97.026,6.874,95.04,6.464,93.729,6.906z"/>
<path fill="none" stroke="#E04A45" stroke-width="2" stroke-miterlimit="10" d="M8.954,52.786c-4.062,1.369-4.207,4.821-2.03,7.501
	c2.726,3.354,8.873-0.232,6.229-5.678C12.251,52.754,10.264,52.343,8.954,52.786z"/>
<path fill="none" stroke="#E04A45" stroke-width="2" stroke-miterlimit="10" d="M24.284,111.233
	c-4.062,1.369-4.208,4.821-2.031,7.501c2.727,3.356,8.873-0.23,6.229-5.678C27.581,111.202,25.594,110.792,24.284,111.233z"/>
<path fill="none" stroke="#E04A45" stroke-width="2" stroke-miterlimit="10" d="M121.977,106.436
	c-4.063,1.368-4.209,4.819-2.031,7.501c2.726,3.354,8.873-0.232,6.229-5.678C125.274,106.404,123.287,105.994,121.977,106.436z"/>
<path fill="none" stroke="#E04A45" stroke-width="2" stroke-miterlimit="10" d="M88.26,165.281
	c-4.062,1.368-4.208,4.819-2.031,7.501c2.727,3.354,8.873-0.232,6.229-5.679C91.557,165.249,89.571,164.838,88.26,165.281z"/>
<path fill="none" stroke="#E04A45" stroke-width="2" stroke-miterlimit="10" d="M162.086,48.697
	c-4.063,1.369-4.209,4.821-2.031,7.501c2.726,3.355,8.873-0.231,6.229-5.678C165.383,48.666,163.395,48.255,162.086,48.697z"/>
<path fill="none" stroke="#E04A45" stroke-width="2" stroke-miterlimit="10" d="M149.364,82.809
	c-4.062,1.369-4.207,4.821-2.03,7.501c2.726,3.356,8.873-0.231,6.229-5.678C152.662,82.778,150.674,82.367,149.364,82.809z"/>
</svg>
