<?xml version="1.0" encoding="utf-8"?>
<!-- Generator: Adobe Illustrator 16.0.0, SVG Export Plug-In . SVG Version: 6.00 Build 0)  -->
<!DOCTYPE svg PUBLIC "-//W3C//DTD SVG 1.1//EN" "http://www.w3.org/Graphics/SVG/1.1/DTD/svg11.dtd">
<svg version="1.1" id="Layer_1" xmlns="http://www.w3.org/2000/svg" xmlns:xlink="http://www.w3.org/1999/xlink" x="0px" y="0px"
	 width="173.167px" height="176px" viewBox="0 0 173.167 176" enable-background="new 0 0 173.167 176" xml:space="preserve">
<path fill="none" stroke="#DF4944" stroke-width="2" stroke-miterlimit="10" d="M57.049,7.878c-3.016,1.946-4.541,5.504-6.031,8.503
	c-2.49,5.008-4.459,10.061-6.573,15.295c-6.314,15.628-3.931,32.978-1.853,49.396c1.084,8.562,3.199,17.048,5.137,25.531
	c0.811,3.549,0.891,6.941,1.691,10.448c0.995,4.354,3.508,7.123,5.781,10.8c4.095,6.623,7.047,13.935,10.904,20.623
	c1.645,2.854,2.873,6.271,4.994,8.795c2.045,2.434,5.844,4.572,8.354,6.358c5.216,3.711,7.522,6.84,13.47,9.754
	c5.344,2.618,14.805,1.045,18.949-2.79c1.848-1.708,7.35-8.502,9.082-10.604c3.342-4.051,5.553-11.108,7.254-16.049
	c1.033-2.996,1.951-5.737,2.471-8.844c0.445-2.668,0.76-5.783,1.371-8.416c1.543-6.646-1.354-13.269-1.104-19.88
	c0.499-13.263-4.116-26.513-5.847-39.618c-0.881-6.67-1.795-13.592-4.725-19.655c-2.834-5.865-7.172-10.621-10.014-16.329
	c-5.553-11.154-17.998-21.753-29.18-26.632c-4.428-1.931-8.668-3.222-13.277-2.865C65.178,1.913,59.606,6.227,57.049,7.878z"/>
<path fill="none" stroke="#DF4944" stroke-width="2" stroke-miterlimit="10" d="M49.385,163.725
	c12.422-0.27,23.211-8.384,33.146-15.107c5.352-3.622,9.729-6.945,14.223-11.446c3.863-3.87,8.523-6.041,13.014-8.856
	c4.939-3.104,8.113-7.906,10.703-12.965c3.472-6.789,7.715-13.322,11.021-20.207c6.424-13.371,12.104-27.104,15.146-41.841
	c2.699-13.074,2.463-25.062-6.342-35.312c-4.426-5.155-11.17-7.195-18.471-5.479c-5.347,1.257-10.309,1.292-16.826,3.021
	c-6.439,1.705-12.293,7.449-18.037,10.64c-6.033,3.353-11.754,9.288-17.545,12.764c-6.91,4.149-10.109,9.879-14.148,16.791
	c-4.653,7.962-11.498,14.358-15.62,22.376c-7.341,14.277-16.349,27.927-15.161,44.846c0.322,4.595,0.963,7.302,0.723,11.929
	c-0.197,3.784-0.125,9.91,2.082,13.831C30.613,154.589,42.047,163.884,49.385,163.725z"/>
<path fill="none" stroke="#DF4944" stroke-width="2" stroke-miterlimit="10" d="M9.612,51.514
	c-0.755,3.507,0.682,7.103,1.748,10.276c1.779,5.302,3.961,10.268,6.166,15.464c6.587,15.516,20.54,26.1,33.619,36.239
	c6.822,5.288,14.316,9.791,21.685,14.42c3.083,1.937,5.541,4.278,8.587,6.192c3.782,2.375,7.518,2.558,11.723,3.547
	c7.58,1.787,14.836,4.869,22.293,6.873c3.184,0.854,6.467,2.404,9.752,2.688c3.166,0.273,7.363-0.896,10.404-1.41
	c6.312-1.063,10.154-0.479,16.42-2.627c5.631-1.928,11.209-9.729,11.429-15.373c0.099-2.513-0.817-11.208-1.077-13.92
	c-0.501-5.227-3.93-11.781-6.219-16.478c-1.387-2.849-2.678-5.438-4.506-7.998c-1.571-2.201-3.553-4.627-4.981-6.922
	c-3.61-5.793-10.339-8.426-14.839-13.275c-9.025-9.731-21.658-15.837-32.148-23.88c-5.34-4.093-10.879-8.341-17.236-10.559
	c-6.151-2.144-12.582-2.438-18.629-4.467c-11.811-3.962-28.104-2.655-39.461,1.802c-4.498,1.766-8.408,3.851-11.416,7.362
	C11.141,41.547,10.252,48.539,9.612,51.514z"/>
<path fill="none" stroke="#DF4944" stroke-width="2" stroke-miterlimit="10" d="M9.548,124.789
	c9.894,7.516,23.39,7.873,35.353,8.785c6.442,0.492,11.938,0.613,18.256-0.116c5.433-0.627,10.431,0.571,15.699,1.157
	c5.799,0.644,11.272-1.146,16.442-3.495c6.94-3.156,14.328-5.634,21.201-8.968c13.347-6.473,26.336-13.694,37.883-23.338
	c10.248-8.562,17.519-18.094,17-31.6c-0.26-6.789-4.272-12.581-11.06-15.777c-4.965-2.341-8.87-5.399-15.049-8.102
	c-6.104-2.669-14.262-1.812-20.744-2.886c-6.807-1.127-14.979-0.038-21.676-0.917c-7.992-1.05-14.062,1.446-21.523,4.346
	c-8.594,3.341-17.934,4.092-26.148,7.807c-14.626,6.614-30.17,11.7-39.764,25.685c-2.606,3.798-3.786,6.318-6.853,9.792
	c-2.508,2.84-6.263,7.681-6.972,12.124C0.53,105.958,3.704,120.35,9.548,124.789z"/>
<path fill="none" stroke="#DF4944" stroke-width="2" stroke-miterlimit="10" d="M86.762,72.506
	c-14.473,4.877-14.99,17.178-7.234,26.725c9.711,11.953,31.606-0.823,22.188-20.228C98.509,72.396,91.428,70.934,86.762,72.506z"/>
<path fill="none" stroke="#DF4944" stroke-width="2" stroke-miterlimit="10" d="M93.729,6.906c-4.062,1.369-4.208,4.821-2.031,7.501
	c2.728,3.356,8.873-0.231,6.229-5.678C97.026,6.874,95.041,6.464,93.729,6.906z"/>
<path fill="none" stroke="#DF4944" stroke-width="2" stroke-miterlimit="10" d="M8.954,52.786c-4.062,1.369-4.207,4.821-2.03,7.501
	c2.726,3.354,8.873-0.232,6.229-5.678C12.251,52.754,10.264,52.343,8.954,52.786z"/>
<path fill="none" stroke="#DF4944" stroke-width="2" stroke-miterlimit="10" d="M24.284,111.232
	c-4.062,1.369-4.208,4.822-2.031,7.502c2.727,3.354,8.873-0.23,6.229-5.678C27.581,111.202,25.594,110.792,24.284,111.232z"/>
<path fill="none" stroke="#DF4944" stroke-width="2" stroke-miterlimit="10" d="M121.977,106.436
	c-4.063,1.369-4.209,4.819-2.031,7.502c2.726,3.354,8.873-0.231,6.229-5.679C125.274,106.404,123.287,105.994,121.977,106.436z"/>
<path fill="none" stroke="#DF4944" stroke-width="2" stroke-miterlimit="10" d="M88.259,165.281
	c-4.061,1.367-4.207,4.818-2.03,7.501c2.728,3.354,8.873-0.232,6.229-5.679C91.557,165.249,89.571,164.838,88.259,165.281z"/>
<path fill="none" stroke="#DF4944" stroke-width="2" stroke-miterlimit="10" d="M162.085,48.697
	c-4.062,1.369-4.209,4.821-2.03,7.501c2.726,3.354,8.873-0.231,6.229-5.678C165.382,48.666,163.395,48.255,162.085,48.697z"/>
<path fill="none" stroke="#DF4944" stroke-width="2" stroke-miterlimit="10" d="M149.364,82.809
	c-4.062,1.369-4.206,4.821-2.03,7.501c2.728,3.354,8.873-0.231,6.229-5.68C152.662,82.778,150.673,82.367,149.364,82.809z"/>
</svg>
