<?xml version="1.0" encoding="utf-8"?>
<!-- Generator: Adobe Illustrator 16.0.0, SVG Export Plug-In . SVG Version: 6.00 Build 0)  -->
<!DOCTYPE svg PUBLIC "-//W3C//DTD SVG 1.1//EN" "http://www.w3.org/Graphics/SVG/1.1/DTD/svg11.dtd">
<svg version="1.1" id="Layer_1" xmlns="http://www.w3.org/2000/svg" xmlns:xlink="http://www.w3.org/1999/xlink" x="0px" y="0px"
	 width="252.938px" height="149px" viewBox="0 0 252.938 149" enable-background="new 0 0 252.938 149" xml:space="preserve">
<path fill="none" stroke="#E04A45" stroke-width="2" stroke-miterlimit="10" d="M83.747,78.472
	c-2.344-6.788-7.055-16.214-14.403-18.419c-7.292-2.189-16.403,2.218-21.429,7.336c-7.502,7.631-8.307,24.91-5.067,34.397
	c2.76,8.092,17.819,23.81,18.377,24.356c0.806-2.068,4.312-6.443,5.651-8.387c2.272-3.285,5.293-5.842,7.9-8.806
	C82.553,100.104,87.812,90.257,83.747,78.472z M63.441,89.081c-5.68,0.068-11.231-2.541-9.96-9.675
	c0.946-5.308,4.734-8.097,11.106-7.336C71.348,72.877,79.833,88.884,63.441,89.081z"/>
<path fill="none" stroke="#E04A45" stroke-width="2" stroke-miterlimit="10" d="M158.105,16.119
	c-1.681-4.867-5.058-11.625-10.327-13.206c-5.225-1.569-11.76,1.592-15.363,5.26c-5.377,5.47-5.955,17.859-3.632,24.66
	c1.978,5.803,12.775,17.071,13.175,17.462c0.578-1.483,3.09-4.619,4.053-6.012c1.629-2.355,3.795-4.188,5.664-6.312
	C157.249,31.627,161.02,24.569,158.105,16.119z M143.548,23.725c-4.071,0.05-8.051-1.821-7.141-6.936
	c0.678-3.805,3.393-5.805,7.961-5.26C149.216,12.109,155.3,23.583,143.548,23.725z"/>
<path fill="none" stroke="#E04A45" stroke-width="2" stroke-miterlimit="10" d="M227.132,70.594
	c-1.857-5.377-5.588-12.843-11.409-14.591c-5.774-1.734-12.991,1.759-16.974,5.813c-5.942,6.044-6.58,19.73-4.015,27.247
	c2.187,6.411,14.117,18.86,14.56,19.294c0.637-1.639,3.412-5.104,4.477-6.643c1.799-2.604,4.191-4.629,6.257-6.977
	C226.188,87.73,230.354,79.93,227.132,70.594z M211.05,78.997c-4.5,0.057-8.897-2.011-7.892-7.662
	c0.75-4.207,3.75-6.415,8.798-5.812C217.312,66.164,224.033,78.841,211.05,78.997z"/>
<path fill="none" stroke="#E04A45" stroke-width="2" stroke-miterlimit="10" d="M0,111.56c4.118,1.052,6.978,4.128,10.413,6.326
	c5.298,3.393,11.357,6.546,17.068,9.318c5.652,2.744,11.523,4.979,17.278,7.488c4.724,2.062,9.818,5.859,14.859,6.916
	c8.002,1.68,15.896-7.333,21.386-12.316c7.189-6.529,13.307-12.633,18.702-20.629c6.157-9.119,15.858-15.77,23.537-23.564
	c7.362-7.473,15.082-23.95,27.583-16.542c11.447,6.784,19.443,20.437,29.775,28.919c13.112,10.768,14.881,14.643,25.992,27.254
	c4.809,5.456,40.715-10.382,46.344-10.041"/>
<path fill="#E04A45" d="M54.239,140.808c-0.877,4.936,2.961,6.741,6.892,6.691c11.342-0.137,5.471-11.209,0.793-11.77
	C57.515,135.204,54.896,137.134,54.239,140.808"/>
<path fill="none" stroke="#E04A45" stroke-width="2" stroke-miterlimit="10" d="M54.239,140.808
	c-0.877,4.936,2.961,6.741,6.892,6.691c11.342-0.137,5.471-11.209,0.793-11.77C57.515,135.204,54.896,137.134,54.239,140.808z"/>
<path fill="#E04A45" d="M137.6,65.089c-1.282,4.249,1.907,6.233,5.368,6.594c9.984,1.048,5.965-9.294,1.908-10.266
	C141.054,60.502,138.552,61.927,137.6,65.089"/>
<path fill="none" stroke="#E04A45" stroke-width="2" stroke-miterlimit="10" d="M137.6,65.089c-1.282,4.249,1.907,6.233,5.368,6.594
	c9.984,1.048,5.965-9.294,1.908-10.266C141.054,60.502,138.552,61.927,137.6,65.089z"/>
<path fill="#E04A45" d="M205.124,123.41c-0.584,3.276,1.965,4.476,4.575,4.442c7.53-0.09,3.632-7.442,0.524-7.814
	C207.3,119.688,205.558,120.971,205.124,123.41"/>
<path fill="none" stroke="#E04A45" stroke-width="2" stroke-miterlimit="10" d="M205.124,123.41
	c-0.584,3.276,1.965,4.476,4.575,4.442c7.53-0.09,3.632-7.442,0.524-7.814C207.3,119.688,205.558,120.971,205.124,123.41z"/>
</svg>
