<?xml version="1.0" encoding="utf-8"?>
<!-- Generator: Adobe Illustrator 16.0.0, SVG Export Plug-In . SVG Version: 6.00 Build 0)  -->
<!DOCTYPE svg PUBLIC "-//W3C//DTD SVG 1.1//EN" "http://www.w3.org/Graphics/SVG/1.1/DTD/svg11.dtd">
<svg version="1.1" id="Layer_1" xmlns="http://www.w3.org/2000/svg" xmlns:xlink="http://www.w3.org/1999/xlink" x="0px" y="0px"
	 width="252.938px" height="149px" viewBox="0 0 252.938 149" enable-background="new 0 0 252.938 149" xml:space="preserve">
<path fill="none" stroke="#DF4944" stroke-width="2" stroke-miterlimit="10" d="M83.747,78.473
	c-2.346-6.789-7.057-16.215-14.403-18.42c-7.292-2.188-16.403,2.218-21.429,7.336c-7.502,7.63-8.309,24.91-5.067,34.397
	c2.76,8.092,17.819,23.81,18.377,24.356c0.806-2.068,4.312-6.443,5.651-8.389c2.271-3.285,5.293-5.842,7.898-8.806
	C82.553,100.104,87.812,90.257,83.747,78.473z M63.441,89.081c-5.68,0.067-11.229-2.541-9.96-9.675
	c0.946-5.308,4.734-8.097,11.106-7.336C71.348,72.877,79.833,88.884,63.441,89.081z"/>
<path fill="none" stroke="#DF4944" stroke-width="2" stroke-miterlimit="10" d="M158.105,16.119
	c-1.681-4.867-5.058-11.625-10.327-13.206c-5.225-1.569-11.76,1.592-15.361,5.26c-5.377,5.47-5.955,17.859-3.632,24.66
	c1.978,5.803,12.773,17.071,13.175,17.462c0.578-1.483,3.09-4.619,4.053-6.012c1.629-2.355,3.795-4.188,5.664-6.312
	C157.249,31.627,161.02,24.569,158.105,16.119z M143.548,23.725c-4.071,0.05-8.051-1.821-7.141-6.936
	c0.678-3.805,3.393-5.805,7.961-5.26C149.216,12.109,155.3,23.583,143.548,23.725z"/>
<path fill="none" stroke="#DF4944" stroke-width="2" stroke-miterlimit="10" d="M227.132,70.594
	c-1.857-5.377-5.588-12.843-11.409-14.591c-5.772-1.734-12.991,1.759-16.974,5.813c-5.942,6.044-6.58,19.73-4.017,27.247
	c2.188,6.412,14.117,18.86,14.562,19.295c0.637-1.64,3.412-5.104,4.477-6.644c1.799-2.604,4.191-4.629,6.257-6.978
	C226.188,87.73,230.354,79.93,227.132,70.594z M211.05,78.997c-4.5,0.058-8.897-2.011-7.892-7.662
	c0.75-4.207,3.75-6.415,8.798-5.812C217.312,66.164,224.033,78.841,211.05,78.997z"/>
<path fill="none" stroke="#DF4944" stroke-width="2" stroke-miterlimit="10" d="M0,111.561c4.118,1.051,6.978,4.127,10.413,6.325
	c5.298,3.394,11.355,6.546,17.066,9.318c5.652,2.744,11.523,4.979,17.278,7.487c4.724,2.062,9.818,5.858,14.859,6.916
	c8.002,1.681,15.896-7.332,21.386-12.315c7.188-6.528,13.307-12.633,18.702-20.629c6.155-9.119,15.856-15.771,23.537-23.563
	c7.36-7.474,15.082-23.951,27.583-16.542c11.445,6.784,19.441,20.437,29.773,28.918c13.112,10.769,14.881,14.644,25.992,27.254
	c4.809,5.455,40.715-10.383,46.344-10.041"/>
<path fill="#DF4944" d="M54.239,140.809c-0.877,4.937,2.963,6.74,6.894,6.69c11.342-0.138,5.471-11.209,0.793-11.771
	C57.515,135.204,54.896,137.134,54.239,140.809"/>
<path fill="none" stroke="#DF4944" stroke-width="2" stroke-miterlimit="10" d="M54.239,140.809c-0.877,4.937,2.963,6.74,6.894,6.69
	c11.342-0.138,5.471-11.209,0.793-11.771C57.515,135.204,54.896,137.134,54.239,140.809z"/>
<path fill="#DF4944" d="M137.6,65.089c-1.282,4.249,1.907,6.233,5.368,6.594c9.984,1.048,5.965-9.294,1.908-10.266
	C141.054,60.502,138.552,61.927,137.6,65.089"/>
<path fill="none" stroke="#DF4944" stroke-width="2" stroke-miterlimit="10" d="M137.6,65.089c-1.282,4.249,1.907,6.233,5.368,6.594
	c9.984,1.048,5.965-9.294,1.908-10.266C141.054,60.502,138.552,61.927,137.6,65.089z"/>
<path fill="#DF4944" d="M205.124,123.41c-0.584,3.275,1.965,4.476,4.575,4.441c7.528-0.091,3.632-7.441,0.522-7.813
	C207.3,119.688,205.558,120.971,205.124,123.41"/>
<path fill="none" stroke="#DF4944" stroke-width="2" stroke-miterlimit="10" d="M205.124,123.41
	c-0.584,3.275,1.965,4.476,4.575,4.441c7.528-0.091,3.632-7.441,0.522-7.813C207.3,119.688,205.558,120.971,205.124,123.41z"/>
</svg>
