<?xml version="1.0" encoding="utf-8"?>
<!-- Generator: Adobe Illustrator 16.0.0, SVG Export Plug-In . SVG Version: 6.00 Build 0)  -->
<!DOCTYPE svg PUBLIC "-//W3C//DTD SVG 1.1//EN" "http://www.w3.org/Graphics/SVG/1.1/DTD/svg11.dtd">
<svg version="1.1" id="Layer_1" xmlns="http://www.w3.org/2000/svg" xmlns:xlink="http://www.w3.org/1999/xlink" x="0px" y="0px"
	 width="29.167px" height="29.166px" viewBox="0 0 29.167 29.166" enable-background="new 0 0 29.167 29.166" xml:space="preserve">
<g>
	<path fill="#DF4944" d="M23.839,13.541H5.329C2.384,13.541,0,16.037,0,19.117v4.478c0,3.075,2.385,5.571,5.329,5.571h18.511
		c2.942,0,5.327-2.496,5.327-5.571v-4.478C29.167,16.037,26.782,13.541,23.839,13.541 M9.218,17.028H7.497v8.943H5.833v-8.943H4.115
		v-1.521h5.104V17.028z M14.079,25.972h-1.476v-0.847c-0.273,0.312-0.555,0.553-0.85,0.713c-0.295,0.168-0.58,0.246-0.859,0.246
		c-0.342,0-0.596-0.112-0.77-0.345c-0.171-0.23-0.26-0.571-0.26-1.034V18.25h1.477v5.925c0,0.182,0.031,0.312,0.09,0.395
		c0.064,0.083,0.166,0.123,0.304,0.123c0.106,0,0.245-0.054,0.413-0.163c0.165-0.109,0.318-0.246,0.455-0.415V18.25h1.476V25.972z
		 M19.433,24.377c0,0.545-0.115,0.965-0.348,1.257c-0.229,0.292-0.565,0.437-1.002,0.437c-0.291,0-0.547-0.055-0.772-0.169
		c-0.224-0.11-0.438-0.284-0.632-0.522v0.593H15.19V15.508h1.489v3.369c0.201-0.233,0.412-0.414,0.633-0.535
		c0.226-0.125,0.451-0.186,0.682-0.186c0.467,0,0.824,0.163,1.069,0.493c0.247,0.33,0.37,0.81,0.37,1.444V24.377z M24.548,22.297
		h-2.822v1.455c0,0.406,0.049,0.688,0.146,0.846c0.097,0.159,0.265,0.234,0.501,0.234c0.245,0,0.414-0.065,0.514-0.199
		c0.095-0.135,0.146-0.428,0.146-0.881v-0.353h1.517v0.397c0,0.791-0.182,1.386-0.556,1.789c-0.366,0.397-0.919,0.597-1.653,0.597
		c-0.664,0-1.186-0.211-1.563-0.636c-0.378-0.422-0.57-1.008-0.57-1.75v-3.469c0-0.668,0.209-1.216,0.63-1.637
		c0.416-0.421,0.95-0.632,1.613-0.632c0.676,0,1.193,0.194,1.557,0.586s0.543,0.951,0.543,1.683V22.297z"/>
	<path fill="#DF4944" d="M22.384,19.41c-0.234,0-0.403,0.07-0.504,0.213c-0.104,0.137-0.153,0.369-0.153,0.693v0.779h1.304v-0.779
		c0-0.324-0.053-0.557-0.154-0.693C22.777,19.48,22.61,19.41,22.384,19.41"/>
	<path fill="#DF4944" d="M17.296,19.385c-0.104,0-0.211,0.023-0.312,0.072c-0.104,0.051-0.203,0.131-0.304,0.237v4.81
		c0.119,0.125,0.235,0.221,0.349,0.276c0.114,0.051,0.232,0.081,0.357,0.081c0.181,0,0.312-0.054,0.398-0.165
		c0.084-0.108,0.127-0.284,0.127-0.532v-3.986c0-0.262-0.051-0.457-0.153-0.592C17.65,19.452,17.496,19.385,17.296,19.385"/>
	<polygon fill="#DF4944" points="5.526,0 7.751,6.807 7.751,11.27 9.623,11.27 9.623,6.596 11.8,0 9.897,0 8.741,4.506 8.623,4.506 
		7.408,0 	"/>
	<path fill="#DF4944" d="M12.603,3.318C12.16,3.7,11.935,4.211,11.935,4.857v4.31c0,0.706,0.218,1.267,0.65,1.686
		c0.439,0.417,1.021,0.629,1.748,0.629c0.754,0,1.346-0.204,1.778-0.608c0.427-0.408,0.644-0.963,0.644-1.673V4.906
		c0-0.633-0.219-1.155-0.656-1.557c-0.441-0.4-1.003-0.603-1.692-0.603C13.653,2.747,13.05,2.938,12.603,3.318 M15.064,4.793v4.531
		c0,0.221-0.068,0.398-0.199,0.525c-0.133,0.127-0.314,0.19-0.537,0.19c-0.221,0-0.39-0.06-0.508-0.188
		c-0.117-0.126-0.176-0.302-0.176-0.528V4.793c0-0.181,0.064-0.326,0.188-0.44c0.129-0.11,0.293-0.165,0.496-0.165
		c0.219,0,0.396,0.055,0.531,0.165C14.996,4.467,15.064,4.612,15.064,4.793"/>
	<path fill="#DF4944" d="M22.843,11.27V2.957h-1.66v6.312c-0.154,0.18-0.326,0.328-0.512,0.446
		c-0.189,0.117-0.344,0.175-0.465,0.175c-0.156,0-0.27-0.043-0.338-0.134C19.8,9.668,19.761,9.526,19.761,9.33V2.957h-1.658v6.947
		c0,0.497,0.098,0.866,0.291,1.113c0.196,0.248,0.482,0.374,0.869,0.374c0.312,0,0.631-0.091,0.963-0.267
		c0.334-0.178,0.652-0.436,0.957-0.775v0.92H22.843z"/>
</g>
</svg>
